<svg width="24" height="24" viewBox="0 0 24 24" fill="none" xmlns="http://www.w3.org/2000/svg">
<path d="M4.77515 2H18.9645V22H16.8817V12.8387H16.8612C16.631 10.3067 14.4842 8.32257 11.8698 8.32257C9.25546 8.32257 7.10862 10.3067 6.8784 12.8387H6.85799V22H4.77515V2Z" fill="black"/>
<path d="M1 4.83869L1.84616 7.67741H2.56212V19.1613C2.20265 19.1613 1.91124 19.4501 1.91124 19.8065V20.5807H1.78107C1.4216 20.5807 1.13016 20.8695 1.13016 21.2258V22H8.42011V21.2258C8.42011 20.8695 8.1287 20.5807 7.76923 20.5807H7.63906V19.8065C7.63906 19.4501 7.34763 19.1613 6.98815 19.1613H6.20711V4.83869H1Z" fill="black"/>
<path d="M17.0118 19.1613C16.6523 19.1613 16.3609 19.4501 16.3609 19.8065V20.5807H16.2308C15.8713 20.5807 15.5799 20.8695 15.5799 21.2258V22H22.8698V21.2258C22.8698 20.8695 22.5784 20.5807 22.2189 20.5807H22.0888V19.8065C22.0888 19.4501 21.7974 19.1613 21.4379 19.1613V7.67741H22.1538L23 4.83869H17.7929V19.1613H17.0118Z" fill="black"/>
</svg>
