<svg width="329" height="201" viewBox="0 0 329 201" fill="none" xmlns="http://www.w3.org/2000/svg">
<circle cx="26.3945" cy="5.73804" r="0.5" fill="#E72113" fill-opacity="0.48"/>
<circle cx="35.0264" cy="5.73804" r="0.5" fill="#E72113" fill-opacity="0.48"/>
<circle cx="39.3423" cy="5.73804" r="0.5" fill="#E72113" fill-opacity="0.48"/>
<circle cx="65.2368" cy="5.73804" r="0.5" fill="#E72113" fill-opacity="0.48"/>
<circle cx="73.8682" cy="5.73804" r="0.5" fill="#E72113" fill-opacity="0.48"/>
<circle cx="112.71" cy="5.73804" r="0.5" fill="#E72113" fill-opacity="0.48"/>
<circle cx="117.026" cy="5.73804" r="0.5" fill="#E72113" fill-opacity="0.48"/>
<circle cx="134.29" cy="5.73804" r="0.5" fill="#E72113" fill-opacity="0.48"/>
<circle cx="160.184" cy="5.73804" r="0.5" fill="#E72113" fill-opacity="0.48"/>
<circle cx="177.447" cy="5.73804" r="0.5" fill="#E72113" fill-opacity="0.48"/>
<circle cx="190.395" cy="5.73804" r="0.5" fill="#E72113" fill-opacity="0.48"/>
<circle cx="220.605" cy="5.73804" r="0.5" fill="#E72113" fill-opacity="0.48"/>
<circle cx="289.658" cy="5.73804" r="0.5" fill="#E72113" fill-opacity="0.48"/>
<circle cx="60.9209" cy="10.4761" r="0.5" fill="#E72113" fill-opacity="0.48"/>
<circle cx="86.8159" cy="10.4761" r="0.5" fill="#E72113" fill-opacity="0.48"/>
<circle cx="147.237" cy="10.4761" r="0.5" fill="#E72113" fill-opacity="0.48"/>
<circle cx="190.395" cy="10.4761" r="0.5" fill="#E72113" fill-opacity="0.48"/>
<circle cx="216.29" cy="10.4761" r="0.5" fill="#E72113" fill-opacity="0.48"/>
<circle cx="255.132" cy="10.4761" r="0.5" fill="#E72113" fill-opacity="0.48"/>
<circle cx="285.342" cy="10.4761" r="0.5" fill="#E72113" fill-opacity="0.48"/>
<circle cx="311.237" cy="10.4761" r="0.5" fill="#E72113" fill-opacity="0.48"/>
<circle cx="9.13135" cy="15.2144" r="0.5" fill="#E72113" fill-opacity="0.48"/>
<circle cx="22.0791" cy="15.2144" r="0.5" fill="#E72113" fill-opacity="0.48"/>
<circle cx="30.7104" cy="15.2144" r="0.5" fill="#E72113" fill-opacity="0.48"/>
<circle cx="52.2896" cy="15.2144" r="0.5" fill="#E72113" fill-opacity="0.48"/>
<circle cx="73.8682" cy="15.2144" r="0.5" fill="#E72113" fill-opacity="0.48"/>
<circle cx="104.079" cy="15.2144" r="0.5" fill="#E72113" fill-opacity="0.48"/>
<circle cx="134.29" cy="15.2144" r="0.5" fill="#E72113" fill-opacity="0.48"/>
<circle cx="142.921" cy="15.2144" r="0.5" fill="#E72113" fill-opacity="0.48"/>
<circle cx="160.184" cy="15.2144" r="0.5" fill="#E72113" fill-opacity="0.48"/>
<circle cx="181.763" cy="15.2144" r="0.5" fill="#E72113" fill-opacity="0.48"/>
<circle cx="194.71" cy="15.2144" r="0.5" fill="#E72113" fill-opacity="0.48"/>
<circle cx="207.658" cy="15.2144" r="0.5" fill="#E72113" fill-opacity="0.48"/>
<circle cx="211.974" cy="15.2144" r="0.5" fill="#E72113" fill-opacity="0.48"/>
<circle cx="259.448" cy="15.2144" r="0.5" fill="#E72113" fill-opacity="0.48"/>
<circle cx="311.237" cy="15.2144" r="0.5" fill="#E72113" fill-opacity="0.48"/>
<circle cx="319.869" cy="15.2144" r="0.5" fill="#E72113" fill-opacity="0.48"/>
<circle cx="47.9736" cy="19.9524" r="0.5" fill="#E72113" fill-opacity="0.48"/>
<circle cx="69.5527" cy="19.9524" r="0.5" fill="#E72113" fill-opacity="0.48"/>
<circle cx="104.079" cy="19.9524" r="0.5" fill="#E72113" fill-opacity="0.48"/>
<circle cx="117.026" cy="19.9524" r="0.5" fill="#E72113" fill-opacity="0.48"/>
<circle cx="147.237" cy="19.9524" r="0.5" fill="#E72113" fill-opacity="0.48"/>
<circle cx="164.5" cy="19.9524" r="0.5" fill="#E72113" fill-opacity="0.48"/>
<circle cx="194.71" cy="19.9524" r="0.5" fill="#E72113" fill-opacity="0.48"/>
<circle cx="207.658" cy="19.9524" r="0.5" fill="#E72113" fill-opacity="0.48"/>
<circle cx="220.605" cy="19.9524" r="0.5" fill="#E72113" fill-opacity="0.48"/>
<circle cx="229.237" cy="19.9524" r="0.5" fill="#E72113" fill-opacity="0.48"/>
<circle cx="285.342" cy="19.9524" r="0.5" fill="#E72113" fill-opacity="0.48"/>
<circle cx="311.237" cy="19.9524" r="0.5" fill="#E72113" fill-opacity="0.48"/>
<circle cx="315.553" cy="19.9524" r="0.5" fill="#E72113" fill-opacity="0.48"/>
<circle cx="35.0264" cy="24.6904" r="0.5" fill="#E72113" fill-opacity="0.48"/>
<circle cx="43.6577" cy="24.6904" r="0.5" fill="#E72113" fill-opacity="0.48"/>
<circle cx="82.5" cy="24.6904" r="0.5" fill="#E72113" fill-opacity="0.48"/>
<circle cx="117.026" cy="24.6904" r="0.5" fill="#E72113" fill-opacity="0.48"/>
<circle cx="134.29" cy="24.6904" r="0.5" fill="#E72113" fill-opacity="0.48"/>
<circle cx="173.132" cy="24.6904" r="0.5" fill="#E72113" fill-opacity="0.48"/>
<circle cx="199.026" cy="24.6904" r="0.5" fill="#E72113" fill-opacity="0.48"/>
<circle cx="229.237" cy="24.6904" r="0.5" fill="#E72113" fill-opacity="0.48"/>
<circle cx="263.763" cy="24.6904" r="0.5" fill="#E72113" fill-opacity="0.48"/>
<circle cx="311.237" cy="24.6904" r="0.5" fill="#E72113" fill-opacity="0.48"/>
<circle cx="9.13135" cy="29.4285" r="0.5" fill="#E72113" fill-opacity="0.48"/>
<circle cx="22.0791" cy="29.4285" r="0.5" fill="#E72113" fill-opacity="0.48"/>
<circle cx="30.7104" cy="29.4285" r="0.5" fill="#E72113" fill-opacity="0.48"/>
<circle cx="52.2896" cy="29.4285" r="0.5" fill="#E72113" fill-opacity="0.48"/>
<circle cx="73.8682" cy="29.4285" r="0.5" fill="#E72113" fill-opacity="0.48"/>
<circle cx="104.079" cy="29.4285" r="0.5" fill="#E72113" fill-opacity="0.48"/>
<circle cx="134.29" cy="29.4285" r="0.5" fill="#E72113" fill-opacity="0.48"/>
<circle cx="142.921" cy="29.4285" r="0.5" fill="#E72113" fill-opacity="0.48"/>
<circle cx="160.184" cy="29.4285" r="0.5" fill="#E72113" fill-opacity="0.48"/>
<circle cx="181.763" cy="29.4285" r="0.5" fill="#E72113" fill-opacity="0.48"/>
<circle cx="194.71" cy="29.4285" r="0.5" fill="#E72113" fill-opacity="0.48"/>
<circle cx="207.658" cy="29.4285" r="0.5" fill="#E72113" fill-opacity="0.48"/>
<circle cx="211.974" cy="29.4285" r="0.5" fill="#E72113" fill-opacity="0.48"/>
<circle cx="259.448" cy="29.4285" r="0.5" fill="#E72113" fill-opacity="0.48"/>
<circle cx="311.237" cy="29.4285" r="0.5" fill="#E72113" fill-opacity="0.48"/>
<circle cx="319.869" cy="29.4285" r="0.5" fill="#E72113" fill-opacity="0.48"/>
<circle cx="17.7632" cy="34.1667" r="0.5" fill="#E72113" fill-opacity="0.48"/>
<circle cx="22.0791" cy="34.1667" r="0.5" fill="#E72113" fill-opacity="0.48"/>
<circle cx="35.0264" cy="34.1667" r="0.5" fill="#E72113" fill-opacity="0.48"/>
<circle cx="56.6055" cy="34.1667" r="0.5" fill="#E72113" fill-opacity="0.48"/>
<circle cx="95.4473" cy="34.1667" r="0.5" fill="#E72113" fill-opacity="0.48"/>
<circle cx="99.7632" cy="34.1667" r="0.5" fill="#E72113" fill-opacity="0.48"/>
<circle cx="160.184" cy="34.1667" r="0.5" fill="#E72113" fill-opacity="0.48"/>
<circle cx="173.132" cy="34.1667" r="0.5" fill="#E72113" fill-opacity="0.48"/>
<circle cx="186.079" cy="34.1667" r="0.5" fill="#E72113" fill-opacity="0.48"/>
<circle cx="203.342" cy="34.1667" r="0.5" fill="#E72113" fill-opacity="0.48"/>
<circle cx="207.658" cy="34.1667" r="0.5" fill="#E72113" fill-opacity="0.48"/>
<circle cx="220.605" cy="34.1667" r="0.5" fill="#E72113" fill-opacity="0.48"/>
<circle cx="259.448" cy="34.1667" r="0.5" fill="#E72113" fill-opacity="0.48"/>
<circle cx="276.711" cy="34.1667" r="0.5" fill="#E72113" fill-opacity="0.48"/>
<circle cx="289.658" cy="34.1667" r="0.5" fill="#E72113" fill-opacity="0.48"/>
<circle cx="306.921" cy="34.1667" r="0.5" fill="#E72113" fill-opacity="0.48"/>
<circle cx="315.553" cy="34.1667" r="0.5" fill="#E72113" fill-opacity="0.48"/>
<circle cx="17.7632" cy="38.9048" r="0.5" fill="#E72113" fill-opacity="0.48"/>
<circle cx="22.0791" cy="38.9048" r="0.5" fill="#E72113" fill-opacity="0.48"/>
<circle cx="56.6055" cy="38.9048" r="0.5" fill="#E72113" fill-opacity="0.48"/>
<circle cx="125.658" cy="38.9048" r="0.5" fill="#E72113" fill-opacity="0.48"/>
<circle cx="129.974" cy="38.9048" r="0.5" fill="#E72113" fill-opacity="0.48"/>
<circle cx="134.29" cy="38.9048" r="0.5" fill="#E72113" fill-opacity="0.48"/>
<circle cx="177.447" cy="38.9048" r="0.5" fill="#E72113" fill-opacity="0.48"/>
<circle cx="199.026" cy="38.9048" r="0.5" fill="#E72113" fill-opacity="0.48"/>
<circle cx="220.605" cy="38.9048" r="0.5" fill="#E72113" fill-opacity="0.48"/>
<circle cx="233.553" cy="38.9048" r="0.5" fill="#E72113" fill-opacity="0.48"/>
<circle cx="272.395" cy="38.9048" r="0.5" fill="#E72113" fill-opacity="0.48"/>
<circle cx="315.553" cy="38.9048" r="0.5" fill="#E72113" fill-opacity="0.48"/>
<circle cx="9.13135" cy="43.6428" r="0.5" fill="#E72113" fill-opacity="0.48"/>
<circle cx="43.6577" cy="43.6428" r="0.5" fill="#E72113" fill-opacity="0.48"/>
<circle cx="47.9736" cy="43.6428" r="0.5" fill="#E72113" fill-opacity="0.48"/>
<circle cx="69.5527" cy="43.6428" r="0.5" fill="#E72113" fill-opacity="0.48"/>
<circle cx="86.8159" cy="43.6428" r="0.5" fill="#E72113" fill-opacity="0.48"/>
<circle cx="112.71" cy="43.6428" r="0.5" fill="#E72113" fill-opacity="0.48"/>
<circle cx="117.026" cy="43.6428" r="0.5" fill="#E72113" fill-opacity="0.48"/>
<circle cx="125.658" cy="43.6428" r="0.5" fill="#E72113" fill-opacity="0.48"/>
<circle cx="151.553" cy="43.6428" r="0.5" fill="#E72113" fill-opacity="0.48"/>
<circle cx="160.184" cy="43.6428" r="0.5" fill="#E72113" fill-opacity="0.48"/>
<circle cx="211.974" cy="43.6428" r="0.5" fill="#E72113" fill-opacity="0.48"/>
<circle cx="237.869" cy="43.6428" r="0.5" fill="#E72113" fill-opacity="0.48"/>
<circle cx="250.816" cy="43.6428" r="0.5" fill="#E72113" fill-opacity="0.48"/>
<circle cx="263.763" cy="43.6428" r="0.5" fill="#E72113" fill-opacity="0.48"/>
<circle cx="293.974" cy="43.6428" r="0.5" fill="#E72113" fill-opacity="0.48"/>
<circle cx="302.605" cy="43.6428" r="0.5" fill="#E72113" fill-opacity="0.48"/>
<circle cx="319.869" cy="43.6428" r="0.5" fill="#E72113" fill-opacity="0.48"/>
<circle cx="35.0264" cy="48.3809" r="0.5" fill="#E72113" fill-opacity="0.48"/>
<circle cx="91.1313" cy="48.3809" r="0.5" fill="#E72113" fill-opacity="0.48"/>
<circle cx="147.237" cy="48.3809" r="0.5" fill="#E72113" fill-opacity="0.48"/>
<circle cx="164.5" cy="48.3809" r="0.5" fill="#E72113" fill-opacity="0.48"/>
<circle cx="181.763" cy="48.3809" r="0.5" fill="#E72113" fill-opacity="0.48"/>
<circle cx="207.658" cy="48.3809" r="0.5" fill="#E72113" fill-opacity="0.48"/>
<circle cx="216.29" cy="48.3809" r="0.5" fill="#E72113" fill-opacity="0.48"/>
<circle cx="246.5" cy="48.3809" r="0.5" fill="#E72113" fill-opacity="0.48"/>
<circle cx="268.079" cy="48.3809" r="0.5" fill="#E72113" fill-opacity="0.48"/>
<circle cx="289.658" cy="48.3809" r="0.5" fill="#E72113" fill-opacity="0.48"/>
<circle cx="302.605" cy="48.3809" r="0.5" fill="#E72113" fill-opacity="0.48"/>
<circle cx="311.237" cy="48.3809" r="0.5" fill="#E72113" fill-opacity="0.48"/>
<circle cx="4.81592" cy="53.1191" r="0.5" fill="#E72113" fill-opacity="0.48"/>
<circle cx="17.7632" cy="53.1191" r="0.5" fill="#E72113" fill-opacity="0.48"/>
<circle cx="35.0264" cy="53.1191" r="0.5" fill="#E72113" fill-opacity="0.48"/>
<circle cx="69.5527" cy="53.1191" r="0.5" fill="#E72113" fill-opacity="0.48"/>
<circle cx="86.8159" cy="53.1191" r="0.5" fill="#E72113" fill-opacity="0.48"/>
<circle cx="104.079" cy="53.1191" r="0.5" fill="#E72113" fill-opacity="0.48"/>
<circle cx="160.184" cy="53.1191" r="0.5" fill="#E72113" fill-opacity="0.48"/>
<circle cx="190.395" cy="53.1191" r="0.5" fill="#E72113" fill-opacity="0.48"/>
<circle cx="194.71" cy="53.1191" r="0.5" fill="#E72113" fill-opacity="0.48"/>
<circle cx="203.342" cy="53.1191" r="0.5" fill="#E72113" fill-opacity="0.48"/>
<circle cx="211.974" cy="53.1191" r="0.5" fill="#E72113" fill-opacity="0.48"/>
<circle cx="224.921" cy="53.1191" r="0.5" fill="#E72113" fill-opacity="0.48"/>
<circle cx="242.185" cy="53.1191" r="0.5" fill="#E72113" fill-opacity="0.48"/>
<circle cx="272.395" cy="53.1191" r="0.5" fill="#E72113" fill-opacity="0.48"/>
<circle cx="285.342" cy="53.1191" r="0.5" fill="#E72113" fill-opacity="0.48"/>
<circle cx="302.605" cy="53.1191" r="0.5" fill="#E72113" fill-opacity="0.48"/>
<circle cx="319.869" cy="53.1191" r="0.5" fill="#E72113" fill-opacity="0.48"/>
<circle cx="17.7632" cy="57.8572" r="0.5" fill="#E72113" fill-opacity="0.48"/>
<circle cx="35.0264" cy="57.8572" r="0.5" fill="#E72113" fill-opacity="0.48"/>
<circle cx="56.6055" cy="57.8572" r="0.5" fill="#E72113" fill-opacity="0.48"/>
<circle cx="73.8682" cy="57.8572" r="0.5" fill="#E72113" fill-opacity="0.48"/>
<circle cx="125.658" cy="57.8572" r="0.5" fill="#E72113" fill-opacity="0.48"/>
<circle cx="134.29" cy="57.8572" r="0.5" fill="#E72113" fill-opacity="0.48"/>
<circle cx="160.184" cy="57.8572" r="0.5" fill="#E72113" fill-opacity="0.48"/>
<circle cx="173.132" cy="57.8572" r="0.5" fill="#E72113" fill-opacity="0.48"/>
<circle cx="194.71" cy="57.8572" r="0.5" fill="#E72113" fill-opacity="0.48"/>
<circle cx="203.342" cy="57.8572" r="0.5" fill="#E72113" fill-opacity="0.48"/>
<circle cx="216.29" cy="57.8572" r="0.5" fill="#E72113" fill-opacity="0.48"/>
<circle cx="224.921" cy="57.8572" r="0.5" fill="#E72113" fill-opacity="0.48"/>
<circle cx="268.079" cy="57.8572" r="0.5" fill="#E72113" fill-opacity="0.48"/>
<circle cx="306.921" cy="57.8572" r="0.5" fill="#E72113" fill-opacity="0.48"/>
<circle cx="319.869" cy="57.8572" r="0.5" fill="#E72113" fill-opacity="0.48"/>
<circle cx="4.81592" cy="62.5952" r="0.5" fill="#E72113" fill-opacity="0.48"/>
<circle cx="22.0791" cy="62.5952" r="0.5" fill="#E72113" fill-opacity="0.48"/>
<circle cx="129.974" cy="62.5952" r="0.5" fill="#E72113" fill-opacity="0.48"/>
<circle cx="142.921" cy="62.5952" r="0.5" fill="#E72113" fill-opacity="0.48"/>
<circle cx="173.132" cy="62.5952" r="0.5" fill="#E72113" fill-opacity="0.48"/>
<circle cx="207.658" cy="62.5952" r="0.5" fill="#E72113" fill-opacity="0.48"/>
<circle cx="220.605" cy="62.5952" r="0.5" fill="#E72113" fill-opacity="0.48"/>
<circle cx="246.5" cy="62.5952" r="0.5" fill="#E72113" fill-opacity="0.48"/>
<circle cx="263.763" cy="62.5952" r="0.5" fill="#E72113" fill-opacity="0.48"/>
<circle cx="289.658" cy="62.5952" r="0.5" fill="#E72113" fill-opacity="0.48"/>
<circle cx="306.921" cy="62.5952" r="0.5" fill="#E72113" fill-opacity="0.48"/>
<circle cx="319.869" cy="62.5952" r="0.5" fill="#E72113" fill-opacity="0.48"/>
<circle cx="43.6577" cy="67.3333" r="0.5" fill="#E72113" fill-opacity="0.48"/>
<circle cx="86.8159" cy="67.3333" r="0.5" fill="#E72113" fill-opacity="0.48"/>
<circle cx="91.1313" cy="67.3333" r="0.5" fill="#E72113" fill-opacity="0.48"/>
<circle cx="125.658" cy="67.3333" r="0.5" fill="#E72113" fill-opacity="0.48"/>
<circle cx="134.29" cy="67.3333" r="0.5" fill="#E72113" fill-opacity="0.48"/>
<circle cx="147.237" cy="67.3333" r="0.5" fill="#E72113" fill-opacity="0.48"/>
<circle cx="186.079" cy="67.3333" r="0.5" fill="#E72113" fill-opacity="0.48"/>
<circle cx="216.29" cy="67.3333" r="0.5" fill="#E72113" fill-opacity="0.48"/>
<circle cx="220.605" cy="67.3333" r="0.5" fill="#E72113" fill-opacity="0.48"/>
<circle cx="250.816" cy="67.3333" r="0.5" fill="#E72113" fill-opacity="0.48"/>
<circle cx="268.079" cy="67.3333" r="0.5" fill="#E72113" fill-opacity="0.48"/>
<circle cx="285.342" cy="67.3333" r="0.5" fill="#E72113" fill-opacity="0.48"/>
<circle cx="315.553" cy="67.3333" r="0.5" fill="#E72113" fill-opacity="0.48"/>
<circle cx="9.13135" cy="72.0715" r="0.5" fill="#E72113" fill-opacity="0.48"/>
<circle cx="22.0791" cy="72.0715" r="0.5" fill="#E72113" fill-opacity="0.48"/>
<circle cx="30.7104" cy="72.0715" r="0.5" fill="#E72113" fill-opacity="0.48"/>
<circle cx="52.2896" cy="72.0715" r="0.5" fill="#E72113" fill-opacity="0.48"/>
<circle cx="73.8682" cy="72.0715" r="0.5" fill="#E72113" fill-opacity="0.48"/>
<circle cx="104.079" cy="72.0715" r="0.5" fill="#E72113" fill-opacity="0.48"/>
<circle cx="134.29" cy="72.0715" r="0.5" fill="#E72113" fill-opacity="0.48"/>
<circle cx="142.921" cy="72.0715" r="0.5" fill="#E72113" fill-opacity="0.48"/>
<circle cx="160.184" cy="72.0715" r="0.5" fill="#E72113" fill-opacity="0.48"/>
<circle cx="181.763" cy="72.0715" r="0.5" fill="#E72113" fill-opacity="0.48"/>
<circle cx="194.71" cy="72.0715" r="0.5" fill="#E72113" fill-opacity="0.48"/>
<circle cx="207.658" cy="72.0715" r="0.5" fill="#E72113" fill-opacity="0.48"/>
<circle cx="211.974" cy="72.0715" r="0.5" fill="#E72113" fill-opacity="0.48"/>
<circle cx="259.448" cy="72.0715" r="0.5" fill="#E72113" fill-opacity="0.48"/>
<circle cx="311.237" cy="72.0715" r="0.5" fill="#E72113" fill-opacity="0.48"/>
<circle cx="319.869" cy="72.0715" r="0.5" fill="#E72113" fill-opacity="0.48"/>
<circle cx="9.13135" cy="76.8096" r="0.5" fill="#E72113" fill-opacity="0.48"/>
<circle cx="26.3945" cy="76.8096" r="0.5" fill="#E72113" fill-opacity="0.48"/>
<circle cx="43.6577" cy="76.8096" r="0.5" fill="#E72113" fill-opacity="0.48"/>
<circle cx="65.2368" cy="76.8096" r="0.5" fill="#E72113" fill-opacity="0.48"/>
<circle cx="73.8682" cy="76.8096" r="0.5" fill="#E72113" fill-opacity="0.48"/>
<circle cx="142.921" cy="76.8096" r="0.5" fill="#E72113" fill-opacity="0.48"/>
<circle cx="160.184" cy="76.8096" r="0.5" fill="#E72113" fill-opacity="0.48"/>
<circle cx="173.132" cy="76.8096" r="0.5" fill="#E72113" fill-opacity="0.48"/>
<circle cx="181.763" cy="76.8096" r="0.5" fill="#E72113" fill-opacity="0.48"/>
<circle cx="190.395" cy="76.8096" r="0.5" fill="#E72113" fill-opacity="0.48"/>
<circle cx="207.658" cy="76.8096" r="0.5" fill="#E72113" fill-opacity="0.48"/>
<circle cx="237.869" cy="76.8096" r="0.5" fill="#E72113" fill-opacity="0.48"/>
<circle cx="250.816" cy="76.8096" r="0.5" fill="#E72113" fill-opacity="0.48"/>
<circle cx="263.763" cy="76.8096" r="0.5" fill="#E72113" fill-opacity="0.48"/>
<circle cx="285.342" cy="76.8096" r="0.5" fill="#E72113" fill-opacity="0.48"/>
<circle cx="302.605" cy="76.8096" r="0.5" fill="#E72113" fill-opacity="0.48"/>
<circle cx="315.553" cy="76.8096" r="0.5" fill="#E72113" fill-opacity="0.48"/>
<circle cx="47.9736" cy="81.5476" r="0.5" fill="#E72113" fill-opacity="0.48"/>
<circle cx="69.5527" cy="81.5476" r="0.5" fill="#E72113" fill-opacity="0.48"/>
<circle cx="104.079" cy="81.5476" r="0.5" fill="#E72113" fill-opacity="0.48"/>
<circle cx="117.026" cy="81.5476" r="0.5" fill="#E72113" fill-opacity="0.48"/>
<circle cx="147.237" cy="81.5476" r="0.5" fill="#E72113" fill-opacity="0.48"/>
<circle cx="164.5" cy="81.5476" r="0.5" fill="#E72113" fill-opacity="0.48"/>
<circle cx="194.71" cy="81.5476" r="0.5" fill="#E72113" fill-opacity="0.48"/>
<circle cx="207.658" cy="81.5476" r="0.5" fill="#E72113" fill-opacity="0.48"/>
<circle cx="220.605" cy="81.5476" r="0.5" fill="#E72113" fill-opacity="0.48"/>
<circle cx="229.237" cy="81.5476" r="0.5" fill="#E72113" fill-opacity="0.48"/>
<circle cx="285.342" cy="81.5476" r="0.5" fill="#E72113" fill-opacity="0.48"/>
<circle cx="311.237" cy="81.5476" r="0.5" fill="#E72113" fill-opacity="0.48"/>
<circle cx="315.553" cy="81.5476" r="0.5" fill="#E72113" fill-opacity="0.48"/>
<circle cx="65.2368" cy="86.2856" r="0.5" fill="#E72113" fill-opacity="0.48"/>
<circle cx="78.1841" cy="86.2856" r="0.5" fill="#E72113" fill-opacity="0.48"/>
<circle cx="95.4473" cy="86.2856" r="0.5" fill="#E72113" fill-opacity="0.48"/>
<circle cx="117.026" cy="86.2856" r="0.5" fill="#E72113" fill-opacity="0.48"/>
<circle cx="138.605" cy="86.2856" r="0.5" fill="#E72113" fill-opacity="0.48"/>
<circle cx="164.5" cy="86.2856" r="0.5" fill="#E72113" fill-opacity="0.48"/>
<circle cx="173.132" cy="86.2856" r="0.5" fill="#E72113" fill-opacity="0.48"/>
<circle cx="186.079" cy="86.2856" r="0.5" fill="#E72113" fill-opacity="0.48"/>
<circle cx="211.974" cy="86.2856" r="0.5" fill="#E72113" fill-opacity="0.48"/>
<circle cx="224.921" cy="86.2856" r="0.5" fill="#E72113" fill-opacity="0.48"/>
<circle cx="229.237" cy="86.2856" r="0.5" fill="#E72113" fill-opacity="0.48"/>
<circle cx="237.869" cy="86.2856" r="0.5" fill="#E72113" fill-opacity="0.48"/>
<circle cx="268.079" cy="86.2856" r="0.5" fill="#E72113" fill-opacity="0.48"/>
<circle cx="289.658" cy="86.2856" r="0.5" fill="#E72113" fill-opacity="0.48"/>
<circle cx="302.605" cy="86.2856" r="0.5" fill="#E72113" fill-opacity="0.48"/>
<circle cx="311.237" cy="86.2856" r="0.5" fill="#E72113" fill-opacity="0.48"/>
<circle cx="315.553" cy="86.2856" r="0.5" fill="#E72113" fill-opacity="0.48"/>
<circle cx="35.0264" cy="91.0239" r="0.5" fill="#E72113" fill-opacity="0.48"/>
<circle cx="43.6577" cy="91.0239" r="0.5" fill="#E72113" fill-opacity="0.48"/>
<circle cx="82.5" cy="91.0239" r="0.5" fill="#E72113" fill-opacity="0.48"/>
<circle cx="117.026" cy="91.0239" r="0.5" fill="#E72113" fill-opacity="0.48"/>
<circle cx="134.29" cy="91.0239" r="0.5" fill="#E72113" fill-opacity="0.48"/>
<circle cx="173.132" cy="91.0239" r="0.5" fill="#E72113" fill-opacity="0.48"/>
<circle cx="199.026" cy="91.0239" r="0.5" fill="#E72113" fill-opacity="0.48"/>
<circle cx="229.237" cy="91.0239" r="0.5" fill="#E72113" fill-opacity="0.48"/>
<circle cx="263.763" cy="91.0239" r="0.5" fill="#E72113" fill-opacity="0.48"/>
<circle cx="311.237" cy="91.0239" r="0.5" fill="#E72113" fill-opacity="0.48"/>
<circle cx="13.4473" cy="95.762" r="0.5" fill="#E72113" fill-opacity="0.48"/>
<circle cx="26.3945" cy="95.762" r="0.5" fill="#E72113" fill-opacity="0.48"/>
<circle cx="47.9736" cy="95.762" r="0.5" fill="#E72113" fill-opacity="0.48"/>
<circle cx="52.2896" cy="95.762" r="0.5" fill="#E72113" fill-opacity="0.48"/>
<circle cx="95.4473" cy="95.762" r="0.5" fill="#E72113" fill-opacity="0.48"/>
<circle cx="117.026" cy="95.762" r="0.5" fill="#E72113" fill-opacity="0.48"/>
<circle cx="160.184" cy="95.762" r="0.5" fill="#E72113" fill-opacity="0.48"/>
<circle cx="194.71" cy="95.762" r="0.5" fill="#E72113" fill-opacity="0.48"/>
<circle cx="199.026" cy="95.762" r="0.5" fill="#E72113" fill-opacity="0.48"/>
<circle cx="220.605" cy="95.762" r="0.5" fill="#E72113" fill-opacity="0.48"/>
<circle cx="255.132" cy="95.762" r="0.5" fill="#E72113" fill-opacity="0.48"/>
<circle cx="272.395" cy="95.762" r="0.5" fill="#E72113" fill-opacity="0.48"/>
<circle cx="285.342" cy="95.762" r="0.5" fill="#E72113" fill-opacity="0.48"/>
<circle cx="298.29" cy="95.762" r="0.5" fill="#E72113" fill-opacity="0.48"/>
<circle cx="315.553" cy="95.762" r="0.5" fill="#E72113" fill-opacity="0.48"/>
<circle cx="324.185" cy="95.762" r="0.5" fill="#E72113" fill-opacity="0.48"/>
<circle cx="9.13135" cy="100.5" r="0.5" fill="#E72113" fill-opacity="0.48"/>
<circle cx="22.0791" cy="100.5" r="0.5" fill="#E72113" fill-opacity="0.48"/>
<circle cx="30.7104" cy="100.5" r="0.5" fill="#E72113" fill-opacity="0.48"/>
<circle cx="52.2896" cy="100.5" r="0.5" fill="#E72113" fill-opacity="0.48"/>
<circle cx="73.8682" cy="100.5" r="0.5" fill="#E72113" fill-opacity="0.48"/>
<circle cx="104.079" cy="100.5" r="0.5" fill="#E72113" fill-opacity="0.48"/>
<circle cx="134.29" cy="100.5" r="0.5" fill="#E72113" fill-opacity="0.48"/>
<circle cx="142.921" cy="100.5" r="0.5" fill="#E72113" fill-opacity="0.48"/>
<circle cx="160.184" cy="100.5" r="0.5" fill="#E72113" fill-opacity="0.48"/>
<circle cx="181.763" cy="100.5" r="0.5" fill="#E72113" fill-opacity="0.48"/>
<circle cx="194.71" cy="100.5" r="0.5" fill="#E72113" fill-opacity="0.48"/>
<circle cx="207.658" cy="100.5" r="0.5" fill="#E72113" fill-opacity="0.48"/>
<circle cx="211.974" cy="100.5" r="0.5" fill="#E72113" fill-opacity="0.48"/>
<circle cx="259.448" cy="100.5" r="0.5" fill="#E72113" fill-opacity="0.48"/>
<circle cx="311.237" cy="100.5" r="0.5" fill="#E72113" fill-opacity="0.48"/>
<circle cx="319.869" cy="100.5" r="0.5" fill="#E72113" fill-opacity="0.48"/>
<circle cx="22.0791" cy="105.238" r="0.5" fill="#E72113" fill-opacity="0.48"/>
<circle cx="69.5527" cy="105.238" r="0.5" fill="#E72113" fill-opacity="0.48"/>
<circle cx="138.605" cy="105.238" r="0.5" fill="#E72113" fill-opacity="0.48"/>
<circle cx="160.184" cy="105.238" r="0.5" fill="#E72113" fill-opacity="0.48"/>
<circle cx="216.29" cy="105.238" r="0.5" fill="#E72113" fill-opacity="0.48"/>
<circle cx="224.921" cy="105.238" r="0.5" fill="#E72113" fill-opacity="0.48"/>
<circle cx="250.816" cy="105.238" r="0.5" fill="#E72113" fill-opacity="0.48"/>
<circle cx="268.079" cy="105.238" r="0.5" fill="#E72113" fill-opacity="0.48"/>
<circle cx="285.342" cy="105.238" r="0.5" fill="#E72113" fill-opacity="0.48"/>
<circle cx="298.29" cy="105.238" r="0.5" fill="#E72113" fill-opacity="0.48"/>
<circle cx="306.921" cy="105.238" r="0.5" fill="#E72113" fill-opacity="0.48"/>
<circle cx="315.553" cy="105.238" r="0.5" fill="#E72113" fill-opacity="0.48"/>
<circle cx="17.7632" cy="109.976" r="0.5" fill="#E72113" fill-opacity="0.48"/>
<circle cx="22.0791" cy="109.976" r="0.5" fill="#E72113" fill-opacity="0.48"/>
<circle cx="35.0264" cy="109.976" r="0.5" fill="#E72113" fill-opacity="0.48"/>
<circle cx="56.6055" cy="109.976" r="0.5" fill="#E72113" fill-opacity="0.48"/>
<circle cx="95.4473" cy="109.976" r="0.5" fill="#E72113" fill-opacity="0.48"/>
<circle cx="99.7632" cy="109.976" r="0.5" fill="#E72113" fill-opacity="0.48"/>
<circle cx="160.184" cy="109.976" r="0.5" fill="#E72113" fill-opacity="0.48"/>
<circle cx="173.132" cy="109.976" r="0.5" fill="#E72113" fill-opacity="0.48"/>
<circle cx="186.079" cy="109.976" r="0.5" fill="#E72113" fill-opacity="0.48"/>
<circle cx="203.342" cy="109.976" r="0.5" fill="#E72113" fill-opacity="0.48"/>
<circle cx="207.658" cy="109.976" r="0.5" fill="#E72113" fill-opacity="0.48"/>
<circle cx="220.605" cy="109.976" r="0.5" fill="#E72113" fill-opacity="0.48"/>
<circle cx="259.448" cy="109.976" r="0.5" fill="#E72113" fill-opacity="0.48"/>
<circle cx="276.711" cy="109.976" r="0.5" fill="#E72113" fill-opacity="0.48"/>
<circle cx="289.658" cy="109.976" r="0.5" fill="#E72113" fill-opacity="0.48"/>
<circle cx="306.921" cy="109.976" r="0.5" fill="#E72113" fill-opacity="0.48"/>
<circle cx="315.553" cy="109.976" r="0.5" fill="#E72113" fill-opacity="0.48"/>
<circle cx="9.13135" cy="114.714" r="0.5" fill="#E72113" fill-opacity="0.48"/>
<circle cx="56.6055" cy="114.714" r="0.5" fill="#E72113" fill-opacity="0.48"/>
<circle cx="69.5527" cy="114.714" r="0.5" fill="#E72113" fill-opacity="0.48"/>
<circle cx="86.8159" cy="114.714" r="0.5" fill="#E72113" fill-opacity="0.48"/>
<circle cx="99.7632" cy="114.714" r="0.5" fill="#E72113" fill-opacity="0.48"/>
<circle cx="104.079" cy="114.714" r="0.5" fill="#E72113" fill-opacity="0.48"/>
<circle cx="125.658" cy="114.714" r="0.5" fill="#E72113" fill-opacity="0.48"/>
<circle cx="142.921" cy="114.714" r="0.5" fill="#E72113" fill-opacity="0.48"/>
<circle cx="160.184" cy="114.714" r="0.5" fill="#E72113" fill-opacity="0.48"/>
<circle cx="181.763" cy="114.714" r="0.5" fill="#E72113" fill-opacity="0.48"/>
<circle cx="186.079" cy="114.714" r="0.5" fill="#E72113" fill-opacity="0.48"/>
<circle cx="203.342" cy="114.714" r="0.5" fill="#E72113" fill-opacity="0.48"/>
<circle cx="255.132" cy="114.714" r="0.5" fill="#E72113" fill-opacity="0.48"/>
<circle cx="263.763" cy="114.714" r="0.5" fill="#E72113" fill-opacity="0.48"/>
<circle cx="281.026" cy="114.714" r="0.5" fill="#E72113" fill-opacity="0.48"/>
<circle cx="302.605" cy="114.714" r="0.5" fill="#E72113" fill-opacity="0.48"/>
<circle cx="311.237" cy="114.714" r="0.5" fill="#E72113" fill-opacity="0.48"/>
<circle cx="324.185" cy="114.714" r="0.5" fill="#E72113" fill-opacity="0.48"/>
<circle cx="17.7632" cy="119.452" r="0.5" fill="#E72113" fill-opacity="0.48"/>
<circle cx="22.0791" cy="119.452" r="0.5" fill="#E72113" fill-opacity="0.48"/>
<circle cx="56.6055" cy="119.452" r="0.5" fill="#E72113" fill-opacity="0.48"/>
<circle cx="125.658" cy="119.452" r="0.5" fill="#E72113" fill-opacity="0.48"/>
<circle cx="129.974" cy="119.452" r="0.5" fill="#E72113" fill-opacity="0.48"/>
<circle cx="134.29" cy="119.452" r="0.5" fill="#E72113" fill-opacity="0.48"/>
<circle cx="177.447" cy="119.452" r="0.5" fill="#E72113" fill-opacity="0.48"/>
<circle cx="199.026" cy="119.452" r="0.5" fill="#E72113" fill-opacity="0.48"/>
<circle cx="220.605" cy="119.452" r="0.5" fill="#E72113" fill-opacity="0.48"/>
<circle cx="233.553" cy="119.452" r="0.5" fill="#E72113" fill-opacity="0.48"/>
<circle cx="272.395" cy="119.452" r="0.5" fill="#E72113" fill-opacity="0.48"/>
<circle cx="315.553" cy="119.452" r="0.5" fill="#E72113" fill-opacity="0.48"/>
<circle cx="4.81592" cy="124.19" r="0.5" fill="#E72113" fill-opacity="0.48"/>
<circle cx="35.0264" cy="124.19" r="0.5" fill="#E72113" fill-opacity="0.48"/>
<circle cx="39.3423" cy="124.19" r="0.5" fill="#E72113" fill-opacity="0.48"/>
<circle cx="56.6055" cy="124.19" r="0.5" fill="#E72113" fill-opacity="0.48"/>
<circle cx="86.8159" cy="124.19" r="0.5" fill="#E72113" fill-opacity="0.48"/>
<circle cx="121.342" cy="124.19" r="0.5" fill="#E72113" fill-opacity="0.48"/>
<circle cx="147.237" cy="124.19" r="0.5" fill="#E72113" fill-opacity="0.48"/>
<circle cx="194.71" cy="124.19" r="0.5" fill="#E72113" fill-opacity="0.48"/>
<circle cx="203.342" cy="124.19" r="0.5" fill="#E72113" fill-opacity="0.48"/>
<circle cx="211.974" cy="124.19" r="0.5" fill="#E72113" fill-opacity="0.48"/>
<circle cx="259.448" cy="124.19" r="0.5" fill="#E72113" fill-opacity="0.48"/>
<circle cx="285.342" cy="124.19" r="0.5" fill="#E72113" fill-opacity="0.48"/>
<circle cx="306.921" cy="124.19" r="0.5" fill="#E72113" fill-opacity="0.48"/>
<circle cx="9.13135" cy="128.929" r="0.5" fill="#E72113" fill-opacity="0.48"/>
<circle cx="43.6577" cy="128.929" r="0.5" fill="#E72113" fill-opacity="0.48"/>
<circle cx="47.9736" cy="128.929" r="0.5" fill="#E72113" fill-opacity="0.48"/>
<circle cx="69.5527" cy="128.929" r="0.5" fill="#E72113" fill-opacity="0.48"/>
<circle cx="86.8159" cy="128.929" r="0.5" fill="#E72113" fill-opacity="0.48"/>
<circle cx="112.71" cy="128.929" r="0.5" fill="#E72113" fill-opacity="0.48"/>
<circle cx="117.026" cy="128.929" r="0.5" fill="#E72113" fill-opacity="0.48"/>
<circle cx="125.658" cy="128.929" r="0.5" fill="#E72113" fill-opacity="0.48"/>
<circle cx="151.553" cy="128.929" r="0.5" fill="#E72113" fill-opacity="0.48"/>
<circle cx="160.184" cy="128.929" r="0.5" fill="#E72113" fill-opacity="0.48"/>
<circle cx="211.974" cy="128.929" r="0.5" fill="#E72113" fill-opacity="0.48"/>
<circle cx="237.869" cy="128.929" r="0.5" fill="#E72113" fill-opacity="0.48"/>
<circle cx="250.816" cy="128.929" r="0.5" fill="#E72113" fill-opacity="0.48"/>
<circle cx="263.763" cy="128.929" r="0.5" fill="#E72113" fill-opacity="0.48"/>
<circle cx="293.974" cy="128.929" r="0.5" fill="#E72113" fill-opacity="0.48"/>
<circle cx="302.605" cy="128.929" r="0.5" fill="#E72113" fill-opacity="0.48"/>
<circle cx="319.869" cy="128.929" r="0.5" fill="#E72113" fill-opacity="0.48"/>
<circle cx="35.0264" cy="133.667" r="0.5" fill="#E72113" fill-opacity="0.48"/>
<circle cx="91.1313" cy="133.667" r="0.5" fill="#E72113" fill-opacity="0.48"/>
<circle cx="147.237" cy="133.667" r="0.5" fill="#E72113" fill-opacity="0.48"/>
<circle cx="164.5" cy="133.667" r="0.5" fill="#E72113" fill-opacity="0.48"/>
<circle cx="181.763" cy="133.667" r="0.5" fill="#E72113" fill-opacity="0.48"/>
<circle cx="207.658" cy="133.667" r="0.5" fill="#E72113" fill-opacity="0.48"/>
<circle cx="216.29" cy="133.667" r="0.5" fill="#E72113" fill-opacity="0.48"/>
<circle cx="246.5" cy="133.667" r="0.5" fill="#E72113" fill-opacity="0.48"/>
<circle cx="268.079" cy="133.667" r="0.5" fill="#E72113" fill-opacity="0.48"/>
<circle cx="289.658" cy="133.667" r="0.5" fill="#E72113" fill-opacity="0.48"/>
<circle cx="302.605" cy="133.667" r="0.5" fill="#E72113" fill-opacity="0.48"/>
<circle cx="311.237" cy="133.667" r="0.5" fill="#E72113" fill-opacity="0.48"/>
<circle cx="4.81592" cy="138.405" r="0.5" fill="#E72113" fill-opacity="0.48"/>
<circle cx="17.7632" cy="138.405" r="0.5" fill="#E72113" fill-opacity="0.48"/>
<circle cx="35.0264" cy="138.405" r="0.5" fill="#E72113" fill-opacity="0.48"/>
<circle cx="69.5527" cy="138.405" r="0.5" fill="#E72113" fill-opacity="0.48"/>
<circle cx="86.8159" cy="138.405" r="0.5" fill="#E72113" fill-opacity="0.48"/>
<circle cx="104.079" cy="138.405" r="0.5" fill="#E72113" fill-opacity="0.48"/>
<circle cx="160.184" cy="138.405" r="0.5" fill="#E72113" fill-opacity="0.48"/>
<circle cx="190.395" cy="138.405" r="0.5" fill="#E72113" fill-opacity="0.48"/>
<circle cx="194.71" cy="138.405" r="0.5" fill="#E72113" fill-opacity="0.48"/>
<circle cx="203.342" cy="138.405" r="0.5" fill="#E72113" fill-opacity="0.48"/>
<circle cx="211.974" cy="138.405" r="0.5" fill="#E72113" fill-opacity="0.48"/>
<circle cx="224.921" cy="138.405" r="0.5" fill="#E72113" fill-opacity="0.48"/>
<circle cx="242.185" cy="138.405" r="0.5" fill="#E72113" fill-opacity="0.48"/>
<circle cx="272.395" cy="138.405" r="0.5" fill="#E72113" fill-opacity="0.48"/>
<circle cx="285.342" cy="138.405" r="0.5" fill="#E72113" fill-opacity="0.48"/>
<circle cx="302.605" cy="138.405" r="0.5" fill="#E72113" fill-opacity="0.48"/>
<circle cx="319.869" cy="138.405" r="0.5" fill="#E72113" fill-opacity="0.48"/>
<circle cx="22.0791" cy="143.143" r="0.5" fill="#E72113" fill-opacity="0.48"/>
<circle cx="69.5527" cy="143.143" r="0.5" fill="#E72113" fill-opacity="0.48"/>
<circle cx="138.605" cy="143.143" r="0.5" fill="#E72113" fill-opacity="0.48"/>
<circle cx="160.184" cy="143.143" r="0.5" fill="#E72113" fill-opacity="0.48"/>
<circle cx="216.29" cy="143.143" r="0.5" fill="#E72113" fill-opacity="0.48"/>
<circle cx="224.921" cy="143.143" r="0.5" fill="#E72113" fill-opacity="0.48"/>
<circle cx="250.816" cy="143.143" r="0.5" fill="#E72113" fill-opacity="0.48"/>
<circle cx="268.079" cy="143.143" r="0.5" fill="#E72113" fill-opacity="0.48"/>
<circle cx="285.342" cy="143.143" r="0.5" fill="#E72113" fill-opacity="0.48"/>
<circle cx="298.29" cy="143.143" r="0.5" fill="#E72113" fill-opacity="0.48"/>
<circle cx="306.921" cy="143.143" r="0.5" fill="#E72113" fill-opacity="0.48"/>
<circle cx="315.553" cy="143.143" r="0.5" fill="#E72113" fill-opacity="0.48"/>
<circle cx="17.7632" cy="147.881" r="0.5" fill="#E72113" fill-opacity="0.48"/>
<circle cx="35.0264" cy="147.881" r="0.5" fill="#E72113" fill-opacity="0.48"/>
<circle cx="56.6055" cy="147.881" r="0.5" fill="#E72113" fill-opacity="0.48"/>
<circle cx="73.8682" cy="147.881" r="0.5" fill="#E72113" fill-opacity="0.48"/>
<circle cx="125.658" cy="147.881" r="0.5" fill="#E72113" fill-opacity="0.48"/>
<circle cx="134.29" cy="147.881" r="0.5" fill="#E72113" fill-opacity="0.48"/>
<circle cx="160.184" cy="147.881" r="0.5" fill="#E72113" fill-opacity="0.48"/>
<circle cx="173.132" cy="147.881" r="0.5" fill="#E72113" fill-opacity="0.48"/>
<circle cx="194.71" cy="147.881" r="0.5" fill="#E72113" fill-opacity="0.48"/>
<circle cx="203.342" cy="147.881" r="0.5" fill="#E72113" fill-opacity="0.48"/>
<circle cx="216.29" cy="147.881" r="0.5" fill="#E72113" fill-opacity="0.48"/>
<circle cx="224.921" cy="147.881" r="0.5" fill="#E72113" fill-opacity="0.48"/>
<circle cx="268.079" cy="147.881" r="0.5" fill="#E72113" fill-opacity="0.48"/>
<circle cx="306.921" cy="147.881" r="0.5" fill="#E72113" fill-opacity="0.48"/>
<circle cx="319.869" cy="147.881" r="0.5" fill="#E72113" fill-opacity="0.48"/>
<circle cx="9.13135" cy="152.619" r="0.5" fill="#E72113" fill-opacity="0.48"/>
<circle cx="26.3945" cy="152.619" r="0.5" fill="#E72113" fill-opacity="0.48"/>
<circle cx="43.6577" cy="152.619" r="0.5" fill="#E72113" fill-opacity="0.48"/>
<circle cx="65.2368" cy="152.619" r="0.5" fill="#E72113" fill-opacity="0.48"/>
<circle cx="73.8682" cy="152.619" r="0.5" fill="#E72113" fill-opacity="0.48"/>
<circle cx="142.921" cy="152.619" r="0.5" fill="#E72113" fill-opacity="0.48"/>
<circle cx="160.184" cy="152.619" r="0.5" fill="#E72113" fill-opacity="0.48"/>
<circle cx="173.132" cy="152.619" r="0.5" fill="#E72113" fill-opacity="0.48"/>
<circle cx="181.763" cy="152.619" r="0.5" fill="#E72113" fill-opacity="0.48"/>
<circle cx="190.395" cy="152.619" r="0.5" fill="#E72113" fill-opacity="0.48"/>
<circle cx="207.658" cy="152.619" r="0.5" fill="#E72113" fill-opacity="0.48"/>
<circle cx="237.869" cy="152.619" r="0.5" fill="#E72113" fill-opacity="0.48"/>
<circle cx="250.816" cy="152.619" r="0.5" fill="#E72113" fill-opacity="0.48"/>
<circle cx="263.763" cy="152.619" r="0.5" fill="#E72113" fill-opacity="0.48"/>
<circle cx="285.342" cy="152.619" r="0.5" fill="#E72113" fill-opacity="0.48"/>
<circle cx="302.605" cy="152.619" r="0.5" fill="#E72113" fill-opacity="0.48"/>
<circle cx="315.553" cy="152.619" r="0.5" fill="#E72113" fill-opacity="0.48"/>
<circle cx="47.9736" cy="157.357" r="0.5" fill="#E72113" fill-opacity="0.48"/>
<circle cx="69.5527" cy="157.357" r="0.5" fill="#E72113" fill-opacity="0.48"/>
<circle cx="104.079" cy="157.357" r="0.5" fill="#E72113" fill-opacity="0.48"/>
<circle cx="117.026" cy="157.357" r="0.5" fill="#E72113" fill-opacity="0.48"/>
<circle cx="147.237" cy="157.357" r="0.5" fill="#E72113" fill-opacity="0.48"/>
<circle cx="164.5" cy="157.357" r="0.5" fill="#E72113" fill-opacity="0.48"/>
<circle cx="194.71" cy="157.357" r="0.5" fill="#E72113" fill-opacity="0.48"/>
<circle cx="207.658" cy="157.357" r="0.5" fill="#E72113" fill-opacity="0.48"/>
<circle cx="220.605" cy="157.357" r="0.5" fill="#E72113" fill-opacity="0.48"/>
<circle cx="229.237" cy="157.357" r="0.5" fill="#E72113" fill-opacity="0.48"/>
<circle cx="285.342" cy="157.357" r="0.5" fill="#E72113" fill-opacity="0.48"/>
<circle cx="311.237" cy="157.357" r="0.5" fill="#E72113" fill-opacity="0.48"/>
<circle cx="315.553" cy="157.357" r="0.5" fill="#E72113" fill-opacity="0.48"/>
<circle cx="35.0264" cy="162.095" r="0.5" fill="#E72113" fill-opacity="0.48"/>
<circle cx="43.6577" cy="162.095" r="0.5" fill="#E72113" fill-opacity="0.48"/>
<circle cx="82.5" cy="162.095" r="0.5" fill="#E72113" fill-opacity="0.48"/>
<circle cx="117.026" cy="162.095" r="0.5" fill="#E72113" fill-opacity="0.48"/>
<circle cx="134.29" cy="162.095" r="0.5" fill="#E72113" fill-opacity="0.48"/>
<circle cx="173.132" cy="162.095" r="0.5" fill="#E72113" fill-opacity="0.48"/>
<circle cx="199.026" cy="162.095" r="0.5" fill="#E72113" fill-opacity="0.48"/>
<circle cx="229.237" cy="162.095" r="0.5" fill="#E72113" fill-opacity="0.48"/>
<circle cx="263.763" cy="162.095" r="0.5" fill="#E72113" fill-opacity="0.48"/>
<circle cx="311.237" cy="162.095" r="0.5" fill="#E72113" fill-opacity="0.48"/>
<circle cx="22.0791" cy="166.833" r="0.5" fill="#E72113" fill-opacity="0.48"/>
<circle cx="69.5527" cy="166.833" r="0.5" fill="#E72113" fill-opacity="0.48"/>
<circle cx="138.605" cy="166.833" r="0.5" fill="#E72113" fill-opacity="0.48"/>
<circle cx="160.184" cy="166.833" r="0.5" fill="#E72113" fill-opacity="0.48"/>
<circle cx="216.29" cy="166.833" r="0.5" fill="#E72113" fill-opacity="0.48"/>
<circle cx="224.921" cy="166.833" r="0.5" fill="#E72113" fill-opacity="0.48"/>
<circle cx="250.816" cy="166.833" r="0.5" fill="#E72113" fill-opacity="0.48"/>
<circle cx="268.079" cy="166.833" r="0.5" fill="#E72113" fill-opacity="0.48"/>
<circle cx="285.342" cy="166.833" r="0.5" fill="#E72113" fill-opacity="0.48"/>
<circle cx="298.29" cy="166.833" r="0.5" fill="#E72113" fill-opacity="0.48"/>
<circle cx="306.921" cy="166.833" r="0.5" fill="#E72113" fill-opacity="0.48"/>
<circle cx="315.553" cy="166.833" r="0.5" fill="#E72113" fill-opacity="0.48"/>
<circle cx="17.7632" cy="171.572" r="0.5" fill="#E72113" fill-opacity="0.48"/>
<circle cx="22.0791" cy="171.572" r="0.5" fill="#E72113" fill-opacity="0.48"/>
<circle cx="35.0264" cy="171.572" r="0.5" fill="#E72113" fill-opacity="0.48"/>
<circle cx="56.6055" cy="171.572" r="0.5" fill="#E72113" fill-opacity="0.48"/>
<circle cx="95.4473" cy="171.572" r="0.5" fill="#E72113" fill-opacity="0.48"/>
<circle cx="99.7632" cy="171.572" r="0.5" fill="#E72113" fill-opacity="0.48"/>
<circle cx="160.184" cy="171.572" r="0.5" fill="#E72113" fill-opacity="0.48"/>
<circle cx="173.132" cy="171.572" r="0.5" fill="#E72113" fill-opacity="0.48"/>
<circle cx="186.079" cy="171.572" r="0.5" fill="#E72113" fill-opacity="0.48"/>
<circle cx="203.342" cy="171.572" r="0.5" fill="#E72113" fill-opacity="0.48"/>
<circle cx="207.658" cy="171.572" r="0.5" fill="#E72113" fill-opacity="0.48"/>
<circle cx="220.605" cy="171.572" r="0.5" fill="#E72113" fill-opacity="0.48"/>
<circle cx="259.448" cy="171.572" r="0.5" fill="#E72113" fill-opacity="0.48"/>
<circle cx="276.711" cy="171.572" r="0.5" fill="#E72113" fill-opacity="0.48"/>
<circle cx="289.658" cy="171.572" r="0.5" fill="#E72113" fill-opacity="0.48"/>
<circle cx="306.921" cy="171.572" r="0.5" fill="#E72113" fill-opacity="0.48"/>
<circle cx="315.553" cy="171.572" r="0.5" fill="#E72113" fill-opacity="0.48"/>
<circle cx="9.13135" cy="176.31" r="0.5" fill="#E72113" fill-opacity="0.48"/>
<circle cx="56.6055" cy="176.31" r="0.5" fill="#E72113" fill-opacity="0.48"/>
<circle cx="69.5527" cy="176.31" r="0.5" fill="#E72113" fill-opacity="0.48"/>
<circle cx="86.8159" cy="176.31" r="0.5" fill="#E72113" fill-opacity="0.48"/>
<circle cx="99.7632" cy="176.31" r="0.5" fill="#E72113" fill-opacity="0.48"/>
<circle cx="104.079" cy="176.31" r="0.5" fill="#E72113" fill-opacity="0.48"/>
<circle cx="125.658" cy="176.31" r="0.5" fill="#E72113" fill-opacity="0.48"/>
<circle cx="142.921" cy="176.31" r="0.5" fill="#E72113" fill-opacity="0.48"/>
<circle cx="160.184" cy="176.31" r="0.5" fill="#E72113" fill-opacity="0.48"/>
<circle cx="181.763" cy="176.31" r="0.5" fill="#E72113" fill-opacity="0.48"/>
<circle cx="186.079" cy="176.31" r="0.5" fill="#E72113" fill-opacity="0.48"/>
<circle cx="203.342" cy="176.31" r="0.5" fill="#E72113" fill-opacity="0.48"/>
<circle cx="255.132" cy="176.31" r="0.5" fill="#E72113" fill-opacity="0.48"/>
<circle cx="263.763" cy="176.31" r="0.5" fill="#E72113" fill-opacity="0.48"/>
<circle cx="281.026" cy="176.31" r="0.5" fill="#E72113" fill-opacity="0.48"/>
<circle cx="302.605" cy="176.31" r="0.5" fill="#E72113" fill-opacity="0.48"/>
<circle cx="311.237" cy="176.31" r="0.5" fill="#E72113" fill-opacity="0.48"/>
<circle cx="324.185" cy="176.31" r="0.5" fill="#E72113" fill-opacity="0.48"/>
<circle cx="17.7632" cy="181.048" r="0.5" fill="#E72113" fill-opacity="0.48"/>
<circle cx="22.0791" cy="181.048" r="0.5" fill="#E72113" fill-opacity="0.48"/>
<circle cx="56.6055" cy="181.048" r="0.5" fill="#E72113" fill-opacity="0.48"/>
<circle cx="125.658" cy="181.048" r="0.5" fill="#E72113" fill-opacity="0.48"/>
<circle cx="129.974" cy="181.048" r="0.5" fill="#E72113" fill-opacity="0.48"/>
<circle cx="134.29" cy="181.048" r="0.5" fill="#E72113" fill-opacity="0.48"/>
<circle cx="177.447" cy="181.048" r="0.5" fill="#E72113" fill-opacity="0.48"/>
<circle cx="199.026" cy="181.048" r="0.5" fill="#E72113" fill-opacity="0.48"/>
<circle cx="220.605" cy="181.048" r="0.5" fill="#E72113" fill-opacity="0.48"/>
<circle cx="233.553" cy="181.048" r="0.5" fill="#E72113" fill-opacity="0.48"/>
<circle cx="272.395" cy="181.048" r="0.5" fill="#E72113" fill-opacity="0.48"/>
<circle cx="315.553" cy="181.048" r="0.5" fill="#E72113" fill-opacity="0.48"/>
<circle cx="4.81592" cy="185.786" r="0.5" fill="#E72113" fill-opacity="0.48"/>
<circle cx="35.0264" cy="185.786" r="0.5" fill="#E72113" fill-opacity="0.48"/>
<circle cx="39.3423" cy="185.786" r="0.5" fill="#E72113" fill-opacity="0.48"/>
<circle cx="56.6055" cy="185.786" r="0.5" fill="#E72113" fill-opacity="0.48"/>
<circle cx="86.8159" cy="185.786" r="0.5" fill="#E72113" fill-opacity="0.48"/>
<circle cx="121.342" cy="185.786" r="0.5" fill="#E72113" fill-opacity="0.48"/>
<circle cx="147.237" cy="185.786" r="0.5" fill="#E72113" fill-opacity="0.48"/>
<circle cx="194.71" cy="185.786" r="0.5" fill="#E72113" fill-opacity="0.48"/>
<circle cx="203.342" cy="185.786" r="0.5" fill="#E72113" fill-opacity="0.48"/>
<circle cx="211.974" cy="185.786" r="0.5" fill="#E72113" fill-opacity="0.48"/>
<circle cx="259.448" cy="185.786" r="0.5" fill="#E72113" fill-opacity="0.48"/>
<circle cx="285.342" cy="185.786" r="0.5" fill="#E72113" fill-opacity="0.48"/>
<circle cx="306.921" cy="185.786" r="0.5" fill="#E72113" fill-opacity="0.48"/>
<circle cx="9.13135" cy="190.524" r="0.5" fill="#E72113" fill-opacity="0.48"/>
<circle cx="43.6577" cy="190.524" r="0.5" fill="#E72113" fill-opacity="0.48"/>
<circle cx="47.9736" cy="190.524" r="0.5" fill="#E72113" fill-opacity="0.48"/>
<circle cx="69.5527" cy="190.524" r="0.5" fill="#E72113" fill-opacity="0.48"/>
<circle cx="86.8159" cy="190.524" r="0.5" fill="#E72113" fill-opacity="0.48"/>
<circle cx="112.71" cy="190.524" r="0.5" fill="#E72113" fill-opacity="0.48"/>
<circle cx="117.026" cy="190.524" r="0.5" fill="#E72113" fill-opacity="0.48"/>
<circle cx="125.658" cy="190.524" r="0.5" fill="#E72113" fill-opacity="0.48"/>
<circle cx="151.553" cy="190.524" r="0.5" fill="#E72113" fill-opacity="0.48"/>
<circle cx="160.184" cy="190.524" r="0.5" fill="#E72113" fill-opacity="0.48"/>
<circle cx="211.974" cy="190.524" r="0.5" fill="#E72113" fill-opacity="0.48"/>
<circle cx="237.869" cy="190.524" r="0.5" fill="#E72113" fill-opacity="0.48"/>
<circle cx="250.816" cy="190.524" r="0.5" fill="#E72113" fill-opacity="0.48"/>
<circle cx="263.763" cy="190.524" r="0.5" fill="#E72113" fill-opacity="0.48"/>
<circle cx="293.974" cy="190.524" r="0.5" fill="#E72113" fill-opacity="0.48"/>
<circle cx="302.605" cy="190.524" r="0.5" fill="#E72113" fill-opacity="0.48"/>
<circle cx="319.869" cy="190.524" r="0.5" fill="#E72113" fill-opacity="0.48"/>
<circle cx="65.2368" cy="195.262" r="0.5" fill="#E72113" fill-opacity="0.48"/>
<circle cx="99.7632" cy="195.262" r="0.5" fill="#E72113" fill-opacity="0.48"/>
<circle cx="117.026" cy="195.262" r="0.5" fill="#E72113" fill-opacity="0.48"/>
<circle cx="147.237" cy="195.262" r="0.5" fill="#E72113" fill-opacity="0.48"/>
<circle cx="173.132" cy="195.262" r="0.5" fill="#E72113" fill-opacity="0.48"/>
<circle cx="190.395" cy="195.262" r="0.5" fill="#E72113" fill-opacity="0.48"/>
<circle cx="211.974" cy="195.262" r="0.5" fill="#E72113" fill-opacity="0.48"/>
<circle cx="233.553" cy="195.262" r="0.5" fill="#E72113" fill-opacity="0.48"/>
<circle cx="285.342" cy="195.262" r="0.5" fill="#E72113" fill-opacity="0.48"/>
<circle cx="306.921" cy="195.262" r="0.5" fill="#E72113" fill-opacity="0.48"/>
<circle cx="35.0264" cy="200" r="0.5" fill="#E72113" fill-opacity="0.48"/>
<circle cx="91.1313" cy="200" r="0.5" fill="#E72113" fill-opacity="0.48"/>
<circle cx="147.237" cy="200" r="0.5" fill="#E72113" fill-opacity="0.48"/>
<circle cx="164.5" cy="200" r="0.5" fill="#E72113" fill-opacity="0.48"/>
<circle cx="181.763" cy="200" r="0.5" fill="#E72113" fill-opacity="0.48"/>
<circle cx="207.658" cy="200" r="0.5" fill="#E72113" fill-opacity="0.48"/>
<circle cx="216.29" cy="200" r="0.5" fill="#E72113" fill-opacity="0.48"/>
<circle cx="246.5" cy="200" r="0.5" fill="#E72113" fill-opacity="0.48"/>
<circle cx="268.079" cy="200" r="0.5" fill="#E72113" fill-opacity="0.48"/>
<circle cx="289.658" cy="200" r="0.5" fill="#E72113" fill-opacity="0.48"/>
<circle cx="302.605" cy="200" r="0.5" fill="#E72113" fill-opacity="0.48"/>
<circle cx="311.237" cy="200" r="0.5" fill="#E72113" fill-opacity="0.48"/>
</svg>
