<svg width="49" height="48" viewBox="0 0 49 48" fill="none" xmlns="http://www.w3.org/2000/svg">
<path d="M4.5 4C3.39543 4 2.5 4.89543 2.5 6C2.5 7.10457 3.39543 8 4.5 8H5.95862C6.44746 8 6.86465 8.35341 6.94501 8.8356L9.97014 26.9864C10.4523 29.8795 12.9555 32 15.8885 32H36.2029C39.075 32 41.5443 29.9646 42.0926 27.1452L44.2686 15.9543C44.8687 12.8678 42.5048 10 39.3605 10H11.1943L10.8906 8.17801C10.4888 5.76707 8.40281 4 5.95862 4H4.5Z" fill="#57575C"/>
<path d="M16.5 34C14.2909 34 12.5 35.7909 12.5 38C12.5 40.2091 14.2909 42 16.5 42C18.7091 42 20.5 40.2091 20.5 38C20.5 35.7909 18.7091 34 16.5 34Z" fill="#57575C"/>
<path d="M34.5 34C32.2909 34 30.5 35.7909 30.5 38C30.5 40.2091 32.2909 42 34.5 42C36.7091 42 38.5 40.2091 38.5 38C38.5 35.7909 36.7091 34 34.5 34Z" fill="#57575C"/>
</svg>
