<svg width="329" height="341" viewBox="0 0 329 341" fill="none" xmlns="http://www.w3.org/2000/svg">
<path d="M0 4C0 1.79086 1.79086 0 4 0H325C327.209 0 329 1.79086 329 4V92H0V4Z" fill="white"/>
<path d="M18.2372 68V47.6364H25.4957C27.0734 47.6364 28.3826 47.9081 29.4233 48.4517C30.4706 48.9953 31.2528 49.7476 31.7699 50.7088C32.2869 51.6634 32.5455 52.767 32.5455 54.0199C32.5455 55.2661 32.2836 56.3632 31.7599 57.3111C31.2429 58.2524 30.4607 58.9848 29.4134 59.5085C28.3726 60.0322 27.0634 60.294 25.4858 60.294H19.9872V57.6491H25.2074C26.2017 57.6491 27.0104 57.5066 27.6335 57.2216C28.2633 56.9366 28.724 56.5223 29.0156 55.9787C29.3073 55.4351 29.4531 54.7822 29.4531 54.0199C29.4531 53.2509 29.304 52.5848 29.0057 52.0213C28.714 51.4579 28.2533 51.027 27.6236 50.7287C27.0005 50.4238 26.1818 50.2713 25.1676 50.2713H21.3097V68H18.2372ZM28.2898 58.8125L33.321 68H29.821L24.8892 58.8125H28.2898ZM42.4364 68.3082C40.9317 68.3082 39.6358 67.9867 38.5487 67.3438C37.4682 66.6941 36.6329 65.7827 36.043 64.6094C35.4596 63.4295 35.168 62.0473 35.168 60.4631C35.168 58.8987 35.4596 57.5199 36.043 56.3267C36.6329 55.1335 37.4549 54.2022 38.5089 53.5327C39.5695 52.8632 40.8091 52.5284 42.2276 52.5284C43.0894 52.5284 43.9246 52.6709 44.7333 52.956C45.542 53.241 46.2679 53.6884 46.9109 54.2983C47.5539 54.9081 48.061 55.7003 48.4322 56.6747C48.8034 57.6425 48.989 58.8191 48.989 60.2045V61.2585H36.8484V59.0312H46.0756C46.0756 58.2491 45.9165 57.5563 45.5984 56.9531C45.2802 56.3433 44.8327 55.8627 44.256 55.5114C43.686 55.16 43.0165 54.9844 42.2475 54.9844C41.4123 54.9844 40.6831 55.1899 40.06 55.6009C39.4435 56.0052 38.9663 56.5355 38.6282 57.1918C38.2968 57.8414 38.131 58.5473 38.131 59.3097V61.0497C38.131 62.0705 38.31 62.9389 38.668 63.6548C39.0326 64.3707 39.5397 64.9176 40.1893 65.2955C40.8389 65.6667 41.5979 65.8523 42.4663 65.8523C43.0297 65.8523 43.5434 65.7727 44.0075 65.6136C44.4715 65.4479 44.8725 65.2027 45.2106 64.8778C45.5487 64.553 45.8072 64.152 45.9862 63.6747L48.8001 64.1818C48.5747 65.0104 48.1703 65.7363 47.587 66.3594C47.0103 66.9759 46.2844 67.4564 45.4094 67.8011C44.5411 68.1392 43.5501 68.3082 42.4364 68.3082ZM58.7209 68.3082C57.2427 68.3082 55.9699 67.9735 54.9027 67.304C53.8421 66.6278 53.0268 65.6965 52.4567 64.5099C51.8866 63.3234 51.6016 61.9645 51.6016 60.4332C51.6016 58.8821 51.8932 57.5133 52.4766 56.3267C53.0599 55.1335 53.8819 54.2022 54.9425 53.5327C56.0031 52.8632 57.2526 52.5284 58.6911 52.5284C59.8511 52.5284 60.8852 52.7438 61.7933 53.1747C62.7015 53.599 63.4339 54.1955 63.9908 54.9645C64.5542 55.7334 64.889 56.6316 64.995 57.6591H62.1016C61.9425 56.9432 61.5779 56.3267 61.0078 55.8097C60.4444 55.2926 59.6887 55.0341 58.7408 55.0341C57.9122 55.0341 57.1863 55.2528 56.5632 55.6903C55.9467 56.1212 55.4661 56.7377 55.1214 57.5398C54.7768 58.3352 54.6044 59.2765 54.6044 60.3636C54.6044 61.4773 54.7734 62.4384 55.1115 63.2472C55.4496 64.0559 55.9268 64.6823 56.5433 65.1264C57.1664 65.5705 57.8989 65.7926 58.7408 65.7926C59.3042 65.7926 59.8146 65.6899 60.272 65.4844C60.736 65.2723 61.1238 64.9706 61.4354 64.5795C61.7536 64.1884 61.9756 63.7178 62.1016 63.1676H64.995C64.889 64.1553 64.5675 65.0369 64.0305 65.8125C63.4936 66.5881 62.7744 67.1979 61.8729 67.642C60.978 68.0862 59.9273 68.3082 58.7209 68.3082ZM74.6076 68.3082C73.1758 68.3082 71.9263 67.9801 70.859 67.3239C69.7918 66.6676 68.9632 65.7495 68.3732 64.5696C67.7833 63.3897 67.4883 62.0109 67.4883 60.4332C67.4883 58.849 67.7833 57.4635 68.3732 56.277C68.9632 55.0904 69.7918 54.169 70.859 53.5128C71.9263 52.8565 73.1758 52.5284 74.6076 52.5284C76.0394 52.5284 77.2889 52.8565 78.3562 53.5128C79.4234 54.169 80.252 55.0904 80.842 56.277C81.4319 57.4635 81.7269 58.849 81.7269 60.4332C81.7269 62.0109 81.4319 63.3897 80.842 64.5696C80.252 65.7495 79.4234 66.6676 78.3562 67.3239C77.2889 67.9801 76.0394 68.3082 74.6076 68.3082ZM74.6175 65.8125C75.5456 65.8125 76.3145 65.5672 76.9244 65.0767C77.5342 64.5862 77.985 63.9332 78.2766 63.1179C78.5749 62.3026 78.7241 61.4044 78.7241 60.4233C78.7241 59.4489 78.5749 58.554 78.2766 57.7386C77.985 56.9167 77.5342 56.2571 76.9244 55.7599C76.3145 55.2628 75.5456 55.0142 74.6175 55.0142C73.6829 55.0142 72.9073 55.2628 72.2908 55.7599C71.681 56.2571 71.2269 56.9167 70.9286 57.7386C70.637 58.554 70.4911 59.4489 70.4911 60.4233C70.4911 61.4044 70.637 62.3026 70.9286 63.1179C71.2269 63.9332 71.681 64.5862 72.2908 65.0767C72.9073 65.5672 73.6829 65.8125 74.6175 65.8125ZM97.5913 52.7273L92.0529 68H88.8711L83.3228 52.7273H86.5146L90.3825 64.4801H90.5415L94.3995 52.7273H97.5913ZM106.448 68.3082C104.943 68.3082 103.647 67.9867 102.56 67.3438C101.48 66.6941 100.645 65.7827 100.055 64.6094C99.4714 63.4295 99.1797 62.0473 99.1797 60.4631C99.1797 58.8987 99.4714 57.5199 100.055 56.3267C100.645 55.1335 101.467 54.2022 102.521 53.5327C103.581 52.8632 104.821 52.5284 106.239 52.5284C107.101 52.5284 107.936 52.6709 108.745 52.956C109.554 53.241 110.28 53.6884 110.923 54.2983C111.566 54.9081 112.073 55.7003 112.444 56.6747C112.815 57.6425 113.001 58.8191 113.001 60.2045V61.2585H100.86V59.0312H110.087C110.087 58.2491 109.928 57.5563 109.61 56.9531C109.292 56.3433 108.844 55.8627 108.268 55.5114C107.698 55.16 107.028 54.9844 106.259 54.9844C105.424 54.9844 104.695 55.1899 104.072 55.6009C103.455 56.0052 102.978 56.5355 102.64 57.1918C102.308 57.8414 102.143 58.5473 102.143 59.3097V61.0497C102.143 62.0705 102.322 62.9389 102.68 63.6548C103.044 64.3707 103.551 64.9176 104.201 65.2955C104.851 65.6667 105.61 65.8523 106.478 65.8523C107.041 65.8523 107.555 65.7727 108.019 65.6136C108.483 65.4479 108.884 65.2027 109.222 64.8778C109.56 64.553 109.819 64.152 109.998 63.6747L112.812 64.1818C112.586 65.0104 112.182 65.7363 111.599 66.3594C111.022 66.9759 110.296 67.4564 109.421 67.8011C108.553 68.1392 107.562 68.3082 106.448 68.3082ZM116.299 68V52.7273H119.173V55.1534H119.332C119.61 54.3314 120.101 53.6851 120.804 53.2145C121.513 52.7372 122.315 52.4986 123.21 52.4986C123.395 52.4986 123.614 52.5052 123.866 52.5185C124.125 52.5317 124.327 52.5483 124.473 52.5682V55.4119C124.353 55.3788 124.141 55.3423 123.836 55.3026C123.531 55.2562 123.226 55.233 122.922 55.233C122.219 55.233 121.592 55.3821 121.042 55.6804C120.499 55.9721 120.068 56.3797 119.75 56.9034C119.431 57.4205 119.272 58.0104 119.272 58.6733V68H116.299ZM129.39 73.7273C128.945 73.7273 128.541 73.6908 128.176 73.6179C127.812 73.5516 127.54 73.4787 127.361 73.3991L128.077 70.9631C128.621 71.1089 129.105 71.1719 129.529 71.152C129.953 71.1321 130.328 70.973 130.652 70.6747C130.984 70.3764 131.275 69.8892 131.527 69.2131L131.895 68.1989L126.307 52.7273H129.489L133.357 64.5795H133.516L137.384 52.7273H140.576L134.282 70.0384C133.99 70.8338 133.619 71.5066 133.168 72.0568C132.717 72.6136 132.18 73.0313 131.557 73.3097C130.934 73.5881 130.212 73.7273 129.39 73.7273ZM157.362 68.3082C155.857 68.3082 154.562 67.9867 153.474 67.3438C152.394 66.6941 151.559 65.7827 150.969 64.6094C150.385 63.4295 150.094 62.0473 150.094 60.4631C150.094 58.8987 150.385 57.5199 150.969 56.3267C151.559 55.1335 152.381 54.2022 153.435 53.5327C154.495 52.8632 155.735 52.5284 157.153 52.5284C158.015 52.5284 158.85 52.6709 159.659 52.956C160.468 53.241 161.194 53.6884 161.837 54.2983C162.48 54.9081 162.987 55.7003 163.358 56.6747C163.729 57.6425 163.915 58.8191 163.915 60.2045V61.2585H151.774V59.0312H161.001C161.001 58.2491 160.842 57.5563 160.524 56.9531C160.206 56.3433 159.759 55.8627 159.182 55.5114C158.612 55.16 157.942 54.9844 157.173 54.9844C156.338 54.9844 155.609 55.1899 154.986 55.6009C154.369 56.0052 153.892 56.5355 153.554 57.1918C153.223 57.8414 153.057 58.5473 153.057 59.3097V61.0497C153.057 62.0705 153.236 62.9389 153.594 63.6548C153.958 64.3707 154.465 64.9176 155.115 65.2955C155.765 65.6667 156.524 65.8523 157.392 65.8523C157.955 65.8523 158.469 65.7727 158.933 65.6136C159.397 65.4479 159.798 65.2027 160.136 64.8778C160.474 64.553 160.733 64.152 160.912 63.6747L163.726 64.1818C163.5 65.0104 163.096 65.7363 162.513 66.3594C161.936 66.9759 161.21 67.4564 160.335 67.8011C159.467 68.1392 158.476 68.3082 157.362 68.3082ZM167.213 68V52.7273H170.067V55.2131H170.256C170.574 54.3712 171.095 53.715 171.817 53.2443C172.54 52.767 173.405 52.5284 174.412 52.5284C175.433 52.5284 176.288 52.767 176.978 53.2443C177.674 53.7216 178.187 54.3778 178.519 55.2131H178.678C179.042 54.3977 179.623 53.7481 180.418 53.2642C181.213 52.7737 182.161 52.5284 183.262 52.5284C184.647 52.5284 185.777 52.9626 186.652 53.831C187.534 54.6993 187.975 56.0085 187.975 57.7585V68H185.002V58.0369C185.002 57.0028 184.72 56.2538 184.157 55.7898C183.593 55.3258 182.92 55.0938 182.138 55.0938C181.17 55.0938 180.418 55.392 179.881 55.9886C179.344 56.5786 179.076 57.3376 179.076 58.2656V68H176.113V57.848C176.113 57.0194 175.854 56.3532 175.337 55.8494C174.82 55.3456 174.147 55.0938 173.319 55.0938C172.755 55.0938 172.235 55.2429 171.757 55.5412C171.287 55.8329 170.906 56.2405 170.614 56.7642C170.329 57.2879 170.186 57.8944 170.186 58.5838V68H167.213ZM196.404 68.3381C195.436 68.3381 194.561 68.1591 193.779 67.8011C192.997 67.4366 192.377 66.9096 191.92 66.2202C191.469 65.5308 191.244 64.6856 191.244 63.6847C191.244 62.8229 191.409 62.1136 191.741 61.5568C192.072 61 192.52 60.5592 193.083 60.2344C193.647 59.9096 194.276 59.6643 194.972 59.4986C195.668 59.3329 196.378 59.2069 197.1 59.1207C198.015 59.0147 198.757 58.9285 199.327 58.8622C199.897 58.7893 200.312 58.6733 200.57 58.5142C200.829 58.3551 200.958 58.0966 200.958 57.7386V57.669C200.958 56.8007 200.713 56.1278 200.222 55.6506C199.738 55.1733 199.016 54.9347 198.055 54.9347C197.054 54.9347 196.265 55.1567 195.688 55.6009C195.118 56.0384 194.724 56.5256 194.505 57.0625L191.711 56.4261C192.042 55.4981 192.526 54.7491 193.163 54.179C193.806 53.6023 194.545 53.1847 195.38 52.9261C196.215 52.661 197.094 52.5284 198.015 52.5284C198.625 52.5284 199.271 52.6013 199.954 52.7472C200.643 52.8864 201.286 53.1449 201.883 53.5227C202.486 53.9006 202.98 54.4408 203.364 55.1435C203.749 55.8395 203.941 56.7443 203.941 57.858V68H201.038V65.9119H200.918C200.726 66.2964 200.438 66.6742 200.053 67.0455C199.669 67.4167 199.175 67.7249 198.572 67.9702C197.969 68.2154 197.246 68.3381 196.404 68.3381ZM197.05 65.9517C197.872 65.9517 198.575 65.7893 199.158 65.4645C199.748 65.1397 200.196 64.7154 200.501 64.1918C200.812 63.6615 200.968 63.0947 200.968 62.4915V60.5227C200.862 60.6288 200.656 60.7282 200.352 60.821C200.053 60.9072 199.712 60.9834 199.327 61.0497C198.943 61.1094 198.568 61.1657 198.204 61.2188C197.839 61.2652 197.534 61.3049 197.289 61.3381C196.712 61.411 196.185 61.5336 195.708 61.706C195.237 61.8783 194.86 62.1269 194.575 62.4517C194.296 62.7699 194.157 63.1941 194.157 63.7244C194.157 64.4602 194.429 65.017 194.972 65.3949C195.516 65.7661 196.209 65.9517 197.05 65.9517ZM207.901 68V52.7273H210.874V68H207.901ZM209.402 50.3707C208.885 50.3707 208.441 50.1984 208.07 49.8537C207.705 49.5024 207.523 49.0848 207.523 48.6009C207.523 48.1103 207.705 47.6927 208.07 47.348C208.441 46.9967 208.885 46.821 209.402 46.821C209.919 46.821 210.36 46.9967 210.725 47.348C211.096 47.6927 211.282 48.1103 211.282 48.6009C211.282 49.0848 211.096 49.5024 210.725 49.8537C210.36 50.1984 209.919 50.3707 209.402 50.3707ZM217.847 47.6364V68H214.874V47.6364H217.847Z" fill="black"/>
<path d="M20.4744 23.3636V24.358H16.358V23.3636H20.4744ZM17.5909 31V22.3097C17.5909 21.8722 17.6937 21.5076 17.8991 21.2159C18.1046 20.9242 18.3714 20.7055 18.6996 20.5597C19.0277 20.4138 19.3741 20.3409 19.7386 20.3409C20.027 20.3409 20.2623 20.3641 20.4446 20.4105C20.6269 20.4569 20.7628 20.5 20.8523 20.5398L20.5142 21.554C20.4545 21.5341 20.3717 21.5092 20.2656 21.4794C20.1629 21.4496 20.027 21.4347 19.858 21.4347C19.4702 21.4347 19.1901 21.5324 19.0178 21.728C18.8487 21.9235 18.7642 22.2102 18.7642 22.5881V31H17.5909ZM22.1188 31V23.3636H23.2523V24.517H23.3319C23.4711 24.1392 23.723 23.8326 24.0875 23.5973C24.4521 23.362 24.8631 23.2443 25.3205 23.2443C25.4067 23.2443 25.5144 23.246 25.6436 23.2493C25.7729 23.2526 25.8707 23.2576 25.937 23.2642V24.4574C25.8972 24.4474 25.806 24.4325 25.6635 24.4126C25.5243 24.3894 25.3768 24.3778 25.2211 24.3778C24.8498 24.3778 24.5184 24.4557 24.2267 24.6115C23.9384 24.764 23.7097 24.9761 23.5407 25.2479C23.3749 25.5163 23.2921 25.8229 23.2921 26.1676V31H22.1188ZM30.1976 31.1591C29.5082 31.1591 28.9034 30.995 28.383 30.6669C27.8659 30.3388 27.4616 29.8797 27.1699 29.2898C26.8816 28.6998 26.7374 28.0104 26.7374 27.2216C26.7374 26.4261 26.8816 25.7318 27.1699 25.1385C27.4616 24.5452 27.8659 24.0845 28.383 23.7564C28.9034 23.4283 29.5082 23.2642 30.1976 23.2642C30.887 23.2642 31.4902 23.4283 32.0073 23.7564C32.5276 24.0845 32.932 24.5452 33.2203 25.1385C33.512 25.7318 33.6578 26.4261 33.6578 27.2216C33.6578 28.0104 33.512 28.6998 33.2203 29.2898C32.932 29.8797 32.5276 30.3388 32.0073 30.6669C31.4902 30.995 30.887 31.1591 30.1976 31.1591ZM30.1976 30.1051C30.7213 30.1051 31.1522 29.9709 31.4902 29.7024C31.8283 29.4339 32.0785 29.081 32.2409 28.6435C32.4034 28.206 32.4846 27.732 32.4846 27.2216C32.4846 26.7112 32.4034 26.2356 32.2409 25.7947C32.0785 25.3539 31.8283 24.9976 31.4902 24.7259C31.1522 24.4541 30.7213 24.3182 30.1976 24.3182C29.6739 24.3182 29.2431 24.4541 28.905 24.7259C28.5669 24.9976 28.3167 25.3539 28.1543 25.7947C27.9919 26.2356 27.9107 26.7112 27.9107 27.2216C27.9107 27.732 27.9919 28.206 28.1543 28.6435C28.3167 29.081 28.5669 29.4339 28.905 29.7024C29.2431 29.9709 29.6739 30.1051 30.1976 30.1051ZM35.4489 31V23.3636H36.5824V24.5568H36.6818C36.8409 24.1491 37.0978 23.8326 37.4524 23.6072C37.8071 23.3786 38.233 23.2642 38.7301 23.2642C39.2339 23.2642 39.6532 23.3786 39.9879 23.6072C40.326 23.8326 40.5895 24.1491 40.7784 24.5568H40.858C41.0535 24.1624 41.3468 23.8492 41.7379 23.6172C42.129 23.3819 42.598 23.2642 43.1449 23.2642C43.8277 23.2642 44.3861 23.478 44.8203 23.9055C45.2545 24.3298 45.4716 24.991 45.4716 25.8892V31H44.2983V25.8892C44.2983 25.3258 44.1442 24.9231 43.8359 24.6811C43.5277 24.4392 43.1648 24.3182 42.7472 24.3182C42.2102 24.3182 41.7943 24.4806 41.4993 24.8054C41.2043 25.1269 41.0568 25.5346 41.0568 26.0284V31H39.8636V25.7699C39.8636 25.3357 39.7228 24.986 39.4411 24.7209C39.1593 24.4524 38.7964 24.3182 38.3523 24.3182C38.0473 24.3182 37.7623 24.3994 37.4972 24.5618C37.2353 24.7242 37.0232 24.9496 36.8608 25.2379C36.7017 25.523 36.6222 25.8527 36.6222 26.2273V31H35.4489ZM48.4719 31.0795C48.2267 31.0795 48.0162 30.9917 47.8406 30.8161C47.6649 30.6404 47.5771 30.4299 47.5771 30.1847C47.5771 29.9394 47.6649 29.7289 47.8406 29.5533C48.0162 29.3776 48.2267 29.2898 48.4719 29.2898C48.7172 29.2898 48.9277 29.3776 49.1033 29.5533C49.279 29.7289 49.3668 29.9394 49.3668 30.1847C49.3668 30.3471 49.3254 30.4962 49.2425 30.6321C49.163 30.768 49.0553 30.8774 48.9194 30.9602C48.7868 31.0398 48.6377 31.0795 48.4719 31.0795ZM48.4719 25.4119C48.2267 25.4119 48.0162 25.3241 47.8406 25.1484C47.6649 24.9728 47.5771 24.7623 47.5771 24.517C47.5771 24.2718 47.6649 24.0613 47.8406 23.8857C48.0162 23.71 48.2267 23.6222 48.4719 23.6222C48.7172 23.6222 48.9277 23.71 49.1033 23.8857C49.279 24.0613 49.3668 24.2718 49.3668 24.517C49.3668 24.6795 49.3254 24.8286 49.2425 24.9645C49.163 25.1004 49.0553 25.2098 48.9194 25.2926C48.7868 25.3722 48.6377 25.4119 48.4719 25.4119ZM62.2507 20.8182H63.4837V27.5597C63.4837 28.2557 63.3196 28.8771 62.9915 29.424C62.6667 29.9676 62.2076 30.3968 61.6143 30.7116C61.0211 31.0232 60.325 31.179 59.5263 31.179C58.7275 31.179 58.0315 31.0232 57.4382 30.7116C56.8449 30.3968 56.3842 29.9676 56.0561 29.424C55.7313 28.8771 55.5689 28.2557 55.5689 27.5597V20.8182H56.8018V27.4602C56.8018 27.9574 56.9112 28.3999 57.13 28.7876C57.3487 29.1721 57.6603 29.4754 58.0646 29.6974C58.4723 29.9162 58.9595 30.0256 59.5263 30.0256C60.093 30.0256 60.5803 29.9162 60.9879 29.6974C61.3956 29.4754 61.7072 29.1721 61.9226 28.7876C62.1413 28.3999 62.2507 27.9574 62.2507 27.4602V20.8182ZM66.96 26.4062V31H65.7868V23.3636H66.9203V24.5568H67.0197C67.1987 24.169 67.4705 23.8575 67.835 23.6222C68.1996 23.3835 68.6703 23.2642 69.247 23.2642C69.764 23.2642 70.2164 23.3703 70.6042 23.5824C70.992 23.7912 71.2936 24.1094 71.5091 24.5369C71.7245 24.9612 71.8322 25.4981 71.8322 26.1477V31H70.6589V26.2273C70.6589 25.6274 70.5031 25.16 70.1916 24.8253C69.88 24.4872 69.4525 24.3182 68.9089 24.3182C68.5344 24.3182 68.1996 24.3994 67.9047 24.5618C67.613 24.7242 67.3826 24.9612 67.2136 25.2727C67.0446 25.5843 66.96 25.9621 66.96 26.4062ZM79.3853 25.0739L78.3313 25.3722C78.265 25.1965 78.1673 25.0258 78.038 24.8601C77.9121 24.6911 77.7397 24.5518 77.521 24.4425C77.3022 24.3331 77.0221 24.2784 76.6808 24.2784C76.2134 24.2784 75.824 24.3861 75.5124 24.6016C75.2042 24.8137 75.0501 25.0838 75.0501 25.4119C75.0501 25.7036 75.1561 25.9339 75.3683 26.103C75.5804 26.272 75.9118 26.4129 76.3626 26.5256L77.4961 26.804C78.1789 26.9697 78.6876 27.2232 79.0224 27.5646C79.3571 27.9027 79.5245 28.3385 79.5245 28.8722C79.5245 29.3097 79.3986 29.7008 79.1467 30.0455C78.8981 30.3902 78.5501 30.6619 78.1026 30.8608C77.6552 31.0597 77.1348 31.1591 76.5415 31.1591C75.7627 31.1591 75.118 30.9901 74.6076 30.652C74.0972 30.3139 73.774 29.8201 73.6381 29.1705L74.7518 28.892C74.8578 29.303 75.0584 29.6113 75.3533 29.8168C75.6516 30.0223 76.0411 30.125 76.5217 30.125C77.0685 30.125 77.5027 30.009 77.8242 29.777C78.149 29.5417 78.3114 29.2599 78.3114 28.9318C78.3114 28.6667 78.2186 28.4446 78.033 28.2656C77.8474 28.0833 77.5624 27.9474 77.1779 27.858L75.9052 27.5597C75.2058 27.3939 74.6921 27.1371 74.364 26.7891C74.0392 26.4377 73.8768 25.9986 73.8768 25.4716C73.8768 25.0407 73.9978 24.6596 74.2397 24.3281C74.485 23.9967 74.8181 23.7365 75.239 23.5476C75.6632 23.3587 76.1438 23.2642 76.6808 23.2642C77.4364 23.2642 78.0297 23.4299 78.4606 23.7614C78.8948 24.0928 79.203 24.5303 79.3853 25.0739ZM84.6117 23.3636V24.358H80.6543V23.3636H84.6117ZM81.8077 21.5341H82.981V28.8125C82.981 29.1439 83.0291 29.3925 83.1252 29.5582C83.2246 29.7206 83.3506 29.83 83.503 29.8864C83.6588 29.9394 83.8229 29.9659 83.9952 29.9659C84.1245 29.9659 84.2305 29.9593 84.3134 29.946C84.3962 29.9295 84.4625 29.9162 84.5123 29.9062L84.7509 30.9602C84.6713 30.9901 84.5603 31.0199 84.4178 31.0497C84.2753 31.0829 84.0946 31.0994 83.8759 31.0994C83.5444 31.0994 83.2196 31.0282 82.9015 30.8857C82.5866 30.7431 82.3248 30.526 82.1159 30.2344C81.9105 29.9427 81.8077 29.5748 81.8077 29.1307V21.5341ZM89.3968 31.1591C88.7074 31.1591 88.1026 30.995 87.5822 30.6669C87.0652 30.3388 86.6608 29.8797 86.3691 29.2898C86.0808 28.6998 85.9366 28.0104 85.9366 27.2216C85.9366 26.4261 86.0808 25.7318 86.3691 25.1385C86.6608 24.5452 87.0652 24.0845 87.5822 23.7564C88.1026 23.4283 88.7074 23.2642 89.3968 23.2642C90.0862 23.2642 90.6895 23.4283 91.2065 23.7564C91.7269 24.0845 92.1312 24.5452 92.4196 25.1385C92.7112 25.7318 92.8571 26.4261 92.8571 27.2216C92.8571 28.0104 92.7112 28.6998 92.4196 29.2898C92.1312 29.8797 91.7269 30.3388 91.2065 30.6669C90.6895 30.995 90.0862 31.1591 89.3968 31.1591ZM89.3968 30.1051C89.9205 30.1051 90.3514 29.9709 90.6895 29.7024C91.0275 29.4339 91.2778 29.081 91.4402 28.6435C91.6026 28.206 91.6838 27.732 91.6838 27.2216C91.6838 26.7112 91.6026 26.2356 91.4402 25.7947C91.2778 25.3539 91.0275 24.9976 90.6895 24.7259C90.3514 24.4541 89.9205 24.3182 89.3968 24.3182C88.8732 24.3182 88.4423 24.4541 88.1042 24.7259C87.7662 24.9976 87.5159 25.3539 87.3535 25.7947C87.1911 26.2356 87.1099 26.7112 87.1099 27.2216C87.1099 27.732 87.1911 28.206 87.3535 28.6435C87.5159 29.081 87.7662 29.4339 88.1042 29.7024C88.4423 29.9709 88.8732 30.1051 89.3968 30.1051ZM94.6481 33.8636V23.3636H95.7816V24.5767H95.9208C96.007 24.4441 96.1263 24.2751 96.2788 24.0696C96.4345 23.8608 96.6566 23.6752 96.945 23.5128C97.2366 23.3471 97.631 23.2642 98.1282 23.2642C98.7712 23.2642 99.338 23.425 99.8285 23.7464C100.319 24.0679 100.702 24.5237 100.977 25.1136C101.252 25.7036 101.39 26.3996 101.39 27.2017C101.39 28.0104 101.252 28.7114 100.977 29.3047C100.702 29.8946 100.321 30.352 99.8335 30.6768C99.3462 30.9983 98.7844 31.1591 98.1481 31.1591C97.6576 31.1591 97.2648 31.0779 96.9698 30.9155C96.6748 30.7498 96.4478 30.5625 96.2887 30.3537C96.1296 30.1416 96.007 29.9659 95.9208 29.8267H95.8214V33.8636H94.6481ZM95.8015 27.1818C95.8015 27.7585 95.886 28.2673 96.055 28.7081C96.2241 29.1456 96.471 29.4886 96.7958 29.7372C97.1206 29.9825 97.5183 30.1051 97.989 30.1051C98.4795 30.1051 98.8888 29.9759 99.217 29.7173C99.5484 29.4555 99.797 29.1042 99.9627 28.6634C100.132 28.2192 100.216 27.7254 100.216 27.1818C100.216 26.6449 100.133 26.161 99.9677 25.7301C99.8053 25.2959 99.5584 24.9529 99.2269 24.701C98.8988 24.4458 98.4862 24.3182 97.989 24.3182C97.5117 24.3182 97.1107 24.4392 96.7859 24.6811C96.4611 24.9197 96.2158 25.2545 96.0501 25.6854C95.8844 26.1129 95.8015 26.6117 95.8015 27.1818ZM103.179 33.8636V23.3636H104.313V24.5767H104.452C104.538 24.4441 104.658 24.2751 104.81 24.0696C104.966 23.8608 105.188 23.6752 105.476 23.5128C105.768 23.3471 106.162 23.2642 106.659 23.2642C107.302 23.2642 107.869 23.425 108.36 23.7464C108.85 24.0679 109.233 24.5237 109.508 25.1136C109.783 25.7036 109.921 26.3996 109.921 27.2017C109.921 28.0104 109.783 28.7114 109.508 29.3047C109.233 29.8946 108.852 30.352 108.365 30.6768C107.877 30.9983 107.316 31.1591 106.679 31.1591C106.189 31.1591 105.796 31.0779 105.501 30.9155C105.206 30.7498 104.979 30.5625 104.82 30.3537C104.661 30.1416 104.538 29.9659 104.452 29.8267H104.353V33.8636H103.179ZM104.333 27.1818C104.333 27.7585 104.417 28.2673 104.586 28.7081C104.755 29.1456 105.002 29.4886 105.327 29.7372C105.652 29.9825 106.05 30.1051 106.52 30.1051C107.011 30.1051 107.42 29.9759 107.748 29.7173C108.08 29.4555 108.328 29.1042 108.494 28.6634C108.663 28.2192 108.748 27.7254 108.748 27.1818C108.748 26.6449 108.665 26.161 108.499 25.7301C108.337 25.2959 108.09 24.9529 107.758 24.701C107.43 24.4458 107.017 24.3182 106.52 24.3182C106.043 24.3182 105.642 24.4392 105.317 24.6811C104.992 24.9197 104.747 25.2545 104.581 25.6854C104.416 26.1129 104.333 26.6117 104.333 27.1818ZM113.958 31.179C113.474 31.179 113.035 31.0878 112.64 30.9055C112.246 30.7199 111.933 30.4531 111.701 30.1051C111.469 29.7538 111.353 29.3295 111.353 28.8324C111.353 28.3949 111.439 28.0402 111.611 27.7685C111.783 27.4934 112.014 27.2779 112.302 27.1222C112.591 26.9664 112.909 26.8504 113.257 26.7741C113.608 26.6946 113.961 26.6316 114.316 26.5852C114.78 26.5256 115.156 26.4808 115.444 26.451C115.736 26.4179 115.948 26.3632 116.081 26.2869C116.217 26.2107 116.284 26.0781 116.284 25.8892V25.8494C116.284 25.3589 116.15 24.9777 115.882 24.706C115.617 24.4342 115.214 24.2983 114.674 24.2983C114.114 24.2983 113.674 24.4209 113.356 24.6662C113.038 24.9115 112.814 25.1733 112.685 25.4517L111.571 25.054C111.77 24.59 112.035 24.2287 112.367 23.9702C112.702 23.7083 113.066 23.526 113.461 23.4233C113.858 23.3172 114.249 23.2642 114.634 23.2642C114.879 23.2642 115.161 23.294 115.479 23.3537C115.801 23.41 116.11 23.5277 116.409 23.7067C116.71 23.8857 116.961 24.1558 117.159 24.517C117.358 24.8783 117.458 25.3622 117.458 25.9688V31H116.284V29.9659H116.225C116.145 30.1316 116.013 30.3089 115.827 30.4979C115.641 30.6868 115.395 30.8475 115.086 30.9801C114.778 31.1127 114.402 31.179 113.958 31.179ZM114.137 30.125C114.601 30.125 114.992 30.0339 115.31 29.8516C115.632 29.6693 115.873 29.4339 116.036 29.1456C116.202 28.8572 116.284 28.554 116.284 28.2358V27.1619C116.235 27.2216 116.125 27.2763 115.956 27.326C115.791 27.3724 115.598 27.4138 115.38 27.4503C115.164 27.4834 114.954 27.5133 114.748 27.5398C114.546 27.563 114.382 27.5829 114.256 27.5994C113.951 27.6392 113.666 27.7038 113.401 27.7933C113.139 27.8795 112.927 28.0104 112.765 28.1861C112.605 28.3584 112.526 28.5937 112.526 28.892C112.526 29.2997 112.677 29.608 112.978 29.8168C113.283 30.0223 113.669 30.125 114.137 30.125ZM119.758 31V20.8182H120.932V24.5767H121.031C121.117 24.4441 121.237 24.2751 121.389 24.0696C121.545 23.8608 121.767 23.6752 122.055 23.5128C122.347 23.3471 122.741 23.2642 123.238 23.2642C123.881 23.2642 124.448 23.425 124.939 23.7464C125.429 24.0679 125.812 24.5237 126.087 25.1136C126.362 25.7036 126.5 26.3996 126.5 27.2017C126.5 28.0104 126.362 28.7114 126.087 29.3047C125.812 29.8946 125.431 30.352 124.944 30.6768C124.456 30.9983 123.895 31.1591 123.258 31.1591C122.768 31.1591 122.375 31.0779 122.08 30.9155C121.785 30.7498 121.558 30.5625 121.399 30.3537C121.24 30.1416 121.117 29.9659 121.031 29.8267H120.892V31H119.758ZM120.912 27.1818C120.912 27.7585 120.996 28.2673 121.165 28.7081C121.334 29.1456 121.581 29.4886 121.906 29.7372C122.231 29.9825 122.629 30.1051 123.099 30.1051C123.59 30.1051 123.999 29.9759 124.327 29.7173C124.659 29.4555 124.907 29.1042 125.073 28.6634C125.242 28.2192 125.327 27.7254 125.327 27.1818C125.327 26.6449 125.244 26.161 125.078 25.7301C124.916 25.2959 124.669 24.9529 124.337 24.701C124.009 24.4458 123.596 24.3182 123.099 24.3182C122.622 24.3182 122.221 24.4392 121.896 24.6811C121.571 24.9197 121.326 25.2545 121.16 25.6854C120.995 26.1129 120.912 26.6117 120.912 27.1818ZM129.468 20.8182V31H128.295V20.8182H129.468ZM134.819 31.1591C134.083 31.1591 133.448 30.9967 132.914 30.6719C132.384 30.3438 131.975 29.8864 131.686 29.2997C131.401 28.7098 131.259 28.0237 131.259 27.2415C131.259 26.4593 131.401 25.7699 131.686 25.1733C131.975 24.5734 132.376 24.1061 132.89 23.7713C133.407 23.4332 134.01 23.2642 134.699 23.2642C135.097 23.2642 135.49 23.3305 135.877 23.4631C136.265 23.5956 136.618 23.8111 136.936 24.1094C137.255 24.4044 137.508 24.7955 137.697 25.2827C137.886 25.7699 137.98 26.3698 137.98 27.0824V27.5795H132.094V26.5653H136.787C136.787 26.1345 136.701 25.75 136.529 25.4119C136.36 25.0739 136.118 24.8071 135.803 24.6115C135.491 24.416 135.123 24.3182 134.699 24.3182C134.232 24.3182 133.828 24.4342 133.486 24.6662C133.148 24.8949 132.888 25.1932 132.706 25.5611C132.523 25.929 132.432 26.3234 132.432 26.7443V27.4205C132.432 27.9972 132.532 28.486 132.73 28.8871C132.933 29.2848 133.213 29.5881 133.571 29.7969C133.929 30.0024 134.345 30.1051 134.819 30.1051C135.127 30.1051 135.405 30.062 135.654 29.9759C135.906 29.8864 136.123 29.7538 136.305 29.5781C136.487 29.3991 136.628 29.1771 136.728 28.9119L137.861 29.2301C137.742 29.6146 137.541 29.9527 137.26 30.2443C136.978 30.5327 136.63 30.758 136.216 30.9205C135.801 31.0795 135.336 31.1591 134.819 31.1591ZM147.004 31H143.862V20.8182H147.143C148.131 20.8182 148.976 21.022 149.679 21.4297C150.381 21.834 150.92 22.4157 151.294 23.1747C151.669 23.9304 151.856 24.8352 151.856 25.8892C151.856 26.9498 151.667 27.8629 151.289 28.6286C150.912 29.3909 150.361 29.9775 149.639 30.3885C148.916 30.7962 148.038 31 147.004 31ZM145.095 29.9062H146.924C147.766 29.9062 148.464 29.7438 149.017 29.419C149.571 29.0942 149.984 28.6319 150.255 28.032C150.527 27.4321 150.663 26.7178 150.663 25.8892C150.663 25.0672 150.529 24.3596 150.26 23.7663C149.992 23.1697 149.591 22.7124 149.057 22.3942C148.524 22.0727 147.859 21.9119 147.064 21.9119H145.095V29.9062ZM156.868 31.1591C156.178 31.1591 155.573 30.995 155.053 30.6669C154.536 30.3388 154.132 29.8797 153.84 29.2898C153.551 28.6998 153.407 28.0104 153.407 27.2216C153.407 26.4261 153.551 25.7318 153.84 25.1385C154.132 24.5452 154.536 24.0845 155.053 23.7564C155.573 23.4283 156.178 23.2642 156.868 23.2642C157.557 23.2642 158.16 23.4283 158.677 23.7564C159.198 24.0845 159.602 24.5452 159.89 25.1385C160.182 25.7318 160.328 26.4261 160.328 27.2216C160.328 28.0104 160.182 28.6998 159.89 29.2898C159.602 29.8797 159.198 30.3388 158.677 30.6669C158.16 30.995 157.557 31.1591 156.868 31.1591ZM156.868 30.1051C157.391 30.1051 157.822 29.9709 158.16 29.7024C158.498 29.4339 158.748 29.081 158.911 28.6435C159.073 28.206 159.154 27.732 159.154 27.2216C159.154 26.7112 159.073 26.2356 158.911 25.7947C158.748 25.3539 158.498 24.9976 158.16 24.7259C157.822 24.4541 157.391 24.3182 156.868 24.3182C156.344 24.3182 155.913 24.4541 155.575 24.7259C155.237 24.9976 154.987 25.3539 154.824 25.7947C154.662 26.2356 154.581 26.7112 154.581 27.2216C154.581 27.732 154.662 28.206 154.824 28.6435C154.987 29.081 155.237 29.4339 155.575 29.7024C155.913 29.9709 156.344 30.1051 156.868 30.1051ZM162.119 31V23.3636H163.252V24.5568H163.352C163.511 24.1491 163.768 23.8326 164.122 23.6072C164.477 23.3786 164.903 23.2642 165.4 23.2642C165.904 23.2642 166.323 23.3786 166.658 23.6072C166.996 23.8326 167.259 24.1491 167.448 24.5568H167.528C167.723 24.1624 168.017 23.8492 168.408 23.6172C168.799 23.3819 169.268 23.2642 169.815 23.2642C170.498 23.2642 171.056 23.478 171.49 23.9055C171.924 24.3298 172.142 24.991 172.142 25.8892V31H170.968V25.8892C170.968 25.3258 170.814 24.9231 170.506 24.6811C170.198 24.4392 169.835 24.3182 169.417 24.3182C168.88 24.3182 168.464 24.4806 168.169 24.8054C167.874 25.1269 167.727 25.5346 167.727 26.0284V31H166.534V25.7699C166.534 25.3357 166.393 24.986 166.111 24.7209C165.829 24.4524 165.466 24.3182 165.022 24.3182C164.717 24.3182 164.432 24.3994 164.167 24.5618C163.905 24.7242 163.693 24.9496 163.531 25.2379C163.372 25.523 163.292 25.8527 163.292 26.2273V31H162.119ZM176.534 31.179C176.05 31.179 175.611 31.0878 175.216 30.9055C174.822 30.7199 174.509 30.4531 174.277 30.1051C174.045 29.7538 173.929 29.3295 173.929 28.8324C173.929 28.3949 174.015 28.0402 174.187 27.7685C174.36 27.4934 174.59 27.2779 174.878 27.1222C175.167 26.9664 175.485 26.8504 175.833 26.7741C176.184 26.6946 176.537 26.6316 176.892 26.5852C177.356 26.5256 177.732 26.4808 178.02 26.451C178.312 26.4179 178.524 26.3632 178.657 26.2869C178.793 26.2107 178.861 26.0781 178.861 25.8892V25.8494C178.861 25.3589 178.726 24.9777 178.458 24.706C178.193 24.4342 177.79 24.2983 177.25 24.2983C176.69 24.2983 176.251 24.4209 175.932 24.6662C175.614 24.9115 175.39 25.1733 175.261 25.4517L174.148 25.054C174.346 24.59 174.612 24.2287 174.943 23.9702C175.278 23.7083 175.642 23.526 176.037 23.4233C176.434 23.3172 176.826 23.2642 177.21 23.2642C177.455 23.2642 177.737 23.294 178.055 23.3537C178.377 23.41 178.687 23.5277 178.985 23.7067C179.287 23.8857 179.537 24.1558 179.736 24.517C179.934 24.8783 180.034 25.3622 180.034 25.9688V31H178.861V29.9659H178.801C178.721 30.1316 178.589 30.3089 178.403 30.4979C178.218 30.6868 177.971 30.8475 177.662 30.9801C177.354 31.1127 176.978 31.179 176.534 31.179ZM176.713 30.125C177.177 30.125 177.568 30.0339 177.886 29.8516C178.208 29.6693 178.45 29.4339 178.612 29.1456C178.778 28.8572 178.861 28.554 178.861 28.2358V27.1619C178.811 27.2216 178.702 27.2763 178.532 27.326C178.367 27.3724 178.175 27.4138 177.956 27.4503C177.74 27.4834 177.53 27.5133 177.324 27.5398C177.122 27.563 176.958 27.5829 176.832 27.5994C176.527 27.6392 176.242 27.7038 175.977 27.7933C175.715 27.8795 175.503 28.0104 175.341 28.1861C175.182 28.3584 175.102 28.5937 175.102 28.892C175.102 29.2997 175.253 29.608 175.555 29.8168C175.859 30.0223 176.246 30.125 176.713 30.125ZM182.175 31V23.3636H183.349V31H182.175ZM182.772 22.0909C182.543 22.0909 182.346 22.013 182.18 21.8572C182.018 21.7015 181.937 21.5142 181.937 21.2955C181.937 21.0767 182.018 20.8894 182.18 20.7337C182.346 20.5779 182.543 20.5 182.772 20.5C183.001 20.5 183.196 20.5779 183.359 20.7337C183.524 20.8894 183.607 21.0767 183.607 21.2955C183.607 21.5142 183.524 21.7015 183.359 21.8572C183.196 22.013 183.001 22.0909 182.772 22.0909ZM186.671 26.4062V31H185.498V23.3636H186.631V24.5568H186.731C186.91 24.169 187.181 23.8575 187.546 23.6222C187.911 23.3835 188.381 23.2642 188.958 23.2642C189.475 23.2642 189.927 23.3703 190.315 23.5824C190.703 23.7912 191.005 24.1094 191.22 24.5369C191.435 24.9612 191.543 25.4981 191.543 26.1477V31H190.37V26.2273C190.37 25.6274 190.214 25.16 189.903 24.8253C189.591 24.4872 189.163 24.3182 188.62 24.3182C188.245 24.3182 187.911 24.3994 187.616 24.5618C187.324 24.7242 187.094 24.9612 186.925 25.2727C186.756 25.5843 186.671 25.9621 186.671 26.4062ZM199.096 25.0739L198.042 25.3722C197.976 25.1965 197.878 25.0258 197.749 24.8601C197.623 24.6911 197.451 24.5518 197.232 24.4425C197.013 24.3331 196.733 24.2784 196.392 24.2784C195.924 24.2784 195.535 24.3861 195.223 24.6016C194.915 24.8137 194.761 25.0838 194.761 25.4119C194.761 25.7036 194.867 25.9339 195.079 26.103C195.291 26.272 195.623 26.4129 196.074 26.5256L197.207 26.804C197.89 26.9697 198.399 27.2232 198.733 27.5646C199.068 27.9027 199.235 28.3385 199.235 28.8722C199.235 29.3097 199.109 29.7008 198.858 30.0455C198.609 30.3902 198.261 30.6619 197.814 30.8608C197.366 31.0597 196.846 31.1591 196.252 31.1591C195.474 31.1591 194.829 30.9901 194.319 30.652C193.808 30.3139 193.485 29.8201 193.349 29.1705L194.463 28.892C194.569 29.303 194.769 29.6113 195.064 29.8168C195.363 30.0223 195.752 30.125 196.233 30.125C196.779 30.125 197.214 30.009 197.535 29.777C197.86 29.5417 198.022 29.2599 198.022 28.9318C198.022 28.6667 197.93 28.4446 197.744 28.2656C197.558 28.0833 197.273 27.9474 196.889 27.858L195.616 27.5597C194.917 27.3939 194.403 27.1371 194.075 26.7891C193.75 26.4377 193.588 25.9986 193.588 25.4716C193.588 25.0407 193.709 24.6596 193.951 24.3281C194.196 23.9967 194.529 23.7365 194.95 23.5476C195.374 23.3587 195.855 23.2642 196.392 23.2642C197.147 23.2642 197.741 23.4299 198.172 23.7614C198.606 24.0928 198.914 24.5303 199.096 25.0739Z" fill="#7A7A85"/>
<rect width="329" height="92" transform="matrix(1 0 0 -1 0 184)" fill="url(#paint0_linear_724_35906)"/>
<rect x="16" y="110.333" width="301" height="12" rx="4" fill="black" fill-opacity="0.08"/>
<rect x="16" y="130.667" width="242" height="12" rx="4" fill="black" fill-opacity="0.08"/>
<rect x="16" y="150.667" width="270" height="12" rx="4" fill="black" fill-opacity="0.08"/>
<rect width="329" height="157" transform="matrix(1 0 0 -1 0 341)" fill="url(#paint1_linear_724_35906)"/>
<defs>
<linearGradient id="paint0_linear_724_35906" x1="164.5" y1="0" x2="164.5" y2="92" gradientUnits="userSpaceOnUse">
<stop stop-color="white"/>
<stop offset="1" stop-color="#F7F7F7"/>
</linearGradient>
<linearGradient id="paint1_linear_724_35906" x1="164.5" y1="0" x2="164.5" y2="157" gradientUnits="userSpaceOnUse">
<stop stop-color="white" stop-opacity="0"/>
<stop offset="0.5" stop-color="white"/>
<stop offset="1" stop-color="#F7F7F7"/>
</linearGradient>
</defs>
</svg>
