<svg width="41" height="40" viewBox="0 0 41 40" fill="none" xmlns="http://www.w3.org/2000/svg">
<path fill-rule="evenodd" clip-rule="evenodd" d="M30.5037 5L10.5037 5.00003C7.74223 5.00004 5.50366 7.23862 5.50366 10V26.7263C5.50366 29.4877 7.74224 31.7263 10.5037 31.7263H14.9197L19.4259 35.5036C20.0425 36.0204 20.9403 36.023 21.5598 35.5097L26.1266 31.7263L30.5037 31.7263C33.2651 31.7262 35.5037 29.4877 35.5037 26.7263V10C35.5037 7.23857 33.2651 5 30.5037 5ZM20.5 24.5833C21.4205 24.5833 22.1667 23.8371 22.1667 22.9167V19.5833C22.1667 18.6629 21.4205 17.9167 20.5 17.9167C19.5795 17.9167 18.8333 18.6629 18.8333 19.5833V22.9167C18.8333 23.8371 19.5795 24.5833 20.5 24.5833ZM20.5 16.6667C19.3494 16.6667 18.4167 15.7339 18.4167 14.5833C18.4167 13.4327 19.3494 12.5 20.5 12.5C21.6506 12.5 22.5833 13.4327 22.5833 14.5833C22.5833 15.7339 21.6506 16.6667 20.5 16.6667Z" fill="#57575C"/>
</svg>
