<svg width="25" height="24" viewBox="0 0 25 24" fill="none" xmlns="http://www.w3.org/2000/svg">
<g id="clock, time, timer">
<path id="Icon" fill-rule="evenodd" clip-rule="evenodd" d="M12.625 22C18.1478 22 22.625 17.5228 22.625 12C22.625 6.47715 18.1478 2 12.625 2C7.10215 2 2.625 6.47715 2.625 12C2.625 17.5228 7.10215 22 12.625 22ZM13.625 8C13.625 7.44772 13.1773 7 12.625 7C12.0727 7 11.625 7.44772 11.625 8V12C11.625 12.2652 11.7304 12.5196 11.9179 12.7071L14.4179 15.2071C14.8084 15.5976 15.4416 15.5976 15.8321 15.2071C16.2226 14.8166 16.2226 14.1834 15.8321 13.7929L13.625 11.5858V8Z" fill="white"/>
</g>
</svg>
