<svg width="329" height="341" viewBox="0 0 329 341" fill="none" xmlns="http://www.w3.org/2000/svg">
<g clip-path="url(#clip0_1288_40202)">
<rect width="329" height="341" transform="matrix(1 0 0 -1 0 341)" fill="#232324" fill-opacity="0.64"/>
<rect x="277" y="290.5" width="32" height="12" rx="6" fill="white" fill-opacity="0.04"/>
<rect x="76" y="290.5" width="160" height="12" rx="6" fill="white" fill-opacity="0.12"/>
<rect x="76" y="314.5" width="188" height="8" rx="4" fill="white" fill-opacity="0.04"/>
<rect x="76" y="330.5" width="172" height="8" rx="4" fill="white" fill-opacity="0.04"/>
<circle cx="40" cy="314.5" r="20" fill="white" fill-opacity="0.12"/>
<g filter="url(#filter0_d_1288_40202)">
<line y1="266" x2="329" y2="266" stroke="white" stroke-opacity="0.08" shape-rendering="crispEdges"/>
</g>
<rect x="277" y="194.5" width="32" height="12" rx="6" fill="white" fill-opacity="0.04"/>
<rect x="76" y="194.5" width="160" height="12" rx="6" fill="white" fill-opacity="0.12"/>
<rect x="76" y="218.5" width="188" height="8" rx="4" fill="white" fill-opacity="0.04"/>
<rect x="76" y="234.5" width="172" height="8" rx="4" fill="white" fill-opacity="0.04"/>
<circle cx="40" cy="218.5" r="20" fill="white" fill-opacity="0.12"/>
<g filter="url(#filter1_d_1288_40202)">
<line y1="170" x2="329" y2="170" stroke="url(#paint0_linear_1288_40202)" shape-rendering="crispEdges"/>
</g>
<g clip-path="url(#clip1_1288_40202)">
<rect width="329" height="96" transform="matrix(1 0 0 -1 0 170.5)" fill="url(#paint1_linear_1288_40202)"/>
<g filter="url(#filter2_dddd_1288_40202)">
<circle cx="40" cy="122.5" r="20" fill="#0D67FE"/>
<g clip-path="url(#clip2_1288_40202)">
<path d="M53.7143 110.473V119.923L26.2857 131.091L53.7143 110.473Z" fill="#00C9FF"/>
<path d="M48.5714 110.043V126.366C48.5714 131.111 44.7337 134.957 40 134.957C35.2663 134.957 31.4286 131.111 31.4286 126.366V119.493L36.5714 116.658V126.366C36.5714 127.164 36.8875 127.928 37.4501 128.492C38.0127 129.056 38.7758 129.373 39.5714 129.373C40.3671 129.373 41.1302 129.056 41.6928 128.492C42.2554 127.928 42.5714 127.164 42.5714 126.366V113.351L48.5714 110.043Z" fill="#FFFCF0"/>
</g>
<circle cx="40" cy="122.5" r="19.5" stroke="white" stroke-opacity="0.01"/>
</g>
<path d="M83.6662 99.3182H85.2074V106.015C85.2074 106.728 85.04 107.359 84.7053 107.909C84.3705 108.456 83.8999 108.887 83.2933 109.202C82.6868 109.513 81.9759 109.669 81.1605 109.669C80.3485 109.669 79.6392 109.513 79.0327 109.202C78.4261 108.887 77.9555 108.456 77.6207 107.909C77.286 107.359 77.1186 106.728 77.1186 106.015V99.3182H78.6548V105.891C78.6548 106.351 78.7559 106.761 78.9581 107.119C79.1636 107.477 79.4536 107.758 79.8281 107.964C80.2027 108.166 80.6468 108.267 81.1605 108.267C81.6776 108.267 82.1233 108.166 82.4979 107.964C82.8757 107.758 83.1641 107.477 83.3629 107.119C83.5651 106.761 83.6662 106.351 83.6662 105.891V99.3182ZM88.8081 104.966V109.5H87.3216V101.864H88.7484V103.107H88.8429C89.0185 102.702 89.2936 102.377 89.6681 102.132C90.046 101.887 90.5216 101.764 91.095 101.764C91.6154 101.764 92.0711 101.874 92.4622 102.092C92.8533 102.308 93.1565 102.629 93.372 103.057C93.5874 103.484 93.6951 104.013 93.6951 104.643V109.5H92.2086V104.822C92.2086 104.268 92.0645 103.836 91.7761 103.524C91.4877 103.209 91.0917 103.052 90.5879 103.052C90.2432 103.052 89.9366 103.126 89.6681 103.276C89.403 103.425 89.1925 103.643 89.0368 103.932C88.8843 104.217 88.8081 104.562 88.8081 104.966ZM101.411 103.728L100.064 103.967C100.007 103.794 99.9179 103.63 99.7953 103.474C99.676 103.319 99.5136 103.191 99.3081 103.092C99.1026 102.992 98.8457 102.942 98.5375 102.942C98.1165 102.942 97.7652 103.037 97.4835 103.226C97.2018 103.411 97.0609 103.652 97.0609 103.947C97.0609 104.202 97.1554 104.407 97.3443 104.563C97.5332 104.719 97.8381 104.847 98.2591 104.946L99.4721 105.224C100.175 105.387 100.698 105.637 101.043 105.975C101.388 106.313 101.56 106.752 101.56 107.293C101.56 107.75 101.428 108.158 101.162 108.516C100.901 108.87 100.534 109.149 100.064 109.351C99.5964 109.553 99.0545 109.654 98.438 109.654C97.5829 109.654 96.8852 109.472 96.345 109.107C95.8047 108.739 95.4733 108.217 95.3507 107.541L96.7875 107.322C96.877 107.697 97.0609 107.98 97.3393 108.173C97.6177 108.362 97.9806 108.456 98.4281 108.456C98.9153 108.456 99.3047 108.355 99.5964 108.153C99.8881 107.947 100.034 107.697 100.034 107.402C100.034 107.163 99.9444 106.963 99.7654 106.8C99.5898 106.638 99.3197 106.515 98.9551 106.433L97.6625 106.149C96.9499 105.987 96.4229 105.728 96.0815 105.374C95.7434 105.019 95.5744 104.57 95.5744 104.026C95.5744 103.576 95.7003 103.181 95.9522 102.843C96.2041 102.505 96.5521 102.241 96.9963 102.053C97.4404 101.86 97.9492 101.764 98.5225 101.764C99.3478 101.764 99.9975 101.943 100.471 102.301C100.945 102.656 101.259 103.131 101.411 103.728ZM106.759 101.864V103.057H102.588V101.864H106.759ZM103.707 100.034H105.193V107.258C105.193 107.546 105.236 107.763 105.322 107.909C105.409 108.052 105.52 108.149 105.656 108.202C105.795 108.252 105.946 108.277 106.108 108.277C106.227 108.277 106.332 108.269 106.421 108.252C106.511 108.236 106.58 108.222 106.63 108.212L106.898 109.44C106.812 109.473 106.69 109.507 106.531 109.54C106.371 109.576 106.173 109.596 105.934 109.599C105.543 109.606 105.178 109.536 104.84 109.391C104.502 109.245 104.229 109.019 104.02 108.714C103.811 108.41 103.707 108.027 103.707 107.566V100.034ZM111.538 109.654C110.822 109.654 110.198 109.49 109.664 109.162C109.13 108.834 108.716 108.375 108.421 107.785C108.126 107.195 107.979 106.505 107.979 105.717C107.979 104.924 108.126 104.232 108.421 103.638C108.716 103.045 109.13 102.585 109.664 102.256C110.198 101.928 110.822 101.764 111.538 101.764C112.254 101.764 112.879 101.928 113.412 102.256C113.946 102.585 114.36 103.045 114.655 103.638C114.95 104.232 115.098 104.924 115.098 105.717C115.098 106.505 114.95 107.195 114.655 107.785C114.36 108.375 113.946 108.834 113.412 109.162C112.879 109.49 112.254 109.654 111.538 109.654ZM111.543 108.406C112.007 108.406 112.392 108.284 112.697 108.038C113.001 107.793 113.227 107.467 113.373 107.059C113.522 106.651 113.596 106.202 113.596 105.712C113.596 105.224 113.522 104.777 113.373 104.369C113.227 103.958 113.001 103.629 112.697 103.38C112.392 103.131 112.007 103.007 111.543 103.007C111.076 103.007 110.688 103.131 110.38 103.38C110.075 103.629 109.848 103.958 109.699 104.369C109.553 104.777 109.48 105.224 109.48 105.712C109.48 106.202 109.553 106.651 109.699 107.059C109.848 107.467 110.075 107.793 110.38 108.038C110.688 108.284 111.076 108.406 111.543 108.406ZM116.757 112.364V101.864H118.209V103.102H118.333C118.419 102.942 118.544 102.759 118.706 102.55C118.868 102.341 119.094 102.159 119.382 102.003C119.67 101.844 120.052 101.764 120.526 101.764C121.142 101.764 121.692 101.92 122.176 102.232C122.66 102.543 123.04 102.992 123.315 103.579C123.593 104.165 123.732 104.871 123.732 105.697C123.732 106.522 123.595 107.23 123.32 107.82C123.045 108.406 122.667 108.859 122.186 109.177C121.705 109.492 121.157 109.649 120.54 109.649C120.076 109.649 119.697 109.571 119.402 109.415C119.11 109.26 118.882 109.077 118.716 108.869C118.55 108.66 118.423 108.474 118.333 108.312H118.244V112.364H116.757ZM118.214 105.682C118.214 106.219 118.292 106.689 118.447 107.094C118.603 107.498 118.829 107.815 119.124 108.043C119.419 108.269 119.78 108.381 120.207 108.381C120.652 108.381 121.023 108.264 121.321 108.028C121.619 107.79 121.845 107.467 121.997 107.059C122.153 106.651 122.231 106.192 122.231 105.682C122.231 105.178 122.155 104.726 122.002 104.325C121.853 103.924 121.628 103.607 121.326 103.375C121.028 103.143 120.655 103.027 120.207 103.027C119.777 103.027 119.412 103.138 119.114 103.36C118.819 103.582 118.595 103.892 118.442 104.29C118.29 104.687 118.214 105.152 118.214 105.682ZM125.398 112.364V101.864H126.849V103.102H126.974C127.06 102.942 127.184 102.759 127.347 102.55C127.509 102.341 127.734 102.159 128.023 102.003C128.311 101.844 128.692 101.764 129.166 101.764C129.783 101.764 130.333 101.92 130.817 102.232C131.301 102.543 131.68 102.992 131.955 103.579C132.234 104.165 132.373 104.871 132.373 105.697C132.373 106.522 132.235 107.23 131.96 107.82C131.685 108.406 131.307 108.859 130.827 109.177C130.346 109.492 129.798 109.649 129.181 109.649C128.717 109.649 128.338 109.571 128.043 109.415C127.751 109.26 127.522 109.077 127.357 108.869C127.191 108.66 127.063 108.474 126.974 108.312H126.884V112.364H125.398ZM126.854 105.682C126.854 106.219 126.932 106.689 127.088 107.094C127.244 107.498 127.469 107.815 127.764 108.043C128.059 108.269 128.42 108.381 128.848 108.381C129.292 108.381 129.663 108.264 129.962 108.028C130.26 107.79 130.485 107.467 130.638 107.059C130.794 106.651 130.871 106.192 130.871 105.682C130.871 105.178 130.795 104.726 130.643 104.325C130.494 103.924 130.268 103.607 129.967 103.375C129.668 103.143 129.295 103.027 128.848 103.027C128.417 103.027 128.053 103.138 127.754 103.36C127.459 103.582 127.236 103.892 127.083 104.29C126.931 104.687 126.854 105.152 126.854 105.682ZM136.261 109.669C135.777 109.669 135.339 109.58 134.948 109.401C134.557 109.218 134.247 108.955 134.018 108.61C133.793 108.265 133.68 107.843 133.68 107.342C133.68 106.911 133.763 106.557 133.929 106.278C134.095 106 134.318 105.78 134.6 105.617C134.882 105.455 135.197 105.332 135.545 105.249C135.893 105.166 136.247 105.103 136.609 105.06C137.066 105.007 137.437 104.964 137.722 104.931C138.007 104.895 138.214 104.837 138.344 104.757C138.473 104.678 138.538 104.548 138.538 104.369V104.335C138.538 103.9 138.415 103.564 138.17 103.325C137.928 103.087 137.567 102.967 137.086 102.967C136.585 102.967 136.191 103.078 135.903 103.3C135.618 103.519 135.42 103.763 135.311 104.031L133.914 103.713C134.08 103.249 134.322 102.875 134.64 102.589C134.961 102.301 135.331 102.092 135.749 101.963C136.166 101.83 136.605 101.764 137.066 101.764C137.371 101.764 137.694 101.801 138.036 101.874C138.38 101.943 138.702 102.072 139 102.261C139.302 102.45 139.549 102.72 139.741 103.072C139.933 103.42 140.029 103.872 140.029 104.429V109.5H138.577V108.456H138.518C138.422 108.648 138.277 108.837 138.085 109.023C137.893 109.208 137.646 109.362 137.344 109.485C137.043 109.608 136.682 109.669 136.261 109.669ZM136.584 108.476C136.995 108.476 137.346 108.395 137.638 108.232C137.933 108.07 138.156 107.858 138.309 107.596C138.465 107.331 138.543 107.047 138.543 106.746V105.761C138.49 105.814 138.387 105.864 138.234 105.911C138.085 105.954 137.915 105.992 137.722 106.025C137.53 106.055 137.343 106.083 137.161 106.109C136.978 106.133 136.826 106.152 136.703 106.169C136.415 106.205 136.151 106.267 135.913 106.353C135.677 106.439 135.488 106.563 135.346 106.726C135.207 106.885 135.137 107.097 135.137 107.362C135.137 107.73 135.273 108.009 135.545 108.197C135.817 108.383 136.163 108.476 136.584 108.476ZM142.128 109.5V99.3182H143.615V103.102H143.704C143.791 102.942 143.915 102.759 144.077 102.55C144.24 102.341 144.465 102.159 144.753 102.003C145.042 101.844 145.423 101.764 145.897 101.764C146.513 101.764 147.064 101.92 147.547 102.232C148.031 102.543 148.411 102.992 148.686 103.579C148.964 104.165 149.104 104.871 149.104 105.697C149.104 106.522 148.966 107.23 148.691 107.82C148.416 108.406 148.038 108.859 147.557 109.177C147.077 109.492 146.528 109.649 145.912 109.649C145.448 109.649 145.068 109.571 144.773 109.415C144.482 109.26 144.253 109.077 144.087 108.869C143.921 108.66 143.794 108.474 143.704 108.312H143.58V109.5H142.128ZM143.585 105.682C143.585 106.219 143.663 106.689 143.819 107.094C143.974 107.498 144.2 107.815 144.495 108.043C144.79 108.269 145.151 108.381 145.579 108.381C146.023 108.381 146.394 108.264 146.692 108.028C146.991 107.79 147.216 107.467 147.368 107.059C147.524 106.651 147.602 106.192 147.602 105.682C147.602 105.178 147.526 104.726 147.373 104.325C147.224 103.924 146.999 103.607 146.697 103.375C146.399 103.143 146.026 103.027 145.579 103.027C145.148 103.027 144.783 103.138 144.485 103.36C144.19 103.582 143.966 103.892 143.814 104.29C143.661 104.687 143.585 105.152 143.585 105.682ZM152.259 99.3182V109.5H150.773V99.3182H152.259ZM157.55 109.654C156.798 109.654 156.15 109.493 155.606 109.172C155.066 108.847 154.648 108.391 154.354 107.805C154.062 107.215 153.916 106.524 153.916 105.732C153.916 104.949 154.062 104.26 154.354 103.663C154.648 103.067 155.059 102.601 155.586 102.266C156.117 101.932 156.737 101.764 157.446 101.764C157.877 101.764 158.294 101.835 158.699 101.978C159.103 102.121 159.466 102.344 159.787 102.649C160.109 102.954 160.363 103.35 160.548 103.837C160.734 104.321 160.827 104.91 160.827 105.602V106.129H154.756V105.016H159.37C159.37 104.625 159.29 104.278 159.131 103.977C158.972 103.672 158.748 103.431 158.46 103.256C158.175 103.08 157.84 102.992 157.456 102.992C157.038 102.992 156.674 103.095 156.362 103.3C156.054 103.503 155.815 103.768 155.646 104.096C155.48 104.421 155.398 104.774 155.398 105.155V106.025C155.398 106.535 155.487 106.969 155.666 107.327C155.848 107.685 156.102 107.959 156.427 108.148C156.751 108.333 157.131 108.426 157.565 108.426C157.847 108.426 158.104 108.386 158.336 108.307C158.568 108.224 158.768 108.101 158.937 107.939C159.106 107.777 159.236 107.576 159.325 107.337L160.732 107.591C160.619 108.005 160.417 108.368 160.126 108.68C159.837 108.988 159.474 109.228 159.037 109.401C158.603 109.57 158.107 109.654 157.55 109.654ZM169.596 109.5H166.3V99.3182H169.701C170.698 99.3182 171.555 99.522 172.271 99.9297C172.987 100.334 173.536 100.916 173.917 101.675C174.301 102.43 174.493 103.337 174.493 104.394C174.493 105.455 174.3 106.366 173.912 107.129C173.527 107.891 172.97 108.478 172.241 108.888C171.512 109.296 170.631 109.5 169.596 109.5ZM167.836 108.158H169.512C170.287 108.158 170.932 108.012 171.446 107.72C171.96 107.425 172.344 106.999 172.599 106.442C172.854 105.882 172.982 105.2 172.982 104.394C172.982 103.595 172.854 102.918 172.599 102.361C172.347 101.804 171.971 101.381 171.471 101.093C170.97 100.805 170.349 100.661 169.606 100.661H167.836V108.158ZM179.501 109.654C178.785 109.654 178.16 109.49 177.627 109.162C177.093 108.834 176.679 108.375 176.384 107.785C176.089 107.195 175.941 106.505 175.941 105.717C175.941 104.924 176.089 104.232 176.384 103.638C176.679 103.045 177.093 102.585 177.627 102.256C178.16 101.928 178.785 101.764 179.501 101.764C180.217 101.764 180.842 101.928 181.375 102.256C181.909 102.585 182.323 103.045 182.618 103.638C182.913 104.232 183.061 104.924 183.061 105.717C183.061 106.505 182.913 107.195 182.618 107.785C182.323 108.375 181.909 108.834 181.375 109.162C180.842 109.49 180.217 109.654 179.501 109.654ZM179.506 108.406C179.97 108.406 180.355 108.284 180.659 108.038C180.964 107.793 181.19 107.467 181.336 107.059C181.485 106.651 181.559 106.202 181.559 105.712C181.559 105.224 181.485 104.777 181.336 104.369C181.19 103.958 180.964 103.629 180.659 103.38C180.355 103.131 179.97 103.007 179.506 103.007C179.039 103.007 178.651 103.131 178.343 103.38C178.038 103.629 177.811 103.958 177.662 104.369C177.516 104.777 177.443 105.224 177.443 105.712C177.443 106.202 177.516 106.651 177.662 107.059C177.811 107.467 178.038 107.793 178.343 108.038C178.651 108.284 179.039 108.406 179.506 108.406ZM184.72 109.5V101.864H186.147V103.107H186.241C186.4 102.686 186.661 102.357 187.022 102.122C187.383 101.884 187.816 101.764 188.319 101.764C188.83 101.764 189.257 101.884 189.602 102.122C189.95 102.361 190.207 102.689 190.373 103.107H190.452C190.635 102.699 190.925 102.374 191.322 102.132C191.72 101.887 192.194 101.764 192.744 101.764C193.437 101.764 194.002 101.981 194.439 102.415C194.88 102.85 195.101 103.504 195.101 104.379V109.5H193.614V104.518C193.614 104.001 193.473 103.627 193.192 103.395C192.91 103.163 192.573 103.047 192.182 103.047C191.698 103.047 191.322 103.196 191.054 103.494C190.785 103.789 190.651 104.169 190.651 104.633V109.5H189.17V104.424C189.17 104.01 189.04 103.677 188.782 103.425C188.523 103.173 188.187 103.047 187.773 103.047C187.491 103.047 187.231 103.121 186.992 103.271C186.757 103.416 186.566 103.62 186.42 103.882C186.278 104.144 186.206 104.447 186.206 104.792V109.5H184.72ZM199.315 109.669C198.831 109.669 198.394 109.58 198.003 109.401C197.612 109.218 197.302 108.955 197.073 108.61C196.848 108.265 196.735 107.843 196.735 107.342C196.735 106.911 196.818 106.557 196.984 106.278C197.149 106 197.373 105.78 197.655 105.617C197.937 105.455 198.251 105.332 198.599 105.249C198.947 105.166 199.302 105.103 199.663 105.06C200.121 105.007 200.492 104.964 200.777 104.931C201.062 104.895 201.269 104.837 201.398 104.757C201.528 104.678 201.592 104.548 201.592 104.369V104.335C201.592 103.9 201.47 103.564 201.224 103.325C200.982 103.087 200.621 102.967 200.141 102.967C199.64 102.967 199.246 103.078 198.957 103.3C198.672 103.519 198.475 103.763 198.366 104.031L196.969 103.713C197.134 103.249 197.376 102.875 197.695 102.589C198.016 102.301 198.386 102.092 198.803 101.963C199.221 101.83 199.66 101.764 200.121 101.764C200.426 101.764 200.749 101.801 201.09 101.874C201.435 101.943 201.756 102.072 202.055 102.261C202.356 102.45 202.603 102.72 202.795 103.072C202.988 103.42 203.084 103.872 203.084 104.429V109.5H201.632V108.456H201.572C201.476 108.648 201.332 108.837 201.14 109.023C200.948 109.208 200.701 109.362 200.399 109.485C200.098 109.608 199.736 109.669 199.315 109.669ZM199.638 108.476C200.049 108.476 200.401 108.395 200.692 108.232C200.987 108.07 201.211 107.858 201.364 107.596C201.519 107.331 201.597 107.047 201.597 106.746V105.761C201.544 105.814 201.442 105.864 201.289 105.911C201.14 105.954 200.969 105.992 200.777 106.025C200.585 106.055 200.397 106.083 200.215 106.109C200.033 106.133 199.88 106.152 199.758 106.169C199.469 106.205 199.206 106.267 198.967 106.353C198.732 106.439 198.543 106.563 198.401 106.726C198.261 106.885 198.192 107.097 198.192 107.362C198.192 107.73 198.328 108.009 198.599 108.197C198.871 108.383 199.218 108.476 199.638 108.476ZM205.064 109.5V101.864H206.55V109.5H205.064ZM205.814 100.685C205.556 100.685 205.334 100.599 205.148 100.427C204.966 100.251 204.875 100.042 204.875 99.8004C204.875 99.5552 204.966 99.3464 205.148 99.174C205.334 98.9983 205.556 98.9105 205.814 98.9105C206.073 98.9105 206.293 98.9983 206.476 99.174C206.661 99.3464 206.754 99.5552 206.754 99.8004C206.754 100.042 206.661 100.251 206.476 100.427C206.293 100.599 206.073 100.685 205.814 100.685ZM210.037 104.966V109.5H208.55V101.864H209.977V103.107H210.071C210.247 102.702 210.522 102.377 210.897 102.132C211.275 101.887 211.75 101.764 212.324 101.764C212.844 101.764 213.3 101.874 213.691 102.092C214.082 102.308 214.385 102.629 214.6 103.057C214.816 103.484 214.924 104.013 214.924 104.643V109.5H213.437V104.822C213.437 104.268 213.293 103.836 213.005 103.524C212.716 103.209 212.32 103.052 211.816 103.052C211.472 103.052 211.165 103.126 210.897 103.276C210.632 103.425 210.421 103.643 210.265 103.932C210.113 104.217 210.037 104.562 210.037 104.966ZM222.64 103.728L221.292 103.967C221.236 103.794 221.146 103.63 221.024 103.474C220.904 103.319 220.742 103.191 220.537 103.092C220.331 102.992 220.074 102.942 219.766 102.942C219.345 102.942 218.994 103.037 218.712 103.226C218.43 103.411 218.289 103.652 218.289 103.947C218.289 104.202 218.384 104.407 218.573 104.563C218.762 104.719 219.067 104.847 219.488 104.946L220.701 105.224C221.403 105.387 221.927 105.637 222.272 105.975C222.616 106.313 222.789 106.752 222.789 107.293C222.789 107.75 222.656 108.158 222.391 108.516C222.129 108.87 221.763 109.149 221.292 109.351C220.825 109.553 220.283 109.654 219.667 109.654C218.811 109.654 218.114 109.472 217.574 109.107C217.033 108.739 216.702 108.217 216.579 107.541L218.016 107.322C218.105 107.697 218.289 107.98 218.568 108.173C218.846 108.362 219.209 108.456 219.657 108.456C220.144 108.456 220.533 108.355 220.825 108.153C221.117 107.947 221.262 107.697 221.262 107.402C221.262 107.163 221.173 106.963 220.994 106.8C220.818 106.638 220.548 106.515 220.184 106.433L218.891 106.149C218.178 105.987 217.651 105.728 217.31 105.374C216.972 105.019 216.803 104.57 216.803 104.026C216.803 103.576 216.929 103.181 217.181 102.843C217.433 102.505 217.781 102.241 218.225 102.053C218.669 101.86 219.178 101.764 219.751 101.764C220.576 101.764 221.226 101.943 221.7 102.301C222.174 102.656 222.487 103.131 222.64 103.728Z" fill="white"/>
<path d="M78.642 130.5L76.2557 121.773H77.3295L79.1534 128.881H79.2386L81.0966 121.773H82.2898L84.1477 128.881H84.233L86.0568 121.773H87.1307L84.7443 130.5H83.6534L81.7273 123.545H81.6591L79.733 130.5H78.642ZM90.446 130.636C89.8153 130.636 89.2713 130.497 88.8139 130.219C88.3594 129.938 88.0085 129.545 87.7614 129.043C87.517 128.537 87.3949 127.949 87.3949 127.278C87.3949 126.608 87.517 126.017 87.7614 125.506C88.0085 124.991 88.3523 124.591 88.7926 124.304C89.2358 124.014 89.7528 123.869 90.3438 123.869C90.6847 123.869 91.0213 123.926 91.3537 124.04C91.6861 124.153 91.9886 124.338 92.2614 124.594C92.5341 124.847 92.7514 125.182 92.9134 125.599C93.0753 126.017 93.1562 126.531 93.1562 127.142V127.568H88.1108V126.699H92.1335C92.1335 126.33 92.0597 126 91.9119 125.71C91.767 125.42 91.5597 125.192 91.2898 125.024C91.0227 124.857 90.7074 124.773 90.3438 124.773C89.9432 124.773 89.5966 124.872 89.304 125.071C89.0142 125.267 88.7912 125.523 88.6349 125.838C88.4787 126.153 88.4006 126.491 88.4006 126.852V127.432C88.4006 127.926 88.4858 128.345 88.6562 128.689C88.8295 129.03 89.0696 129.29 89.3764 129.469C89.6832 129.645 90.0398 129.733 90.446 129.733C90.7102 129.733 90.9489 129.696 91.1619 129.622C91.3778 129.545 91.5639 129.432 91.7202 129.281C91.8764 129.128 91.9972 128.937 92.0824 128.71L93.054 128.983C92.9517 129.312 92.7798 129.602 92.5384 129.852C92.2969 130.099 91.9986 130.293 91.6435 130.432C91.2884 130.568 90.8892 130.636 90.446 130.636ZM95.6918 121.773V130.5H94.6861V121.773H95.6918ZM100.193 130.636C99.5792 130.636 99.0508 130.491 98.6076 130.202C98.1644 129.912 97.8235 129.513 97.5849 129.004C97.3462 128.496 97.2269 127.915 97.2269 127.261C97.2269 126.597 97.3491 126.01 97.5934 125.501C97.8406 124.99 98.1843 124.591 98.6246 124.304C99.0678 124.014 99.5849 123.869 100.176 123.869C100.636 123.869 101.051 123.955 101.42 124.125C101.789 124.295 102.092 124.534 102.328 124.841C102.564 125.148 102.71 125.506 102.767 125.915H101.761C101.684 125.616 101.514 125.352 101.25 125.122C100.988 124.889 100.636 124.773 100.193 124.773C99.8008 124.773 99.457 124.875 99.1616 125.08C98.869 125.281 98.6403 125.567 98.4755 125.936C98.3136 126.303 98.2326 126.733 98.2326 127.227C98.2326 127.733 98.3121 128.173 98.4712 128.548C98.6332 128.923 98.8604 129.214 99.1531 129.422C99.4485 129.629 99.7951 129.733 100.193 129.733C100.454 129.733 100.691 129.688 100.904 129.597C101.118 129.506 101.298 129.375 101.446 129.205C101.593 129.034 101.699 128.83 101.761 128.591H102.767C102.71 128.977 102.569 129.325 102.345 129.635C102.123 129.942 101.829 130.186 101.463 130.368C101.099 130.547 100.676 130.636 100.193 130.636ZM106.896 130.636C106.305 130.636 105.787 130.496 105.341 130.214C104.897 129.933 104.551 129.54 104.301 129.034C104.054 128.528 103.93 127.937 103.93 127.261C103.93 126.58 104.054 125.984 104.301 125.476C104.551 124.967 104.897 124.572 105.341 124.291C105.787 124.01 106.305 123.869 106.896 123.869C107.487 123.869 108.004 124.01 108.447 124.291C108.893 124.572 109.24 124.967 109.487 125.476C109.737 125.984 109.862 126.58 109.862 127.261C109.862 127.937 109.737 128.528 109.487 129.034C109.24 129.54 108.893 129.933 108.447 130.214C108.004 130.496 107.487 130.636 106.896 130.636ZM106.896 129.733C107.345 129.733 107.714 129.618 108.004 129.388C108.294 129.158 108.508 128.855 108.647 128.48C108.787 128.105 108.856 127.699 108.856 127.261C108.856 126.824 108.787 126.416 108.647 126.038C108.508 125.661 108.294 125.355 108.004 125.122C107.714 124.889 107.345 124.773 106.896 124.773C106.447 124.773 106.078 124.889 105.788 125.122C105.498 125.355 105.284 125.661 105.145 126.038C105.005 126.416 104.936 126.824 104.936 127.261C104.936 127.699 105.005 128.105 105.145 128.48C105.284 128.855 105.498 129.158 105.788 129.388C106.078 129.618 106.447 129.733 106.896 129.733ZM111.397 130.5V123.955H112.369V124.977H112.454C112.59 124.628 112.81 124.357 113.114 124.163C113.418 123.967 113.783 123.869 114.21 123.869C114.641 123.869 115.001 123.967 115.288 124.163C115.577 124.357 115.803 124.628 115.965 124.977H116.033C116.201 124.639 116.452 124.371 116.788 124.172C117.123 123.97 117.525 123.869 117.994 123.869C118.579 123.869 119.058 124.053 119.43 124.419C119.802 124.783 119.988 125.349 119.988 126.119V130.5H118.982V126.119C118.982 125.636 118.85 125.291 118.586 125.084C118.322 124.876 118.011 124.773 117.653 124.773C117.192 124.773 116.836 124.912 116.583 125.19C116.33 125.466 116.204 125.815 116.204 126.239V130.5H115.181V126.017C115.181 125.645 115.06 125.345 114.819 125.118C114.577 124.888 114.266 124.773 113.886 124.773C113.624 124.773 113.38 124.842 113.153 124.982C112.928 125.121 112.746 125.314 112.607 125.561C112.471 125.805 112.403 126.088 112.403 126.409V130.5H111.397ZM124.571 130.636C123.94 130.636 123.396 130.497 122.939 130.219C122.484 129.938 122.134 129.545 121.886 129.043C121.642 128.537 121.52 127.949 121.52 127.278C121.52 126.608 121.642 126.017 121.886 125.506C122.134 124.991 122.477 124.591 122.918 124.304C123.361 124.014 123.878 123.869 124.469 123.869C124.81 123.869 125.146 123.926 125.479 124.04C125.811 124.153 126.114 124.338 126.386 124.594C126.659 124.847 126.876 125.182 127.038 125.599C127.2 126.017 127.281 126.531 127.281 127.142V127.568H122.236V126.699H126.259C126.259 126.33 126.185 126 126.037 125.71C125.892 125.42 125.685 125.192 125.415 125.024C125.148 124.857 124.832 124.773 124.469 124.773C124.068 124.773 123.722 124.872 123.429 125.071C123.139 125.267 122.916 125.523 122.76 125.838C122.604 126.153 122.526 126.491 122.526 126.852V127.432C122.526 127.926 122.611 128.345 122.781 128.689C122.955 129.03 123.195 129.29 123.501 129.469C123.808 129.645 124.165 129.733 124.571 129.733C124.835 129.733 125.074 129.696 125.287 129.622C125.503 129.545 125.689 129.432 125.845 129.281C126.001 129.128 126.122 128.937 126.207 128.71L127.179 128.983C127.077 129.312 126.905 129.602 126.663 129.852C126.422 130.099 126.124 130.293 125.768 130.432C125.413 130.568 125.014 130.636 124.571 130.636ZM135.033 123.955V124.807H131.641V123.955H135.033ZM132.629 122.386H133.635V128.625C133.635 128.909 133.676 129.122 133.759 129.264C133.844 129.403 133.952 129.497 134.082 129.545C134.216 129.591 134.357 129.614 134.504 129.614C134.615 129.614 134.706 129.608 134.777 129.597C134.848 129.582 134.905 129.571 134.947 129.562L135.152 130.466C135.084 130.491 134.989 130.517 134.866 130.543C134.744 130.571 134.589 130.585 134.402 130.585C134.118 130.585 133.839 130.524 133.567 130.402C133.297 130.28 133.072 130.094 132.893 129.844C132.717 129.594 132.629 129.278 132.629 128.898V122.386ZM139.134 130.636C138.543 130.636 138.025 130.496 137.579 130.214C137.136 129.933 136.789 129.54 136.539 129.034C136.292 128.528 136.168 127.937 136.168 127.261C136.168 126.58 136.292 125.984 136.539 125.476C136.789 124.967 137.136 124.572 137.579 124.291C138.025 124.01 138.543 123.869 139.134 123.869C139.725 123.869 140.242 124.01 140.685 124.291C141.131 124.572 141.478 124.967 141.725 125.476C141.975 125.984 142.1 126.58 142.1 127.261C142.1 127.937 141.975 128.528 141.725 129.034C141.478 129.54 141.131 129.933 140.685 130.214C140.242 130.496 139.725 130.636 139.134 130.636ZM139.134 129.733C139.583 129.733 139.952 129.618 140.242 129.388C140.532 129.158 140.746 128.855 140.886 128.48C141.025 128.105 141.094 127.699 141.094 127.261C141.094 126.824 141.025 126.416 140.886 126.038C140.746 125.661 140.532 125.355 140.242 125.122C139.952 124.889 139.583 124.773 139.134 124.773C138.685 124.773 138.316 124.889 138.026 125.122C137.737 125.355 137.522 125.661 137.383 126.038C137.244 126.416 137.174 126.824 137.174 127.261C137.174 127.699 137.244 128.105 137.383 128.48C137.522 128.855 137.737 129.158 138.026 129.388C138.316 129.618 138.685 129.733 139.134 129.733ZM152.874 121.773H153.931V127.551C153.931 128.148 153.79 128.68 153.509 129.149C153.23 129.615 152.837 129.983 152.328 130.253C151.82 130.52 151.223 130.653 150.539 130.653C149.854 130.653 149.257 130.52 148.749 130.253C148.24 129.983 147.846 129.615 147.564 129.149C147.286 128.68 147.147 128.148 147.147 127.551V121.773H148.203V127.466C148.203 127.892 148.297 128.271 148.485 128.604C148.672 128.933 148.939 129.193 149.286 129.384C149.635 129.571 150.053 129.665 150.539 129.665C151.025 129.665 151.442 129.571 151.792 129.384C152.141 129.193 152.408 128.933 152.593 128.604C152.78 128.271 152.874 127.892 152.874 127.466V121.773ZM156.911 126.562V130.5H155.905V123.955H156.876V124.977H156.962C157.115 124.645 157.348 124.378 157.661 124.176C157.973 123.972 158.376 123.869 158.871 123.869C159.314 123.869 159.702 123.96 160.034 124.142C160.366 124.321 160.625 124.594 160.81 124.96C160.994 125.324 161.087 125.784 161.087 126.341V130.5H160.081V126.409C160.081 125.895 159.947 125.494 159.68 125.207C159.413 124.918 159.047 124.773 158.581 124.773C158.26 124.773 157.973 124.842 157.72 124.982C157.47 125.121 157.273 125.324 157.128 125.591C156.983 125.858 156.911 126.182 156.911 126.562ZM167.561 125.42L166.657 125.676C166.6 125.526 166.517 125.379 166.406 125.237C166.298 125.092 166.15 124.973 165.963 124.879C165.775 124.786 165.535 124.739 165.243 124.739C164.842 124.739 164.508 124.831 164.241 125.016C163.977 125.197 163.845 125.429 163.845 125.71C163.845 125.96 163.936 126.158 164.118 126.303C164.299 126.447 164.583 126.568 164.97 126.665L165.941 126.903C166.527 127.045 166.963 127.263 167.25 127.555C167.537 127.845 167.68 128.219 167.68 128.676C167.68 129.051 167.572 129.386 167.356 129.682C167.143 129.977 166.845 130.21 166.461 130.381C166.078 130.551 165.632 130.636 165.123 130.636C164.456 130.636 163.903 130.491 163.466 130.202C163.028 129.912 162.751 129.489 162.635 128.932L163.589 128.693C163.68 129.045 163.852 129.31 164.105 129.486C164.36 129.662 164.694 129.75 165.106 129.75C165.575 129.75 165.947 129.651 166.223 129.452C166.501 129.25 166.64 129.009 166.64 128.727C166.64 128.5 166.561 128.31 166.402 128.156C166.243 128 165.998 127.884 165.669 127.807L164.578 127.551C163.978 127.409 163.538 127.189 163.257 126.891C162.978 126.589 162.839 126.213 162.839 125.761C162.839 125.392 162.943 125.065 163.15 124.781C163.36 124.497 163.646 124.274 164.007 124.112C164.37 123.95 164.782 123.869 165.243 123.869C165.89 123.869 166.399 124.011 166.768 124.295C167.14 124.58 167.404 124.955 167.561 125.42ZM172.04 123.955V124.807H168.648V123.955H172.04ZM169.637 122.386H170.643V128.625C170.643 128.909 170.684 129.122 170.766 129.264C170.852 129.403 170.96 129.497 171.09 129.545C171.224 129.591 171.364 129.614 171.512 129.614C171.623 129.614 171.714 129.608 171.785 129.597C171.856 129.582 171.913 129.571 171.955 129.562L172.16 130.466C172.092 130.491 171.996 130.517 171.874 130.543C171.752 130.571 171.597 130.585 171.41 130.585C171.126 130.585 170.847 130.524 170.575 130.402C170.305 130.28 170.08 130.094 169.901 129.844C169.725 129.594 169.637 129.278 169.637 128.898V122.386ZM176.142 130.636C175.551 130.636 175.033 130.496 174.587 130.214C174.143 129.933 173.797 129.54 173.547 129.034C173.3 128.528 173.176 127.937 173.176 127.261C173.176 126.58 173.3 125.984 173.547 125.476C173.797 124.967 174.143 124.572 174.587 124.291C175.033 124.01 175.551 123.869 176.142 123.869C176.733 123.869 177.25 124.01 177.693 124.291C178.139 124.572 178.486 124.967 178.733 125.476C178.983 125.984 179.108 126.58 179.108 127.261C179.108 127.937 178.983 128.528 178.733 129.034C178.486 129.54 178.139 129.933 177.693 130.214C177.25 130.496 176.733 130.636 176.142 130.636ZM176.142 129.733C176.591 129.733 176.96 129.618 177.25 129.388C177.54 129.158 177.754 128.855 177.893 128.48C178.033 128.105 178.102 127.699 178.102 127.261C178.102 126.824 178.033 126.416 177.893 126.038C177.754 125.661 177.54 125.355 177.25 125.122C176.96 124.889 176.591 124.773 176.142 124.773C175.693 124.773 175.324 124.889 175.034 125.122C174.744 125.355 174.53 125.661 174.391 126.038C174.251 126.416 174.182 126.824 174.182 127.261C174.182 127.699 174.251 128.105 174.391 128.48C174.53 128.855 174.744 129.158 175.034 129.388C175.324 129.618 175.693 129.733 176.142 129.733ZM180.643 132.955V123.955H181.615V124.994H181.734C181.808 124.881 181.91 124.736 182.041 124.56C182.174 124.381 182.365 124.222 182.612 124.082C182.862 123.94 183.2 123.869 183.626 123.869C184.177 123.869 184.663 124.007 185.083 124.283C185.504 124.558 185.832 124.949 186.068 125.455C186.304 125.96 186.422 126.557 186.422 127.244C186.422 127.938 186.304 128.538 186.068 129.047C185.832 129.553 185.505 129.945 185.088 130.223C184.67 130.499 184.189 130.636 183.643 130.636C183.223 130.636 182.886 130.567 182.633 130.428C182.38 130.286 182.186 130.125 182.049 129.946C181.913 129.764 181.808 129.614 181.734 129.494H181.649V132.955H180.643ZM181.632 127.227C181.632 127.722 181.704 128.158 181.849 128.536C181.994 128.911 182.206 129.205 182.484 129.418C182.762 129.628 183.103 129.733 183.507 129.733C183.927 129.733 184.278 129.622 184.559 129.401C184.843 129.176 185.056 128.875 185.199 128.497C185.343 128.116 185.416 127.693 185.416 127.227C185.416 126.767 185.345 126.352 185.203 125.983C185.064 125.611 184.852 125.317 184.568 125.101C184.287 124.882 183.933 124.773 183.507 124.773C183.098 124.773 182.754 124.876 182.475 125.084C182.197 125.288 181.987 125.575 181.845 125.945C181.703 126.311 181.632 126.739 181.632 127.227ZM187.956 132.955V123.955H188.927V124.994H189.047C189.12 124.881 189.223 124.736 189.353 124.56C189.487 124.381 189.677 124.222 189.924 124.082C190.174 123.94 190.512 123.869 190.939 123.869C191.49 123.869 191.975 124.007 192.396 124.283C192.816 124.558 193.145 124.949 193.38 125.455C193.616 125.96 193.734 126.557 193.734 127.244C193.734 127.938 193.616 128.538 193.38 129.047C193.145 129.553 192.818 129.945 192.4 130.223C191.983 130.499 191.501 130.636 190.956 130.636C190.535 130.636 190.199 130.567 189.946 130.428C189.693 130.286 189.498 130.125 189.362 129.946C189.225 129.764 189.12 129.614 189.047 129.494H188.961V132.955H187.956ZM188.944 127.227C188.944 127.722 189.017 128.158 189.162 128.536C189.306 128.911 189.518 129.205 189.797 129.418C190.075 129.628 190.416 129.733 190.819 129.733C191.24 129.733 191.591 129.622 191.872 129.401C192.156 129.176 192.369 128.875 192.511 128.497C192.656 128.116 192.728 127.693 192.728 127.227C192.728 126.767 192.657 126.352 192.515 125.983C192.376 125.611 192.164 125.317 191.88 125.101C191.599 124.882 191.245 124.773 190.819 124.773C190.41 124.773 190.066 124.876 189.788 125.084C189.51 125.288 189.299 125.575 189.157 125.945C189.015 126.311 188.944 126.739 188.944 127.227ZM197.194 130.653C196.779 130.653 196.403 130.575 196.065 130.419C195.727 130.26 195.458 130.031 195.26 129.733C195.061 129.432 194.961 129.068 194.961 128.642C194.961 128.267 195.035 127.963 195.183 127.73C195.331 127.494 195.528 127.31 195.775 127.176C196.022 127.043 196.295 126.943 196.593 126.878C196.895 126.81 197.197 126.756 197.501 126.716C197.899 126.665 198.221 126.626 198.468 126.601C198.718 126.572 198.9 126.526 199.014 126.46C199.13 126.395 199.189 126.281 199.189 126.119V126.085C199.189 125.665 199.074 125.338 198.843 125.105C198.616 124.872 198.271 124.756 197.808 124.756C197.328 124.756 196.951 124.861 196.679 125.071C196.406 125.281 196.214 125.506 196.103 125.744L195.149 125.403C195.319 125.006 195.547 124.696 195.831 124.474C196.118 124.25 196.43 124.094 196.768 124.006C197.109 123.915 197.444 123.869 197.774 123.869C197.984 123.869 198.225 123.895 198.498 123.946C198.774 123.994 199.039 124.095 199.295 124.249C199.554 124.402 199.768 124.634 199.939 124.943C200.109 125.253 200.194 125.668 200.194 126.188V130.5H199.189V129.614H199.137C199.069 129.756 198.956 129.908 198.797 130.07C198.637 130.232 198.426 130.369 198.162 130.483C197.897 130.597 197.575 130.653 197.194 130.653ZM197.348 129.75C197.745 129.75 198.081 129.672 198.353 129.516C198.629 129.359 198.836 129.158 198.975 128.911C199.118 128.663 199.189 128.403 199.189 128.131V127.21C199.146 127.261 199.052 127.308 198.907 127.351C198.765 127.391 198.6 127.426 198.413 127.457C198.228 127.486 198.048 127.511 197.872 127.534C197.699 127.554 197.558 127.571 197.45 127.585C197.189 127.619 196.944 127.675 196.717 127.751C196.493 127.825 196.311 127.937 196.172 128.088C196.035 128.236 195.967 128.437 195.967 128.693C195.967 129.043 196.096 129.307 196.355 129.486C196.616 129.662 196.947 129.75 197.348 129.75ZM202.166 130.5V121.773H203.172V124.994H203.257C203.331 124.881 203.433 124.736 203.564 124.56C203.697 124.381 203.888 124.222 204.135 124.082C204.385 123.94 204.723 123.869 205.149 123.869C205.7 123.869 206.186 124.007 206.607 124.283C207.027 124.558 207.355 124.949 207.591 125.455C207.827 125.96 207.945 126.557 207.945 127.244C207.945 127.938 207.827 128.538 207.591 129.047C207.355 129.553 207.028 129.945 206.611 130.223C206.193 130.499 205.712 130.636 205.166 130.636C204.746 130.636 204.409 130.567 204.156 130.428C203.903 130.286 203.709 130.125 203.572 129.946C203.436 129.764 203.331 129.614 203.257 129.494H203.138V130.5H202.166ZM203.155 127.227C203.155 127.722 203.227 128.158 203.372 128.536C203.517 128.911 203.729 129.205 204.007 129.418C204.286 129.628 204.626 129.733 205.03 129.733C205.45 129.733 205.801 129.622 206.082 129.401C206.366 129.176 206.58 128.875 206.722 128.497C206.866 128.116 206.939 127.693 206.939 127.227C206.939 126.767 206.868 126.352 206.726 125.983C206.587 125.611 206.375 125.317 206.091 125.101C205.81 124.882 205.456 124.773 205.03 124.773C204.621 124.773 204.277 124.876 203.999 125.084C203.72 125.288 203.51 125.575 203.368 125.945C203.226 126.311 203.155 126.739 203.155 127.227ZM210.489 121.773V130.5H209.483V121.773H210.489ZM215.075 130.636C214.444 130.636 213.9 130.497 213.443 130.219C212.988 129.938 212.637 129.545 212.39 129.043C212.146 128.537 212.024 127.949 212.024 127.278C212.024 126.608 212.146 126.017 212.39 125.506C212.637 124.991 212.981 124.591 213.422 124.304C213.865 124.014 214.382 123.869 214.973 123.869C215.314 123.869 215.65 123.926 215.983 124.04C216.315 124.153 216.618 124.338 216.89 124.594C217.163 124.847 217.38 125.182 217.542 125.599C217.704 126.017 217.785 126.531 217.785 127.142V127.568H212.74V126.699H216.762C216.762 126.33 216.689 126 216.541 125.71C216.396 125.42 216.189 125.192 215.919 125.024C215.652 124.857 215.336 124.773 214.973 124.773C214.572 124.773 214.225 124.872 213.933 125.071C213.643 125.267 213.42 125.523 213.264 125.838C213.108 126.153 213.029 126.491 213.029 126.852V127.432C213.029 127.926 213.115 128.345 213.285 128.689C213.458 129.03 213.699 129.29 214.005 129.469C214.312 129.645 214.669 129.733 215.075 129.733C215.339 129.733 215.578 129.696 215.791 129.622C216.007 129.545 216.193 129.432 216.349 129.281C216.505 129.128 216.626 128.937 216.711 128.71L217.683 128.983C217.581 129.312 217.409 129.602 217.167 129.852C216.926 130.099 216.627 130.293 216.272 130.432C215.917 130.568 215.518 130.636 215.075 130.636ZM222.826 130.5V121.773H223.883V129.562H227.94V130.5H222.826ZM229.44 130.5V123.955H230.446V130.5H229.44ZM229.951 122.864C229.755 122.864 229.586 122.797 229.444 122.663C229.305 122.53 229.235 122.369 229.235 122.182C229.235 121.994 229.305 121.834 229.444 121.7C229.586 121.567 229.755 121.5 229.951 121.5C230.147 121.5 230.315 121.567 230.454 121.7C230.596 121.834 230.667 121.994 230.667 122.182C230.667 122.369 230.596 122.53 230.454 122.663C230.315 122.797 230.147 122.864 229.951 122.864ZM235.134 123.955V124.807H231.742V123.955H235.134ZM232.731 122.386H233.737V128.625C233.737 128.909 233.778 129.122 233.86 129.264C233.945 129.403 234.053 129.497 234.184 129.545C234.317 129.591 234.458 129.614 234.606 129.614C234.717 129.614 234.808 129.608 234.879 129.597C234.95 129.582 235.006 129.571 235.049 129.562L235.254 130.466C235.185 130.491 235.09 130.517 234.968 130.543C234.846 130.571 234.691 130.585 234.504 130.585C234.219 130.585 233.941 130.524 233.668 130.402C233.398 130.28 233.174 130.094 232.995 129.844C232.819 129.594 232.731 129.278 232.731 128.898V122.386ZM239.321 130.636C238.69 130.636 238.146 130.497 237.689 130.219C237.234 129.938 236.884 129.545 236.636 129.043C236.392 128.537 236.27 127.949 236.27 127.278C236.27 126.608 236.392 126.017 236.636 125.506C236.884 124.991 237.227 124.591 237.668 124.304C238.111 124.014 238.628 123.869 239.219 123.869C239.56 123.869 239.896 123.926 240.229 124.04C240.561 124.153 240.864 124.338 241.136 124.594C241.409 124.847 241.626 125.182 241.788 125.599C241.95 126.017 242.031 126.531 242.031 127.142V127.568H236.986V126.699H241.009C241.009 126.33 240.935 126 240.787 125.71C240.642 125.42 240.435 125.192 240.165 125.024C239.898 124.857 239.582 124.773 239.219 124.773C238.818 124.773 238.472 124.872 238.179 125.071C237.889 125.267 237.666 125.523 237.51 125.838C237.354 126.153 237.276 126.491 237.276 126.852V127.432C237.276 127.926 237.361 128.345 237.531 128.689C237.705 129.03 237.945 129.29 238.251 129.469C238.558 129.645 238.915 129.733 239.321 129.733C239.585 129.733 239.824 129.696 240.037 129.622C240.253 129.545 240.439 129.432 240.595 129.281C240.751 129.128 240.872 128.937 240.957 128.71L241.929 128.983C241.827 129.312 241.655 129.602 241.413 129.852C241.172 130.099 240.874 130.293 240.518 130.432C240.163 130.568 239.764 130.636 239.321 130.636ZM248.658 130.5L246.271 121.773H247.345L249.169 128.881H249.254L251.112 121.773H252.305L254.163 128.881H254.249L256.072 121.773H257.146L254.76 130.5H253.669L251.743 123.545H251.675L249.749 130.5H248.658ZM259.643 130.653C259.229 130.653 258.852 130.575 258.514 130.419C258.176 130.26 257.908 130.031 257.709 129.733C257.51 129.432 257.411 129.068 257.411 128.642C257.411 128.267 257.484 127.963 257.632 127.73C257.78 127.494 257.977 127.31 258.224 127.176C258.472 127.043 258.744 126.943 259.043 126.878C259.344 126.81 259.646 126.756 259.95 126.716C260.348 126.665 260.67 126.626 260.918 126.601C261.168 126.572 261.349 126.526 261.463 126.46C261.58 126.395 261.638 126.281 261.638 126.119V126.085C261.638 125.665 261.523 125.338 261.293 125.105C261.065 124.872 260.72 124.756 260.257 124.756C259.777 124.756 259.401 124.861 259.128 125.071C258.855 125.281 258.663 125.506 258.553 125.744L257.598 125.403C257.768 125.006 257.996 124.696 258.28 124.474C258.567 124.25 258.879 124.094 259.217 124.006C259.558 123.915 259.893 123.869 260.223 123.869C260.433 123.869 260.675 123.895 260.947 123.946C261.223 123.994 261.489 124.095 261.744 124.249C262.003 124.402 262.217 124.634 262.388 124.943C262.558 125.253 262.643 125.668 262.643 126.188V130.5H261.638V129.614H261.587C261.518 129.756 261.405 129.908 261.246 130.07C261.087 130.232 260.875 130.369 260.611 130.483C260.347 130.597 260.024 130.653 259.643 130.653ZM259.797 129.75C260.195 129.75 260.53 129.672 260.803 129.516C261.078 129.359 261.286 129.158 261.425 128.911C261.567 128.663 261.638 128.403 261.638 128.131V127.21C261.595 127.261 261.501 127.308 261.357 127.351C261.214 127.391 261.05 127.426 260.862 127.457C260.678 127.486 260.497 127.511 260.321 127.534C260.148 127.554 260.007 127.571 259.899 127.585C259.638 127.619 259.393 127.675 259.166 127.751C258.942 127.825 258.76 127.937 258.621 128.088C258.484 128.236 258.416 128.437 258.416 128.693C258.416 129.043 258.545 129.307 258.804 129.486C259.065 129.662 259.396 129.75 259.797 129.75ZM265.485 121.773V130.5H264.479V121.773H265.485ZM268.332 121.773V130.5H267.327V121.773H268.332ZM272.919 130.636C272.288 130.636 271.744 130.497 271.287 130.219C270.832 129.938 270.481 129.545 270.234 129.043C269.99 128.537 269.868 127.949 269.868 127.278C269.868 126.608 269.99 126.017 270.234 125.506C270.481 124.991 270.825 124.591 271.265 124.304C271.708 124.014 272.225 123.869 272.816 123.869C273.157 123.869 273.494 123.926 273.826 124.04C274.159 124.153 274.461 124.338 274.734 124.594C275.007 124.847 275.224 125.182 275.386 125.599C275.548 126.017 275.629 126.531 275.629 127.142V127.568H270.583V126.699H274.606C274.606 126.33 274.532 126 274.385 125.71C274.24 125.42 274.032 125.192 273.762 125.024C273.495 124.857 273.18 124.773 272.816 124.773C272.416 124.773 272.069 124.872 271.777 125.071C271.487 125.267 271.264 125.523 271.108 125.838C270.951 126.153 270.873 126.491 270.873 126.852V127.432C270.873 127.926 270.958 128.345 271.129 128.689C271.302 129.03 271.542 129.29 271.849 129.469C272.156 129.645 272.512 129.733 272.919 129.733C273.183 129.733 273.422 129.696 273.635 129.622C273.85 129.545 274.037 129.432 274.193 129.281C274.349 129.128 274.47 128.937 274.555 128.71L275.527 128.983C275.424 129.312 275.252 129.602 275.011 129.852C274.77 130.099 274.471 130.293 274.116 130.432C273.761 130.568 273.362 130.636 272.919 130.636ZM280.005 123.955V124.807H276.613V123.955H280.005ZM277.602 122.386H278.608V128.625C278.608 128.909 278.649 129.122 278.731 129.264C278.816 129.403 278.924 129.497 279.055 129.545C279.189 129.591 279.329 129.614 279.477 129.614C279.588 129.614 279.679 129.608 279.75 129.597C279.821 129.582 279.877 129.571 279.92 129.562L280.125 130.466C280.056 130.491 279.961 130.517 279.839 130.543C279.717 130.571 279.562 130.585 279.375 130.585C279.091 130.585 278.812 130.524 278.539 130.402C278.27 130.28 278.045 130.094 277.866 129.844C277.69 129.594 277.602 129.278 277.602 128.898V122.386ZM282.848 121.773L282.762 128.045H281.774L281.689 121.773H282.848ZM282.268 130.568C282.058 130.568 281.877 130.493 281.727 130.342C281.576 130.192 281.501 130.011 281.501 129.801C281.501 129.591 281.576 129.411 281.727 129.26C281.877 129.109 282.058 129.034 282.268 129.034C282.478 129.034 282.659 129.109 282.809 129.26C282.96 129.411 283.035 129.591 283.035 129.801C283.035 129.94 283 130.068 282.929 130.185C282.86 130.301 282.768 130.395 282.652 130.466C282.538 130.534 282.41 130.568 282.268 130.568ZM76.5795 138.71V137.773H83.125V138.71H80.3807V146.5H79.3239V138.71H76.5795ZM85.6254 142.562V146.5H84.6197V137.773H85.6254V140.977H85.7106C85.864 140.639 86.0941 140.371 86.4009 140.172C86.7106 139.97 87.1225 139.869 87.6367 139.869C88.0827 139.869 88.4734 139.959 88.8086 140.138C89.1438 140.314 89.4038 140.585 89.5884 140.952C89.7759 141.315 89.8697 141.778 89.8697 142.341V146.5H88.864V142.409C88.864 141.889 88.729 141.487 88.4592 141.203C88.1921 140.916 87.8214 140.773 87.3469 140.773C87.0174 140.773 86.7219 140.842 86.4606 140.982C86.2021 141.121 85.9975 141.324 85.8469 141.591C85.6992 141.858 85.6254 142.182 85.6254 142.562ZM94.4538 146.636C93.8232 146.636 93.2791 146.497 92.8217 146.219C92.3672 145.938 92.0163 145.545 91.7692 145.043C91.5249 144.537 91.4027 143.949 91.4027 143.278C91.4027 142.608 91.5249 142.017 91.7692 141.506C92.0163 140.991 92.3601 140.591 92.8004 140.304C93.2436 140.014 93.7607 139.869 94.3516 139.869C94.6925 139.869 95.0291 139.926 95.3615 140.04C95.6939 140.153 95.9964 140.338 96.2692 140.594C96.5419 140.847 96.7592 141.182 96.9212 141.599C97.0831 142.017 97.1641 142.531 97.1641 143.142V143.568H92.1186V142.699H96.1413C96.1413 142.33 96.0675 142 95.9197 141.71C95.7749 141.42 95.5675 141.192 95.2976 141.024C95.0305 140.857 94.7152 140.773 94.3516 140.773C93.951 140.773 93.6044 140.872 93.3118 141.071C93.022 141.267 92.799 141.523 92.6428 141.838C92.4865 142.153 92.4084 142.491 92.4084 142.852V143.432C92.4084 143.926 92.4936 144.345 92.6641 144.689C92.8374 145.03 93.0774 145.29 93.3842 145.469C93.6911 145.645 94.0476 145.733 94.4538 145.733C94.718 145.733 94.9567 145.696 95.1697 145.622C95.3857 145.545 95.5717 145.432 95.728 145.281C95.8842 145.128 96.005 144.937 96.0902 144.71L97.0618 144.983C96.9595 145.312 96.7876 145.602 96.5462 145.852C96.3047 146.099 96.0064 146.293 95.6513 146.432C95.2962 146.568 94.897 146.636 94.4538 146.636ZM106.705 141.42L105.802 141.676C105.745 141.526 105.661 141.379 105.55 141.237C105.442 141.092 105.295 140.973 105.107 140.879C104.92 140.786 104.68 140.739 104.387 140.739C103.987 140.739 103.653 140.831 103.386 141.016C103.121 141.197 102.989 141.429 102.989 141.71C102.989 141.96 103.08 142.158 103.262 142.303C103.444 142.447 103.728 142.568 104.114 142.665L105.086 142.903C105.671 143.045 106.107 143.263 106.394 143.555C106.681 143.845 106.825 144.219 106.825 144.676C106.825 145.051 106.717 145.386 106.501 145.682C106.288 145.977 105.989 146.21 105.606 146.381C105.222 146.551 104.776 146.636 104.268 146.636C103.6 146.636 103.048 146.491 102.61 146.202C102.173 145.912 101.896 145.489 101.779 144.932L102.734 144.693C102.825 145.045 102.996 145.31 103.249 145.486C103.505 145.662 103.839 145.75 104.251 145.75C104.719 145.75 105.092 145.651 105.367 145.452C105.646 145.25 105.785 145.009 105.785 144.727C105.785 144.5 105.705 144.31 105.546 144.156C105.387 144 105.143 143.884 104.813 143.807L103.722 143.551C103.123 143.409 102.683 143.189 102.401 142.891C102.123 142.589 101.984 142.213 101.984 141.761C101.984 141.392 102.087 141.065 102.295 140.781C102.505 140.497 102.79 140.274 103.151 140.112C103.515 139.95 103.927 139.869 104.387 139.869C105.035 139.869 105.543 140.011 105.913 140.295C106.285 140.58 106.549 140.955 106.705 141.42ZM111.083 146.636C110.452 146.636 109.908 146.497 109.451 146.219C108.996 145.938 108.645 145.545 108.398 145.043C108.154 144.537 108.032 143.949 108.032 143.278C108.032 142.608 108.154 142.017 108.398 141.506C108.645 140.991 108.989 140.591 109.429 140.304C109.873 140.014 110.39 139.869 110.98 139.869C111.321 139.869 111.658 139.926 111.99 140.04C112.323 140.153 112.625 140.338 112.898 140.594C113.171 140.847 113.388 141.182 113.55 141.599C113.712 142.017 113.793 142.531 113.793 143.142V143.568H108.748V142.699H112.77C112.77 142.33 112.696 142 112.549 141.71C112.404 141.42 112.196 141.192 111.926 141.024C111.659 140.857 111.344 140.773 110.98 140.773C110.58 140.773 110.233 140.872 109.941 141.071C109.651 141.267 109.428 141.523 109.272 141.838C109.115 142.153 109.037 142.491 109.037 142.852V143.432C109.037 143.926 109.123 144.345 109.293 144.689C109.466 145.03 109.706 145.29 110.013 145.469C110.32 145.645 110.676 145.733 111.083 145.733C111.347 145.733 111.586 145.696 111.799 145.622C112.015 145.545 112.201 145.432 112.357 145.281C112.513 145.128 112.634 144.937 112.719 144.71L113.691 144.983C113.588 145.312 113.417 145.602 113.175 145.852C112.934 146.099 112.635 146.293 112.28 146.432C111.925 146.568 111.526 146.636 111.083 146.636ZM117.982 146.636C117.368 146.636 116.84 146.491 116.397 146.202C115.953 145.912 115.613 145.513 115.374 145.004C115.135 144.496 115.016 143.915 115.016 143.261C115.016 142.597 115.138 142.01 115.382 141.501C115.63 140.99 115.973 140.591 116.414 140.304C116.857 140.014 117.374 139.869 117.965 139.869C118.425 139.869 118.84 139.955 119.209 140.125C119.578 140.295 119.881 140.534 120.117 140.841C120.353 141.148 120.499 141.506 120.556 141.915H119.55C119.473 141.616 119.303 141.352 119.039 141.122C118.777 140.889 118.425 140.773 117.982 140.773C117.59 140.773 117.246 140.875 116.951 141.08C116.658 141.281 116.429 141.567 116.265 141.936C116.103 142.303 116.022 142.733 116.022 143.227C116.022 143.733 116.101 144.173 116.26 144.548C116.422 144.923 116.65 145.214 116.942 145.422C117.238 145.629 117.584 145.733 117.982 145.733C118.243 145.733 118.48 145.688 118.694 145.597C118.907 145.506 119.087 145.375 119.235 145.205C119.382 145.034 119.488 144.83 119.55 144.591H120.556C120.499 144.977 120.358 145.325 120.134 145.635C119.912 145.942 119.618 146.186 119.252 146.368C118.888 146.547 118.465 146.636 117.982 146.636ZM124.873 139.955V140.807H121.48V139.955H124.873ZM122.469 138.386H123.475V144.625C123.475 144.909 123.516 145.122 123.598 145.264C123.684 145.403 123.792 145.497 123.922 145.545C124.056 145.591 124.196 145.614 124.344 145.614C124.455 145.614 124.546 145.608 124.617 145.597C124.688 145.582 124.745 145.571 124.787 145.562L124.992 146.466C124.924 146.491 124.828 146.517 124.706 146.543C124.584 146.571 124.429 146.585 124.242 146.585C123.958 146.585 123.679 146.524 123.407 146.402C123.137 146.28 122.912 146.094 122.733 145.844C122.557 145.594 122.469 145.278 122.469 144.898V138.386ZM126.385 146.5V139.955H127.391V146.5H126.385ZM126.897 138.864C126.701 138.864 126.532 138.797 126.39 138.663C126.25 138.53 126.181 138.369 126.181 138.182C126.181 137.994 126.25 137.834 126.39 137.7C126.532 137.567 126.701 137.5 126.897 137.5C127.093 137.5 127.26 137.567 127.4 137.7C127.542 137.834 127.613 137.994 127.613 138.182C127.613 138.369 127.542 138.53 127.4 138.663C127.26 138.797 127.093 138.864 126.897 138.864ZM131.892 146.636C131.301 146.636 130.783 146.496 130.337 146.214C129.893 145.933 129.547 145.54 129.297 145.034C129.05 144.528 128.926 143.937 128.926 143.261C128.926 142.58 129.05 141.984 129.297 141.476C129.547 140.967 129.893 140.572 130.337 140.291C130.783 140.01 131.301 139.869 131.892 139.869C132.483 139.869 133 140.01 133.443 140.291C133.889 140.572 134.236 140.967 134.483 141.476C134.733 141.984 134.858 142.58 134.858 143.261C134.858 143.937 134.733 144.528 134.483 145.034C134.236 145.54 133.889 145.933 133.443 146.214C133 146.496 132.483 146.636 131.892 146.636ZM131.892 145.733C132.341 145.733 132.71 145.618 133 145.388C133.29 145.158 133.504 144.855 133.643 144.48C133.783 144.105 133.852 143.699 133.852 143.261C133.852 142.824 133.783 142.416 133.643 142.038C133.504 141.661 133.29 141.355 133 141.122C132.71 140.889 132.341 140.773 131.892 140.773C131.443 140.773 131.074 140.889 130.784 141.122C130.494 141.355 130.28 141.661 130.141 142.038C130.001 142.416 129.932 142.824 129.932 143.261C129.932 143.699 130.001 144.105 130.141 144.48C130.28 144.855 130.494 145.158 130.784 145.388C131.074 145.618 131.443 145.733 131.892 145.733ZM137.399 142.562V146.5H136.393V139.955H137.365V140.977H137.45C137.603 140.645 137.836 140.378 138.149 140.176C138.461 139.972 138.865 139.869 139.359 139.869C139.802 139.869 140.19 139.96 140.522 140.142C140.855 140.321 141.113 140.594 141.298 140.96C141.483 141.324 141.575 141.784 141.575 142.341V146.5H140.569V142.409C140.569 141.895 140.436 141.494 140.169 141.207C139.902 140.918 139.535 140.773 139.069 140.773C138.748 140.773 138.461 140.842 138.208 140.982C137.958 141.121 137.761 141.324 137.616 141.591C137.471 141.858 137.399 142.182 137.399 142.562ZM146.924 146.5V137.773H147.93V140.994H148.015C148.089 140.881 148.191 140.736 148.322 140.56C148.455 140.381 148.646 140.222 148.893 140.082C149.143 139.94 149.481 139.869 149.907 139.869C150.458 139.869 150.944 140.007 151.364 140.283C151.785 140.558 152.113 140.949 152.349 141.455C152.585 141.96 152.702 142.557 152.702 143.244C152.702 143.938 152.585 144.538 152.349 145.047C152.113 145.553 151.786 145.945 151.369 146.223C150.951 146.499 150.469 146.636 149.924 146.636C149.504 146.636 149.167 146.567 148.914 146.428C148.661 146.286 148.467 146.125 148.33 145.946C148.194 145.764 148.089 145.614 148.015 145.494H147.896V146.5H146.924ZM147.913 143.227C147.913 143.722 147.985 144.158 148.13 144.536C148.275 144.911 148.487 145.205 148.765 145.418C149.043 145.628 149.384 145.733 149.788 145.733C150.208 145.733 150.559 145.622 150.84 145.401C151.124 145.176 151.337 144.875 151.479 144.497C151.624 144.116 151.697 143.693 151.697 143.227C151.697 142.767 151.626 142.352 151.484 141.983C151.344 141.611 151.133 141.317 150.849 141.101C150.567 140.882 150.214 140.773 149.788 140.773C149.379 140.773 149.035 140.876 148.756 141.084C148.478 141.288 148.268 141.575 148.126 141.945C147.984 142.311 147.913 142.739 147.913 143.227ZM156.985 146.636C156.354 146.636 155.81 146.497 155.353 146.219C154.898 145.938 154.548 145.545 154.3 145.043C154.056 144.537 153.934 143.949 153.934 143.278C153.934 142.608 154.056 142.017 154.3 141.506C154.548 140.991 154.891 140.591 155.332 140.304C155.775 140.014 156.292 139.869 156.883 139.869C157.224 139.869 157.56 139.926 157.893 140.04C158.225 140.153 158.528 140.338 158.8 140.594C159.073 140.847 159.29 141.182 159.452 141.599C159.614 142.017 159.695 142.531 159.695 143.142V143.568H154.65V142.699H158.673C158.673 142.33 158.599 142 158.451 141.71C158.306 141.42 158.099 141.192 157.829 141.024C157.562 140.857 157.246 140.773 156.883 140.773C156.482 140.773 156.136 140.872 155.843 141.071C155.553 141.267 155.33 141.523 155.174 141.838C155.018 142.153 154.94 142.491 154.94 142.852V143.432C154.94 143.926 155.025 144.345 155.195 144.689C155.369 145.03 155.609 145.29 155.915 145.469C156.222 145.645 156.579 145.733 156.985 145.733C157.249 145.733 157.488 145.696 157.701 145.622C157.917 145.545 158.103 145.432 158.259 145.281C158.415 145.128 158.536 144.937 158.621 144.71L159.593 144.983C159.491 145.312 159.319 145.602 159.077 145.852C158.836 146.099 158.538 146.293 158.183 146.432C157.827 146.568 157.428 146.636 156.985 146.636ZM162.231 137.773V146.5H161.225V137.773H162.231ZM166.732 146.636C166.141 146.636 165.623 146.496 165.176 146.214C164.733 145.933 164.387 145.54 164.137 145.034C163.89 144.528 163.766 143.937 163.766 143.261C163.766 142.58 163.89 141.984 164.137 141.476C164.387 140.967 164.733 140.572 165.176 140.291C165.623 140.01 166.141 139.869 166.732 139.869C167.323 139.869 167.84 140.01 168.283 140.291C168.729 140.572 169.076 140.967 169.323 141.476C169.573 141.984 169.698 142.58 169.698 143.261C169.698 143.937 169.573 144.528 169.323 145.034C169.076 145.54 168.729 145.933 168.283 146.214C167.84 146.496 167.323 146.636 166.732 146.636ZM166.732 145.733C167.181 145.733 167.55 145.618 167.84 145.388C168.13 145.158 168.344 144.855 168.483 144.48C168.623 144.105 168.692 143.699 168.692 143.261C168.692 142.824 168.623 142.416 168.483 142.038C168.344 141.661 168.13 141.355 167.84 141.122C167.55 140.889 167.181 140.773 166.732 140.773C166.283 140.773 165.914 140.889 165.624 141.122C165.334 141.355 165.12 141.661 164.98 142.038C164.841 142.416 164.772 142.824 164.772 143.261C164.772 143.699 164.841 144.105 164.98 144.48C165.12 144.855 165.334 145.158 165.624 145.388C165.914 145.618 166.283 145.733 166.732 145.733ZM172.493 146.5L170.499 139.955H171.556L172.971 144.966H173.039L174.436 139.955H175.51L176.891 144.949H176.959L178.374 139.955H179.431L177.436 146.5H176.448L175.016 141.472H174.914L173.482 146.5H172.493ZM186.794 146.636C186.181 146.636 185.652 146.491 185.209 146.202C184.766 145.912 184.425 145.513 184.186 145.004C183.948 144.496 183.828 143.915 183.828 143.261C183.828 142.597 183.951 142.01 184.195 141.501C184.442 140.99 184.786 140.591 185.226 140.304C185.669 140.014 186.186 139.869 186.777 139.869C187.238 139.869 187.652 139.955 188.022 140.125C188.391 140.295 188.694 140.534 188.929 140.841C189.165 141.148 189.311 141.506 189.368 141.915H188.363C188.286 141.616 188.115 141.352 187.851 141.122C187.59 140.889 187.238 140.773 186.794 140.773C186.402 140.773 186.059 140.875 185.763 141.08C185.471 141.281 185.242 141.567 185.077 141.936C184.915 142.303 184.834 142.733 184.834 143.227C184.834 143.733 184.914 144.173 185.073 144.548C185.235 144.923 185.462 145.214 185.755 145.422C186.05 145.629 186.397 145.733 186.794 145.733C187.056 145.733 187.293 145.688 187.506 145.597C187.719 145.506 187.9 145.375 188.047 145.205C188.195 145.034 188.3 144.83 188.363 144.591H189.368C189.311 144.977 189.171 145.325 188.946 145.635C188.725 145.942 188.431 146.186 188.064 146.368C187.701 146.547 187.277 146.636 186.794 146.636ZM193.498 146.636C192.907 146.636 192.388 146.496 191.942 146.214C191.499 145.933 191.152 145.54 190.902 145.034C190.655 144.528 190.532 143.937 190.532 143.261C190.532 142.58 190.655 141.984 190.902 141.476C191.152 140.967 191.499 140.572 191.942 140.291C192.388 140.01 192.907 139.869 193.498 139.869C194.088 139.869 194.605 140.01 195.049 140.291C195.495 140.572 195.841 140.967 196.088 141.476C196.338 141.984 196.463 142.58 196.463 143.261C196.463 143.937 196.338 144.528 196.088 145.034C195.841 145.54 195.495 145.933 195.049 146.214C194.605 146.496 194.088 146.636 193.498 146.636ZM193.498 145.733C193.946 145.733 194.316 145.618 194.605 145.388C194.895 145.158 195.11 144.855 195.249 144.48C195.388 144.105 195.458 143.699 195.458 143.261C195.458 142.824 195.388 142.416 195.249 142.038C195.11 141.661 194.895 141.355 194.605 141.122C194.316 140.889 193.946 140.773 193.498 140.773C193.049 140.773 192.679 140.889 192.39 141.122C192.1 141.355 191.885 141.661 191.746 142.038C191.607 142.416 191.537 142.824 191.537 143.261C191.537 143.699 191.607 144.105 191.746 144.48C191.885 144.855 192.1 145.158 192.39 145.388C192.679 145.618 193.049 145.733 193.498 145.733ZM199.004 142.562V146.5H197.999V139.955H198.97V140.977H199.055C199.209 140.645 199.442 140.378 199.754 140.176C200.067 139.972 200.47 139.869 200.964 139.869C201.408 139.869 201.795 139.96 202.128 140.142C202.46 140.321 202.719 140.594 202.903 140.96C203.088 141.324 203.18 141.784 203.18 142.341V146.5H202.175V142.409C202.175 141.895 202.041 141.494 201.774 141.207C201.507 140.918 201.141 140.773 200.675 140.773C200.354 140.773 200.067 140.842 199.814 140.982C199.564 141.121 199.366 141.324 199.222 141.591C199.077 141.858 199.004 142.182 199.004 142.562ZM207.865 139.955V140.807H204.473V139.955H207.865ZM205.461 138.386H206.467V144.625C206.467 144.909 206.508 145.122 206.591 145.264C206.676 145.403 206.784 145.497 206.914 145.545C207.048 145.591 207.189 145.614 207.336 145.614C207.447 145.614 207.538 145.608 207.609 145.597C207.68 145.582 207.737 145.571 207.779 145.562L207.984 146.466C207.916 146.491 207.821 146.517 207.699 146.543C207.576 146.571 207.422 146.585 207.234 146.585C206.95 146.585 206.672 146.524 206.399 146.402C206.129 146.28 205.904 146.094 205.725 145.844C205.549 145.594 205.461 145.278 205.461 144.898V138.386ZM211.304 146.653C210.889 146.653 210.512 146.575 210.174 146.419C209.836 146.26 209.568 146.031 209.369 145.733C209.17 145.432 209.071 145.068 209.071 144.642C209.071 144.267 209.145 143.963 209.292 143.73C209.44 143.494 209.637 143.31 209.885 143.176C210.132 143.043 210.404 142.943 210.703 142.878C211.004 142.81 211.306 142.756 211.61 142.716C212.008 142.665 212.331 142.626 212.578 142.601C212.828 142.572 213.01 142.526 213.123 142.46C213.24 142.395 213.298 142.281 213.298 142.119V142.085C213.298 141.665 213.183 141.338 212.953 141.105C212.725 140.872 212.38 140.756 211.917 140.756C211.437 140.756 211.061 140.861 210.788 141.071C210.515 141.281 210.324 141.506 210.213 141.744L209.258 141.403C209.429 141.006 209.656 140.696 209.94 140.474C210.227 140.25 210.539 140.094 210.877 140.006C211.218 139.915 211.554 139.869 211.883 139.869C212.093 139.869 212.335 139.895 212.608 139.946C212.883 139.994 213.149 140.095 213.404 140.249C213.663 140.402 213.877 140.634 214.048 140.943C214.218 141.253 214.304 141.668 214.304 142.188V146.5H213.298V145.614H213.247C213.179 145.756 213.065 145.908 212.906 146.07C212.747 146.232 212.535 146.369 212.271 146.483C212.007 146.597 211.684 146.653 211.304 146.653ZM211.457 145.75C211.855 145.75 212.19 145.672 212.463 145.516C212.738 145.359 212.946 145.158 213.085 144.911C213.227 144.663 213.298 144.403 213.298 144.131V143.21C213.255 143.261 213.162 143.308 213.017 143.351C212.875 143.391 212.71 143.426 212.522 143.457C212.338 143.486 212.157 143.511 211.981 143.534C211.808 143.554 211.667 143.571 211.559 143.585C211.298 143.619 211.054 143.675 210.826 143.751C210.602 143.825 210.42 143.937 210.281 144.088C210.145 144.236 210.076 144.437 210.076 144.693C210.076 145.043 210.206 145.307 210.464 145.486C210.725 145.662 211.056 145.75 211.457 145.75ZM216.139 146.5V139.955H217.145V146.5H216.139ZM216.651 138.864C216.455 138.864 216.286 138.797 216.143 138.663C216.004 138.53 215.935 138.369 215.935 138.182C215.935 137.994 216.004 137.834 216.143 137.7C216.286 137.567 216.455 137.5 216.651 137.5C216.847 137.5 217.014 137.567 217.153 137.7C217.295 137.834 217.366 137.994 217.366 138.182C217.366 138.369 217.295 138.53 217.153 138.663C217.014 138.797 216.847 138.864 216.651 138.864ZM219.993 142.562V146.5H218.987V139.955H219.958V140.977H220.044C220.197 140.645 220.43 140.378 220.743 140.176C221.055 139.972 221.458 139.869 221.953 139.869C222.396 139.869 222.784 139.96 223.116 140.142C223.449 140.321 223.707 140.594 223.892 140.96C224.076 141.324 224.169 141.784 224.169 142.341V146.5H223.163V142.409C223.163 141.895 223.029 141.494 222.762 141.207C222.495 140.918 222.129 140.773 221.663 140.773C221.342 140.773 221.055 140.842 220.802 140.982C220.552 141.121 220.355 141.324 220.21 141.591C220.065 141.858 219.993 142.182 219.993 142.562ZM230.643 141.42L229.739 141.676C229.683 141.526 229.599 141.379 229.488 141.237C229.38 141.092 229.232 140.973 229.045 140.879C228.857 140.786 228.617 140.739 228.325 140.739C227.924 140.739 227.59 140.831 227.323 141.016C227.059 141.197 226.927 141.429 226.927 141.71C226.927 141.96 227.018 142.158 227.2 142.303C227.381 142.447 227.665 142.568 228.052 142.665L229.023 142.903C229.609 143.045 230.045 143.263 230.332 143.555C230.619 143.845 230.762 144.219 230.762 144.676C230.762 145.051 230.654 145.386 230.438 145.682C230.225 145.977 229.927 146.21 229.543 146.381C229.16 146.551 228.714 146.636 228.205 146.636C227.538 146.636 226.985 146.491 226.548 146.202C226.11 145.912 225.833 145.489 225.717 144.932L226.671 144.693C226.762 145.045 226.934 145.31 227.187 145.486C227.442 145.662 227.776 145.75 228.188 145.75C228.657 145.75 229.029 145.651 229.305 145.452C229.583 145.25 229.722 145.009 229.722 144.727C229.722 144.5 229.643 144.31 229.484 144.156C229.325 144 229.08 143.884 228.751 143.807L227.66 143.551C227.06 143.409 226.62 143.189 226.339 142.891C226.06 142.589 225.921 142.213 225.921 141.761C225.921 141.392 226.025 141.065 226.232 140.781C226.442 140.497 226.728 140.274 227.089 140.112C227.452 139.95 227.864 139.869 228.325 139.869C228.972 139.869 229.481 140.011 229.85 140.295C230.222 140.58 230.487 140.955 230.643 141.42ZM236.299 148.955C236.128 148.955 235.976 148.94 235.843 148.912C235.709 148.886 235.617 148.861 235.566 148.835L235.821 147.949C236.066 148.011 236.282 148.034 236.469 148.017C236.657 148 236.823 147.916 236.968 147.766C237.115 147.618 237.25 147.378 237.373 147.045L237.56 146.534L235.14 139.955H236.23L238.037 145.17H238.105L239.912 139.955H241.003L238.225 147.455C238.1 147.793 237.945 148.072 237.76 148.294C237.576 148.518 237.361 148.685 237.117 148.793C236.875 148.901 236.603 148.955 236.299 148.955ZM244.755 146.636C244.164 146.636 243.646 146.496 243.2 146.214C242.757 145.933 242.41 145.54 242.16 145.034C241.913 144.528 241.789 143.937 241.789 143.261C241.789 142.58 241.913 141.984 242.16 141.476C242.41 140.967 242.757 140.572 243.2 140.291C243.646 140.01 244.164 139.869 244.755 139.869C245.346 139.869 245.863 140.01 246.306 140.291C246.752 140.572 247.099 140.967 247.346 141.476C247.596 141.984 247.721 142.58 247.721 143.261C247.721 143.937 247.596 144.528 247.346 145.034C247.099 145.54 246.752 145.933 246.306 146.214C245.863 146.496 245.346 146.636 244.755 146.636ZM244.755 145.733C245.204 145.733 245.574 145.618 245.863 145.388C246.153 145.158 246.368 144.855 246.507 144.48C246.646 144.105 246.716 143.699 246.716 143.261C246.716 142.824 246.646 142.416 246.507 142.038C246.368 141.661 246.153 141.355 245.863 141.122C245.574 140.889 245.204 140.773 244.755 140.773C244.306 140.773 243.937 140.889 243.647 141.122C243.358 141.355 243.143 141.661 243.004 142.038C242.865 142.416 242.795 142.824 242.795 143.261C242.795 143.699 242.865 144.105 243.004 144.48C243.143 144.855 243.358 145.158 243.647 145.388C243.937 145.618 244.306 145.733 244.755 145.733ZM253.381 143.824V139.955H254.387V146.5H253.381V145.392H253.313C253.16 145.724 252.921 146.007 252.597 146.24C252.273 146.47 251.864 146.585 251.37 146.585C250.961 146.585 250.597 146.496 250.279 146.317C249.961 146.135 249.711 145.862 249.529 145.499C249.347 145.132 249.256 144.67 249.256 144.114V139.955H250.262V144.045C250.262 144.523 250.396 144.903 250.663 145.188C250.933 145.472 251.276 145.614 251.694 145.614C251.944 145.614 252.198 145.55 252.457 145.422C252.718 145.294 252.937 145.098 253.113 144.834C253.292 144.57 253.381 144.233 253.381 143.824ZM256.229 146.5V139.955H257.201V140.943H257.269C257.388 140.619 257.604 140.357 257.917 140.155C258.229 139.953 258.581 139.852 258.973 139.852C259.047 139.852 259.14 139.854 259.25 139.857C259.361 139.859 259.445 139.864 259.502 139.869V140.892C259.468 140.884 259.39 140.871 259.267 140.854C259.148 140.834 259.022 140.824 258.888 140.824C258.57 140.824 258.286 140.891 258.036 141.024C257.789 141.155 257.593 141.337 257.448 141.57C257.306 141.8 257.235 142.062 257.235 142.358V146.5H256.229ZM268.705 141.42L267.802 141.676C267.745 141.526 267.661 141.379 267.55 141.237C267.442 141.092 267.295 140.973 267.107 140.879C266.92 140.786 266.68 140.739 266.387 140.739C265.987 140.739 265.653 140.831 265.386 141.016C265.121 141.197 264.989 141.429 264.989 141.71C264.989 141.96 265.08 142.158 265.262 142.303C265.444 142.447 265.728 142.568 266.114 142.665L267.086 142.903C267.671 143.045 268.107 143.263 268.394 143.555C268.681 143.845 268.825 144.219 268.825 144.676C268.825 145.051 268.717 145.386 268.501 145.682C268.288 145.977 267.989 146.21 267.606 146.381C267.222 146.551 266.776 146.636 266.268 146.636C265.6 146.636 265.048 146.491 264.61 146.202C264.173 145.912 263.896 145.489 263.779 144.932L264.734 144.693C264.825 145.045 264.996 145.31 265.249 145.486C265.505 145.662 265.839 145.75 266.251 145.75C266.719 145.75 267.092 145.651 267.367 145.452C267.646 145.25 267.785 145.009 267.785 144.727C267.785 144.5 267.705 144.31 267.546 144.156C267.387 144 267.143 143.884 266.813 143.807L265.722 143.551C265.123 143.409 264.683 143.189 264.401 142.891C264.123 142.589 263.984 142.213 263.984 141.761C263.984 141.392 264.087 141.065 264.295 140.781C264.505 140.497 264.79 140.274 265.151 140.112C265.515 139.95 265.927 139.869 266.387 139.869C267.035 139.869 267.543 140.011 267.913 140.295C268.285 140.58 268.549 140.955 268.705 141.42ZM270.338 146.5V139.955H271.344V146.5H270.338ZM270.85 138.864C270.654 138.864 270.485 138.797 270.343 138.663C270.203 138.53 270.134 138.369 270.134 138.182C270.134 137.994 270.203 137.834 270.343 137.7C270.485 137.567 270.654 137.5 270.85 137.5C271.046 137.5 271.213 137.567 271.353 137.7C271.495 137.834 271.566 137.994 271.566 138.182C271.566 138.369 271.495 138.53 271.353 138.663C271.213 138.797 271.046 138.864 270.85 138.864ZM275.828 149.091C275.342 149.091 274.925 149.028 274.575 148.903C274.226 148.781 273.935 148.619 273.702 148.418C273.472 148.219 273.288 148.006 273.152 147.778L273.953 147.216C274.044 147.335 274.159 147.472 274.298 147.625C274.438 147.781 274.628 147.916 274.869 148.03C275.114 148.146 275.433 148.205 275.828 148.205C276.357 148.205 276.793 148.077 277.136 147.821C277.48 147.565 277.652 147.165 277.652 146.619V145.29H277.567C277.493 145.409 277.388 145.557 277.251 145.733C277.118 145.906 276.925 146.061 276.672 146.197C276.422 146.331 276.084 146.398 275.658 146.398C275.129 146.398 274.655 146.273 274.234 146.023C273.817 145.773 273.486 145.409 273.241 144.932C273 144.455 272.879 143.875 272.879 143.193C272.879 142.523 272.997 141.939 273.233 141.442C273.469 140.942 273.797 140.555 274.217 140.283C274.638 140.007 275.124 139.869 275.675 139.869C276.101 139.869 276.439 139.94 276.689 140.082C276.942 140.222 277.135 140.381 277.268 140.56C277.405 140.736 277.51 140.881 277.584 140.994H277.686V139.955H278.658V146.688C278.658 147.25 278.53 147.707 278.274 148.06C278.021 148.415 277.68 148.675 277.251 148.839C276.825 149.007 276.351 149.091 275.828 149.091ZM275.794 145.494C276.197 145.494 276.538 145.402 276.817 145.217C277.095 145.033 277.307 144.767 277.452 144.42C277.597 144.074 277.669 143.659 277.669 143.176C277.669 142.705 277.598 142.288 277.456 141.928C277.314 141.567 277.104 141.284 276.825 141.08C276.547 140.875 276.203 140.773 275.794 140.773C275.368 140.773 275.013 140.881 274.729 141.097C274.447 141.312 274.236 141.602 274.094 141.966C273.955 142.33 273.885 142.733 273.885 143.176C273.885 143.631 273.956 144.033 274.098 144.382C274.243 144.729 274.456 145.001 274.737 145.2C275.021 145.396 275.374 145.494 275.794 145.494ZM281.504 142.562V146.5H280.499V139.955H281.47V140.977H281.555C281.709 140.645 281.942 140.378 282.254 140.176C282.567 139.972 282.97 139.869 283.464 139.869C283.908 139.869 284.295 139.96 284.628 140.142C284.96 140.321 285.219 140.594 285.403 140.96C285.588 141.324 285.68 141.784 285.68 142.341V146.5H284.675V142.409C284.675 141.895 284.541 141.494 284.274 141.207C284.007 140.918 283.641 140.773 283.175 140.773C282.854 140.773 282.567 140.842 282.314 140.982C282.064 141.121 281.866 141.324 281.722 141.591C281.577 141.858 281.504 142.182 281.504 142.562ZM288.251 146.568C288.041 146.568 287.86 146.493 287.71 146.342C287.559 146.192 287.484 146.011 287.484 145.801C287.484 145.591 287.559 145.411 287.71 145.26C287.86 145.109 288.041 145.034 288.251 145.034C288.461 145.034 288.642 145.109 288.792 145.26C288.943 145.411 289.018 145.591 289.018 145.801C289.018 145.94 288.983 146.068 288.912 146.185C288.843 146.301 288.751 146.395 288.635 146.466C288.521 146.534 288.393 146.568 288.251 146.568ZM291.556 146.568C291.346 146.568 291.165 146.493 291.015 146.342C290.864 146.192 290.789 146.011 290.789 145.801C290.789 145.591 290.864 145.411 291.015 145.26C291.165 145.109 291.346 145.034 291.556 145.034C291.766 145.034 291.946 145.109 292.097 145.26C292.248 145.411 292.323 145.591 292.323 145.801C292.323 145.94 292.287 146.068 292.216 146.185C292.148 146.301 292.056 146.395 291.939 146.466C291.826 146.534 291.698 146.568 291.556 146.568ZM294.86 146.568C294.65 146.568 294.47 146.493 294.319 146.342C294.169 146.192 294.093 146.011 294.093 145.801C294.093 145.591 294.169 145.411 294.319 145.26C294.47 145.109 294.65 145.034 294.86 145.034C295.071 145.034 295.251 145.109 295.402 145.26C295.552 145.411 295.627 145.591 295.627 145.801C295.627 145.94 295.592 146.068 295.521 146.185C295.453 146.301 295.36 146.395 295.244 146.466C295.13 146.534 295.002 146.568 294.86 146.568Z" fill="white" fill-opacity="0.32"/>
</g>
<g filter="url(#filter3_d_1288_40202)">
<line y1="74" x2="329" y2="74" stroke="white" stroke-opacity="0.08" shape-rendering="crispEdges"/>
</g>
<rect x="277" y="2.5" width="32" height="12" rx="6" fill="white" fill-opacity="0.04"/>
<rect x="76" y="2.5" width="160" height="12" rx="6" fill="white" fill-opacity="0.12"/>
<rect x="76" y="26.5" width="188" height="8" rx="4" fill="white" fill-opacity="0.04"/>
<rect x="76" y="42.5" width="172" height="8" rx="4" fill="white" fill-opacity="0.04"/>
<circle cx="40" cy="26.5" r="20" fill="white" fill-opacity="0.12"/>
<rect y="-48" width="329" height="100" fill="url(#paint2_linear_1288_40202)"/>
<rect width="329" height="100" transform="matrix(1 0 0 -1 0 389)" fill="url(#paint3_linear_1288_40202)"/>
</g>
<defs>
<filter id="filter0_d_1288_40202" x="0" y="264.5" width="329" height="2" filterUnits="userSpaceOnUse" color-interpolation-filters="sRGB">
<feFlood flood-opacity="0" result="BackgroundImageFix"/>
<feColorMatrix in="SourceAlpha" type="matrix" values="0 0 0 0 0 0 0 0 0 0 0 0 0 0 0 0 0 0 127 0" result="hardAlpha"/>
<feOffset dy="-1"/>
<feComposite in2="hardAlpha" operator="out"/>
<feColorMatrix type="matrix" values="0 0 0 0 0 0 0 0 0 0 0 0 0 0 0 0 0 0 1 0"/>
<feBlend mode="normal" in2="BackgroundImageFix" result="effect1_dropShadow_1288_40202"/>
<feBlend mode="normal" in="SourceGraphic" in2="effect1_dropShadow_1288_40202" result="shape"/>
</filter>
<filter id="filter1_d_1288_40202" x="0" y="168.5" width="329" height="2" filterUnits="userSpaceOnUse" color-interpolation-filters="sRGB">
<feFlood flood-opacity="0" result="BackgroundImageFix"/>
<feColorMatrix in="SourceAlpha" type="matrix" values="0 0 0 0 0 0 0 0 0 0 0 0 0 0 0 0 0 0 127 0" result="hardAlpha"/>
<feOffset dy="-1"/>
<feComposite in2="hardAlpha" operator="out"/>
<feColorMatrix type="matrix" values="0 0 0 0 0 0 0 0 0 0 0 0 0 0 0 0 0 0 1 0"/>
<feBlend mode="normal" in2="BackgroundImageFix" result="effect1_dropShadow_1288_40202"/>
<feBlend mode="normal" in="SourceGraphic" in2="effect1_dropShadow_1288_40202" result="shape"/>
</filter>
<filter id="filter2_dddd_1288_40202" x="5" y="99.5" width="70" height="95" filterUnits="userSpaceOnUse" color-interpolation-filters="sRGB">
<feFlood flood-opacity="0" result="BackgroundImageFix"/>
<feColorMatrix in="SourceAlpha" type="matrix" values="0 0 0 0 0 0 0 0 0 0 0 0 0 0 0 0 0 0 127 0" result="hardAlpha"/>
<feOffset dy="2"/>
<feGaussianBlur stdDeviation="2.5"/>
<feColorMatrix type="matrix" values="0 0 0 0 0 0 0 0 0 0 0 0 0 0 0 0 0 0 0.08 0"/>
<feBlend mode="normal" in2="BackgroundImageFix" result="effect1_dropShadow_1288_40202"/>
<feColorMatrix in="SourceAlpha" type="matrix" values="0 0 0 0 0 0 0 0 0 0 0 0 0 0 0 0 0 0 127 0" result="hardAlpha"/>
<feOffset dy="9"/>
<feGaussianBlur stdDeviation="4.5"/>
<feColorMatrix type="matrix" values="0 0 0 0 0 0 0 0 0 0 0 0 0 0 0 0 0 0 0.07 0"/>
<feBlend mode="normal" in2="effect1_dropShadow_1288_40202" result="effect2_dropShadow_1288_40202"/>
<feColorMatrix in="SourceAlpha" type="matrix" values="0 0 0 0 0 0 0 0 0 0 0 0 0 0 0 0 0 0 127 0" result="hardAlpha"/>
<feOffset dy="21"/>
<feGaussianBlur stdDeviation="6"/>
<feColorMatrix type="matrix" values="0 0 0 0 0 0 0 0 0 0 0 0 0 0 0 0 0 0 0.04 0"/>
<feBlend mode="normal" in2="effect2_dropShadow_1288_40202" result="effect3_dropShadow_1288_40202"/>
<feColorMatrix in="SourceAlpha" type="matrix" values="0 0 0 0 0 0 0 0 0 0 0 0 0 0 0 0 0 0 127 0" result="hardAlpha"/>
<feOffset dy="37"/>
<feGaussianBlur stdDeviation="7.5"/>
<feColorMatrix type="matrix" values="0 0 0 0 0 0 0 0 0 0 0 0 0 0 0 0 0 0 0.01 0"/>
<feBlend mode="normal" in2="effect3_dropShadow_1288_40202" result="effect4_dropShadow_1288_40202"/>
<feBlend mode="normal" in="SourceGraphic" in2="effect4_dropShadow_1288_40202" result="shape"/>
</filter>
<filter id="filter3_d_1288_40202" x="0" y="72.5" width="329" height="2" filterUnits="userSpaceOnUse" color-interpolation-filters="sRGB">
<feFlood flood-opacity="0" result="BackgroundImageFix"/>
<feColorMatrix in="SourceAlpha" type="matrix" values="0 0 0 0 0 0 0 0 0 0 0 0 0 0 0 0 0 0 127 0" result="hardAlpha"/>
<feOffset dy="-1"/>
<feComposite in2="hardAlpha" operator="out"/>
<feColorMatrix type="matrix" values="0 0 0 0 0 0 0 0 0 0 0 0 0 0 0 0 0 0 1 0"/>
<feBlend mode="normal" in2="BackgroundImageFix" result="effect1_dropShadow_1288_40202"/>
<feBlend mode="normal" in="SourceGraphic" in2="effect1_dropShadow_1288_40202" result="shape"/>
</filter>
<linearGradient id="paint0_linear_1288_40202" x1="329" y1="171" x2="0" y2="171" gradientUnits="userSpaceOnUse">
<stop stop-color="white" stop-opacity="0.08"/>
<stop offset="0.5" stop-color="white" stop-opacity="0.12"/>
<stop offset="1" stop-color="white" stop-opacity="0.08"/>
</linearGradient>
<linearGradient id="paint1_linear_1288_40202" x1="0" y1="48" x2="329" y2="48" gradientUnits="userSpaceOnUse">
<stop stop-color="white" stop-opacity="0"/>
<stop offset="0.5" stop-color="white" stop-opacity="0.08"/>
<stop offset="1" stop-color="white" stop-opacity="0"/>
</linearGradient>
<linearGradient id="paint2_linear_1288_40202" x1="164.5" y1="52" x2="164.5" y2="-48" gradientUnits="userSpaceOnUse">
<stop stop-color="#141415" stop-opacity="0"/>
<stop offset="1" stop-color="#141415"/>
</linearGradient>
<linearGradient id="paint3_linear_1288_40202" x1="164.5" y1="100" x2="164.5" y2="0" gradientUnits="userSpaceOnUse">
<stop stop-color="#141415" stop-opacity="0"/>
<stop offset="1" stop-color="#141415"/>
</linearGradient>
<clipPath id="clip0_1288_40202">
<rect width="329" height="341" fill="white" transform="matrix(1 0 0 -1 0 341)"/>
</clipPath>
<clipPath id="clip1_1288_40202">
<rect width="329" height="96" fill="white" transform="matrix(1 0 0 -1 0 170.5)"/>
</clipPath>
<clipPath id="clip2_1288_40202">
<rect width="27.4286" height="27.4286" fill="white" transform="translate(26.2857 108.785)"/>
</clipPath>
</defs>
</svg>
