<svg width="329" height="389" viewBox="0 0 329 389" fill="none" xmlns="http://www.w3.org/2000/svg">
<g clip-path="url(#clip0_1167_153221)">
<rect width="329" height="389" transform="matrix(1 0 0 -1 0 389)" fill="#232324" fill-opacity="0.64"/>
<rect x="277" y="314.5" width="32" height="12" rx="6" fill="white" fill-opacity="0.04"/>
<rect x="76" y="314.5" width="160" height="12" rx="6" fill="white" fill-opacity="0.12"/>
<rect x="76" y="338.5" width="188" height="8" rx="4" fill="white" fill-opacity="0.04"/>
<rect x="76" y="354.5" width="172" height="8" rx="4" fill="white" fill-opacity="0.04"/>
<circle cx="40" cy="338.5" r="20" fill="white" fill-opacity="0.12"/>
<g filter="url(#filter0_d_1167_153221)">
<line y1="290" x2="329" y2="290" stroke="white" stroke-opacity="0.08" shape-rendering="crispEdges"/>
</g>
<rect x="277" y="218.5" width="32" height="12" rx="6" fill="white" fill-opacity="0.04"/>
<rect x="76" y="218.5" width="160" height="12" rx="6" fill="white" fill-opacity="0.12"/>
<rect x="76" y="242.5" width="188" height="8" rx="4" fill="white" fill-opacity="0.04"/>
<rect x="76" y="258.5" width="172" height="8" rx="4" fill="white" fill-opacity="0.04"/>
<circle cx="40" cy="242.5" r="20" fill="white" fill-opacity="0.12"/>
<g filter="url(#filter1_d_1167_153221)">
<line y1="194" x2="329" y2="194" stroke="url(#paint0_linear_1167_153221)" shape-rendering="crispEdges"/>
</g>
<g clip-path="url(#clip1_1167_153221)">
<rect width="329" height="96" transform="matrix(1 0 0 -1 0 194.5)" fill="url(#paint1_linear_1167_153221)"/>
<g filter="url(#filter2_dddd_1167_153221)">
<circle cx="40" cy="146.5" r="20" fill="#0D67FE"/>
<g clip-path="url(#clip2_1167_153221)">
<path d="M53.7143 134.472V143.923L26.2857 155.091L53.7143 134.472Z" fill="#00C9FF"/>
<path d="M48.5714 134.043V150.366C48.5714 155.111 44.7337 158.957 40 158.957C35.2663 158.957 31.4286 155.111 31.4286 150.366V143.493L36.5714 140.658V150.366C36.5714 151.163 36.8875 151.928 37.4501 152.492C38.0127 153.056 38.7758 153.373 39.5714 153.373C40.3671 153.373 41.1301 153.056 41.6928 152.492C42.2554 151.928 42.5714 151.163 42.5714 150.366V137.35L48.5714 134.043Z" fill="#FFFCF0"/>
</g>
<circle cx="40" cy="146.5" r="19.5" stroke="white" stroke-opacity="0.01"/>
</g>
<path d="M83.6662 123.318H85.2074V130.015C85.2074 130.728 85.04 131.359 84.7053 131.909C84.3705 132.456 83.8999 132.887 83.2933 133.202C82.6868 133.513 81.9759 133.669 81.1605 133.669C80.3485 133.669 79.6392 133.513 79.0327 133.202C78.4261 132.887 77.9555 132.456 77.6207 131.909C77.286 131.359 77.1186 130.728 77.1186 130.015V123.318H78.6548V129.891C78.6548 130.351 78.7559 130.761 78.9581 131.119C79.1636 131.477 79.4536 131.758 79.8281 131.964C80.2027 132.166 80.6468 132.267 81.1605 132.267C81.6776 132.267 82.1233 132.166 82.4979 131.964C82.8757 131.758 83.1641 131.477 83.3629 131.119C83.5651 130.761 83.6662 130.351 83.6662 129.891V123.318ZM88.8081 128.966V133.5H87.3216V125.864H88.7484V127.107H88.8429C89.0185 126.702 89.2936 126.377 89.6681 126.132C90.046 125.887 90.5216 125.764 91.095 125.764C91.6154 125.764 92.0711 125.874 92.4622 126.092C92.8533 126.308 93.1565 126.629 93.372 127.057C93.5874 127.484 93.6951 128.013 93.6951 128.643V133.5H92.2086V128.822C92.2086 128.268 92.0645 127.836 91.7761 127.524C91.4877 127.209 91.0917 127.052 90.5879 127.052C90.2432 127.052 89.9366 127.126 89.6681 127.276C89.403 127.425 89.1925 127.643 89.0368 127.932C88.8843 128.217 88.8081 128.562 88.8081 128.966ZM101.411 127.728L100.064 127.967C100.007 127.794 99.9179 127.63 99.7953 127.474C99.676 127.319 99.5136 127.191 99.3081 127.092C99.1026 126.992 98.8457 126.942 98.5375 126.942C98.1165 126.942 97.7652 127.037 97.4835 127.226C97.2018 127.411 97.0609 127.652 97.0609 127.947C97.0609 128.202 97.1554 128.407 97.3443 128.563C97.5332 128.719 97.8381 128.847 98.2591 128.946L99.4721 129.224C100.175 129.387 100.698 129.637 101.043 129.975C101.388 130.313 101.56 130.752 101.56 131.293C101.56 131.75 101.428 132.158 101.162 132.516C100.901 132.87 100.534 133.149 100.064 133.351C99.5964 133.553 99.0545 133.654 98.438 133.654C97.5829 133.654 96.8852 133.472 96.345 133.107C95.8047 132.739 95.4733 132.217 95.3507 131.541L96.7875 131.322C96.877 131.697 97.0609 131.98 97.3393 132.173C97.6177 132.362 97.9806 132.456 98.4281 132.456C98.9153 132.456 99.3047 132.355 99.5964 132.153C99.8881 131.947 100.034 131.697 100.034 131.402C100.034 131.163 99.9444 130.963 99.7654 130.8C99.5898 130.638 99.3197 130.515 98.9551 130.433L97.6625 130.149C96.9499 129.987 96.4229 129.728 96.0815 129.374C95.7434 129.019 95.5744 128.57 95.5744 128.026C95.5744 127.576 95.7003 127.181 95.9522 126.843C96.2041 126.505 96.5521 126.241 96.9963 126.053C97.4404 125.86 97.9492 125.764 98.5225 125.764C99.3478 125.764 99.9975 125.943 100.471 126.301C100.945 126.656 101.259 127.131 101.411 127.728ZM106.759 125.864V127.057H102.588V125.864H106.759ZM103.707 124.034H105.193V131.258C105.193 131.546 105.236 131.763 105.322 131.909C105.409 132.052 105.52 132.149 105.656 132.202C105.795 132.252 105.946 132.277 106.108 132.277C106.227 132.277 106.332 132.269 106.421 132.252C106.511 132.236 106.58 132.222 106.63 132.212L106.898 133.44C106.812 133.473 106.69 133.507 106.531 133.54C106.371 133.576 106.173 133.596 105.934 133.599C105.543 133.606 105.178 133.536 104.84 133.391C104.502 133.245 104.229 133.019 104.02 132.714C103.811 132.41 103.707 132.027 103.707 131.566V124.034ZM111.538 133.654C110.822 133.654 110.198 133.49 109.664 133.162C109.13 132.834 108.716 132.375 108.421 131.785C108.126 131.195 107.979 130.505 107.979 129.717C107.979 128.924 108.126 128.232 108.421 127.638C108.716 127.045 109.13 126.585 109.664 126.256C110.198 125.928 110.822 125.764 111.538 125.764C112.254 125.764 112.879 125.928 113.412 126.256C113.946 126.585 114.36 127.045 114.655 127.638C114.95 128.232 115.098 128.924 115.098 129.717C115.098 130.505 114.95 131.195 114.655 131.785C114.36 132.375 113.946 132.834 113.412 133.162C112.879 133.49 112.254 133.654 111.538 133.654ZM111.543 132.406C112.007 132.406 112.392 132.284 112.697 132.038C113.001 131.793 113.227 131.467 113.373 131.059C113.522 130.651 113.596 130.202 113.596 129.712C113.596 129.224 113.522 128.777 113.373 128.369C113.227 127.958 113.001 127.629 112.697 127.38C112.392 127.131 112.007 127.007 111.543 127.007C111.076 127.007 110.688 127.131 110.38 127.38C110.075 127.629 109.848 127.958 109.699 128.369C109.553 128.777 109.48 129.224 109.48 129.712C109.48 130.202 109.553 130.651 109.699 131.059C109.848 131.467 110.075 131.793 110.38 132.038C110.688 132.284 111.076 132.406 111.543 132.406ZM116.757 136.364V125.864H118.209V127.102H118.333C118.419 126.942 118.544 126.759 118.706 126.55C118.868 126.341 119.094 126.159 119.382 126.003C119.67 125.844 120.052 125.764 120.526 125.764C121.142 125.764 121.692 125.92 122.176 126.232C122.66 126.543 123.04 126.992 123.315 127.579C123.593 128.165 123.732 128.871 123.732 129.697C123.732 130.522 123.595 131.23 123.32 131.82C123.045 132.406 122.667 132.859 122.186 133.177C121.705 133.492 121.157 133.649 120.54 133.649C120.076 133.649 119.697 133.571 119.402 133.415C119.11 133.26 118.882 133.077 118.716 132.869C118.55 132.66 118.423 132.474 118.333 132.312H118.244V136.364H116.757ZM118.214 129.682C118.214 130.219 118.292 130.689 118.447 131.094C118.603 131.498 118.829 131.815 119.124 132.043C119.419 132.269 119.78 132.381 120.207 132.381C120.652 132.381 121.023 132.264 121.321 132.028C121.619 131.79 121.845 131.467 121.997 131.059C122.153 130.651 122.231 130.192 122.231 129.682C122.231 129.178 122.155 128.726 122.002 128.325C121.853 127.924 121.628 127.607 121.326 127.375C121.028 127.143 120.655 127.027 120.207 127.027C119.777 127.027 119.412 127.138 119.114 127.36C118.819 127.582 118.595 127.892 118.442 128.29C118.29 128.687 118.214 129.152 118.214 129.682ZM125.398 136.364V125.864H126.849V127.102H126.974C127.06 126.942 127.184 126.759 127.347 126.55C127.509 126.341 127.734 126.159 128.023 126.003C128.311 125.844 128.692 125.764 129.166 125.764C129.783 125.764 130.333 125.92 130.817 126.232C131.301 126.543 131.68 126.992 131.955 127.579C132.234 128.165 132.373 128.871 132.373 129.697C132.373 130.522 132.235 131.23 131.96 131.82C131.685 132.406 131.307 132.859 130.827 133.177C130.346 133.492 129.798 133.649 129.181 133.649C128.717 133.649 128.338 133.571 128.043 133.415C127.751 133.26 127.522 133.077 127.357 132.869C127.191 132.66 127.063 132.474 126.974 132.312H126.884V136.364H125.398ZM126.854 129.682C126.854 130.219 126.932 130.689 127.088 131.094C127.244 131.498 127.469 131.815 127.764 132.043C128.059 132.269 128.42 132.381 128.848 132.381C129.292 132.381 129.663 132.264 129.962 132.028C130.26 131.79 130.485 131.467 130.638 131.059C130.794 130.651 130.871 130.192 130.871 129.682C130.871 129.178 130.795 128.726 130.643 128.325C130.494 127.924 130.268 127.607 129.967 127.375C129.668 127.143 129.295 127.027 128.848 127.027C128.417 127.027 128.053 127.138 127.754 127.36C127.459 127.582 127.236 127.892 127.083 128.29C126.931 128.687 126.854 129.152 126.854 129.682ZM136.261 133.669C135.777 133.669 135.339 133.58 134.948 133.401C134.557 133.218 134.247 132.955 134.018 132.61C133.793 132.265 133.68 131.843 133.68 131.342C133.68 130.911 133.763 130.557 133.929 130.278C134.095 130 134.318 129.78 134.6 129.617C134.882 129.455 135.197 129.332 135.545 129.249C135.893 129.166 136.247 129.103 136.609 129.06C137.066 129.007 137.437 128.964 137.722 128.931C138.007 128.895 138.214 128.837 138.344 128.757C138.473 128.678 138.538 128.548 138.538 128.369V128.335C138.538 127.9 138.415 127.564 138.17 127.325C137.928 127.087 137.567 126.967 137.086 126.967C136.585 126.967 136.191 127.078 135.903 127.3C135.618 127.519 135.42 127.763 135.311 128.031L133.914 127.713C134.08 127.249 134.322 126.875 134.64 126.589C134.961 126.301 135.331 126.092 135.749 125.963C136.166 125.83 136.605 125.764 137.066 125.764C137.371 125.764 137.694 125.801 138.036 125.874C138.38 125.943 138.702 126.072 139 126.261C139.302 126.45 139.549 126.72 139.741 127.072C139.933 127.42 140.029 127.872 140.029 128.429V133.5H138.577V132.456H138.518C138.422 132.648 138.277 132.837 138.085 133.023C137.893 133.208 137.646 133.362 137.344 133.485C137.043 133.608 136.682 133.669 136.261 133.669ZM136.584 132.476C136.995 132.476 137.346 132.395 137.638 132.232C137.933 132.07 138.156 131.858 138.309 131.596C138.465 131.331 138.543 131.047 138.543 130.746V129.761C138.49 129.814 138.387 129.864 138.234 129.911C138.085 129.954 137.915 129.992 137.722 130.025C137.53 130.055 137.343 130.083 137.161 130.109C136.978 130.133 136.826 130.152 136.703 130.169C136.415 130.205 136.151 130.267 135.913 130.353C135.677 130.439 135.488 130.563 135.346 130.726C135.207 130.885 135.137 131.097 135.137 131.362C135.137 131.73 135.273 132.009 135.545 132.197C135.817 132.383 136.163 132.476 136.584 132.476ZM142.128 133.5V123.318H143.615V127.102H143.704C143.791 126.942 143.915 126.759 144.077 126.55C144.24 126.341 144.465 126.159 144.753 126.003C145.042 125.844 145.423 125.764 145.897 125.764C146.513 125.764 147.064 125.92 147.547 126.232C148.031 126.543 148.411 126.992 148.686 127.579C148.964 128.165 149.104 128.871 149.104 129.697C149.104 130.522 148.966 131.23 148.691 131.82C148.416 132.406 148.038 132.859 147.557 133.177C147.077 133.492 146.528 133.649 145.912 133.649C145.448 133.649 145.068 133.571 144.773 133.415C144.482 133.26 144.253 133.077 144.087 132.869C143.921 132.66 143.794 132.474 143.704 132.312H143.58V133.5H142.128ZM143.585 129.682C143.585 130.219 143.663 130.689 143.819 131.094C143.974 131.498 144.2 131.815 144.495 132.043C144.79 132.269 145.151 132.381 145.579 132.381C146.023 132.381 146.394 132.264 146.692 132.028C146.991 131.79 147.216 131.467 147.368 131.059C147.524 130.651 147.602 130.192 147.602 129.682C147.602 129.178 147.526 128.726 147.373 128.325C147.224 127.924 146.999 127.607 146.697 127.375C146.399 127.143 146.026 127.027 145.579 127.027C145.148 127.027 144.783 127.138 144.485 127.36C144.19 127.582 143.966 127.892 143.814 128.29C143.661 128.687 143.585 129.152 143.585 129.682ZM152.259 123.318V133.5H150.773V123.318H152.259ZM157.55 133.654C156.798 133.654 156.15 133.493 155.606 133.172C155.066 132.847 154.648 132.391 154.354 131.805C154.062 131.215 153.916 130.524 153.916 129.732C153.916 128.949 154.062 128.26 154.354 127.663C154.648 127.067 155.059 126.601 155.586 126.266C156.117 125.932 156.737 125.764 157.446 125.764C157.877 125.764 158.294 125.835 158.699 125.978C159.103 126.121 159.466 126.344 159.787 126.649C160.109 126.954 160.363 127.35 160.548 127.837C160.734 128.321 160.827 128.91 160.827 129.602V130.129H154.756V129.016H159.37C159.37 128.625 159.29 128.278 159.131 127.977C158.972 127.672 158.748 127.431 158.46 127.256C158.175 127.08 157.84 126.992 157.456 126.992C157.038 126.992 156.674 127.095 156.362 127.3C156.054 127.503 155.815 127.768 155.646 128.096C155.48 128.421 155.398 128.774 155.398 129.155V130.025C155.398 130.535 155.487 130.969 155.666 131.327C155.848 131.685 156.102 131.959 156.427 132.148C156.751 132.333 157.131 132.426 157.565 132.426C157.847 132.426 158.104 132.386 158.336 132.307C158.568 132.224 158.768 132.101 158.937 131.939C159.106 131.777 159.236 131.576 159.325 131.337L160.732 131.591C160.619 132.005 160.417 132.368 160.126 132.68C159.837 132.988 159.474 133.228 159.037 133.401C158.603 133.57 158.107 133.654 157.55 133.654ZM169.596 133.5H166.3V123.318H169.701C170.698 123.318 171.555 123.522 172.271 123.93C172.987 124.334 173.536 124.916 173.917 125.675C174.301 126.43 174.493 127.337 174.493 128.394C174.493 129.455 174.3 130.366 173.912 131.129C173.527 131.891 172.97 132.478 172.241 132.888C171.512 133.296 170.631 133.5 169.596 133.5ZM167.836 132.158H169.512C170.287 132.158 170.932 132.012 171.446 131.72C171.96 131.425 172.344 130.999 172.599 130.442C172.854 129.882 172.982 129.2 172.982 128.394C172.982 127.595 172.854 126.918 172.599 126.361C172.347 125.804 171.971 125.381 171.471 125.093C170.97 124.805 170.349 124.661 169.606 124.661H167.836V132.158ZM179.501 133.654C178.785 133.654 178.16 133.49 177.627 133.162C177.093 132.834 176.679 132.375 176.384 131.785C176.089 131.195 175.941 130.505 175.941 129.717C175.941 128.924 176.089 128.232 176.384 127.638C176.679 127.045 177.093 126.585 177.627 126.256C178.16 125.928 178.785 125.764 179.501 125.764C180.217 125.764 180.842 125.928 181.375 126.256C181.909 126.585 182.323 127.045 182.618 127.638C182.913 128.232 183.061 128.924 183.061 129.717C183.061 130.505 182.913 131.195 182.618 131.785C182.323 132.375 181.909 132.834 181.375 133.162C180.842 133.49 180.217 133.654 179.501 133.654ZM179.506 132.406C179.97 132.406 180.355 132.284 180.659 132.038C180.964 131.793 181.19 131.467 181.336 131.059C181.485 130.651 181.559 130.202 181.559 129.712C181.559 129.224 181.485 128.777 181.336 128.369C181.19 127.958 180.964 127.629 180.659 127.38C180.355 127.131 179.97 127.007 179.506 127.007C179.039 127.007 178.651 127.131 178.343 127.38C178.038 127.629 177.811 127.958 177.662 128.369C177.516 128.777 177.443 129.224 177.443 129.712C177.443 130.202 177.516 130.651 177.662 131.059C177.811 131.467 178.038 131.793 178.343 132.038C178.651 132.284 179.039 132.406 179.506 132.406ZM184.72 133.5V125.864H186.147V127.107H186.241C186.4 126.686 186.661 126.357 187.022 126.122C187.383 125.884 187.816 125.764 188.319 125.764C188.83 125.764 189.257 125.884 189.602 126.122C189.95 126.361 190.207 126.689 190.373 127.107H190.452C190.635 126.699 190.925 126.374 191.322 126.132C191.72 125.887 192.194 125.764 192.744 125.764C193.437 125.764 194.002 125.981 194.439 126.415C194.88 126.85 195.101 127.504 195.101 128.379V133.5H193.614V128.518C193.614 128.001 193.473 127.627 193.192 127.395C192.91 127.163 192.573 127.047 192.182 127.047C191.698 127.047 191.322 127.196 191.054 127.494C190.785 127.789 190.651 128.169 190.651 128.633V133.5H189.17V128.424C189.17 128.01 189.04 127.677 188.782 127.425C188.523 127.173 188.187 127.047 187.773 127.047C187.491 127.047 187.231 127.121 186.992 127.271C186.757 127.416 186.566 127.62 186.42 127.882C186.278 128.144 186.206 128.447 186.206 128.792V133.5H184.72ZM199.315 133.669C198.831 133.669 198.394 133.58 198.003 133.401C197.612 133.218 197.302 132.955 197.073 132.61C196.848 132.265 196.735 131.843 196.735 131.342C196.735 130.911 196.818 130.557 196.984 130.278C197.149 130 197.373 129.78 197.655 129.617C197.937 129.455 198.251 129.332 198.599 129.249C198.947 129.166 199.302 129.103 199.663 129.06C200.121 129.007 200.492 128.964 200.777 128.931C201.062 128.895 201.269 128.837 201.398 128.757C201.528 128.678 201.592 128.548 201.592 128.369V128.335C201.592 127.9 201.47 127.564 201.224 127.325C200.982 127.087 200.621 126.967 200.141 126.967C199.64 126.967 199.246 127.078 198.957 127.3C198.672 127.519 198.475 127.763 198.366 128.031L196.969 127.713C197.134 127.249 197.376 126.875 197.695 126.589C198.016 126.301 198.386 126.092 198.803 125.963C199.221 125.83 199.66 125.764 200.121 125.764C200.426 125.764 200.749 125.801 201.09 125.874C201.435 125.943 201.756 126.072 202.055 126.261C202.356 126.45 202.603 126.72 202.795 127.072C202.988 127.42 203.084 127.872 203.084 128.429V133.5H201.632V132.456H201.572C201.476 132.648 201.332 132.837 201.14 133.023C200.948 133.208 200.701 133.362 200.399 133.485C200.098 133.608 199.736 133.669 199.315 133.669ZM199.638 132.476C200.049 132.476 200.401 132.395 200.692 132.232C200.987 132.07 201.211 131.858 201.364 131.596C201.519 131.331 201.597 131.047 201.597 130.746V129.761C201.544 129.814 201.442 129.864 201.289 129.911C201.14 129.954 200.969 129.992 200.777 130.025C200.585 130.055 200.397 130.083 200.215 130.109C200.033 130.133 199.88 130.152 199.758 130.169C199.469 130.205 199.206 130.267 198.967 130.353C198.732 130.439 198.543 130.563 198.401 130.726C198.261 130.885 198.192 131.097 198.192 131.362C198.192 131.73 198.328 132.009 198.599 132.197C198.871 132.383 199.218 132.476 199.638 132.476ZM205.064 133.5V125.864H206.55V133.5H205.064ZM205.814 124.685C205.556 124.685 205.334 124.599 205.148 124.427C204.966 124.251 204.875 124.042 204.875 123.8C204.875 123.555 204.966 123.346 205.148 123.174C205.334 122.998 205.556 122.911 205.814 122.911C206.073 122.911 206.293 122.998 206.476 123.174C206.661 123.346 206.754 123.555 206.754 123.8C206.754 124.042 206.661 124.251 206.476 124.427C206.293 124.599 206.073 124.685 205.814 124.685ZM210.037 128.966V133.5H208.55V125.864H209.977V127.107H210.071C210.247 126.702 210.522 126.377 210.897 126.132C211.275 125.887 211.75 125.764 212.324 125.764C212.844 125.764 213.3 125.874 213.691 126.092C214.082 126.308 214.385 126.629 214.6 127.057C214.816 127.484 214.924 128.013 214.924 128.643V133.5H213.437V128.822C213.437 128.268 213.293 127.836 213.005 127.524C212.716 127.209 212.32 127.052 211.816 127.052C211.472 127.052 211.165 127.126 210.897 127.276C210.632 127.425 210.421 127.643 210.265 127.932C210.113 128.217 210.037 128.562 210.037 128.966ZM222.64 127.728L221.292 127.967C221.236 127.794 221.146 127.63 221.024 127.474C220.904 127.319 220.742 127.191 220.537 127.092C220.331 126.992 220.074 126.942 219.766 126.942C219.345 126.942 218.994 127.037 218.712 127.226C218.43 127.411 218.289 127.652 218.289 127.947C218.289 128.202 218.384 128.407 218.573 128.563C218.762 128.719 219.067 128.847 219.488 128.946L220.701 129.224C221.403 129.387 221.927 129.637 222.272 129.975C222.616 130.313 222.789 130.752 222.789 131.293C222.789 131.75 222.656 132.158 222.391 132.516C222.129 132.87 221.763 133.149 221.292 133.351C220.825 133.553 220.283 133.654 219.667 133.654C218.811 133.654 218.114 133.472 217.574 133.107C217.033 132.739 216.702 132.217 216.579 131.541L218.016 131.322C218.105 131.697 218.289 131.98 218.568 132.173C218.846 132.362 219.209 132.456 219.657 132.456C220.144 132.456 220.533 132.355 220.825 132.153C221.117 131.947 221.262 131.697 221.262 131.402C221.262 131.163 221.173 130.963 220.994 130.8C220.818 130.638 220.548 130.515 220.184 130.433L218.891 130.149C218.178 129.987 217.651 129.728 217.31 129.374C216.972 129.019 216.803 128.57 216.803 128.026C216.803 127.576 216.929 127.181 217.181 126.843C217.433 126.505 217.781 126.241 218.225 126.053C218.669 125.86 219.178 125.764 219.751 125.764C220.576 125.764 221.226 125.943 221.7 126.301C222.174 126.656 222.487 127.131 222.64 127.728Z" fill="white"/>
<path d="M78.642 154.5L76.2557 145.773H77.3295L79.1534 152.881H79.2386L81.0966 145.773H82.2898L84.1477 152.881H84.233L86.0568 145.773H87.1307L84.7443 154.5H83.6534L81.7273 147.545H81.6591L79.733 154.5H78.642ZM90.446 154.636C89.8153 154.636 89.2713 154.497 88.8139 154.219C88.3594 153.938 88.0085 153.545 87.7614 153.043C87.517 152.537 87.3949 151.949 87.3949 151.278C87.3949 150.608 87.517 150.017 87.7614 149.506C88.0085 148.991 88.3523 148.591 88.7926 148.304C89.2358 148.014 89.7528 147.869 90.3438 147.869C90.6847 147.869 91.0213 147.926 91.3537 148.04C91.6861 148.153 91.9886 148.338 92.2614 148.594C92.5341 148.847 92.7514 149.182 92.9134 149.599C93.0753 150.017 93.1562 150.531 93.1562 151.142V151.568H88.1108V150.699H92.1335C92.1335 150.33 92.0597 150 91.9119 149.71C91.767 149.42 91.5597 149.192 91.2898 149.024C91.0227 148.857 90.7074 148.773 90.3438 148.773C89.9432 148.773 89.5966 148.872 89.304 149.071C89.0142 149.267 88.7912 149.523 88.6349 149.838C88.4787 150.153 88.4006 150.491 88.4006 150.852V151.432C88.4006 151.926 88.4858 152.345 88.6562 152.689C88.8295 153.03 89.0696 153.29 89.3764 153.469C89.6832 153.645 90.0398 153.733 90.446 153.733C90.7102 153.733 90.9489 153.696 91.1619 153.622C91.3778 153.545 91.5639 153.432 91.7202 153.281C91.8764 153.128 91.9972 152.937 92.0824 152.71L93.054 152.983C92.9517 153.312 92.7798 153.602 92.5384 153.852C92.2969 154.099 91.9986 154.293 91.6435 154.432C91.2884 154.568 90.8892 154.636 90.446 154.636ZM95.6918 145.773V154.5H94.6861V145.773H95.6918ZM100.193 154.636C99.5792 154.636 99.0508 154.491 98.6076 154.202C98.1644 153.912 97.8235 153.513 97.5849 153.004C97.3462 152.496 97.2269 151.915 97.2269 151.261C97.2269 150.597 97.3491 150.01 97.5934 149.501C97.8406 148.99 98.1843 148.591 98.6246 148.304C99.0678 148.014 99.5849 147.869 100.176 147.869C100.636 147.869 101.051 147.955 101.42 148.125C101.789 148.295 102.092 148.534 102.328 148.841C102.564 149.148 102.71 149.506 102.767 149.915H101.761C101.684 149.616 101.514 149.352 101.25 149.122C100.988 148.889 100.636 148.773 100.193 148.773C99.8008 148.773 99.457 148.875 99.1616 149.08C98.869 149.281 98.6403 149.567 98.4755 149.936C98.3136 150.303 98.2326 150.733 98.2326 151.227C98.2326 151.733 98.3121 152.173 98.4712 152.548C98.6332 152.923 98.8604 153.214 99.1531 153.422C99.4485 153.629 99.7951 153.733 100.193 153.733C100.454 153.733 100.691 153.688 100.904 153.597C101.118 153.506 101.298 153.375 101.446 153.205C101.593 153.034 101.699 152.83 101.761 152.591H102.767C102.71 152.977 102.569 153.325 102.345 153.635C102.123 153.942 101.829 154.186 101.463 154.368C101.099 154.547 100.676 154.636 100.193 154.636ZM106.896 154.636C106.305 154.636 105.787 154.496 105.341 154.214C104.897 153.933 104.551 153.54 104.301 153.034C104.054 152.528 103.93 151.937 103.93 151.261C103.93 150.58 104.054 149.984 104.301 149.476C104.551 148.967 104.897 148.572 105.341 148.291C105.787 148.01 106.305 147.869 106.896 147.869C107.487 147.869 108.004 148.01 108.447 148.291C108.893 148.572 109.24 148.967 109.487 149.476C109.737 149.984 109.862 150.58 109.862 151.261C109.862 151.937 109.737 152.528 109.487 153.034C109.24 153.54 108.893 153.933 108.447 154.214C108.004 154.496 107.487 154.636 106.896 154.636ZM106.896 153.733C107.345 153.733 107.714 153.618 108.004 153.388C108.294 153.158 108.508 152.855 108.647 152.48C108.787 152.105 108.856 151.699 108.856 151.261C108.856 150.824 108.787 150.416 108.647 150.038C108.508 149.661 108.294 149.355 108.004 149.122C107.714 148.889 107.345 148.773 106.896 148.773C106.447 148.773 106.078 148.889 105.788 149.122C105.498 149.355 105.284 149.661 105.145 150.038C105.005 150.416 104.936 150.824 104.936 151.261C104.936 151.699 105.005 152.105 105.145 152.48C105.284 152.855 105.498 153.158 105.788 153.388C106.078 153.618 106.447 153.733 106.896 153.733ZM111.397 154.5V147.955H112.369V148.977H112.454C112.59 148.628 112.81 148.357 113.114 148.163C113.418 147.967 113.783 147.869 114.21 147.869C114.641 147.869 115.001 147.967 115.288 148.163C115.577 148.357 115.803 148.628 115.965 148.977H116.033C116.201 148.639 116.452 148.371 116.788 148.172C117.123 147.97 117.525 147.869 117.994 147.869C118.579 147.869 119.058 148.053 119.43 148.419C119.802 148.783 119.988 149.349 119.988 150.119V154.5H118.982V150.119C118.982 149.636 118.85 149.291 118.586 149.084C118.322 148.876 118.011 148.773 117.653 148.773C117.192 148.773 116.836 148.912 116.583 149.19C116.33 149.466 116.204 149.815 116.204 150.239V154.5H115.181V150.017C115.181 149.645 115.06 149.345 114.819 149.118C114.577 148.888 114.266 148.773 113.886 148.773C113.624 148.773 113.38 148.842 113.153 148.982C112.928 149.121 112.746 149.314 112.607 149.561C112.471 149.805 112.403 150.088 112.403 150.409V154.5H111.397ZM124.571 154.636C123.94 154.636 123.396 154.497 122.939 154.219C122.484 153.938 122.134 153.545 121.886 153.043C121.642 152.537 121.52 151.949 121.52 151.278C121.52 150.608 121.642 150.017 121.886 149.506C122.134 148.991 122.477 148.591 122.918 148.304C123.361 148.014 123.878 147.869 124.469 147.869C124.81 147.869 125.146 147.926 125.479 148.04C125.811 148.153 126.114 148.338 126.386 148.594C126.659 148.847 126.876 149.182 127.038 149.599C127.2 150.017 127.281 150.531 127.281 151.142V151.568H122.236V150.699H126.259C126.259 150.33 126.185 150 126.037 149.71C125.892 149.42 125.685 149.192 125.415 149.024C125.148 148.857 124.832 148.773 124.469 148.773C124.068 148.773 123.722 148.872 123.429 149.071C123.139 149.267 122.916 149.523 122.76 149.838C122.604 150.153 122.526 150.491 122.526 150.852V151.432C122.526 151.926 122.611 152.345 122.781 152.689C122.955 153.03 123.195 153.29 123.501 153.469C123.808 153.645 124.165 153.733 124.571 153.733C124.835 153.733 125.074 153.696 125.287 153.622C125.503 153.545 125.689 153.432 125.845 153.281C126.001 153.128 126.122 152.937 126.207 152.71L127.179 152.983C127.077 153.312 126.905 153.602 126.663 153.852C126.422 154.099 126.124 154.293 125.768 154.432C125.413 154.568 125.014 154.636 124.571 154.636ZM135.033 147.955V148.807H131.641V147.955H135.033ZM132.629 146.386H133.635V152.625C133.635 152.909 133.676 153.122 133.759 153.264C133.844 153.403 133.952 153.497 134.082 153.545C134.216 153.591 134.357 153.614 134.504 153.614C134.615 153.614 134.706 153.608 134.777 153.597C134.848 153.582 134.905 153.571 134.947 153.562L135.152 154.466C135.084 154.491 134.989 154.517 134.866 154.543C134.744 154.571 134.589 154.585 134.402 154.585C134.118 154.585 133.839 154.524 133.567 154.402C133.297 154.28 133.072 154.094 132.893 153.844C132.717 153.594 132.629 153.278 132.629 152.898V146.386ZM139.134 154.636C138.543 154.636 138.025 154.496 137.579 154.214C137.136 153.933 136.789 153.54 136.539 153.034C136.292 152.528 136.168 151.937 136.168 151.261C136.168 150.58 136.292 149.984 136.539 149.476C136.789 148.967 137.136 148.572 137.579 148.291C138.025 148.01 138.543 147.869 139.134 147.869C139.725 147.869 140.242 148.01 140.685 148.291C141.131 148.572 141.478 148.967 141.725 149.476C141.975 149.984 142.1 150.58 142.1 151.261C142.1 151.937 141.975 152.528 141.725 153.034C141.478 153.54 141.131 153.933 140.685 154.214C140.242 154.496 139.725 154.636 139.134 154.636ZM139.134 153.733C139.583 153.733 139.952 153.618 140.242 153.388C140.532 153.158 140.746 152.855 140.886 152.48C141.025 152.105 141.094 151.699 141.094 151.261C141.094 150.824 141.025 150.416 140.886 150.038C140.746 149.661 140.532 149.355 140.242 149.122C139.952 148.889 139.583 148.773 139.134 148.773C138.685 148.773 138.316 148.889 138.026 149.122C137.737 149.355 137.522 149.661 137.383 150.038C137.244 150.416 137.174 150.824 137.174 151.261C137.174 151.699 137.244 152.105 137.383 152.48C137.522 152.855 137.737 153.158 138.026 153.388C138.316 153.618 138.685 153.733 139.134 153.733ZM152.874 145.773H153.931V151.551C153.931 152.148 153.79 152.68 153.509 153.149C153.23 153.615 152.837 153.983 152.328 154.253C151.82 154.52 151.223 154.653 150.539 154.653C149.854 154.653 149.257 154.52 148.749 154.253C148.24 153.983 147.846 153.615 147.564 153.149C147.286 152.68 147.147 152.148 147.147 151.551V145.773H148.203V151.466C148.203 151.892 148.297 152.271 148.485 152.604C148.672 152.933 148.939 153.193 149.286 153.384C149.635 153.571 150.053 153.665 150.539 153.665C151.025 153.665 151.442 153.571 151.792 153.384C152.141 153.193 152.408 152.933 152.593 152.604C152.78 152.271 152.874 151.892 152.874 151.466V145.773ZM156.911 150.562V154.5H155.905V147.955H156.876V148.977H156.962C157.115 148.645 157.348 148.378 157.661 148.176C157.973 147.972 158.376 147.869 158.871 147.869C159.314 147.869 159.702 147.96 160.034 148.142C160.366 148.321 160.625 148.594 160.81 148.96C160.994 149.324 161.087 149.784 161.087 150.341V154.5H160.081V150.409C160.081 149.895 159.947 149.494 159.68 149.207C159.413 148.918 159.047 148.773 158.581 148.773C158.26 148.773 157.973 148.842 157.72 148.982C157.47 149.121 157.273 149.324 157.128 149.591C156.983 149.858 156.911 150.182 156.911 150.562ZM167.561 149.42L166.657 149.676C166.6 149.526 166.517 149.379 166.406 149.237C166.298 149.092 166.15 148.973 165.963 148.879C165.775 148.786 165.535 148.739 165.243 148.739C164.842 148.739 164.508 148.831 164.241 149.016C163.977 149.197 163.845 149.429 163.845 149.71C163.845 149.96 163.936 150.158 164.118 150.303C164.299 150.447 164.583 150.568 164.97 150.665L165.941 150.903C166.527 151.045 166.963 151.263 167.25 151.555C167.537 151.845 167.68 152.219 167.68 152.676C167.68 153.051 167.572 153.386 167.356 153.682C167.143 153.977 166.845 154.21 166.461 154.381C166.078 154.551 165.632 154.636 165.123 154.636C164.456 154.636 163.903 154.491 163.466 154.202C163.028 153.912 162.751 153.489 162.635 152.932L163.589 152.693C163.68 153.045 163.852 153.31 164.105 153.486C164.36 153.662 164.694 153.75 165.106 153.75C165.575 153.75 165.947 153.651 166.223 153.452C166.501 153.25 166.64 153.009 166.64 152.727C166.64 152.5 166.561 152.31 166.402 152.156C166.243 152 165.998 151.884 165.669 151.807L164.578 151.551C163.978 151.409 163.538 151.189 163.257 150.891C162.978 150.589 162.839 150.213 162.839 149.761C162.839 149.392 162.943 149.065 163.15 148.781C163.36 148.497 163.646 148.274 164.007 148.112C164.37 147.95 164.782 147.869 165.243 147.869C165.89 147.869 166.399 148.011 166.768 148.295C167.14 148.58 167.404 148.955 167.561 149.42ZM172.04 147.955V148.807H168.648V147.955H172.04ZM169.637 146.386H170.643V152.625C170.643 152.909 170.684 153.122 170.766 153.264C170.852 153.403 170.96 153.497 171.09 153.545C171.224 153.591 171.364 153.614 171.512 153.614C171.623 153.614 171.714 153.608 171.785 153.597C171.856 153.582 171.913 153.571 171.955 153.562L172.16 154.466C172.092 154.491 171.996 154.517 171.874 154.543C171.752 154.571 171.597 154.585 171.41 154.585C171.126 154.585 170.847 154.524 170.575 154.402C170.305 154.28 170.08 154.094 169.901 153.844C169.725 153.594 169.637 153.278 169.637 152.898V146.386ZM176.142 154.636C175.551 154.636 175.033 154.496 174.587 154.214C174.143 153.933 173.797 153.54 173.547 153.034C173.3 152.528 173.176 151.937 173.176 151.261C173.176 150.58 173.3 149.984 173.547 149.476C173.797 148.967 174.143 148.572 174.587 148.291C175.033 148.01 175.551 147.869 176.142 147.869C176.733 147.869 177.25 148.01 177.693 148.291C178.139 148.572 178.486 148.967 178.733 149.476C178.983 149.984 179.108 150.58 179.108 151.261C179.108 151.937 178.983 152.528 178.733 153.034C178.486 153.54 178.139 153.933 177.693 154.214C177.25 154.496 176.733 154.636 176.142 154.636ZM176.142 153.733C176.591 153.733 176.96 153.618 177.25 153.388C177.54 153.158 177.754 152.855 177.893 152.48C178.033 152.105 178.102 151.699 178.102 151.261C178.102 150.824 178.033 150.416 177.893 150.038C177.754 149.661 177.54 149.355 177.25 149.122C176.96 148.889 176.591 148.773 176.142 148.773C175.693 148.773 175.324 148.889 175.034 149.122C174.744 149.355 174.53 149.661 174.391 150.038C174.251 150.416 174.182 150.824 174.182 151.261C174.182 151.699 174.251 152.105 174.391 152.48C174.53 152.855 174.744 153.158 175.034 153.388C175.324 153.618 175.693 153.733 176.142 153.733ZM180.643 156.955V147.955H181.615V148.994H181.734C181.808 148.881 181.91 148.736 182.041 148.56C182.174 148.381 182.365 148.222 182.612 148.082C182.862 147.94 183.2 147.869 183.626 147.869C184.177 147.869 184.663 148.007 185.083 148.283C185.504 148.558 185.832 148.949 186.068 149.455C186.304 149.96 186.422 150.557 186.422 151.244C186.422 151.938 186.304 152.538 186.068 153.047C185.832 153.553 185.505 153.945 185.088 154.223C184.67 154.499 184.189 154.636 183.643 154.636C183.223 154.636 182.886 154.567 182.633 154.428C182.38 154.286 182.186 154.125 182.049 153.946C181.913 153.764 181.808 153.614 181.734 153.494H181.649V156.955H180.643ZM181.632 151.227C181.632 151.722 181.704 152.158 181.849 152.536C181.994 152.911 182.206 153.205 182.484 153.418C182.762 153.628 183.103 153.733 183.507 153.733C183.927 153.733 184.278 153.622 184.559 153.401C184.843 153.176 185.056 152.875 185.199 152.497C185.343 152.116 185.416 151.693 185.416 151.227C185.416 150.767 185.345 150.352 185.203 149.983C185.064 149.611 184.852 149.317 184.568 149.101C184.287 148.882 183.933 148.773 183.507 148.773C183.098 148.773 182.754 148.876 182.475 149.084C182.197 149.288 181.987 149.575 181.845 149.945C181.703 150.311 181.632 150.739 181.632 151.227ZM187.956 156.955V147.955H188.927V148.994H189.047C189.12 148.881 189.223 148.736 189.353 148.56C189.487 148.381 189.677 148.222 189.924 148.082C190.174 147.94 190.512 147.869 190.939 147.869C191.49 147.869 191.975 148.007 192.396 148.283C192.816 148.558 193.145 148.949 193.38 149.455C193.616 149.96 193.734 150.557 193.734 151.244C193.734 151.938 193.616 152.538 193.38 153.047C193.145 153.553 192.818 153.945 192.4 154.223C191.983 154.499 191.501 154.636 190.956 154.636C190.535 154.636 190.199 154.567 189.946 154.428C189.693 154.286 189.498 154.125 189.362 153.946C189.225 153.764 189.12 153.614 189.047 153.494H188.961V156.955H187.956ZM188.944 151.227C188.944 151.722 189.017 152.158 189.162 152.536C189.306 152.911 189.518 153.205 189.797 153.418C190.075 153.628 190.416 153.733 190.819 153.733C191.24 153.733 191.591 153.622 191.872 153.401C192.156 153.176 192.369 152.875 192.511 152.497C192.656 152.116 192.728 151.693 192.728 151.227C192.728 150.767 192.657 150.352 192.515 149.983C192.376 149.611 192.164 149.317 191.88 149.101C191.599 148.882 191.245 148.773 190.819 148.773C190.41 148.773 190.066 148.876 189.788 149.084C189.51 149.288 189.299 149.575 189.157 149.945C189.015 150.311 188.944 150.739 188.944 151.227ZM197.194 154.653C196.779 154.653 196.403 154.575 196.065 154.419C195.727 154.26 195.458 154.031 195.26 153.733C195.061 153.432 194.961 153.068 194.961 152.642C194.961 152.267 195.035 151.963 195.183 151.73C195.331 151.494 195.528 151.31 195.775 151.176C196.022 151.043 196.295 150.943 196.593 150.878C196.895 150.81 197.197 150.756 197.501 150.716C197.899 150.665 198.221 150.626 198.468 150.601C198.718 150.572 198.9 150.526 199.014 150.46C199.13 150.395 199.189 150.281 199.189 150.119V150.085C199.189 149.665 199.074 149.338 198.843 149.105C198.616 148.872 198.271 148.756 197.808 148.756C197.328 148.756 196.951 148.861 196.679 149.071C196.406 149.281 196.214 149.506 196.103 149.744L195.149 149.403C195.319 149.006 195.547 148.696 195.831 148.474C196.118 148.25 196.43 148.094 196.768 148.006C197.109 147.915 197.444 147.869 197.774 147.869C197.984 147.869 198.225 147.895 198.498 147.946C198.774 147.994 199.039 148.095 199.295 148.249C199.554 148.402 199.768 148.634 199.939 148.943C200.109 149.253 200.194 149.668 200.194 150.188V154.5H199.189V153.614H199.137C199.069 153.756 198.956 153.908 198.797 154.07C198.637 154.232 198.426 154.369 198.162 154.483C197.897 154.597 197.575 154.653 197.194 154.653ZM197.348 153.75C197.745 153.75 198.081 153.672 198.353 153.516C198.629 153.359 198.836 153.158 198.975 152.911C199.118 152.663 199.189 152.403 199.189 152.131V151.21C199.146 151.261 199.052 151.308 198.907 151.351C198.765 151.391 198.6 151.426 198.413 151.457C198.228 151.486 198.048 151.511 197.872 151.534C197.699 151.554 197.558 151.571 197.45 151.585C197.189 151.619 196.944 151.675 196.717 151.751C196.493 151.825 196.311 151.937 196.172 152.088C196.035 152.236 195.967 152.437 195.967 152.693C195.967 153.043 196.096 153.307 196.355 153.486C196.616 153.662 196.947 153.75 197.348 153.75ZM202.166 154.5V145.773H203.172V148.994H203.257C203.331 148.881 203.433 148.736 203.564 148.56C203.697 148.381 203.888 148.222 204.135 148.082C204.385 147.94 204.723 147.869 205.149 147.869C205.7 147.869 206.186 148.007 206.607 148.283C207.027 148.558 207.355 148.949 207.591 149.455C207.827 149.96 207.945 150.557 207.945 151.244C207.945 151.938 207.827 152.538 207.591 153.047C207.355 153.553 207.028 153.945 206.611 154.223C206.193 154.499 205.712 154.636 205.166 154.636C204.746 154.636 204.409 154.567 204.156 154.428C203.903 154.286 203.709 154.125 203.572 153.946C203.436 153.764 203.331 153.614 203.257 153.494H203.138V154.5H202.166ZM203.155 151.227C203.155 151.722 203.227 152.158 203.372 152.536C203.517 152.911 203.729 153.205 204.007 153.418C204.286 153.628 204.626 153.733 205.03 153.733C205.45 153.733 205.801 153.622 206.082 153.401C206.366 153.176 206.58 152.875 206.722 152.497C206.866 152.116 206.939 151.693 206.939 151.227C206.939 150.767 206.868 150.352 206.726 149.983C206.587 149.611 206.375 149.317 206.091 149.101C205.81 148.882 205.456 148.773 205.03 148.773C204.621 148.773 204.277 148.876 203.999 149.084C203.72 149.288 203.51 149.575 203.368 149.945C203.226 150.311 203.155 150.739 203.155 151.227ZM210.489 145.773V154.5H209.483V145.773H210.489ZM215.075 154.636C214.444 154.636 213.9 154.497 213.443 154.219C212.988 153.938 212.637 153.545 212.39 153.043C212.146 152.537 212.024 151.949 212.024 151.278C212.024 150.608 212.146 150.017 212.39 149.506C212.637 148.991 212.981 148.591 213.422 148.304C213.865 148.014 214.382 147.869 214.973 147.869C215.314 147.869 215.65 147.926 215.983 148.04C216.315 148.153 216.618 148.338 216.89 148.594C217.163 148.847 217.38 149.182 217.542 149.599C217.704 150.017 217.785 150.531 217.785 151.142V151.568H212.74V150.699H216.762C216.762 150.33 216.689 150 216.541 149.71C216.396 149.42 216.189 149.192 215.919 149.024C215.652 148.857 215.336 148.773 214.973 148.773C214.572 148.773 214.225 148.872 213.933 149.071C213.643 149.267 213.42 149.523 213.264 149.838C213.108 150.153 213.029 150.491 213.029 150.852V151.432C213.029 151.926 213.115 152.345 213.285 152.689C213.458 153.03 213.699 153.29 214.005 153.469C214.312 153.645 214.669 153.733 215.075 153.733C215.339 153.733 215.578 153.696 215.791 153.622C216.007 153.545 216.193 153.432 216.349 153.281C216.505 153.128 216.626 152.937 216.711 152.71L217.683 152.983C217.581 153.312 217.409 153.602 217.167 153.852C216.926 154.099 216.627 154.293 216.272 154.432C215.917 154.568 215.518 154.636 215.075 154.636ZM222.826 154.5V145.773H223.883V153.562H227.94V154.5H222.826ZM229.44 154.5V147.955H230.446V154.5H229.44ZM229.951 146.864C229.755 146.864 229.586 146.797 229.444 146.663C229.305 146.53 229.235 146.369 229.235 146.182C229.235 145.994 229.305 145.834 229.444 145.7C229.586 145.567 229.755 145.5 229.951 145.5C230.147 145.5 230.315 145.567 230.454 145.7C230.596 145.834 230.667 145.994 230.667 146.182C230.667 146.369 230.596 146.53 230.454 146.663C230.315 146.797 230.147 146.864 229.951 146.864ZM235.134 147.955V148.807H231.742V147.955H235.134ZM232.731 146.386H233.737V152.625C233.737 152.909 233.778 153.122 233.86 153.264C233.945 153.403 234.053 153.497 234.184 153.545C234.317 153.591 234.458 153.614 234.606 153.614C234.717 153.614 234.808 153.608 234.879 153.597C234.95 153.582 235.006 153.571 235.049 153.562L235.254 154.466C235.185 154.491 235.09 154.517 234.968 154.543C234.846 154.571 234.691 154.585 234.504 154.585C234.219 154.585 233.941 154.524 233.668 154.402C233.398 154.28 233.174 154.094 232.995 153.844C232.819 153.594 232.731 153.278 232.731 152.898V146.386ZM239.321 154.636C238.69 154.636 238.146 154.497 237.689 154.219C237.234 153.938 236.884 153.545 236.636 153.043C236.392 152.537 236.27 151.949 236.27 151.278C236.27 150.608 236.392 150.017 236.636 149.506C236.884 148.991 237.227 148.591 237.668 148.304C238.111 148.014 238.628 147.869 239.219 147.869C239.56 147.869 239.896 147.926 240.229 148.04C240.561 148.153 240.864 148.338 241.136 148.594C241.409 148.847 241.626 149.182 241.788 149.599C241.95 150.017 242.031 150.531 242.031 151.142V151.568H236.986V150.699H241.009C241.009 150.33 240.935 150 240.787 149.71C240.642 149.42 240.435 149.192 240.165 149.024C239.898 148.857 239.582 148.773 239.219 148.773C238.818 148.773 238.472 148.872 238.179 149.071C237.889 149.267 237.666 149.523 237.51 149.838C237.354 150.153 237.276 150.491 237.276 150.852V151.432C237.276 151.926 237.361 152.345 237.531 152.689C237.705 153.03 237.945 153.29 238.251 153.469C238.558 153.645 238.915 153.733 239.321 153.733C239.585 153.733 239.824 153.696 240.037 153.622C240.253 153.545 240.439 153.432 240.595 153.281C240.751 153.128 240.872 152.937 240.957 152.71L241.929 152.983C241.827 153.312 241.655 153.602 241.413 153.852C241.172 154.099 240.874 154.293 240.518 154.432C240.163 154.568 239.764 154.636 239.321 154.636ZM248.658 154.5L246.271 145.773H247.345L249.169 152.881H249.254L251.112 145.773H252.305L254.163 152.881H254.249L256.072 145.773H257.146L254.76 154.5H253.669L251.743 147.545H251.675L249.749 154.5H248.658ZM259.643 154.653C259.229 154.653 258.852 154.575 258.514 154.419C258.176 154.26 257.908 154.031 257.709 153.733C257.51 153.432 257.411 153.068 257.411 152.642C257.411 152.267 257.484 151.963 257.632 151.73C257.78 151.494 257.977 151.31 258.224 151.176C258.472 151.043 258.744 150.943 259.043 150.878C259.344 150.81 259.646 150.756 259.95 150.716C260.348 150.665 260.67 150.626 260.918 150.601C261.168 150.572 261.349 150.526 261.463 150.46C261.58 150.395 261.638 150.281 261.638 150.119V150.085C261.638 149.665 261.523 149.338 261.293 149.105C261.065 148.872 260.72 148.756 260.257 148.756C259.777 148.756 259.401 148.861 259.128 149.071C258.855 149.281 258.663 149.506 258.553 149.744L257.598 149.403C257.768 149.006 257.996 148.696 258.28 148.474C258.567 148.25 258.879 148.094 259.217 148.006C259.558 147.915 259.893 147.869 260.223 147.869C260.433 147.869 260.675 147.895 260.947 147.946C261.223 147.994 261.489 148.095 261.744 148.249C262.003 148.402 262.217 148.634 262.388 148.943C262.558 149.253 262.643 149.668 262.643 150.188V154.5H261.638V153.614H261.587C261.518 153.756 261.405 153.908 261.246 154.07C261.087 154.232 260.875 154.369 260.611 154.483C260.347 154.597 260.024 154.653 259.643 154.653ZM259.797 153.75C260.195 153.75 260.53 153.672 260.803 153.516C261.078 153.359 261.286 153.158 261.425 152.911C261.567 152.663 261.638 152.403 261.638 152.131V151.21C261.595 151.261 261.501 151.308 261.357 151.351C261.214 151.391 261.05 151.426 260.862 151.457C260.678 151.486 260.497 151.511 260.321 151.534C260.148 151.554 260.007 151.571 259.899 151.585C259.638 151.619 259.393 151.675 259.166 151.751C258.942 151.825 258.76 151.937 258.621 152.088C258.484 152.236 258.416 152.437 258.416 152.693C258.416 153.043 258.545 153.307 258.804 153.486C259.065 153.662 259.396 153.75 259.797 153.75ZM265.485 145.773V154.5H264.479V145.773H265.485ZM268.332 145.773V154.5H267.327V145.773H268.332ZM272.919 154.636C272.288 154.636 271.744 154.497 271.287 154.219C270.832 153.938 270.481 153.545 270.234 153.043C269.99 152.537 269.868 151.949 269.868 151.278C269.868 150.608 269.99 150.017 270.234 149.506C270.481 148.991 270.825 148.591 271.265 148.304C271.708 148.014 272.225 147.869 272.816 147.869C273.157 147.869 273.494 147.926 273.826 148.04C274.159 148.153 274.461 148.338 274.734 148.594C275.007 148.847 275.224 149.182 275.386 149.599C275.548 150.017 275.629 150.531 275.629 151.142V151.568H270.583V150.699H274.606C274.606 150.33 274.532 150 274.385 149.71C274.24 149.42 274.032 149.192 273.762 149.024C273.495 148.857 273.18 148.773 272.816 148.773C272.416 148.773 272.069 148.872 271.777 149.071C271.487 149.267 271.264 149.523 271.108 149.838C270.951 150.153 270.873 150.491 270.873 150.852V151.432C270.873 151.926 270.958 152.345 271.129 152.689C271.302 153.03 271.542 153.29 271.849 153.469C272.156 153.645 272.512 153.733 272.919 153.733C273.183 153.733 273.422 153.696 273.635 153.622C273.85 153.545 274.037 153.432 274.193 153.281C274.349 153.128 274.47 152.937 274.555 152.71L275.527 152.983C275.424 153.312 275.252 153.602 275.011 153.852C274.77 154.099 274.471 154.293 274.116 154.432C273.761 154.568 273.362 154.636 272.919 154.636ZM280.005 147.955V148.807H276.613V147.955H280.005ZM277.602 146.386H278.608V152.625C278.608 152.909 278.649 153.122 278.731 153.264C278.816 153.403 278.924 153.497 279.055 153.545C279.189 153.591 279.329 153.614 279.477 153.614C279.588 153.614 279.679 153.608 279.75 153.597C279.821 153.582 279.877 153.571 279.92 153.562L280.125 154.466C280.056 154.491 279.961 154.517 279.839 154.543C279.717 154.571 279.562 154.585 279.375 154.585C279.091 154.585 278.812 154.524 278.539 154.402C278.27 154.28 278.045 154.094 277.866 153.844C277.69 153.594 277.602 153.278 277.602 152.898V146.386ZM282.848 145.773L282.762 152.045H281.774L281.689 145.773H282.848ZM282.268 154.568C282.058 154.568 281.877 154.493 281.727 154.342C281.576 154.192 281.501 154.011 281.501 153.801C281.501 153.591 281.576 153.411 281.727 153.26C281.877 153.109 282.058 153.034 282.268 153.034C282.478 153.034 282.659 153.109 282.809 153.26C282.96 153.411 283.035 153.591 283.035 153.801C283.035 153.94 283 154.068 282.929 154.185C282.86 154.301 282.768 154.395 282.652 154.466C282.538 154.534 282.41 154.568 282.268 154.568ZM76.5795 162.71V161.773H83.125V162.71H80.3807V170.5H79.3239V162.71H76.5795ZM85.6254 166.562V170.5H84.6197V161.773H85.6254V164.977H85.7106C85.864 164.639 86.0941 164.371 86.4009 164.172C86.7106 163.97 87.1225 163.869 87.6367 163.869C88.0827 163.869 88.4734 163.959 88.8086 164.138C89.1438 164.314 89.4038 164.585 89.5884 164.952C89.7759 165.315 89.8697 165.778 89.8697 166.341V170.5H88.864V166.409C88.864 165.889 88.729 165.487 88.4592 165.203C88.1921 164.916 87.8214 164.773 87.3469 164.773C87.0174 164.773 86.7219 164.842 86.4606 164.982C86.2021 165.121 85.9975 165.324 85.8469 165.591C85.6992 165.858 85.6254 166.182 85.6254 166.562ZM94.4538 170.636C93.8232 170.636 93.2791 170.497 92.8217 170.219C92.3672 169.938 92.0163 169.545 91.7692 169.043C91.5249 168.537 91.4027 167.949 91.4027 167.278C91.4027 166.608 91.5249 166.017 91.7692 165.506C92.0163 164.991 92.3601 164.591 92.8004 164.304C93.2436 164.014 93.7607 163.869 94.3516 163.869C94.6925 163.869 95.0291 163.926 95.3615 164.04C95.6939 164.153 95.9964 164.338 96.2692 164.594C96.5419 164.847 96.7592 165.182 96.9212 165.599C97.0831 166.017 97.1641 166.531 97.1641 167.142V167.568H92.1186V166.699H96.1413C96.1413 166.33 96.0675 166 95.9197 165.71C95.7749 165.42 95.5675 165.192 95.2976 165.024C95.0305 164.857 94.7152 164.773 94.3516 164.773C93.951 164.773 93.6044 164.872 93.3118 165.071C93.022 165.267 92.799 165.523 92.6428 165.838C92.4865 166.153 92.4084 166.491 92.4084 166.852V167.432C92.4084 167.926 92.4936 168.345 92.6641 168.689C92.8374 169.03 93.0774 169.29 93.3842 169.469C93.6911 169.645 94.0476 169.733 94.4538 169.733C94.718 169.733 94.9567 169.696 95.1697 169.622C95.3857 169.545 95.5717 169.432 95.728 169.281C95.8842 169.128 96.005 168.937 96.0902 168.71L97.0618 168.983C96.9595 169.312 96.7876 169.602 96.5462 169.852C96.3047 170.099 96.0064 170.293 95.6513 170.432C95.2962 170.568 94.897 170.636 94.4538 170.636ZM106.705 165.42L105.802 165.676C105.745 165.526 105.661 165.379 105.55 165.237C105.442 165.092 105.295 164.973 105.107 164.879C104.92 164.786 104.68 164.739 104.387 164.739C103.987 164.739 103.653 164.831 103.386 165.016C103.121 165.197 102.989 165.429 102.989 165.71C102.989 165.96 103.08 166.158 103.262 166.303C103.444 166.447 103.728 166.568 104.114 166.665L105.086 166.903C105.671 167.045 106.107 167.263 106.394 167.555C106.681 167.845 106.825 168.219 106.825 168.676C106.825 169.051 106.717 169.386 106.501 169.682C106.288 169.977 105.989 170.21 105.606 170.381C105.222 170.551 104.776 170.636 104.268 170.636C103.6 170.636 103.048 170.491 102.61 170.202C102.173 169.912 101.896 169.489 101.779 168.932L102.734 168.693C102.825 169.045 102.996 169.31 103.249 169.486C103.505 169.662 103.839 169.75 104.251 169.75C104.719 169.75 105.092 169.651 105.367 169.452C105.646 169.25 105.785 169.009 105.785 168.727C105.785 168.5 105.705 168.31 105.546 168.156C105.387 168 105.143 167.884 104.813 167.807L103.722 167.551C103.123 167.409 102.683 167.189 102.401 166.891C102.123 166.589 101.984 166.213 101.984 165.761C101.984 165.392 102.087 165.065 102.295 164.781C102.505 164.497 102.79 164.274 103.151 164.112C103.515 163.95 103.927 163.869 104.387 163.869C105.035 163.869 105.543 164.011 105.913 164.295C106.285 164.58 106.549 164.955 106.705 165.42ZM111.083 170.636C110.452 170.636 109.908 170.497 109.451 170.219C108.996 169.938 108.645 169.545 108.398 169.043C108.154 168.537 108.032 167.949 108.032 167.278C108.032 166.608 108.154 166.017 108.398 165.506C108.645 164.991 108.989 164.591 109.429 164.304C109.873 164.014 110.39 163.869 110.98 163.869C111.321 163.869 111.658 163.926 111.99 164.04C112.323 164.153 112.625 164.338 112.898 164.594C113.171 164.847 113.388 165.182 113.55 165.599C113.712 166.017 113.793 166.531 113.793 167.142V167.568H108.748V166.699H112.77C112.77 166.33 112.696 166 112.549 165.71C112.404 165.42 112.196 165.192 111.926 165.024C111.659 164.857 111.344 164.773 110.98 164.773C110.58 164.773 110.233 164.872 109.941 165.071C109.651 165.267 109.428 165.523 109.272 165.838C109.115 166.153 109.037 166.491 109.037 166.852V167.432C109.037 167.926 109.123 168.345 109.293 168.689C109.466 169.03 109.706 169.29 110.013 169.469C110.32 169.645 110.676 169.733 111.083 169.733C111.347 169.733 111.586 169.696 111.799 169.622C112.015 169.545 112.201 169.432 112.357 169.281C112.513 169.128 112.634 168.937 112.719 168.71L113.691 168.983C113.588 169.312 113.417 169.602 113.175 169.852C112.934 170.099 112.635 170.293 112.28 170.432C111.925 170.568 111.526 170.636 111.083 170.636ZM117.982 170.636C117.368 170.636 116.84 170.491 116.397 170.202C115.953 169.912 115.613 169.513 115.374 169.004C115.135 168.496 115.016 167.915 115.016 167.261C115.016 166.597 115.138 166.01 115.382 165.501C115.63 164.99 115.973 164.591 116.414 164.304C116.857 164.014 117.374 163.869 117.965 163.869C118.425 163.869 118.84 163.955 119.209 164.125C119.578 164.295 119.881 164.534 120.117 164.841C120.353 165.148 120.499 165.506 120.556 165.915H119.55C119.473 165.616 119.303 165.352 119.039 165.122C118.777 164.889 118.425 164.773 117.982 164.773C117.59 164.773 117.246 164.875 116.951 165.08C116.658 165.281 116.429 165.567 116.265 165.936C116.103 166.303 116.022 166.733 116.022 167.227C116.022 167.733 116.101 168.173 116.26 168.548C116.422 168.923 116.65 169.214 116.942 169.422C117.238 169.629 117.584 169.733 117.982 169.733C118.243 169.733 118.48 169.688 118.694 169.597C118.907 169.506 119.087 169.375 119.235 169.205C119.382 169.034 119.488 168.83 119.55 168.591H120.556C120.499 168.977 120.358 169.325 120.134 169.635C119.912 169.942 119.618 170.186 119.252 170.368C118.888 170.547 118.465 170.636 117.982 170.636ZM124.873 163.955V164.807H121.48V163.955H124.873ZM122.469 162.386H123.475V168.625C123.475 168.909 123.516 169.122 123.598 169.264C123.684 169.403 123.792 169.497 123.922 169.545C124.056 169.591 124.196 169.614 124.344 169.614C124.455 169.614 124.546 169.608 124.617 169.597C124.688 169.582 124.745 169.571 124.787 169.562L124.992 170.466C124.924 170.491 124.828 170.517 124.706 170.543C124.584 170.571 124.429 170.585 124.242 170.585C123.958 170.585 123.679 170.524 123.407 170.402C123.137 170.28 122.912 170.094 122.733 169.844C122.557 169.594 122.469 169.278 122.469 168.898V162.386ZM126.385 170.5V163.955H127.391V170.5H126.385ZM126.897 162.864C126.701 162.864 126.532 162.797 126.39 162.663C126.25 162.53 126.181 162.369 126.181 162.182C126.181 161.994 126.25 161.834 126.39 161.7C126.532 161.567 126.701 161.5 126.897 161.5C127.093 161.5 127.26 161.567 127.4 161.7C127.542 161.834 127.613 161.994 127.613 162.182C127.613 162.369 127.542 162.53 127.4 162.663C127.26 162.797 127.093 162.864 126.897 162.864ZM131.892 170.636C131.301 170.636 130.783 170.496 130.337 170.214C129.893 169.933 129.547 169.54 129.297 169.034C129.05 168.528 128.926 167.937 128.926 167.261C128.926 166.58 129.05 165.984 129.297 165.476C129.547 164.967 129.893 164.572 130.337 164.291C130.783 164.01 131.301 163.869 131.892 163.869C132.483 163.869 133 164.01 133.443 164.291C133.889 164.572 134.236 164.967 134.483 165.476C134.733 165.984 134.858 166.58 134.858 167.261C134.858 167.937 134.733 168.528 134.483 169.034C134.236 169.54 133.889 169.933 133.443 170.214C133 170.496 132.483 170.636 131.892 170.636ZM131.892 169.733C132.341 169.733 132.71 169.618 133 169.388C133.29 169.158 133.504 168.855 133.643 168.48C133.783 168.105 133.852 167.699 133.852 167.261C133.852 166.824 133.783 166.416 133.643 166.038C133.504 165.661 133.29 165.355 133 165.122C132.71 164.889 132.341 164.773 131.892 164.773C131.443 164.773 131.074 164.889 130.784 165.122C130.494 165.355 130.28 165.661 130.141 166.038C130.001 166.416 129.932 166.824 129.932 167.261C129.932 167.699 130.001 168.105 130.141 168.48C130.28 168.855 130.494 169.158 130.784 169.388C131.074 169.618 131.443 169.733 131.892 169.733ZM137.399 166.562V170.5H136.393V163.955H137.365V164.977H137.45C137.603 164.645 137.836 164.378 138.149 164.176C138.461 163.972 138.865 163.869 139.359 163.869C139.802 163.869 140.19 163.96 140.522 164.142C140.855 164.321 141.113 164.594 141.298 164.96C141.483 165.324 141.575 165.784 141.575 166.341V170.5H140.569V166.409C140.569 165.895 140.436 165.494 140.169 165.207C139.902 164.918 139.535 164.773 139.069 164.773C138.748 164.773 138.461 164.842 138.208 164.982C137.958 165.121 137.761 165.324 137.616 165.591C137.471 165.858 137.399 166.182 137.399 166.562ZM146.924 170.5V161.773H147.93V164.994H148.015C148.089 164.881 148.191 164.736 148.322 164.56C148.455 164.381 148.646 164.222 148.893 164.082C149.143 163.94 149.481 163.869 149.907 163.869C150.458 163.869 150.944 164.007 151.364 164.283C151.785 164.558 152.113 164.949 152.349 165.455C152.585 165.96 152.702 166.557 152.702 167.244C152.702 167.938 152.585 168.538 152.349 169.047C152.113 169.553 151.786 169.945 151.369 170.223C150.951 170.499 150.469 170.636 149.924 170.636C149.504 170.636 149.167 170.567 148.914 170.428C148.661 170.286 148.467 170.125 148.33 169.946C148.194 169.764 148.089 169.614 148.015 169.494H147.896V170.5H146.924ZM147.913 167.227C147.913 167.722 147.985 168.158 148.13 168.536C148.275 168.911 148.487 169.205 148.765 169.418C149.043 169.628 149.384 169.733 149.788 169.733C150.208 169.733 150.559 169.622 150.84 169.401C151.124 169.176 151.337 168.875 151.479 168.497C151.624 168.116 151.697 167.693 151.697 167.227C151.697 166.767 151.626 166.352 151.484 165.983C151.344 165.611 151.133 165.317 150.849 165.101C150.567 164.882 150.214 164.773 149.788 164.773C149.379 164.773 149.035 164.876 148.756 165.084C148.478 165.288 148.268 165.575 148.126 165.945C147.984 166.311 147.913 166.739 147.913 167.227ZM156.985 170.636C156.354 170.636 155.81 170.497 155.353 170.219C154.898 169.938 154.548 169.545 154.3 169.043C154.056 168.537 153.934 167.949 153.934 167.278C153.934 166.608 154.056 166.017 154.3 165.506C154.548 164.991 154.891 164.591 155.332 164.304C155.775 164.014 156.292 163.869 156.883 163.869C157.224 163.869 157.56 163.926 157.893 164.04C158.225 164.153 158.528 164.338 158.8 164.594C159.073 164.847 159.29 165.182 159.452 165.599C159.614 166.017 159.695 166.531 159.695 167.142V167.568H154.65V166.699H158.673C158.673 166.33 158.599 166 158.451 165.71C158.306 165.42 158.099 165.192 157.829 165.024C157.562 164.857 157.246 164.773 156.883 164.773C156.482 164.773 156.136 164.872 155.843 165.071C155.553 165.267 155.33 165.523 155.174 165.838C155.018 166.153 154.94 166.491 154.94 166.852V167.432C154.94 167.926 155.025 168.345 155.195 168.689C155.369 169.03 155.609 169.29 155.915 169.469C156.222 169.645 156.579 169.733 156.985 169.733C157.249 169.733 157.488 169.696 157.701 169.622C157.917 169.545 158.103 169.432 158.259 169.281C158.415 169.128 158.536 168.937 158.621 168.71L159.593 168.983C159.491 169.312 159.319 169.602 159.077 169.852C158.836 170.099 158.538 170.293 158.183 170.432C157.827 170.568 157.428 170.636 156.985 170.636ZM162.231 161.773V170.5H161.225V161.773H162.231ZM166.732 170.636C166.141 170.636 165.623 170.496 165.176 170.214C164.733 169.933 164.387 169.54 164.137 169.034C163.89 168.528 163.766 167.937 163.766 167.261C163.766 166.58 163.89 165.984 164.137 165.476C164.387 164.967 164.733 164.572 165.176 164.291C165.623 164.01 166.141 163.869 166.732 163.869C167.323 163.869 167.84 164.01 168.283 164.291C168.729 164.572 169.076 164.967 169.323 165.476C169.573 165.984 169.698 166.58 169.698 167.261C169.698 167.937 169.573 168.528 169.323 169.034C169.076 169.54 168.729 169.933 168.283 170.214C167.84 170.496 167.323 170.636 166.732 170.636ZM166.732 169.733C167.181 169.733 167.55 169.618 167.84 169.388C168.13 169.158 168.344 168.855 168.483 168.48C168.623 168.105 168.692 167.699 168.692 167.261C168.692 166.824 168.623 166.416 168.483 166.038C168.344 165.661 168.13 165.355 167.84 165.122C167.55 164.889 167.181 164.773 166.732 164.773C166.283 164.773 165.914 164.889 165.624 165.122C165.334 165.355 165.12 165.661 164.98 166.038C164.841 166.416 164.772 166.824 164.772 167.261C164.772 167.699 164.841 168.105 164.98 168.48C165.12 168.855 165.334 169.158 165.624 169.388C165.914 169.618 166.283 169.733 166.732 169.733ZM172.493 170.5L170.499 163.955H171.556L172.971 168.966H173.039L174.436 163.955H175.51L176.891 168.949H176.959L178.374 163.955H179.431L177.436 170.5H176.448L175.016 165.472H174.914L173.482 170.5H172.493ZM186.794 170.636C186.181 170.636 185.652 170.491 185.209 170.202C184.766 169.912 184.425 169.513 184.186 169.004C183.948 168.496 183.828 167.915 183.828 167.261C183.828 166.597 183.951 166.01 184.195 165.501C184.442 164.99 184.786 164.591 185.226 164.304C185.669 164.014 186.186 163.869 186.777 163.869C187.238 163.869 187.652 163.955 188.022 164.125C188.391 164.295 188.694 164.534 188.929 164.841C189.165 165.148 189.311 165.506 189.368 165.915H188.363C188.286 165.616 188.115 165.352 187.851 165.122C187.59 164.889 187.238 164.773 186.794 164.773C186.402 164.773 186.059 164.875 185.763 165.08C185.471 165.281 185.242 165.567 185.077 165.936C184.915 166.303 184.834 166.733 184.834 167.227C184.834 167.733 184.914 168.173 185.073 168.548C185.235 168.923 185.462 169.214 185.755 169.422C186.05 169.629 186.397 169.733 186.794 169.733C187.056 169.733 187.293 169.688 187.506 169.597C187.719 169.506 187.9 169.375 188.047 169.205C188.195 169.034 188.3 168.83 188.363 168.591H189.368C189.311 168.977 189.171 169.325 188.946 169.635C188.725 169.942 188.431 170.186 188.064 170.368C187.701 170.547 187.277 170.636 186.794 170.636ZM193.498 170.636C192.907 170.636 192.388 170.496 191.942 170.214C191.499 169.933 191.152 169.54 190.902 169.034C190.655 168.528 190.532 167.937 190.532 167.261C190.532 166.58 190.655 165.984 190.902 165.476C191.152 164.967 191.499 164.572 191.942 164.291C192.388 164.01 192.907 163.869 193.498 163.869C194.088 163.869 194.605 164.01 195.049 164.291C195.495 164.572 195.841 164.967 196.088 165.476C196.338 165.984 196.463 166.58 196.463 167.261C196.463 167.937 196.338 168.528 196.088 169.034C195.841 169.54 195.495 169.933 195.049 170.214C194.605 170.496 194.088 170.636 193.498 170.636ZM193.498 169.733C193.946 169.733 194.316 169.618 194.605 169.388C194.895 169.158 195.11 168.855 195.249 168.48C195.388 168.105 195.458 167.699 195.458 167.261C195.458 166.824 195.388 166.416 195.249 166.038C195.11 165.661 194.895 165.355 194.605 165.122C194.316 164.889 193.946 164.773 193.498 164.773C193.049 164.773 192.679 164.889 192.39 165.122C192.1 165.355 191.885 165.661 191.746 166.038C191.607 166.416 191.537 166.824 191.537 167.261C191.537 167.699 191.607 168.105 191.746 168.48C191.885 168.855 192.1 169.158 192.39 169.388C192.679 169.618 193.049 169.733 193.498 169.733ZM199.004 166.562V170.5H197.999V163.955H198.97V164.977H199.055C199.209 164.645 199.442 164.378 199.754 164.176C200.067 163.972 200.47 163.869 200.964 163.869C201.408 163.869 201.795 163.96 202.128 164.142C202.46 164.321 202.719 164.594 202.903 164.96C203.088 165.324 203.18 165.784 203.18 166.341V170.5H202.175V166.409C202.175 165.895 202.041 165.494 201.774 165.207C201.507 164.918 201.141 164.773 200.675 164.773C200.354 164.773 200.067 164.842 199.814 164.982C199.564 165.121 199.366 165.324 199.222 165.591C199.077 165.858 199.004 166.182 199.004 166.562ZM207.865 163.955V164.807H204.473V163.955H207.865ZM205.461 162.386H206.467V168.625C206.467 168.909 206.508 169.122 206.591 169.264C206.676 169.403 206.784 169.497 206.914 169.545C207.048 169.591 207.189 169.614 207.336 169.614C207.447 169.614 207.538 169.608 207.609 169.597C207.68 169.582 207.737 169.571 207.779 169.562L207.984 170.466C207.916 170.491 207.821 170.517 207.699 170.543C207.576 170.571 207.422 170.585 207.234 170.585C206.95 170.585 206.672 170.524 206.399 170.402C206.129 170.28 205.904 170.094 205.725 169.844C205.549 169.594 205.461 169.278 205.461 168.898V162.386ZM211.304 170.653C210.889 170.653 210.512 170.575 210.174 170.419C209.836 170.26 209.568 170.031 209.369 169.733C209.17 169.432 209.071 169.068 209.071 168.642C209.071 168.267 209.145 167.963 209.292 167.73C209.44 167.494 209.637 167.31 209.885 167.176C210.132 167.043 210.404 166.943 210.703 166.878C211.004 166.81 211.306 166.756 211.61 166.716C212.008 166.665 212.331 166.626 212.578 166.601C212.828 166.572 213.01 166.526 213.123 166.46C213.24 166.395 213.298 166.281 213.298 166.119V166.085C213.298 165.665 213.183 165.338 212.953 165.105C212.725 164.872 212.38 164.756 211.917 164.756C211.437 164.756 211.061 164.861 210.788 165.071C210.515 165.281 210.324 165.506 210.213 165.744L209.258 165.403C209.429 165.006 209.656 164.696 209.94 164.474C210.227 164.25 210.539 164.094 210.877 164.006C211.218 163.915 211.554 163.869 211.883 163.869C212.093 163.869 212.335 163.895 212.608 163.946C212.883 163.994 213.149 164.095 213.404 164.249C213.663 164.402 213.877 164.634 214.048 164.943C214.218 165.253 214.304 165.668 214.304 166.188V170.5H213.298V169.614H213.247C213.179 169.756 213.065 169.908 212.906 170.07C212.747 170.232 212.535 170.369 212.271 170.483C212.007 170.597 211.684 170.653 211.304 170.653ZM211.457 169.75C211.855 169.75 212.19 169.672 212.463 169.516C212.738 169.359 212.946 169.158 213.085 168.911C213.227 168.663 213.298 168.403 213.298 168.131V167.21C213.255 167.261 213.162 167.308 213.017 167.351C212.875 167.391 212.71 167.426 212.522 167.457C212.338 167.486 212.157 167.511 211.981 167.534C211.808 167.554 211.667 167.571 211.559 167.585C211.298 167.619 211.054 167.675 210.826 167.751C210.602 167.825 210.42 167.937 210.281 168.088C210.145 168.236 210.076 168.437 210.076 168.693C210.076 169.043 210.206 169.307 210.464 169.486C210.725 169.662 211.056 169.75 211.457 169.75ZM216.139 170.5V163.955H217.145V170.5H216.139ZM216.651 162.864C216.455 162.864 216.286 162.797 216.143 162.663C216.004 162.53 215.935 162.369 215.935 162.182C215.935 161.994 216.004 161.834 216.143 161.7C216.286 161.567 216.455 161.5 216.651 161.5C216.847 161.5 217.014 161.567 217.153 161.7C217.295 161.834 217.366 161.994 217.366 162.182C217.366 162.369 217.295 162.53 217.153 162.663C217.014 162.797 216.847 162.864 216.651 162.864ZM219.993 166.562V170.5H218.987V163.955H219.958V164.977H220.044C220.197 164.645 220.43 164.378 220.743 164.176C221.055 163.972 221.458 163.869 221.953 163.869C222.396 163.869 222.784 163.96 223.116 164.142C223.449 164.321 223.707 164.594 223.892 164.96C224.076 165.324 224.169 165.784 224.169 166.341V170.5H223.163V166.409C223.163 165.895 223.029 165.494 222.762 165.207C222.495 164.918 222.129 164.773 221.663 164.773C221.342 164.773 221.055 164.842 220.802 164.982C220.552 165.121 220.355 165.324 220.21 165.591C220.065 165.858 219.993 166.182 219.993 166.562ZM230.643 165.42L229.739 165.676C229.683 165.526 229.599 165.379 229.488 165.237C229.38 165.092 229.232 164.973 229.045 164.879C228.857 164.786 228.617 164.739 228.325 164.739C227.924 164.739 227.59 164.831 227.323 165.016C227.059 165.197 226.927 165.429 226.927 165.71C226.927 165.96 227.018 166.158 227.2 166.303C227.381 166.447 227.665 166.568 228.052 166.665L229.023 166.903C229.609 167.045 230.045 167.263 230.332 167.555C230.619 167.845 230.762 168.219 230.762 168.676C230.762 169.051 230.654 169.386 230.438 169.682C230.225 169.977 229.927 170.21 229.543 170.381C229.16 170.551 228.714 170.636 228.205 170.636C227.538 170.636 226.985 170.491 226.548 170.202C226.11 169.912 225.833 169.489 225.717 168.932L226.671 168.693C226.762 169.045 226.934 169.31 227.187 169.486C227.442 169.662 227.776 169.75 228.188 169.75C228.657 169.75 229.029 169.651 229.305 169.452C229.583 169.25 229.722 169.009 229.722 168.727C229.722 168.5 229.643 168.31 229.484 168.156C229.325 168 229.08 167.884 228.751 167.807L227.66 167.551C227.06 167.409 226.62 167.189 226.339 166.891C226.06 166.589 225.921 166.213 225.921 165.761C225.921 165.392 226.025 165.065 226.232 164.781C226.442 164.497 226.728 164.274 227.089 164.112C227.452 163.95 227.864 163.869 228.325 163.869C228.972 163.869 229.481 164.011 229.85 164.295C230.222 164.58 230.487 164.955 230.643 165.42ZM236.299 172.955C236.128 172.955 235.976 172.94 235.843 172.912C235.709 172.886 235.617 172.861 235.566 172.835L235.821 171.949C236.066 172.011 236.282 172.034 236.469 172.017C236.657 172 236.823 171.916 236.968 171.766C237.115 171.618 237.25 171.378 237.373 171.045L237.56 170.534L235.14 163.955H236.23L238.037 169.17H238.105L239.912 163.955H241.003L238.225 171.455C238.1 171.793 237.945 172.072 237.76 172.294C237.576 172.518 237.361 172.685 237.117 172.793C236.875 172.901 236.603 172.955 236.299 172.955ZM244.755 170.636C244.164 170.636 243.646 170.496 243.2 170.214C242.757 169.933 242.41 169.54 242.16 169.034C241.913 168.528 241.789 167.937 241.789 167.261C241.789 166.58 241.913 165.984 242.16 165.476C242.41 164.967 242.757 164.572 243.2 164.291C243.646 164.01 244.164 163.869 244.755 163.869C245.346 163.869 245.863 164.01 246.306 164.291C246.752 164.572 247.099 164.967 247.346 165.476C247.596 165.984 247.721 166.58 247.721 167.261C247.721 167.937 247.596 168.528 247.346 169.034C247.099 169.54 246.752 169.933 246.306 170.214C245.863 170.496 245.346 170.636 244.755 170.636ZM244.755 169.733C245.204 169.733 245.574 169.618 245.863 169.388C246.153 169.158 246.368 168.855 246.507 168.48C246.646 168.105 246.716 167.699 246.716 167.261C246.716 166.824 246.646 166.416 246.507 166.038C246.368 165.661 246.153 165.355 245.863 165.122C245.574 164.889 245.204 164.773 244.755 164.773C244.306 164.773 243.937 164.889 243.647 165.122C243.358 165.355 243.143 165.661 243.004 166.038C242.865 166.416 242.795 166.824 242.795 167.261C242.795 167.699 242.865 168.105 243.004 168.48C243.143 168.855 243.358 169.158 243.647 169.388C243.937 169.618 244.306 169.733 244.755 169.733ZM253.381 167.824V163.955H254.387V170.5H253.381V169.392H253.313C253.16 169.724 252.921 170.007 252.597 170.24C252.273 170.47 251.864 170.585 251.37 170.585C250.961 170.585 250.597 170.496 250.279 170.317C249.961 170.135 249.711 169.862 249.529 169.499C249.347 169.132 249.256 168.67 249.256 168.114V163.955H250.262V168.045C250.262 168.523 250.396 168.903 250.663 169.188C250.933 169.472 251.276 169.614 251.694 169.614C251.944 169.614 252.198 169.55 252.457 169.422C252.718 169.294 252.937 169.098 253.113 168.834C253.292 168.57 253.381 168.233 253.381 167.824ZM256.229 170.5V163.955H257.201V164.943H257.269C257.388 164.619 257.604 164.357 257.917 164.155C258.229 163.953 258.581 163.852 258.973 163.852C259.047 163.852 259.14 163.854 259.25 163.857C259.361 163.859 259.445 163.864 259.502 163.869V164.892C259.468 164.884 259.39 164.871 259.267 164.854C259.148 164.834 259.022 164.824 258.888 164.824C258.57 164.824 258.286 164.891 258.036 165.024C257.789 165.155 257.593 165.337 257.448 165.57C257.306 165.8 257.235 166.062 257.235 166.358V170.5H256.229ZM268.705 165.42L267.802 165.676C267.745 165.526 267.661 165.379 267.55 165.237C267.442 165.092 267.295 164.973 267.107 164.879C266.92 164.786 266.68 164.739 266.387 164.739C265.987 164.739 265.653 164.831 265.386 165.016C265.121 165.197 264.989 165.429 264.989 165.71C264.989 165.96 265.08 166.158 265.262 166.303C265.444 166.447 265.728 166.568 266.114 166.665L267.086 166.903C267.671 167.045 268.107 167.263 268.394 167.555C268.681 167.845 268.825 168.219 268.825 168.676C268.825 169.051 268.717 169.386 268.501 169.682C268.288 169.977 267.989 170.21 267.606 170.381C267.222 170.551 266.776 170.636 266.268 170.636C265.6 170.636 265.048 170.491 264.61 170.202C264.173 169.912 263.896 169.489 263.779 168.932L264.734 168.693C264.825 169.045 264.996 169.31 265.249 169.486C265.505 169.662 265.839 169.75 266.251 169.75C266.719 169.75 267.092 169.651 267.367 169.452C267.646 169.25 267.785 169.009 267.785 168.727C267.785 168.5 267.705 168.31 267.546 168.156C267.387 168 267.143 167.884 266.813 167.807L265.722 167.551C265.123 167.409 264.683 167.189 264.401 166.891C264.123 166.589 263.984 166.213 263.984 165.761C263.984 165.392 264.087 165.065 264.295 164.781C264.505 164.497 264.79 164.274 265.151 164.112C265.515 163.95 265.927 163.869 266.387 163.869C267.035 163.869 267.543 164.011 267.913 164.295C268.285 164.58 268.549 164.955 268.705 165.42ZM270.338 170.5V163.955H271.344V170.5H270.338ZM270.85 162.864C270.654 162.864 270.485 162.797 270.343 162.663C270.203 162.53 270.134 162.369 270.134 162.182C270.134 161.994 270.203 161.834 270.343 161.7C270.485 161.567 270.654 161.5 270.85 161.5C271.046 161.5 271.213 161.567 271.353 161.7C271.495 161.834 271.566 161.994 271.566 162.182C271.566 162.369 271.495 162.53 271.353 162.663C271.213 162.797 271.046 162.864 270.85 162.864ZM275.828 173.091C275.342 173.091 274.925 173.028 274.575 172.903C274.226 172.781 273.935 172.619 273.702 172.418C273.472 172.219 273.288 172.006 273.152 171.778L273.953 171.216C274.044 171.335 274.159 171.472 274.298 171.625C274.438 171.781 274.628 171.916 274.869 172.03C275.114 172.146 275.433 172.205 275.828 172.205C276.357 172.205 276.793 172.077 277.136 171.821C277.48 171.565 277.652 171.165 277.652 170.619V169.29H277.567C277.493 169.409 277.388 169.557 277.251 169.733C277.118 169.906 276.925 170.061 276.672 170.197C276.422 170.331 276.084 170.398 275.658 170.398C275.129 170.398 274.655 170.273 274.234 170.023C273.817 169.773 273.486 169.409 273.241 168.932C273 168.455 272.879 167.875 272.879 167.193C272.879 166.523 272.997 165.939 273.233 165.442C273.469 164.942 273.797 164.555 274.217 164.283C274.638 164.007 275.124 163.869 275.675 163.869C276.101 163.869 276.439 163.94 276.689 164.082C276.942 164.222 277.135 164.381 277.268 164.56C277.405 164.736 277.51 164.881 277.584 164.994H277.686V163.955H278.658V170.688C278.658 171.25 278.53 171.707 278.274 172.06C278.021 172.415 277.68 172.675 277.251 172.839C276.825 173.007 276.351 173.091 275.828 173.091ZM275.794 169.494C276.197 169.494 276.538 169.402 276.817 169.217C277.095 169.033 277.307 168.767 277.452 168.42C277.597 168.074 277.669 167.659 277.669 167.176C277.669 166.705 277.598 166.288 277.456 165.928C277.314 165.567 277.104 165.284 276.825 165.08C276.547 164.875 276.203 164.773 275.794 164.773C275.368 164.773 275.013 164.881 274.729 165.097C274.447 165.312 274.236 165.602 274.094 165.966C273.955 166.33 273.885 166.733 273.885 167.176C273.885 167.631 273.956 168.033 274.098 168.382C274.243 168.729 274.456 169.001 274.737 169.2C275.021 169.396 275.374 169.494 275.794 169.494ZM281.504 166.562V170.5H280.499V163.955H281.47V164.977H281.555C281.709 164.645 281.942 164.378 282.254 164.176C282.567 163.972 282.97 163.869 283.464 163.869C283.908 163.869 284.295 163.96 284.628 164.142C284.96 164.321 285.219 164.594 285.403 164.96C285.588 165.324 285.68 165.784 285.68 166.341V170.5H284.675V166.409C284.675 165.895 284.541 165.494 284.274 165.207C284.007 164.918 283.641 164.773 283.175 164.773C282.854 164.773 282.567 164.842 282.314 164.982C282.064 165.121 281.866 165.324 281.722 165.591C281.577 165.858 281.504 166.182 281.504 166.562ZM288.251 170.568C288.041 170.568 287.86 170.493 287.71 170.342C287.559 170.192 287.484 170.011 287.484 169.801C287.484 169.591 287.559 169.411 287.71 169.26C287.86 169.109 288.041 169.034 288.251 169.034C288.461 169.034 288.642 169.109 288.792 169.26C288.943 169.411 289.018 169.591 289.018 169.801C289.018 169.94 288.983 170.068 288.912 170.185C288.843 170.301 288.751 170.395 288.635 170.466C288.521 170.534 288.393 170.568 288.251 170.568ZM291.556 170.568C291.346 170.568 291.165 170.493 291.015 170.342C290.864 170.192 290.789 170.011 290.789 169.801C290.789 169.591 290.864 169.411 291.015 169.26C291.165 169.109 291.346 169.034 291.556 169.034C291.766 169.034 291.946 169.109 292.097 169.26C292.248 169.411 292.323 169.591 292.323 169.801C292.323 169.94 292.287 170.068 292.216 170.185C292.148 170.301 292.056 170.395 291.939 170.466C291.826 170.534 291.698 170.568 291.556 170.568ZM294.86 170.568C294.65 170.568 294.47 170.493 294.319 170.342C294.169 170.192 294.093 170.011 294.093 169.801C294.093 169.591 294.169 169.411 294.319 169.26C294.47 169.109 294.65 169.034 294.86 169.034C295.071 169.034 295.251 169.109 295.402 169.26C295.552 169.411 295.627 169.591 295.627 169.801C295.627 169.94 295.592 170.068 295.521 170.185C295.453 170.301 295.36 170.395 295.244 170.466C295.13 170.534 295.002 170.568 294.86 170.568Z" fill="white" fill-opacity="0.32"/>
</g>
<g filter="url(#filter3_d_1167_153221)">
<line y1="98" x2="329" y2="98" stroke="white" stroke-opacity="0.08" shape-rendering="crispEdges"/>
</g>
<rect x="277" y="26.5" width="32" height="12" rx="6" fill="white" fill-opacity="0.04"/>
<rect x="76" y="26.5" width="160" height="12" rx="6" fill="white" fill-opacity="0.12"/>
<rect x="76" y="50.5" width="188" height="8" rx="4" fill="white" fill-opacity="0.04"/>
<rect x="76" y="66.5" width="172" height="8" rx="4" fill="white" fill-opacity="0.04"/>
<circle cx="40" cy="50.5" r="20" fill="white" fill-opacity="0.12"/>
<rect width="329" height="100" fill="url(#paint2_linear_1167_153221)"/>
<rect width="329" height="100" transform="matrix(1 0 0 -1 0 389)" fill="url(#paint3_linear_1167_153221)"/>
</g>
<defs>
<filter id="filter0_d_1167_153221" x="0" y="288.5" width="329" height="2" filterUnits="userSpaceOnUse" color-interpolation-filters="sRGB">
<feFlood flood-opacity="0" result="BackgroundImageFix"/>
<feColorMatrix in="SourceAlpha" type="matrix" values="0 0 0 0 0 0 0 0 0 0 0 0 0 0 0 0 0 0 127 0" result="hardAlpha"/>
<feOffset dy="-1"/>
<feComposite in2="hardAlpha" operator="out"/>
<feColorMatrix type="matrix" values="0 0 0 0 0 0 0 0 0 0 0 0 0 0 0 0 0 0 1 0"/>
<feBlend mode="normal" in2="BackgroundImageFix" result="effect1_dropShadow_1167_153221"/>
<feBlend mode="normal" in="SourceGraphic" in2="effect1_dropShadow_1167_153221" result="shape"/>
</filter>
<filter id="filter1_d_1167_153221" x="0" y="192.5" width="329" height="2" filterUnits="userSpaceOnUse" color-interpolation-filters="sRGB">
<feFlood flood-opacity="0" result="BackgroundImageFix"/>
<feColorMatrix in="SourceAlpha" type="matrix" values="0 0 0 0 0 0 0 0 0 0 0 0 0 0 0 0 0 0 127 0" result="hardAlpha"/>
<feOffset dy="-1"/>
<feComposite in2="hardAlpha" operator="out"/>
<feColorMatrix type="matrix" values="0 0 0 0 0 0 0 0 0 0 0 0 0 0 0 0 0 0 1 0"/>
<feBlend mode="normal" in2="BackgroundImageFix" result="effect1_dropShadow_1167_153221"/>
<feBlend mode="normal" in="SourceGraphic" in2="effect1_dropShadow_1167_153221" result="shape"/>
</filter>
<filter id="filter2_dddd_1167_153221" x="5" y="123.5" width="70" height="95" filterUnits="userSpaceOnUse" color-interpolation-filters="sRGB">
<feFlood flood-opacity="0" result="BackgroundImageFix"/>
<feColorMatrix in="SourceAlpha" type="matrix" values="0 0 0 0 0 0 0 0 0 0 0 0 0 0 0 0 0 0 127 0" result="hardAlpha"/>
<feOffset dy="2"/>
<feGaussianBlur stdDeviation="2.5"/>
<feColorMatrix type="matrix" values="0 0 0 0 0 0 0 0 0 0 0 0 0 0 0 0 0 0 0.08 0"/>
<feBlend mode="normal" in2="BackgroundImageFix" result="effect1_dropShadow_1167_153221"/>
<feColorMatrix in="SourceAlpha" type="matrix" values="0 0 0 0 0 0 0 0 0 0 0 0 0 0 0 0 0 0 127 0" result="hardAlpha"/>
<feOffset dy="9"/>
<feGaussianBlur stdDeviation="4.5"/>
<feColorMatrix type="matrix" values="0 0 0 0 0 0 0 0 0 0 0 0 0 0 0 0 0 0 0.07 0"/>
<feBlend mode="normal" in2="effect1_dropShadow_1167_153221" result="effect2_dropShadow_1167_153221"/>
<feColorMatrix in="SourceAlpha" type="matrix" values="0 0 0 0 0 0 0 0 0 0 0 0 0 0 0 0 0 0 127 0" result="hardAlpha"/>
<feOffset dy="21"/>
<feGaussianBlur stdDeviation="6"/>
<feColorMatrix type="matrix" values="0 0 0 0 0 0 0 0 0 0 0 0 0 0 0 0 0 0 0.04 0"/>
<feBlend mode="normal" in2="effect2_dropShadow_1167_153221" result="effect3_dropShadow_1167_153221"/>
<feColorMatrix in="SourceAlpha" type="matrix" values="0 0 0 0 0 0 0 0 0 0 0 0 0 0 0 0 0 0 127 0" result="hardAlpha"/>
<feOffset dy="37"/>
<feGaussianBlur stdDeviation="7.5"/>
<feColorMatrix type="matrix" values="0 0 0 0 0 0 0 0 0 0 0 0 0 0 0 0 0 0 0.01 0"/>
<feBlend mode="normal" in2="effect3_dropShadow_1167_153221" result="effect4_dropShadow_1167_153221"/>
<feBlend mode="normal" in="SourceGraphic" in2="effect4_dropShadow_1167_153221" result="shape"/>
</filter>
<filter id="filter3_d_1167_153221" x="0" y="96.5" width="329" height="2" filterUnits="userSpaceOnUse" color-interpolation-filters="sRGB">
<feFlood flood-opacity="0" result="BackgroundImageFix"/>
<feColorMatrix in="SourceAlpha" type="matrix" values="0 0 0 0 0 0 0 0 0 0 0 0 0 0 0 0 0 0 127 0" result="hardAlpha"/>
<feOffset dy="-1"/>
<feComposite in2="hardAlpha" operator="out"/>
<feColorMatrix type="matrix" values="0 0 0 0 0 0 0 0 0 0 0 0 0 0 0 0 0 0 1 0"/>
<feBlend mode="normal" in2="BackgroundImageFix" result="effect1_dropShadow_1167_153221"/>
<feBlend mode="normal" in="SourceGraphic" in2="effect1_dropShadow_1167_153221" result="shape"/>
</filter>
<linearGradient id="paint0_linear_1167_153221" x1="329" y1="195" x2="0" y2="195" gradientUnits="userSpaceOnUse">
<stop stop-color="white" stop-opacity="0.08"/>
<stop offset="0.5" stop-color="white" stop-opacity="0.12"/>
<stop offset="1" stop-color="white" stop-opacity="0.08"/>
</linearGradient>
<linearGradient id="paint1_linear_1167_153221" x1="0" y1="48" x2="329" y2="48" gradientUnits="userSpaceOnUse">
<stop stop-color="white" stop-opacity="0"/>
<stop offset="0.5" stop-color="white" stop-opacity="0.08"/>
<stop offset="1" stop-color="white" stop-opacity="0"/>
</linearGradient>
<linearGradient id="paint2_linear_1167_153221" x1="164.5" y1="100" x2="164.5" y2="0" gradientUnits="userSpaceOnUse">
<stop stop-color="#141415" stop-opacity="0"/>
<stop offset="1" stop-color="#141415"/>
</linearGradient>
<linearGradient id="paint3_linear_1167_153221" x1="164.5" y1="100" x2="164.5" y2="0" gradientUnits="userSpaceOnUse">
<stop stop-color="#141415" stop-opacity="0"/>
<stop offset="1" stop-color="#141415"/>
</linearGradient>
<clipPath id="clip0_1167_153221">
<rect width="329" height="389" fill="white" transform="matrix(1 0 0 -1 0 389)"/>
</clipPath>
<clipPath id="clip1_1167_153221">
<rect width="329" height="96" fill="white" transform="matrix(1 0 0 -1 0 194.5)"/>
</clipPath>
<clipPath id="clip2_1167_153221">
<rect width="27.4286" height="27.4286" fill="white" transform="translate(26.2857 132.786)"/>
</clipPath>
</defs>
</svg>
