<svg width="24" height="24" viewBox="0 0 24 24" fill="none" xmlns="http://www.w3.org/2000/svg">
<path fill-rule="evenodd" clip-rule="evenodd" d="M2 12C2 6.47715 6.47715 2 12 2C17.5228 2 22 6.47715 22 12C22 17.5228 17.5228 22 12 22C10.5458 22 9.16153 21.689 7.91234 21.1288C7.88802 21.1179 7.8743 21.1184 7.87216 21.1185L4.54464 21.8699C3.09629 22.197 1.80913 20.8874 2.16111 19.4449L2.93944 16.2552C2.93961 16.2529 2.94023 16.2384 2.92835 16.2129C2.33228 14.9313 2 13.5031 2 12ZM6.25 12C6.25 12.6904 6.80964 13.25 7.5 13.25C8.19036 13.25 8.75 12.6904 8.75 12C8.75 11.3096 8.19036 10.75 7.5 10.75C6.80964 10.75 6.25 11.3096 6.25 12ZM10.75 12C10.75 12.6904 11.3096 13.25 12 13.25C12.6904 13.25 13.25 12.6904 13.25 12C13.25 11.3096 12.6904 10.75 12 10.75C11.3096 10.75 10.75 11.3096 10.75 12ZM16.5 13.25C15.8096 13.25 15.25 12.6904 15.25 12C15.25 11.3096 15.8096 10.75 16.5 10.75C17.1904 10.75 17.75 11.3096 17.75 12C17.75 12.6904 17.1904 13.25 16.5 13.25Z" fill="#347FFE"/>
</svg>
