<svg width="24" height="24" viewBox="0 0 24 24" fill="none" xmlns="http://www.w3.org/2000/svg">
<path fill-rule="evenodd" clip-rule="evenodd" d="M9.91448 2.62605C11.0775 1.50095 12.9232 1.50095 14.0863 2.62605L14.4651 2.99258C14.6868 3.20704 14.9951 3.3072 15.3005 3.264L15.8224 3.19017C17.4247 2.96355 18.9179 4.04845 19.1975 5.64228L19.2886 6.1615C19.3418 6.46531 19.5324 6.72753 19.8048 6.87209L20.2705 7.11916C21.6999 7.87758 22.2703 9.63298 21.5596 11.0868L21.3281 11.5604C21.1927 11.8375 21.1927 12.1616 21.3281 12.4387L21.5596 12.9123C22.2703 14.3661 21.6999 16.1215 20.2705 16.8799L19.8048 17.1269C19.5324 17.2715 19.3418 17.5337 19.2886 17.8375L19.1975 18.3568C18.9179 19.9506 17.4247 21.0355 15.8224 20.8089L15.3005 20.735C14.9951 20.6918 14.6868 20.792 14.4651 21.0065L14.0863 21.373C12.9232 22.4981 11.0775 22.4981 9.91449 21.373L9.53561 21.0065C9.31392 20.792 9.00567 20.6918 8.70026 20.735L8.1783 20.8089C6.57609 21.0355 5.08285 19.9506 4.80327 18.3568L4.71219 17.8375C4.6589 17.5337 4.46839 17.2715 4.19592 17.1269L3.73025 16.8799C2.30082 16.1215 1.73046 14.3661 2.4411 12.9123L2.67261 12.4387C2.80807 12.1616 2.80807 11.8375 2.67261 11.5604L2.4411 11.0868C1.73046 9.63299 2.30082 7.87758 3.73025 7.11916L4.19592 6.87209C4.46839 6.72753 4.6589 6.46531 4.71219 6.16151L4.80327 5.64228C5.08285 4.04845 6.57608 2.96355 8.1783 3.19017L8.70026 3.264C9.00567 3.3072 9.31392 3.20704 9.53561 2.99258L9.91448 2.62605ZM12.6729 8.11225C12.3978 7.55482 11.6029 7.55482 11.3278 8.11225L10.6319 9.52226C10.5227 9.74362 10.3115 9.89705 10.0672 9.93254L8.51119 10.1586C7.89603 10.248 7.65039 11.004 8.09553 11.4379L9.22149 12.5355C9.39826 12.7078 9.47892 12.956 9.43719 13.1993L9.17139 14.7491C9.0663 15.3617 9.70938 15.829 10.2596 15.5397L11.6514 14.808C11.8699 14.6931 12.1309 14.6931 12.3494 14.808L13.7411 15.5397C14.2914 15.829 14.9344 15.3617 14.8293 14.7491L14.5635 13.1993C14.5218 12.956 14.6025 12.7078 14.7792 12.5355L15.9052 11.4379C16.3503 11.004 16.1047 10.248 15.4895 10.1586L13.9335 9.93254C13.6892 9.89705 13.478 9.74362 13.3688 9.52226L12.6729 8.11225Z" fill="#85858E"/>
</svg>
