<svg width="40" height="40" viewBox="0 0 40 40" fill="none" xmlns="http://www.w3.org/2000/svg">
<path fill-rule="evenodd" clip-rule="evenodd" d="M11 14C11 12.3431 12.3431 11 14 11H26C27.6569 11 29 12.3431 29 14V26C29 27.6569 27.6569 29 26 29H14C12.3431 29 11 27.6569 11 26V14ZM14 13C13.4477 13 13 13.4477 13 14V21.5858L13.8787 20.7071C15.0503 19.5355 16.9497 19.5355 18.1213 20.7071L24.4142 27H26C26.5523 27 27 26.5523 27 26V14C27 13.4477 26.5523 13 26 13H14ZM21.5858 27L16.7071 22.1213C16.3166 21.7308 15.6834 21.7308 15.2929 22.1213L13 24.4142V26C13 26.5523 13.4477 27 14 27H21.5858Z" fill="#FE6700"/>
<path d="M21.5745 16.3509L22.0528 15.3944C22.237 15.0259 22.763 15.0259 22.9472 15.3944L23.4255 16.3509C23.4738 16.4477 23.5523 16.5262 23.6491 16.5745L24.6056 17.0528C24.9741 17.237 24.9741 17.763 24.6056 17.9472L23.6491 18.4255C23.5523 18.4738 23.4738 18.5523 23.4255 18.6491L22.9472 19.6056C22.763 19.9741 22.237 19.9741 22.0528 19.6056L21.5745 18.6491C21.5262 18.5523 21.4477 18.4738 21.3509 18.4255L20.3944 17.9472C20.0259 17.763 20.0259 17.237 20.3944 17.0528L21.3509 16.5745C21.4477 16.5262 21.5262 16.4477 21.5745 16.3509Z" fill="#FE6700"/>
</svg>
