<svg width="56" height="57" viewBox="0 0 56 57" fill="none" xmlns="http://www.w3.org/2000/svg">
<g id="icon">
<path id="vector" fill-rule="evenodd" clip-rule="evenodd" d="M28.0001 5.16666C15.1134 5.16666 4.66675 15.6133 4.66675 28.5C4.66675 41.3866 15.1134 51.8333 28.0001 51.8333C40.8867 51.8333 51.3334 41.3866 51.3334 28.5C51.3334 15.6133 40.8867 5.16666 28.0001 5.16666ZM36.806 24.1443C37.622 23.1469 37.475 21.6769 36.4776 20.8608C35.4803 20.0448 34.0102 20.1918 33.1942 21.1892L24.3269 32.027L21.4833 29.1835C20.5721 28.2723 19.0947 28.2723 18.1835 29.1835C17.2723 30.0947 17.2723 31.5721 18.1835 32.4833L22.8502 37.15C23.3163 37.6161 23.9579 37.8633 24.6163 37.8305C25.2747 37.7977 25.8885 37.4878 26.306 36.9776L36.806 24.1443Z" fill="white"/>
</g>
</svg>
