<svg width="49" height="48" viewBox="0 0 49 48" fill="none" xmlns="http://www.w3.org/2000/svg">
<path fill-rule="evenodd" clip-rule="evenodd" d="M16.752 10C17.6401 6.54955 20.7723 4 24.5 4C28.2277 4 31.3599 6.54955 32.248 10H40.5C41.6046 10 42.5 10.8954 42.5 12C42.5 13.1046 41.6046 14 40.5 14H38.5V38C38.5 41.3137 35.8137 44 32.5 44H16.5C13.1863 44 10.5 41.3137 10.5 38V14H8.5C7.39543 14 6.5 13.1046 6.5 12C6.5 10.8954 7.39543 10 8.5 10H16.752ZM21.0351 10C21.7267 8.8044 23.0194 8 24.5 8C25.9806 8 27.2733 8.8044 27.9649 10H21.0351ZM20.5 20C21.6046 20 22.5 20.8954 22.5 22V32C22.5 33.1046 21.6046 34 20.5 34C19.3954 34 18.5 33.1046 18.5 32V22C18.5 20.8954 19.3954 20 20.5 20ZM28.5 20C29.6046 20 30.5 20.8954 30.5 22V32C30.5 33.1046 29.6046 34 28.5 34C27.3954 34 26.5 33.1046 26.5 32V22C26.5 20.8954 27.3954 20 28.5 20Z" fill="#57575C"/>
</svg>
