<svg width="24" height="24" viewBox="0 0 24 24" fill="none" xmlns="http://www.w3.org/2000/svg">
<path d="M12.8304 3.47318C12.4696 3.09173 12.1887 3.00023 11.9999 3.00023C11.8112 3.00023 11.5303 3.09173 11.1695 3.47318C10.8068 3.85675 10.434 4.46545 10.1 5.30055C9.51863 6.75395 9.11387 8.74371 9.0205 11.0002L14.9794 11.0002C14.886 8.74372 14.4813 6.75395 13.8999 5.30055C13.5659 4.46545 13.1931 3.85675 12.8304 3.47318Z" fill="#85858E"/>
<path d="M14.9794 13.0002L9.0205 13.0002C9.11387 15.2567 9.51863 17.2465 10.1 18.6999C10.434 19.535 10.8068 20.1437 11.1695 20.5273C11.5303 20.9087 11.8112 21.0002 11.9999 21.0002C12.1887 21.0002 12.4696 20.9087 12.8304 20.5273C13.1931 20.1437 13.5659 19.535 13.8999 18.6999C14.4813 17.2465 14.886 15.2567 14.9794 13.0002Z" fill="#85858E"/>
<path d="M7.01894 11.0002C7.11315 8.53306 7.55335 6.28198 8.24304 4.55777C8.59129 3.68713 9.01886 2.91129 9.52987 2.30762C5.5144 3.32781 2.46856 6.77768 2.04932 11.0002H7.01894Z" fill="#85858E"/>
<path d="M2.04932 13.0002H7.01894C7.11315 15.4674 7.55335 17.7185 8.24304 19.4427C8.59129 20.3133 9.01886 21.0892 9.52987 21.6928C5.5144 20.6726 2.46856 17.2228 2.04932 13.0002Z" fill="#85858E"/>
<path d="M16.9809 13.0002H21.9506C21.5313 17.2228 18.4855 20.6726 14.47 21.6928C14.981 21.0892 15.4086 20.3133 15.7568 19.4427C16.4465 17.7185 16.8867 15.4674 16.9809 13.0002Z" fill="#85858E"/>
<path d="M21.9506 11.0002C21.5313 6.77768 18.4855 3.32781 14.47 2.30762C14.981 2.91129 15.4086 3.68713 15.7568 4.55777C16.4465 6.28198 16.8867 8.53306 16.9809 11.0002H21.9506Z" fill="#85858E"/>
</svg>
