<svg width="30" height="24" viewBox="0 0 30 24" fill="none" xmlns="http://www.w3.org/2000/svg">
<path d="M5.51695 20.2638H3.41257V20.9122H4.00113V23.2795H3.41257V23.9291H5.51695V23.2795H4.92711V20.9122H5.51695V20.2638Z" fill="#85858E"/>
<path d="M8.97143 20.1913C8.6984 20.1913 8.44598 20.236 8.21544 20.3241C7.98492 20.4123 7.79173 20.5385 7.6359 20.7016C7.47363 20.8699 7.34999 21.0725 7.265 21.3092C7.18 21.5459 7.1375 21.8089 7.1375 22.0996C7.1375 22.4113 7.18257 22.6861 7.27144 22.9242C7.3603 23.1622 7.48651 23.3608 7.64878 23.5199C7.81105 23.6791 8.00424 23.8001 8.22961 23.8803C8.45628 23.9605 8.70226 24 8.96885 24C9.14787 24 9.28953 23.9921 9.39256 23.9737C9.49559 23.9553 9.60506 23.929 9.72225 23.8948C9.81241 23.8685 9.89869 23.8369 9.97983 23.8014C10.0623 23.7646 10.1485 23.7264 10.2374 23.6857V22.8098H10.1421C10.0983 22.8492 10.0429 22.8953 9.97597 22.9492C9.90771 23.0031 9.8343 23.0531 9.75574 23.1004C9.66302 23.1596 9.56127 23.2056 9.4518 23.2398C9.34105 23.274 9.23029 23.2911 9.11825 23.2911C9.00105 23.2911 8.88128 23.2727 8.7615 23.2332C8.64044 23.1951 8.53226 23.1307 8.4331 23.0412C8.33779 22.9518 8.25795 22.8308 8.19355 22.6769C8.13045 22.5231 8.09825 22.3311 8.09825 22.1022C8.09825 21.8826 8.12787 21.6958 8.18711 21.542C8.24507 21.3881 8.32234 21.2645 8.41636 21.1711C8.51681 21.0738 8.62499 21.0054 8.74218 20.9633C8.85938 20.9212 8.98302 20.9002 9.11309 20.9002C9.23029 20.9002 9.33976 20.9186 9.44279 20.9541C9.54582 20.9896 9.64112 21.0343 9.72998 21.0869C9.81627 21.1382 9.89355 21.1921 9.9618 21.2461C10.0301 21.3 10.0867 21.346 10.1318 21.3855H10.2374V20.4964C10.1717 20.4635 10.0957 20.428 10.0082 20.3899C9.92059 20.3504 9.82271 20.3163 9.71582 20.2847C9.61279 20.2571 9.50074 20.2347 9.37968 20.2176C9.25733 20.2005 9.12211 20.1913 8.97143 20.1913Z" fill="#85858E"/>
<path d="M13.9845 20.264H12.9194L11.5942 23.9293H12.5279L12.7778 23.1902H14.1056L14.3541 23.9293H15.3097L13.9845 20.264ZM13.0006 22.5168L13.441 21.2056L13.8815 22.5168H13.0006Z" fill="#85858E"/>
<path d="M20.1738 20.2638H19.3238V22.3628L18.0141 20.2638H16.9065V23.9291H17.7565V21.4133L19.28 23.9291H20.1738V20.2638Z" fill="#85858E"/>
<path d="M25.4286 20.264H24.5786V22.363L23.2688 20.264H22.1612V23.9293H23.0112V21.4134L24.5348 23.9293H25.4286V20.264Z" fill="#85858E"/>
<path d="M15.48 6.22867e-09C14.9298 1.75415e-05 14.3689 0.0569912 13.8045 0.171975C12.867 0.38503 12.0389 0.844015 11.2095 1.31089C8.47533 2.67865 6.73284 5.54962 6.97368 8.65731L8.30534 8.26277C8.14306 6.07173 8.7239 4.12531 10.0633 2.53661C10.8772 6.94894 12.6352 10.9588 15.2521 14.6136C15.4911 14.6293 15.7224 14.645 15.9517 14.645C16.1835 14.645 16.4132 14.629 16.6469 14.5807C15.7248 13.6325 14.9894 12.612 14.245 11.5914C15.3835 11.0614 16.5374 10.5156 17.5677 9.77256C17.4286 9.41747 17.3282 9.0295 17.1504 8.71255C16.0661 9.55161 14.943 10.2789 13.7427 10.8247C13.1851 9.97115 12.7047 9.09263 12.2398 8.20622V8.11942C13.5174 7.58941 14.7486 6.93315 15.8948 6.07173C15.6939 5.69166 15.4775 5.2958 15.2521 4.95649C14.1755 5.81002 13.0679 6.60173 11.9062 7.23433H11.7903C11.0859 5.70743 10.5282 4.10953 10.1174 2.44981C10.4973 2.0145 10.9313 1.59496 11.3718 1.25566L12.6583 0.883473C15.8948 4.59219 18.0017 8.80067 19.1557 13.355C19.4583 13.0473 19.7288 12.7145 19.7983 12.3042C19.5742 11.6624 19.4119 11.0062 19.1248 10.3973C18.9779 9.94616 18.6907 9.52794 18.598 9.08473C19.4429 8.45215 20.2555 7.76433 21.0527 7.00417C21.0372 6.43472 20.8982 5.91392 20.6354 5.43914H20.5736C19.7906 6.34002 18.9007 7.21854 18.0095 7.97738C17.5291 7.17909 17.0873 6.3637 16.5619 5.58119C17.4595 4.88546 18.3276 4.0464 19.1248 3.16131C18.8388 2.78123 18.4667 2.37748 18.0404 2.22755C17.3591 3.00349 16.5928 3.81757 15.8098 4.47383C14.8658 3.24811 13.8432 2.03028 12.7124 0.915037C13.1728 0.80851 13.6973 0.755245 14.221 0.755245C14.7447 0.755245 15.2676 0.80851 15.7248 0.915037C18.3894 1.40559 20.9832 4.07796 21.4094 6.8069C21.9748 9.85936 20.9059 12.6672 18.4589 14.5255C17.5918 14.8467 16.6674 15.0094 15.7463 15.0094C13.763 15.0094 11.7963 14.2542 10.4587 12.6988C11.3872 12.541 12.2707 12.2556 13.1619 11.9636C13.0293 11.7348 12.867 11.5204 12.7665 11.2758C10.3052 12.2854 7.62276 12.8663 4.79417 12.8663C4.45396 12.8663 4.11116 12.8579 3.76687 12.8408C4.7301 12.9673 5.71358 13.0222 6.70319 13.0222C7.32914 13.0222 7.95758 13.0002 8.5848 12.9605C9.24291 13.7982 10.0787 14.4703 10.9313 14.9529C11.9036 15.5055 13.1117 15.781 14.3282 15.781C15.7752 15.781 17.2339 15.391 18.3198 14.6136C19.5433 14.0836 20.7204 13.1499 21.5485 11.9636C23.1133 9.92249 23.3528 6.55439 22.1912 4.24499L21.6889 3.36647C20.2241 1.154 17.9569 -9.78993e-05 15.48 6.22867e-09Z" fill="#85858E"/>
<path d="M11.0451 7.66202C8.8918 8.68915 6.56848 9.31385 4.07516 9.51244C4.24521 9.5151 4.41547 9.51642 4.58562 9.51642C5.42188 9.51642 6.25434 9.48465 7.0334 9.42563C7.19568 10.4291 7.52924 11.3707 8.0637 12.2164C8.62135 12.1059 9.179 12.0112 9.70445 11.8455C9.23309 11.205 8.89953 10.4922 8.65226 9.74127C8.61362 9.55978 8.48097 9.34542 8.59044 9.17181C9.5499 8.99033 10.4875 8.76806 11.3774 8.42876L11.0451 7.66202Z" fill="#85858E"/>
<path d="M15.274 17.943C10.1998 17.9431 5.12032 18.4514 0.5 19.4531C5.13348 18.9383 9.97466 18.6959 14.8213 18.6959C19.9554 18.6959 25.0956 18.968 30 19.4768C25.3998 18.4492 20.3395 17.9428 15.274 17.943Z" fill="#85858E"/>
</svg>
