<svg width="25" height="24" viewBox="0 0 25 24" fill="none" xmlns="http://www.w3.org/2000/svg">
<g id="coins">
<g id="vector">
<path d="M14.792 5.05956C10.3118 5.57556 6.83301 9.38152 6.83301 14C6.83301 14.8599 6.95361 15.6917 7.17882 16.4793C4.62894 15.4336 2.83301 12.9266 2.83301 10C2.83301 6.13401 5.96701 3 9.83301 3C11.7707 3 13.5246 3.78734 14.792 5.05956Z" fill="white"/>
<path d="M22.833 14C22.833 17.866 19.699 21 15.833 21C11.967 21 8.83301 17.866 8.83301 14C8.83301 10.134 11.967 7 15.833 7C19.699 7 22.833 10.134 22.833 14Z" fill="white"/>
</g>
</g>
</svg>
