<svg width="24" height="24" viewBox="0 0 24 24" fill="none" xmlns="http://www.w3.org/2000/svg">
<path fill-rule="evenodd" clip-rule="evenodd" d="M11.0248 2.27817C11.6568 2.06092 12.3432 2.06092 12.9752 2.27817L18.9752 4.34067C20.1866 4.7571 21 5.89676 21 7.17773V11.9127C21 14.7195 19.8511 16.7422 18.1875 18.3171C16.6151 19.8058 14.5552 20.9166 12.6319 21.9537L12.4748 22.0384C12.1785 22.1983 11.8215 22.1983 11.5252 22.0384L11.3681 21.9537C9.44484 20.9166 7.38493 19.8058 5.8125 18.3171C4.14891 16.7422 3 14.7195 3 11.9127V7.17774C3 5.89676 3.81336 4.7571 5.02476 4.34067L11.0248 2.27817ZM12 8C10.6193 8 9.5 9.11929 9.5 10.5C9.5 11.5252 10.117 12.4062 11 12.792V15C11 15.5523 11.4477 16 12 16C12.5523 16 13 15.5523 13 15V12.792C13.883 12.4062 14.5 11.5252 14.5 10.5C14.5 9.11929 13.3807 8 12 8Z" fill="white"/>
</svg>
