<svg width="24" height="24" viewBox="0 0 24 24" fill="none" xmlns="http://www.w3.org/2000/svg">
<path fill-rule="evenodd" clip-rule="evenodd" d="M21.1457 3.33962C21.6927 3.87722 22 4.60636 22 5.36665V14.3761C22.0002 15.1252 21.7021 15.8446 21.1694 16.3803C20.6368 16.9161 19.9119 17.2256 19.15 17.2428H18.525C18.4697 17.2428 18.4168 17.2212 18.3777 17.1828C18.3386 17.1444 18.3167 17.0923 18.3167 17.038V11.3538C18.3157 10.8724 18.237 10.3941 18.0833 9.9369C18.0694 9.90885 18.0621 9.87804 18.0621 9.8468C18.0621 9.81557 18.0694 9.78475 18.0833 9.75671C18.1013 9.72927 18.126 9.70667 18.1551 9.69094C18.1842 9.67521 18.2168 9.66685 18.25 9.66662H19.0833C19.2491 9.66662 19.4081 9.6019 19.5253 9.4867C19.6425 9.3715 19.7083 9.21525 19.7083 9.05233C19.7083 8.88942 19.6425 8.73317 19.5253 8.61797C19.4081 8.50277 19.2491 8.43805 19.0833 8.43805H17.3333C17.3017 8.43902 17.2702 8.43289 17.2413 8.42012C17.2125 8.40734 17.1869 8.38827 17.1667 8.36434C16.5236 7.59504 15.648 7.04709 14.6667 6.79997C14.6174 6.78651 14.5749 6.7557 14.5472 6.71341C14.5195 6.67111 14.5087 6.6203 14.5167 6.57064C14.5226 6.52208 14.546 6.47721 14.5827 6.44416C14.6194 6.41111 14.6669 6.39205 14.7167 6.39045H19.0833C19.2491 6.39045 19.4081 6.32573 19.5253 6.21053C19.6425 6.09533 19.7083 5.93908 19.7083 5.77617C19.7083 5.61325 19.6425 5.457 19.5253 5.3418C19.4081 5.2266 19.2491 5.16189 19.0833 5.16189H8.68333L8.67738 5.16171C8.67366 5.16131 8.67002 5.16006 8.65844 5.15606C8.58755 5.13159 8.2189 5.00437 5.70833 4.34284C5.5481 4.30049 5.37731 4.32242 5.23353 4.40383C5.08975 4.48524 4.98476 4.61945 4.94167 4.77694C4.89857 4.93442 4.92089 5.10229 5.00372 5.2436C5.08655 5.38491 5.2231 5.4881 5.38333 5.53045L14.4083 7.98758C15.1545 8.19458 15.8114 8.63542 16.2792 9.24305C16.747 9.85069 17.0001 10.5919 17 11.3538V18.8452C17 20.8163 15.1315 22.2517 13.227 21.7439L4.96935 19.5418C3.21834 19.0749 2 17.4891 2 15.6769V5.36665C2.00438 4.60769 2.31307 3.88104 2.85911 3.34437C3.40514 2.8077 4.14447 2.5043 4.91667 2.5H19.0833C19.8569 2.5 20.5987 2.80202 21.1457 3.33962ZM12.9178 9.22114V16.3625C12.9178 18.4383 11.296 19.6866 9.29555 19.1506C7.29511 18.6146 5.67333 16.4971 5.67333 14.4214V11.4145L7.84666 10.7565V15.0037C7.84666 15.3526 7.98023 15.723 8.21799 16.0334C8.45574 16.3438 8.77821 16.5688 9.11444 16.6589C9.45068 16.749 9.77314 16.6968 10.0109 16.5138C10.2487 16.3308 10.3822 16.032 10.3822 15.6831V9.98881L12.9178 9.22114ZM8.34667 13.4375L9.88223 12.6539V14.9304L8.36065 15.1641C8.35132 15.1091 8.34667 15.0554 8.34667 15.0037V13.4375ZM3.5 15.9107L5.21464 15.0357C5.24123 15.2351 5.28036 15.4333 5.33115 15.6294L3.5 15.9107ZM15.0911 14.1303L13.4178 14.3873V10.8497L15.0911 9.99582V14.1303Z" fill="#0D67FE"/>
</svg>
