<svg width="49" height="48" viewBox="0 0 49 48" fill="none" xmlns="http://www.w3.org/2000/svg">
<path fill-rule="evenodd" clip-rule="evenodd" d="M44.5 10.7333C44.5 9.21273 43.8854 7.75444 42.7915 6.67924C41.6975 5.60404 40.2138 5 38.6667 5H10.3333C8.78894 5.0086 7.31028 5.6154 6.21821 6.68875C5.12614 7.76209 4.50875 9.21538 4.5 10.7333V31.3538C4.5 34.9782 6.93667 38.1498 10.4387 39.0837L26.954 43.4877C30.7631 44.5035 34.5 41.6325 34.5 37.6903V22.7077C34.5002 21.1837 33.994 19.7014 33.0584 18.4861C32.1228 17.2708 30.8089 16.3892 29.3167 15.9752L11.2667 11.0609C10.9462 10.9762 10.6731 10.7698 10.5074 10.4872C10.3418 10.2046 10.2971 9.86885 10.3833 9.55387C10.4695 9.2389 10.6795 8.97048 10.9671 8.80766C11.2546 8.64485 11.5962 8.60097 11.9167 8.68569C17.7578 10.2248 17.8017 10.3178 17.8548 10.3234C17.8582 10.3238 17.8616 10.3238 17.8667 10.3238H38.6667C38.9982 10.3238 39.3161 10.4532 39.5505 10.6836C39.785 10.914 39.9167 11.2265 39.9167 11.5523C39.9167 11.8782 39.785 12.1907 39.5505 12.4211C39.3161 12.6515 38.9982 12.7809 38.6667 12.7809H29.9333C29.8339 12.7841 29.7388 12.8222 29.6655 12.8883C29.5921 12.9544 29.5452 13.0442 29.5333 13.1413C29.5173 13.2406 29.539 13.3422 29.5944 13.4268C29.6497 13.5114 29.7348 13.573 29.8333 13.5999C31.7959 14.0942 33.5473 15.1901 34.8333 16.7287C34.8738 16.7765 34.9249 16.8147 34.9827 16.8402C35.0404 16.8658 35.1034 16.878 35.1667 16.8761H38.6667C38.9982 16.8761 39.3161 17.0055 39.5505 17.2359C39.785 17.4663 39.9167 17.7788 39.9167 18.1047C39.9167 18.4305 39.785 18.743 39.5505 18.9734C39.3161 19.2038 38.9982 19.3332 38.6667 19.3332H37C36.9336 19.3337 36.8683 19.3504 36.8101 19.3819C36.7519 19.4133 36.7026 19.4585 36.6667 19.5134C36.6387 19.5695 36.6242 19.6311 36.6242 19.6936C36.6242 19.7561 36.6387 19.8177 36.6667 19.8738C36.9739 20.7882 37.1315 21.7447 37.1333 22.7077V34.076C37.1333 34.1846 37.1772 34.2888 37.2554 34.3656C37.3335 34.4424 37.4395 34.4855 37.55 34.4855H38.8C40.3239 34.4513 41.7736 33.8321 42.8389 32.7606C43.9042 31.6891 44.5004 30.2503 44.5 28.7522V10.7333ZM26.3356 32.725V18.4423L21.2644 19.9776V31.3662C21.2644 32.064 20.9973 32.6617 20.5218 33.0277C20.0463 33.3937 19.4014 33.4981 18.7289 33.3179C18.0564 33.1377 17.4115 32.6877 16.936 32.0669C16.4605 31.446 16.1933 30.7052 16.1933 30.0074V21.513L11.8467 22.829V28.8428C11.8467 32.9943 15.0902 37.2291 19.0911 38.3011C23.092 39.3732 26.3356 36.8766 26.3356 32.725Z" fill="white"/>
<path fill-rule="evenodd" clip-rule="evenodd" d="M21.2644 24.7978L16.1933 27.3855V30.0165C16.1933 30.1697 16.2062 30.3249 16.2313 30.4805L21.2644 29.7075V24.7978ZM12.1539 31.1068C12.0188 30.6057 11.926 30.097 11.88 29.5866L7.5 31.8217L12.1539 31.1068ZM26.3356 28.9285V22.21L30.6822 19.9919V28.2609L26.3356 28.9285Z" fill="#00C9FF"/>
</svg>
