<svg width="56" height="57" viewBox="0 0 56 57" fill="none" xmlns="http://www.w3.org/2000/svg">
<path fill-rule="evenodd" clip-rule="evenodd" d="M51.3333 13.0222C51.3333 11.2482 50.6163 9.54689 49.34 8.29249C48.0637 7.03809 46.3327 6.33337 44.5277 6.33337H11.4722C9.67038 6.34341 7.94529 7.05134 6.67121 8.30358C5.39712 9.55581 4.67683 11.2513 4.66663 13.0222V37.0795C4.66663 41.3079 7.50941 45.0081 11.5951 46.0976L30.863 51.2357C35.3069 52.4208 39.6666 49.0713 39.6666 44.4721V26.9923C39.6669 25.2144 39.0763 23.485 37.9847 22.0672C36.8932 20.6494 35.3604 19.6207 33.6194 19.1377L12.5611 13.4044C12.1872 13.3056 11.8686 13.0648 11.6753 12.7351C11.482 12.4054 11.43 12.0137 11.5305 11.6462C11.6311 11.2788 11.876 10.9656 12.2115 10.7756C12.547 10.5857 12.9455 10.5345 13.3194 10.6333C20.134 12.429 20.1852 12.5375 20.2472 12.544C20.2512 12.5444 20.2552 12.5444 20.2611 12.5444H44.5277C44.9145 12.5444 45.2854 12.6955 45.5589 12.9643C45.8324 13.2331 45.9861 13.5976 45.9861 13.9778C45.9861 14.3579 45.8324 14.7225 45.5589 14.9913C45.2854 15.2601 44.9145 15.4111 44.5277 15.4111H34.3388C34.2228 15.4148 34.1119 15.4593 34.0263 15.5364C33.9407 15.6135 33.8861 15.7182 33.8722 15.8315C33.8535 15.9474 33.8788 16.066 33.9434 16.1647C34.0079 16.2633 34.1072 16.3352 34.2222 16.3666C36.5119 16.9433 38.5551 18.2218 40.0555 20.0168C40.1028 20.0727 40.1624 20.1172 40.2297 20.147C40.2971 20.1768 40.3705 20.1911 40.4444 20.1888H44.5277C44.9145 20.1888 45.2854 20.3398 45.5589 20.6086C45.8324 20.8774 45.9861 21.242 45.9861 21.6222C45.9861 22.0023 45.8324 22.3669 45.5589 22.6357C45.2854 22.9045 44.9145 23.0555 44.5277 23.0555H42.5833C42.5058 23.056 42.4297 23.0755 42.3618 23.1122C42.2939 23.1489 42.2364 23.2017 42.1944 23.2657C42.1618 23.3311 42.1448 23.403 42.1448 23.4759C42.1448 23.5488 42.1618 23.6207 42.1944 23.6861C42.5529 24.7529 42.7367 25.8689 42.7388 26.9923V40.2554C42.7388 40.3821 42.7901 40.5036 42.8812 40.5932C42.9724 40.6828 43.096 40.7331 43.225 40.7331H44.6833C46.4611 40.6932 48.1525 39.9709 49.3953 38.7208C50.6381 37.4707 51.3338 35.7921 51.3333 34.0443V13.0222ZM30.1414 38.6793V22.016L24.2251 23.8073V37.094C24.2251 37.9081 23.9135 38.6053 23.3587 39.0323C22.804 39.4593 22.0515 39.5811 21.267 39.3709C20.4824 39.1607 19.73 38.6357 19.1753 37.9114C18.6205 37.1871 18.3088 36.3228 18.3088 35.5087V25.5985L13.2377 27.1338V34.1499C13.2377 38.9934 17.0219 43.934 21.6896 45.1847C26.3573 46.4354 30.1414 43.5227 30.1414 38.6793Z" fill="white"/>
<path fill-rule="evenodd" clip-rule="evenodd" d="M24.2251 29.4304L18.3088 32.4494V35.5189C18.3088 35.6976 18.3239 35.8788 18.3532 36.0603L24.2251 35.1584V29.4304ZM13.5962 36.791C13.4386 36.2064 13.3303 35.6128 13.2766 35.0173L8.16663 37.6249L13.5962 36.791ZM30.1414 34.2496V26.4113L35.2125 23.8236V33.4707L30.1414 34.2496Z" fill="#00C9FF"/>
</svg>
