<svg width="24" height="24" viewBox="0 0 24 24" fill="none" xmlns="http://www.w3.org/2000/svg">
<path fill-rule="evenodd" clip-rule="evenodd" d="M4 5C4 3.34315 5.34315 2 7 2H17C18.6569 2 20 3.34315 20 5V19C20 20.6569 18.6569 22 17 22H7C5.34315 22 4 20.6569 4 19V5ZM9 6C8.44772 6 8 6.44772 8 7C8 7.55228 8.44772 8 9 8H15C15.5523 8 16 7.55228 16 7C16 6.44772 15.5523 6 15 6H9ZM9 10C8.44772 10 8 10.4477 8 11C8 11.5523 8.44772 12 9 12H15C15.5523 12 16 11.5523 16 11C16 10.4477 15.5523 10 15 10H9ZM9 14C8.44772 14 8 14.4477 8 15C8 15.5523 8.44772 16 9 16H11C11.5523 16 12 15.5523 12 15C12 14.4477 11.5523 14 11 14H9Z" fill="black"/>
</svg>
