<svg width="24" height="24" viewBox="0 0 24 24" fill="none" xmlns="http://www.w3.org/2000/svg">
<path d="M0 19.5173L0.0015 19.5162L0.0045 19.514L0 19.5173L0.008625 19.5109L4.53455 16.109C4.51169 15.8701 4.5 15.6278 4.5 15.3829V9.36906L9 6.88837V12.7518L14.25 8.80527V3.99424L19.5 1.1001V4.85834L24 1.47596V2.22768L19.5 5.46912V6.07989L24 2.97941V3.73113L19.5 6.69067V7.30145L24 4.48286V5.23458L19.5 7.91222V8.52337L24 5.9863V6.73803L19.5 9.13415V9.74455L24 7.48975V8.24148L19.5 10.3553V10.9661L24 8.9932V9.74492L19.5 11.5769V15.3829C19.5 19.5345 16.1421 22.9001 12 22.9001C8.61157 22.9001 5.74796 20.6479 4.81803 17.5555L0.003 19.5158L0 19.5173ZM4.74315 17.2887L0.006 19.514L0.004125 19.5151L4.77907 17.4215C4.7667 17.3774 4.75473 17.3331 4.74315 17.2887ZM4.58269 16.5029L0.008625 19.5109L0.0045 19.514L4.60336 16.6337C4.5961 16.5903 4.5892 16.5466 4.58269 16.5029ZM4.67968 17.0259L0.012 19.5109L4.71005 17.1569C4.69955 17.1133 4.68942 17.0697 4.67968 17.0259ZM4.54831 16.2408L0.01425 19.5072L4.56436 16.3721C4.55863 16.3284 4.55328 16.2847 4.54831 16.2408ZM14.25 13.7148L9.03893 15.8368C9.25352 17.0735 10.3297 18.0139 11.625 18.0139C13.0747 18.0139 14.25 16.8359 14.25 15.3829V13.7148ZM14.25 12.8217L9 15.2885V15.3829C9 15.4449 9.00214 15.5065 9.00637 15.5675L14.25 13.2683V12.8217ZM14.25 11.9298L9 14.7251V15.0066L14.25 12.3756V11.9298ZM14.25 11.0364L9 14.1609V14.4432L14.25 11.4833V11.0364ZM14.25 10.1437L9 13.5971V13.879L14.25 10.5902V10.1437ZM14.25 9.25142L9 13.0337V13.3152L14.25 9.69757V9.25142ZM0.004125 19.5151L0.003 19.5158L0.006 19.514L4.65176 16.8948C4.6429 16.8513 4.63441 16.8077 4.6263 16.7639L0.0045 19.514L0.003 19.5158L0.0015 19.5162L0.004125 19.5151Z" fill="#85858E"/>
</svg>
