<svg width="24" height="24" viewBox="0 0 24 24" fill="none" xmlns="http://www.w3.org/2000/svg">
<path fill-rule="evenodd" clip-rule="evenodd" d="M5 5.75C5 3.67893 6.67893 2 8.75 2H15.25C17.3211 2 19 3.67893 19 5.75V6H21.25C21.6642 6 22 6.33579 22 6.75C22 7.16421 21.6642 7.5 21.25 7.5H19V16.25C19 18.3211 17.3211 20 15.25 20H12V21.25C12 21.6642 11.6642 22 11.25 22H5.75C5.33579 22 5 21.6642 5 21.25V14.5H4.25C3.83579 14.5 3.5 14.1642 3.5 13.75V10.75C3.5 10.3358 3.83579 10 4.25 10H5V5.75ZM6.5 6H17.5V5.75C17.5 4.50736 16.4926 3.5 15.25 3.5H8.75C7.50736 3.5 6.5 4.50736 6.5 5.75V6ZM9.96875 9.94444C9.96875 9.53023 10.3045 9.19444 10.7188 9.19444H10.7291C11.1433 9.19444 11.4791 9.53023 11.4791 9.94444C11.4791 10.3587 11.1433 10.6944 10.7291 10.6944H10.7188C10.3045 10.6944 9.96875 10.3587 9.96875 9.94444ZM14.0938 9.94444C14.0938 9.53023 14.4295 9.19444 14.8438 9.19444H14.8541C15.2683 9.19444 15.6041 9.53023 15.6041 9.94444C15.6041 10.3587 15.2683 10.6944 14.8541 10.6944H14.8438C14.4295 10.6944 14.0938 10.3587 14.0938 9.94444ZM9.62214 13.3521C9.97994 13.1435 10.4392 13.2643 10.6479 13.6221C10.88 14.0201 11.2995 14.3043 11.9235 14.4597C12.5525 14.6165 13.3291 14.6239 14.1439 14.5075C14.554 14.449 14.9339 14.7339 14.9925 15.1439C15.051 15.554 14.7661 15.9339 14.3561 15.9925C13.4209 16.1261 12.437 16.1335 11.5608 15.9153C10.6796 15.6957 9.8491 15.2299 9.35214 14.3779C9.14345 14.0201 9.26434 13.5608 9.62214 13.3521Z" fill="black"/>
</svg>
