<svg width="25" height="24" viewBox="0 0 25 24" fill="none" xmlns="http://www.w3.org/2000/svg">
<path d="M11.375 15C13.5841 15 15.375 13.2091 15.375 11C15.375 8.79086 13.5841 7 11.375 7C9.16586 7 7.375 8.79086 7.375 11C7.375 13.2091 9.16586 15 11.375 15Z" fill="white"/>
<path fill-rule="evenodd" clip-rule="evenodd" d="M11.375 5C8.06129 5 5.375 7.68629 5.375 11C5.375 14.3137 8.06129 17 11.375 17C14.6887 17 17.375 14.3137 17.375 11C17.375 7.68629 14.6887 5 11.375 5ZM3.375 11C3.375 6.58172 6.95672 3 11.375 3C15.7933 3 19.375 6.58172 19.375 11C19.375 12.8487 18.7479 14.551 17.6949 15.9056L21.0821 19.2929C21.4726 19.6834 21.4726 20.3166 21.0821 20.7071C20.6916 21.0976 20.0584 21.0976 19.6679 20.7071L16.2806 17.3199C14.926 18.3729 13.2237 19 11.375 19C6.95672 19 3.375 15.4183 3.375 11Z" fill="white"/>
</svg>
