<svg width="25" height="24" viewBox="0 0 25 24" fill="none" xmlns="http://www.w3.org/2000/svg">
<g id="layout-grid-2, grid">
<g id="vector">
<path d="M7.32747 3C6.80033 2.99998 6.34556 2.99997 5.97099 3.03057C5.57564 3.06287 5.18243 3.13419 4.80405 3.32698C4.23956 3.6146 3.78062 4.07354 3.493 4.63803C3.3002 5.01641 3.22889 5.40963 3.19659 5.80497C3.16598 6.17954 3.166 6.63431 3.16602 7.16145L3.16602 10C3.16602 10.5523 3.61373 11 4.16602 11H10.166C10.7183 11 11.166 10.5523 11.166 10V4C11.166 3.44772 10.7183 3 10.166 3L7.32747 3Z" fill="white"/>
<path d="M19.528 3.32698C19.1496 3.13419 18.7564 3.06287 18.361 3.03057C17.9865 2.99997 17.5317 2.99998 17.0046 3L14.166 3C13.6137 3 13.166 3.44772 13.166 4V10C13.166 10.5523 13.6137 11 14.166 11H20.166C20.7183 11 21.166 10.5523 21.166 10V7.16144C21.166 6.6343 21.1661 6.17954 21.1354 5.80497C21.1031 5.40963 21.0318 5.01641 20.839 4.63803C20.5514 4.07354 20.0925 3.6146 19.528 3.32698Z" fill="white"/>
<path d="M4.16602 13C3.61373 13 3.16602 13.4477 3.16602 14L3.16602 16.8385C3.166 17.3657 3.16598 17.8205 3.19659 18.195C3.22889 18.5904 3.3002 18.9836 3.493 19.362C3.78062 19.9265 4.23956 20.3854 4.80405 20.673C5.18243 20.8658 5.57564 20.9371 5.97099 20.9694C6.34556 21 6.80031 21 7.32745 21H10.166C10.7183 21 11.166 20.5523 11.166 20V14C11.166 13.4477 10.7183 13 10.166 13H4.16602Z" fill="white"/>
<path d="M14.166 13C13.6137 13 13.166 13.4477 13.166 14V20C13.166 20.5523 13.6137 21 14.166 21H17.0046C17.5317 21 17.9865 21 18.361 20.9694C18.7564 20.9371 19.1496 20.8658 19.528 20.673C20.0925 20.3854 20.5514 19.9265 20.839 19.362C21.0318 18.9836 21.1031 18.5904 21.1354 18.195C21.1661 17.8205 21.166 17.3657 21.166 16.8386V14C21.166 13.4477 20.7183 13 20.166 13H14.166Z" fill="white"/>
</g>
</g>
</svg>
