<svg width="49" height="48" viewBox="0 0 49 48" fill="none" xmlns="http://www.w3.org/2000/svg">
<path fill-rule="evenodd" clip-rule="evenodd" d="M24.5 44.0001C34.4411 44.0001 42.5 35.9413 42.5 26.0001V14.6162C42.5 12.2324 41.0888 10.0747 38.9049 9.11927L26.9049 3.86927C25.3718 3.19853 23.6282 3.19853 22.0951 3.86927L10.0951 9.11927C7.91116 10.0747 6.5 12.2324 6.5 14.6162V26.0001C6.5 35.9413 14.5589 44.0001 24.5 44.0001ZM31.9142 21.4143C32.6953 20.6333 32.6953 19.367 31.9142 18.5859C31.1332 17.8049 29.8668 17.8049 29.0858 18.5859L22.5 25.1717L19.9142 22.5859C19.1332 21.8049 17.8668 21.8049 17.0858 22.5859C16.3047 23.367 16.3047 24.6333 17.0858 25.4143L21.0858 29.4143C21.8668 30.1954 23.1332 30.1954 23.9142 29.4143L31.9142 21.4143Z" fill="#0EA667"/>
</svg>
