<svg width="24" height="24" viewBox="0 0 24 24" fill="none" xmlns="http://www.w3.org/2000/svg">
<path d="M21 12C21 16.9706 16.9706 21 12 21C7.02944 21 3 16.9706 3 12C3 7.02944 7.02944 3 12 3C16.9706 3 21 7.02944 21 12Z" stroke="#85858E" stroke-width="2"/>
<path d="M8 12H8.01M8.25 12C8.25 12.1381 8.13807 12.25 8 12.25C7.86193 12.25 7.75 12.1381 7.75 12C7.75 11.8619 7.86193 11.75 8 11.75C8.13807 11.75 8.25 11.8619 8.25 12Z" stroke="#85858E" stroke-width="2" stroke-linecap="round"/>
<path d="M12 12H12.01M12.25 12C12.25 12.1381 12.1381 12.25 12 12.25C11.8619 12.25 11.75 12.1381 11.75 12C11.75 11.8619 11.8619 11.75 12 11.75C12.1381 11.75 12.25 11.8619 12.25 12Z" stroke="#85858E" stroke-width="2" stroke-linecap="round"/>
<path d="M16 12H16.01M16.25 12C16.25 12.1381 16.1381 12.25 16 12.25C15.8619 12.25 15.75 12.1381 15.75 12C15.75 11.8619 15.8619 11.75 16 11.75C16.1381 11.75 16.25 11.8619 16.25 12Z" stroke="#85858E" stroke-width="2" stroke-linecap="round"/>
</svg>
