<svg width="24" height="24" viewBox="0 0 24 24" fill="none" xmlns="http://www.w3.org/2000/svg">
<path d="M9 19C9 19.5523 8.55228 20 8 20C7.44772 20 7 19.5523 7 19C7 18.4477 7.44772 18 8 18C8.55228 18 9 18.4477 9 19Z" stroke="#347FFE" stroke-width="2" stroke-linecap="round" stroke-linejoin="round"/>
<path d="M18 19C18 19.5523 17.5523 20 17 20C16.4477 20 16 19.5523 16 19C16 18.4477 16.4477 18 17 18C17.5523 18 18 18.4477 18 19Z" stroke="#347FFE" stroke-width="2" stroke-linecap="round" stroke-linejoin="round"/>
<path d="M21 6L19.7785 13.3288C19.6178 14.2932 18.7834 15 17.8057 15H7.69425C6.71658 15 5.8822 14.2932 5.72147 13.3288L4.2089 4.2534C4.08835 3.53012 3.46257 3 2.72931 3H2" stroke="#347FFE" stroke-width="2" stroke-linecap="round" stroke-linejoin="round"/>
<path d="M10 7H13M13 7H16M13 7V4M13 7V10" stroke="#347FFE" stroke-width="2" stroke-linecap="round" stroke-linejoin="round"/>
</svg>
