<svg width="25" height="24" viewBox="0 0 25 24" fill="none" xmlns="http://www.w3.org/2000/svg">
<g id="bubble-annotation-3, message">
<path id="Icon" fill-rule="evenodd" clip-rule="evenodd" d="M2.875 12C2.875 6.47715 7.35215 2 12.875 2C18.3978 2 22.875 6.47715 22.875 12C22.875 17.5228 18.3978 22 12.875 22C11.4208 22 10.0365 21.689 8.78734 21.1288C8.76302 21.1179 8.7493 21.1184 8.74716 21.1185L5.41964 21.8699C3.97129 22.197 2.68413 20.8874 3.03611 19.4449L3.81444 16.2552C3.81461 16.2529 3.81523 16.2384 3.80335 16.2129C3.20728 14.9313 2.875 13.5031 2.875 12ZM7.125 12C7.125 12.6904 7.68464 13.25 8.375 13.25C9.06536 13.25 9.625 12.6904 9.625 12C9.625 11.3096 9.06536 10.75 8.375 10.75C7.68464 10.75 7.125 11.3096 7.125 12ZM11.625 12C11.625 12.6904 12.1846 13.25 12.875 13.25C13.5654 13.25 14.125 12.6904 14.125 12C14.125 11.3096 13.5654 10.75 12.875 10.75C12.1846 10.75 11.625 11.3096 11.625 12ZM17.375 13.25C16.6846 13.25 16.125 12.6904 16.125 12C16.125 11.3096 16.6846 10.75 17.375 10.75C18.0654 10.75 18.625 11.3096 18.625 12C18.625 12.6904 18.0654 13.25 17.375 13.25Z" fill="white"/>
</g>
</svg>
