<svg width="24" height="24" viewBox="0 0 24 24" fill="none" xmlns="http://www.w3.org/2000/svg">
<path d="M7.0021 13.8203C6.98149 12.8851 7.11285 12.1176 7.39618 11.5176C7.68467 10.9176 8.07103 10.4743 8.55527 10.1878C9.03951 9.89595 9.57269 9.75 10.1548 9.75C10.67 9.75 11.1465 9.86622 11.5843 10.0986C12.0222 10.3257 12.5219 10.6986 13.0834 11.2176C13.4337 11.5365 13.7196 11.7689 13.9411 11.9149C14.1627 12.0554 14.4099 12.1257 14.683 12.1257C15.1002 12.1257 15.4325 11.9635 15.6798 11.6392C15.9322 11.3095 16.0533 10.823 16.043 10.1797H17.9979C18.0185 11.1203 17.8846 11.8905 17.5961 12.4905C17.3128 13.0905 16.9264 13.5338 16.437 13.8203C15.9528 14.1068 15.4222 14.25 14.8452 14.25C14.3249 14.25 13.8458 14.1338 13.408 13.9014C12.9701 13.6635 12.473 13.2905 11.9166 12.7824C11.556 12.4527 11.2675 12.2203 11.0512 12.0851C10.8348 11.9446 10.5901 11.8743 10.3171 11.8743C9.92041 11.8743 9.59072 12.0257 9.32799 12.3284C9.07042 12.6257 8.94678 13.123 8.95708 13.8203H7.0021Z" fill="white"/>
</svg>
