<svg width="12" height="5" viewBox="0 0 12 5" fill="none" xmlns="http://www.w3.org/2000/svg">
<path d="M0.439453 4.39062C0.41862 3.48958 0.551432 2.75 0.837891 2.17188C1.12956 1.59375 1.52018 1.16667 2.00977 0.890625C2.49935 0.609375 3.03841 0.46875 3.62695 0.46875C4.14779 0.46875 4.62956 0.580729 5.07227 0.804687C5.51497 1.02344 6.02018 1.38281 6.58789 1.88281C6.94206 2.1901 7.23112 2.41406 7.45508 2.55469C7.67904 2.6901 7.92904 2.75781 8.20508 2.75781C8.62695 2.75781 8.96289 2.60156 9.21289 2.28906C9.4681 1.97135 9.5905 1.5026 9.58008 0.882812H11.5566C11.5775 1.78906 11.4421 2.53125 11.1504 3.10937C10.8639 3.6875 10.4733 4.11458 9.97852 4.39062C9.48893 4.66667 8.95247 4.80469 8.36914 4.80469C7.8431 4.80469 7.35872 4.69271 6.91602 4.46875C6.47331 4.23958 5.9707 3.88021 5.4082 3.39062C5.04362 3.07292 4.75195 2.84896 4.5332 2.71875C4.31445 2.58333 4.06706 2.51563 3.79102 2.51563C3.38997 2.51563 3.05664 2.66146 2.79102 2.95312C2.5306 3.23958 2.4056 3.71875 2.41602 4.39062H0.439453Z" fill="white"/>
</svg>
