<svg width="24" height="24" viewBox="0 0 24 24" fill="none" xmlns="http://www.w3.org/2000/svg">
<path d="M9 8C9 7.44772 9.44772 7 10 7H14C14.5523 7 15 7.44772 15 8C15 8.55228 14.5523 9 14 9H10C9.44772 9 9 8.55228 9 8Z" fill="white"/>
<path fill-rule="evenodd" clip-rule="evenodd" d="M4 5V10.3859C2.9359 10.3842 2 11.2455 2 12.3874V18C2 19.6569 3.34315 21 5 21H19C20.6569 21 22 19.6569 22 18V12.3874C22 11.2455 21.0641 10.3842 20 10.3859V5C20 3.34315 18.6569 2 17 2H7C5.34315 2 4 3.34315 4 5ZM7 4C6.44772 4 6 4.44772 6 5V10.9459L11.6838 12.8405C11.889 12.9089 12.111 12.9089 12.3162 12.8405L18 10.9459V5C18 4.44772 17.5523 4 17 4H7Z" fill="white"/>
</svg>
