<svg width="24" height="24" viewBox="0 0 24 24" fill="none" xmlns="http://www.w3.org/2000/svg">
<path fill-rule="evenodd" clip-rule="evenodd" d="M8 3C7.17157 3 6.5 3.67157 6.5 4.5V19.5C6.5 20.3284 7.17157 21 8 21H12C12.8284 21 13.5 20.3284 13.5 19.5V4.5C13.5 3.67157 12.8284 3 12 3H8ZM8 7.5C8 7.22386 8.22386 7 8.5 7H11.5C11.7761 7 12 7.22386 12 7.5V8.5C12 8.77614 11.7761 9 11.5 9H8.5C8.22386 9 8 8.77614 8 8.5V7.5ZM8.5 15C8.22386 15 8 15.2239 8 15.5V16.5C8 16.7761 8.22386 17 8.5 17H11.5C11.7761 17 12 16.7761 12 16.5V15.5C12 15.2239 11.7761 15 11.5 15H8.5Z" fill="#347FFE"/>
<path d="M3.5 5C2.67157 5 2 5.67157 2 6.5V19.5C2 20.3284 2.67157 21 3.5 21H4C4.82843 21 5.5 20.3284 5.5 19.5V6.5C5.5 5.67157 4.82843 5 4 5H3.5Z" fill="#347FFE"/>
<path fill-rule="evenodd" clip-rule="evenodd" d="M13.6635 8.44189C13.4351 7.64556 13.8956 6.81489 14.6919 6.58654L16.6144 6.03527C17.4108 5.80692 18.2414 6.26737 18.4698 7.06371L21.7774 18.5988C22.0058 19.3952 21.5453 20.2258 20.749 20.4542L18.8265 21.0055C18.0301 21.2338 17.1995 20.7734 16.9711 19.977L13.6635 8.44189Z" fill="#347FFE"/>
</svg>
