<svg width="31" height="41" viewBox="0 0 31 41" fill="none" xmlns="http://www.w3.org/2000/svg">
<path d="M30.54 16.2943C31.177 12.0353 27.9345 9.74595 23.5006 8.21872L24.939 2.44955L21.4271 1.57448L20.0269 7.19175C19.1036 6.96148 18.1555 6.74451 17.2132 6.52942L18.6236 0.875074L15.1139 0L13.6747 5.76729C12.9107 5.59334 12.1603 5.42142 11.4323 5.24027L11.4363 5.22213L6.5934 4.01276L5.6592 7.76366C5.6592 7.76366 8.26471 8.36091 8.2098 8.39767C9.63191 8.75261 9.88908 9.69401 9.84638 10.4402L8.20792 17.0126C8.30585 17.0375 8.43287 17.0735 8.57303 17.1298C8.45586 17.1007 8.33119 17.0689 8.20182 17.038L5.90526 26.245C5.73147 26.6771 5.29033 27.3255 4.29606 27.0793C4.33125 27.1303 1.74358 26.4423 1.74358 26.4423L0 30.4622L4.57012 31.6015C5.42033 31.8147 6.25348 32.0378 7.07396 32.2476L5.62071 38.0829L9.12852 38.958L10.5677 33.1846C11.526 33.4447 12.456 33.6847 13.3664 33.9109L11.9321 39.6571L15.4441 40.5321L16.8972 34.7078C22.8857 35.8411 27.3885 35.3842 29.2838 29.9676C30.8111 25.6066 29.2078 23.0912 26.0573 21.4509C28.352 20.9217 30.0804 19.4124 30.5412 16.2948L30.5401 16.294L30.54 16.2943ZM22.5162 27.5457C21.4309 31.9067 14.0883 29.5493 11.7077 28.9581L13.6362 21.2273C16.0166 21.8216 23.6505 22.9977 22.5163 27.5457H22.5162ZM23.6023 16.2311C22.6122 20.1979 16.5009 18.1826 14.5185 17.6884L16.2669 10.677C18.2494 11.1712 24.6336 12.0935 23.6026 16.2311H23.6023Z" fill="white"/>
</svg>
