<svg width="24" height="24" viewBox="0 0 24 24" fill="none" xmlns="http://www.w3.org/2000/svg">
<g id="Crypto/Bitcoin-Simple">
<path id="Vector" d="M19.4608 10.0402C19.7729 7.93865 18.1844 6.809 16.0124 6.05541L16.717 3.20869L14.9966 2.7769L14.3107 5.54866C13.8584 5.43504 13.394 5.32798 12.9323 5.22185L13.6232 2.43179L11.9039 2L11.1989 4.84579C10.8246 4.75995 10.457 4.67512 10.1004 4.58574L10.1024 4.57678L7.72995 3.98004L7.27231 5.83086C7.27231 5.83086 8.54868 6.12557 8.52179 6.14371C9.21845 6.31885 9.34443 6.78337 9.32351 7.15156L8.52087 10.3946C8.56884 10.4069 8.63106 10.4247 8.69973 10.4524C8.64233 10.4381 8.58125 10.4224 8.51788 10.4071L7.39285 14.9502C7.30771 15.1634 7.09161 15.4834 6.60454 15.3619C6.62178 15.387 5.35414 15.0476 5.35414 15.0476L4.5 17.0311L6.7388 17.5933C7.15529 17.6985 7.56343 17.8086 7.96536 17.9121L7.25345 20.7915L8.97184 21.2233L9.67686 18.3745C10.1463 18.5028 10.6019 18.6212 11.0479 18.7328L10.3452 21.5682L12.0657 22L12.7775 19.126C15.7111 19.6853 17.917 19.4598 18.8455 16.7871C19.5936 14.6352 18.8082 13.394 17.2649 12.5846C18.389 12.3235 19.2357 11.5788 19.4614 10.0404L19.4609 10.04L19.4608 10.0402ZM15.5301 15.592C14.9985 17.7439 11.4015 16.5807 10.2353 16.289L11.1801 12.4743C12.3462 12.7676 16.0858 13.3479 15.5302 15.592H15.5301ZM16.0622 10.009C15.5772 11.9663 12.5834 10.9719 11.6123 10.7281L12.4688 7.26842C13.4399 7.51226 16.5674 7.96736 16.0623 10.009H16.0622Z" fill="white"/>
</g>
</svg>
