<svg width="20" height="20" viewBox="0 0 20 20" fill="none" xmlns="http://www.w3.org/2000/svg">
<path d="M2.2915 6.45834V5.62501C2.2915 4.70454 3.0377 3.95834 3.95817 3.95834H16.0415C16.962 3.95834 17.7082 4.70454 17.7082 5.62501V6.45834M2.2915 6.45834H17.7082M2.2915 6.45834V8.95834M17.7082 6.45834V8.95834M17.7082 8.95834V14.375C17.7082 15.2955 16.962 16.0417 16.0415 16.0417H3.95817C3.0377 16.0417 2.2915 15.2955 2.2915 14.375V8.95834M17.7082 8.95834H12.7082V9.37501C12.7082 10.2955 11.962 11.0417 11.0415 11.0417H8.95817C8.0377 11.0417 7.2915 10.2955 7.2915 9.37501V8.95834H2.2915" stroke="white" stroke-width="1.5" stroke-linejoin="round"/>
</svg>
