<svg width="64" height="64" viewBox="0 0 64 64" fill="none" xmlns="http://www.w3.org/2000/svg">
<g clip-path="url(#clip0_527_610)">
<path d="M32 0C49.664 0 64 14.3232 64 32C64 49.6768 49.664 64 32 64C14.336 64 0 49.664 0 32C0 14.336 14.3232 0 32 0Z" fill="black"/>
<path fill-rule="evenodd" clip-rule="evenodd" d="M14.7968 28.9407H44.416C44.7872 28.9407 45.1328 29.0815 45.3888 29.3503L50.0736 34.0607C50.944 34.9311 50.3296 36.4159 49.1008 36.4159H19.4816C19.1104 36.4159 18.7648 36.2751 18.5088 36.0063L13.824 31.2959C12.9536 30.4383 13.568 28.9407 14.7968 28.9407ZM13.8112 22.6943L18.496 17.9839C18.7648 17.7151 19.1104 17.5743 19.4688 17.5743H49.0752C50.304 17.5743 50.9312 19.0591 50.048 19.9295L45.376 24.6399C45.12 24.9087 44.7616 25.0495 44.4032 25.0495H14.7968C13.568 25.0495 12.9536 23.5647 13.8112 22.6943ZM50.0608 42.6879L45.376 47.4111C45.12 47.6671 44.7616 47.8207 44.4032 47.8207H14.7968C13.568 47.8207 12.9536 46.3359 13.8112 45.4655L18.496 40.7423C18.7648 40.4863 19.1104 40.3327 19.4688 40.3327H49.0752C50.3168 40.3199 50.944 41.8047 50.0608 42.6879Z" fill="url(#paint0_linear_527_610)"/>
</g>
<defs>
<linearGradient id="paint0_linear_527_610" x1="15.5213" y1="49.1091" x2="48.3635" y2="16.2668" gradientUnits="userSpaceOnUse">
<stop stop-color="#CB4EE8"/>
<stop offset="1" stop-color="#10F4B1"/>
</linearGradient>
<clipPath id="clip0_527_610">
<rect width="64" height="64" fill="white"/>
</clipPath>
</defs>
</svg>
