<svg width="49" height="48" viewBox="0 0 49 48" fill="none" xmlns="http://www.w3.org/2000/svg">
<path fill-rule="evenodd" clip-rule="evenodd" d="M41.488 4.26142C42.4484 4.80707 42.7846 6.02796 42.239 6.98834L32.922 23.3868L33.4478 23.5782C36.4892 24.6852 38.9213 27.7022 38.4154 31.3058C37.7435 36.092 35.6993 39.5464 31.9264 43.3996C31.3521 43.9861 30.4777 44.1622 29.7212 43.8436L10.7238 35.8436C10.0453 35.5578 9.57862 34.9224 9.50899 34.1895C9.43936 33.4566 9.77804 32.7446 10.3906 32.3362C13.3052 30.3932 15.6356 28.4907 17.3862 25.7367C19.4991 22.4127 23.6948 20.0284 27.9479 21.5764L29.1098 21.9993L38.7611 5.01235C39.3068 4.05197 40.5276 3.71577 41.488 4.26142ZM26.5798 25.3352C24.613 24.6193 22.1998 25.6204 20.7619 27.8826C19.287 30.2028 17.5048 31.991 15.5575 33.5389L18.9734 34.9774C19.0882 35.0257 19.219 35.0178 19.3272 34.956L23.5893 32.5194C23.9081 32.3372 24.2834 32.6448 24.1673 32.9932L23.0651 36.2997C22.999 36.498 23.0967 36.7137 23.2894 36.7949L29.9965 39.6193C32.7134 36.6315 33.9842 34.0982 34.4543 30.7497C34.6437 29.4002 33.7385 27.9407 32.0798 27.337L26.5798 25.3352Z" fill="#57575C"/>
<path d="M19.9381 7.12028C19.869 7.25851 19.7569 7.3706 19.6187 7.43972L17.7761 8.36103C17.2496 8.62426 17.2496 9.37555 17.7761 9.63878L19.6187 10.5601C19.7569 10.6292 19.869 10.7413 19.9381 10.8795L20.8594 12.7222C21.1227 13.2486 21.874 13.2486 22.1372 12.7222L23.0585 10.8795C23.1276 10.7413 23.2397 10.6292 23.3779 10.5601L25.2206 9.63878C25.747 9.37555 25.747 8.62426 25.2206 8.36103L23.3779 7.43972C23.2397 7.3706 23.1276 7.25851 23.0585 7.12028L22.1372 5.27766C21.874 4.7512 21.1227 4.7512 20.8594 5.27766L19.9381 7.12028Z" fill="#57575C"/>
<path d="M9.31405 14.3684C9.21728 14.562 9.06036 14.7189 8.86683 14.8156L6.28716 16.1055C5.55011 16.474 5.55011 17.5258 6.28716 17.8943L8.86683 19.1842C9.06036 19.2809 9.21728 19.4379 9.31405 19.6314L10.6039 22.2111C10.9724 22.9481 12.0242 22.9481 12.3927 22.2111L13.6826 19.6314C13.7793 19.4379 13.9363 19.2809 14.1298 19.1842L16.7095 17.8943C17.4465 17.5258 17.4465 16.474 16.7095 16.1055L14.1298 14.8156C13.9363 14.7189 13.7793 14.562 13.6826 14.3684L12.3927 11.7888C12.0242 11.0517 10.9724 11.0517 10.6039 11.7888L9.31405 14.3684Z" fill="#57575C"/>
</svg>
