<svg width="57" height="56" viewBox="0 0 57 56" fill="none" xmlns="http://www.w3.org/2000/svg">
<path d="M16.8333 4.66667C12.9673 4.66667 9.83333 7.80068 9.83333 11.6667V44.3333C9.83333 48.1993 12.9673 51.3333 16.8333 51.3333H35.8983C35.6404 50.6035 35.5 49.8182 35.5 49C31.634 49 28.5 45.866 28.5 42C28.5 38.134 31.634 35 35.5 35C35.5 31.134 38.634 28 42.5 28C44.2928 28 45.9282 28.674 47.1667 29.7824V11.6667C47.1667 7.80068 44.0327 4.66667 40.1667 4.66667H16.8333Z" fill="#57575C"/>
<path d="M44.8333 35C44.8333 33.7113 43.7887 32.6667 42.5 32.6667C41.2113 32.6667 40.1667 33.7113 40.1667 35V39.6667H35.5C34.2113 39.6667 33.1667 40.7113 33.1667 42C33.1667 43.2887 34.2113 44.3333 35.5 44.3333H40.1667V49C40.1667 50.2887 41.2113 51.3333 42.5 51.3333C43.7887 51.3333 44.8333 50.2887 44.8333 49V44.3333H49.5C50.7887 44.3333 51.8333 43.2887 51.8333 42C51.8333 40.7113 50.7887 39.6667 49.5 39.6667H44.8333V35Z" fill="#57575C"/>
</svg>
