<svg width="17" height="16" viewBox="0 0 17 16" fill="none" xmlns="http://www.w3.org/2000/svg">
<path d="M8.24992 14.1666C11.6557 14.1666 14.4166 11.4057 14.4166 7.99998C14.4166 4.59422 11.6557 1.83331 8.24992 1.83331M8.24992 14.1666C4.84416 14.1666 2.08325 11.4057 2.08325 7.99998C2.08325 4.59422 4.84416 1.83331 8.24992 1.83331M8.24992 14.1666C6.68511 14.1666 5.41659 11.4057 5.41659 7.99998C5.41659 4.59422 6.68511 1.83331 8.24992 1.83331M8.24992 14.1666C9.81473 14.1666 11.0833 11.4057 11.0833 7.99998C11.0833 4.59422 9.81473 1.83331 8.24992 1.83331M14.2499 7.99998H2.24992" stroke="black" stroke-width="1.5" stroke-linecap="square"/>
</svg>
