<svg width="20" height="20" viewBox="0 0 20 20" fill="none" xmlns="http://www.w3.org/2000/svg">
<path fill-rule="evenodd" clip-rule="evenodd" d="M3.94977 7.19608C3.55405 8.04845 3.33317 8.99847 3.33317 10.0001C3.33317 11.5407 3.85576 12.9593 4.73334 14.0882L7.06423 11.7573C5.82892 10.431 4.85379 9.07061 4.25486 7.87275C4.14121 7.64545 4.03869 7.41924 3.94977 7.19608ZM7.19646 3.94972C7.41954 4.03862 7.64567 4.14111 7.87289 4.25472C9.07075 4.85365 10.4311 5.82877 11.7575 7.06409L14.0879 4.73359C12.959 3.856 11.5405 3.33341 9.99984 3.33341C8.99847 3.33341 8.04867 3.55419 7.19646 3.94972ZM15.2739 3.54768C13.8373 2.37208 12.0009 1.66675 9.99984 1.66675C5.39746 1.66675 1.6665 5.39771 1.6665 10.0001C1.6665 12.0012 2.37183 13.8375 3.54744 15.2741L2.92889 15.8926C2.60345 16.2181 2.60345 16.7457 2.92889 17.0712C3.25433 17.3966 3.78197 17.3966 4.1074 17.0712L4.72596 16.4526C6.16251 17.6281 7.99881 18.3334 9.99984 18.3334C12.2889 18.3334 14.3625 17.4104 15.8686 15.9163C15.8767 15.9085 15.8848 15.9006 15.8928 15.8926C15.9008 15.8846 15.9088 15.8765 15.9166 15.8683C17.4104 14.3623 18.3332 12.2889 18.3332 10.0001C18.3332 7.99906 17.6279 6.16276 16.4524 4.72621L17.071 4.10753C17.3965 3.78209 17.3965 3.25446 17.071 2.92902C16.7456 2.60358 16.218 2.60358 15.8925 2.92902L15.2739 3.54768ZM15.2664 5.91212L12.936 8.24259C14.1714 9.56899 15.1466 10.9295 15.7456 12.1274C15.8591 12.3544 15.9615 12.5803 16.0503 12.8032C16.4458 11.9511 16.6665 11.0013 16.6665 10.0001C16.6665 8.45952 16.144 7.04101 15.2664 5.91212ZM14.7163 14.7117C14.7176 14.71 14.7193 14.7074 14.7215 14.7033C14.726 14.6947 14.7341 14.6768 14.7416 14.6455C14.7573 14.5797 14.7676 14.4675 14.7473 14.2966C14.7061 13.9487 14.5519 13.4668 14.2549 12.8728C13.748 11.859 12.8886 10.6439 11.7567 9.42189L9.42203 11.7565C10.644 12.8884 11.8591 13.7478 12.8729 14.2547C13.4669 14.5517 13.9488 14.7059 14.2967 14.7472C14.4676 14.7674 14.5799 14.7572 14.6456 14.7414C14.677 14.7339 14.6949 14.7259 14.7035 14.7213C14.7075 14.7192 14.7102 14.7174 14.7118 14.7162C14.7133 14.7147 14.7148 14.7132 14.7163 14.7117ZM12.8036 16.0503C12.5806 15.9614 12.3546 15.859 12.1275 15.7454C10.9296 15.1465 9.56913 14.1713 8.24273 12.9358L5.91187 15.2667C7.04076 16.1442 8.45928 16.6667 9.99984 16.6667C11.0013 16.6667 11.9513 16.4459 12.8036 16.0503ZM8.24353 10.578L10.5781 8.24339C9.35624 7.11162 8.14126 6.25229 7.12754 5.74543C6.53348 5.4484 6.05158 5.29421 5.70369 5.25298C5.53284 5.23273 5.42057 5.24298 5.35482 5.25871C5.32346 5.26622 5.30555 5.27425 5.29698 5.27882C5.28923 5.28295 5.28673 5.28547 5.28621 5.28599C5.28568 5.28651 5.28309 5.28909 5.27896 5.29684C5.27439 5.30541 5.26636 5.32332 5.25885 5.35468C5.24312 5.42043 5.23287 5.5327 5.25312 5.70355C5.29435 6.05144 5.44854 6.53334 5.74557 7.1274C6.25243 8.14112 7.11176 9.3561 8.24353 10.578Z" fill="white"/>
</svg>
