<svg width="24" height="24" viewBox="0 0 24 24" fill="none" xmlns="http://www.w3.org/2000/svg">
<path fill-rule="evenodd" clip-rule="evenodd" d="M10.5858 4.99997C11.3668 4.21892 12.6332 4.21892 13.4142 4.99997L16.7071 8.29286C17.0976 8.68339 17.0976 9.31655 16.7071 9.70708C16.3166 10.0976 15.6834 10.0976 15.2929 9.70708L12 6.41418L8.70711 9.70708C8.31658 10.0976 7.68342 10.0976 7.29289 9.70708C6.90237 9.31655 6.90237 8.68339 7.29289 8.29286L10.5858 4.99997L11.2929 5.70708L10.5858 4.99997ZM7.29289 14.2929C7.68342 13.9023 8.31658 13.9023 8.70711 14.2929L12 17.5858L15.2929 14.2929C15.6834 13.9023 16.3166 13.9023 16.7071 14.2929C17.0976 14.6834 17.0976 15.3166 16.7071 15.7071L13.4142 19C12.6332 19.781 11.3668 19.781 10.5858 19L7.29289 15.7071C6.90237 15.3166 6.90237 14.6834 7.29289 14.2929Z" fill="#FE6700"/>
</svg>
