<svg width="40" height="40" viewBox="0 0 40 40" fill="none" xmlns="http://www.w3.org/2000/svg">
<path fill-rule="evenodd" clip-rule="evenodd" d="M18.5858 13C19.3668 12.2189 20.6332 12.2189 21.4142 13L24.7071 16.2929C25.0976 16.6834 25.0976 17.3166 24.7071 17.7071C24.3166 18.0976 23.6834 18.0976 23.2929 17.7071L20 14.4142L16.7071 17.7071C16.3166 18.0976 15.6834 18.0976 15.2929 17.7071C14.9024 17.3166 14.9024 16.6834 15.2929 16.2929L18.5858 13L19.2929 13.7071L18.5858 13ZM15.2929 22.2929C15.6834 21.9023 16.3166 21.9023 16.7071 22.2929L20 25.5858L23.2929 22.2929C23.6834 21.9023 24.3166 21.9023 24.7071 22.2929C25.0976 22.6834 25.0976 23.3166 24.7071 23.7071L21.4142 27C20.6332 27.781 19.3668 27.781 18.5858 27L15.2929 23.7071C14.9024 23.3166 14.9024 22.6834 15.2929 22.2929Z" fill="#FE6700"/>
</svg>
