<svg width="24" height="24" viewBox="0 0 24 24" fill="none" xmlns="http://www.w3.org/2000/svg">
<path d="M12 21C16.9706 21 21 16.9706 21 12C21 7.02944 16.9706 3 12 3C7.02944 3 3 7.02944 3 12C3 13.3544 3.29919 14.639 3.83508 15.7911C3.93688 16.01 3.96848 16.2564 3.91125 16.4909L3.1326 19.682C2.95662 20.4032 3.60019 21.058 4.32437 20.8945L7.65314 20.1428C7.8775 20.0921 8.11161 20.1223 8.32149 20.2164C9.44452 20.7199 10.6895 21 12 21Z" stroke="#FE6700" stroke-width="2" stroke-linecap="round" stroke-linejoin="round"/>
<path d="M6.625 12C6.625 12.4832 7.01675 12.875 7.5 12.875C7.98325 12.875 8.375 12.4832 8.375 12C8.375 11.5168 7.98325 11.125 7.5 11.125C7.01675 11.125 6.625 11.5168 6.625 12ZM11.125 12C11.125 12.4832 11.5168 12.875 12 12.875C12.4832 12.875 12.875 12.4832 12.875 12C12.875 11.5168 12.4832 11.125 12 11.125C11.5168 11.125 11.125 11.5168 11.125 12ZM15.625 12C15.625 12.4832 16.0168 12.875 16.5 12.875C16.9832 12.875 17.375 12.4832 17.375 12C17.375 11.5168 16.9832 11.125 16.5 11.125C16.0168 11.125 15.625 11.5168 15.625 12Z" fill="#FE6700" stroke="#FE6700" stroke-width="0.75" stroke-linecap="square"/>
</svg>
