<svg width="40" height="40" viewBox="0 0 40 40" fill="none" xmlns="http://www.w3.org/2000/svg">
<path d="M20 29C24.9706 29 29 24.9706 29 20C29 15.0294 24.9706 11 20 11C15.0294 11 11 15.0294 11 20C11 21.3544 11.2992 22.639 11.8351 23.7911C11.9369 24.01 11.9685 24.2564 11.9113 24.4909L11.1326 27.682C10.9566 28.4032 11.6002 29.058 12.3244 28.8945L15.6531 28.1428C15.8775 28.0921 16.1116 28.1223 16.3215 28.2164C17.4445 28.7199 18.6895 29 20 29Z" stroke="#FE6700" stroke-width="2" stroke-linecap="round" stroke-linejoin="round"/>
<path d="M14.625 20C14.625 20.4832 15.0168 20.875 15.5 20.875C15.9832 20.875 16.375 20.4832 16.375 20C16.375 19.5168 15.9832 19.125 15.5 19.125C15.0168 19.125 14.625 19.5168 14.625 20ZM19.125 20C19.125 20.4832 19.5168 20.875 20 20.875C20.4832 20.875 20.875 20.4832 20.875 20C20.875 19.5168 20.4832 19.125 20 19.125C19.5168 19.125 19.125 19.5168 19.125 20ZM23.625 20C23.625 20.4832 24.0168 20.875 24.5 20.875C24.9832 20.875 25.375 20.4832 25.375 20C25.375 19.5168 24.9832 19.125 24.5 19.125C24.0168 19.125 23.625 19.5168 23.625 20Z" fill="#FE6700" stroke="#FE6700" stroke-width="0.75" stroke-linecap="square"/>
</svg>
