<svg width="25" height="24" viewBox="0 0 25 24" fill="none" xmlns="http://www.w3.org/2000/svg">
<g id="home-line">
<path id="Icon" d="M10.1071 3.3895L10.7377 4.16562L10.1071 3.3895ZM11.5859 2.40093L11.3163 1.43795L11.5859 2.40093ZM14.1429 3.3895L14.7735 2.61339L14.1429 3.3895ZM12.6641 2.40093L12.9337 1.43795L12.6641 2.40093ZM5.21702 19.782L5.67101 18.891L5.21702 19.782ZM4.34299 18.9079L5.23399 18.454L4.34299 18.9079ZM19.907 18.9079L19.016 18.454L19.907 18.9079ZM19.033 19.782L18.579 18.891L19.033 19.782ZM20.0544 8.67511L19.0897 8.93851L20.0544 8.67511ZM18.9429 7.2895L18.3123 8.06562L18.9429 7.2895ZM19.7505 8.03668L20.5633 7.45408L19.7505 8.03668ZM4.19563 8.67511L5.16031 8.93851L4.19563 8.67511ZM5.3071 7.2895L4.67651 6.51339L5.3071 7.2895ZM4.4995 8.03668L3.68674 7.45408L4.4995 8.03668ZM8.125 15C7.57272 15 7.125 15.4477 7.125 16C7.125 16.5522 7.57272 17 8.125 17V15ZM16.125 17C16.6773 17 17.125 16.5522 17.125 16C17.125 15.4477 16.6773 15 16.125 15V17ZM19.125 9.77307V16.8H21.125V9.77307H19.125ZM16.925 19H7.325V21H16.925V19ZM5.125 16.8V9.77307H3.125V16.8H5.125ZM5.9377 8.06562L10.7377 4.16562L9.47651 2.61339L4.67651 6.51339L5.9377 8.06562ZM13.5123 4.16562L18.3123 8.06562L19.5735 6.51339L14.7735 2.61339L13.5123 4.16562ZM10.7377 4.16562C11.1087 3.86416 11.3455 3.67262 11.5379 3.53854C11.72 3.41167 11.8055 3.37791 11.8554 3.36392L11.3163 1.43795C10.9665 1.53588 10.6722 1.70419 10.3947 1.89751C10.1275 2.08362 9.82479 2.33041 9.47651 2.61339L10.7377 4.16562ZM14.7735 2.61339C14.4252 2.33041 14.1225 2.08362 13.8553 1.89751C13.5778 1.70419 13.2835 1.53588 12.9337 1.43795L12.3946 3.36392C12.4445 3.37791 12.53 3.41167 12.7121 3.53854C12.9045 3.67262 13.1413 3.86416 13.5123 4.16562L14.7735 2.61339ZM11.8554 3.36392C12.0318 3.31457 12.2182 3.31457 12.3946 3.36392L12.9337 1.43795C12.4047 1.28989 11.8453 1.28989 11.3163 1.43795L11.8554 3.36392ZM7.325 19C6.74845 19 6.37617 18.9992 6.09284 18.976C5.82117 18.9538 5.72045 18.9162 5.67101 18.891L4.76303 20.673C5.14141 20.8658 5.53463 20.9371 5.92997 20.9694C6.31364 21.0007 6.78145 21 7.325 21V19ZM3.125 16.8C3.125 17.3435 3.12422 17.8113 3.15557 18.195C3.18787 18.5903 3.25919 18.9836 3.45198 19.3619L5.23399 18.454C5.2088 18.4045 5.17112 18.3038 5.14893 18.0321C5.12578 17.7488 5.125 17.3765 5.125 16.8H3.125ZM5.67101 18.891C5.48285 18.7951 5.32987 18.6421 5.23399 18.454L3.45198 19.3619C3.7396 19.9264 4.19854 20.3854 4.76303 20.673L5.67101 18.891ZM19.125 16.8C19.125 17.3765 19.1242 17.7488 19.1011 18.0321C19.0789 18.3038 19.0412 18.4045 19.016 18.454L20.798 19.3619C20.9908 18.9836 21.0621 18.5903 21.0944 18.195C21.1258 17.8113 21.125 17.3435 21.125 16.8H19.125ZM16.925 21C17.4686 21 17.9364 21.0007 18.32 20.9694C18.7154 20.9371 19.1086 20.8658 19.487 20.673L18.579 18.891C18.5295 18.9162 18.4288 18.9538 18.1572 18.976C17.8738 18.9992 17.5016 19 16.925 19V21ZM19.016 18.454C18.9201 18.6421 18.7672 18.7951 18.579 18.891L19.487 20.673C20.0515 20.3854 20.5104 19.9264 20.798 19.3619L19.016 18.454ZM21.125 9.77307C21.125 9.26858 21.1333 8.83001 21.0191 8.41171L19.0897 8.93851C19.1167 9.03753 19.125 9.1585 19.125 9.77307H21.125ZM18.3123 8.06562C18.7893 8.45316 18.8779 8.53586 18.9378 8.61929L20.5633 7.45408C20.3106 7.10166 19.965 6.83152 19.5735 6.51339L18.3123 8.06562ZM21.0191 8.41171C20.9252 8.06796 20.7709 7.74368 20.5633 7.45408L18.9378 8.61929C19.007 8.71583 19.0584 8.82392 19.0897 8.93851L21.0191 8.41171ZM5.125 9.77307C5.125 9.1585 5.13327 9.03753 5.16031 8.93851L3.23094 8.41171C3.11673 8.83001 3.125 9.26858 3.125 9.77307H5.125ZM4.67651 6.51339C4.28497 6.83152 3.93937 7.10166 3.68674 7.45408L5.31225 8.61929C5.37206 8.53586 5.46072 8.45316 5.9377 8.06562L4.67651 6.51339ZM5.16031 8.93851C5.1916 8.82392 5.24305 8.71583 5.31225 8.61929L3.68674 7.45408C3.47914 7.74368 3.3248 8.06796 3.23094 8.41171L5.16031 8.93851ZM8.125 17H16.125V15H8.125V17Z" fill="#85858E"/>
</g>
</svg>
