<svg width="24" height="24" viewBox="0 0 24 24" fill="none" xmlns="http://www.w3.org/2000/svg">
<path d="M3.8203 9.73052C4.06255 10.2348 4.66816 11.2435 4.66816 11.2435L11.6025 0L4.84985 4.62793C4.4562 4.89493 4.12311 5.25092 3.88086 5.66625C3.24496 6.9419 3.24496 8.42521 3.8203 9.73052Z" fill="#85858E"/>
<path d="M1.09503 13.4091C1.24644 15.5748 2.36683 17.5921 4.12312 18.8974L11.6025 24C11.6025 24 6.90896 17.3844 2.97245 10.7985C2.5788 10.1162 2.30627 9.34487 2.18515 8.54388C2.12458 8.18788 2.12458 7.83189 2.18515 7.47589C2.0943 7.65389 1.88234 8.03955 1.88234 8.03955C1.48869 8.84054 1.21616 9.70086 1.06475 10.5908C0.973911 11.5402 0.973911 12.4895 1.09503 13.4091Z" fill="#85858E"/>
<path d="M20.172 14.2991C19.9298 13.7948 19.3241 12.7862 19.3241 12.7862L12.3898 24L19.1727 19.4017C19.5664 19.1347 19.8995 18.7787 20.1417 18.3634C20.7473 17.0878 20.7776 15.6045 20.172 14.2991Z" fill="#85858E"/>
<path d="M22.9275 10.5908C22.7761 8.42521 21.6557 6.4079 19.8994 5.10259L12.42 0C12.42 0 17.1136 6.61557 21.0501 13.2015C21.4437 13.8838 21.7163 14.6551 21.8374 15.4561C21.898 15.8121 21.898 16.1681 21.8374 16.5241C21.9282 16.3461 22.1402 15.9604 22.1402 15.9604C22.5339 15.1594 22.8064 14.2991 22.9578 13.4388C23.0184 12.4598 23.0184 11.5402 22.9275 10.5908Z" fill="#85858E"/>
<path d="M3.88086 5.66625C4.12311 5.25092 4.42592 4.89493 4.84985 4.62793L11.6025 0L4.66818 11.2138C4.66818 11.2138 4.06256 10.2052 3.82031 9.70086C3.24498 8.42521 3.24496 6.9419 3.88086 5.66625ZM1.09503 13.4091C1.24644 15.5748 2.36683 17.5921 4.12312 18.8974L11.6025 24C11.6025 24 6.90896 17.3844 2.97245 10.7985C2.5788 10.1162 2.30627 9.34487 2.18515 8.54388C2.12458 8.18788 2.12458 7.83189 2.18515 7.47589C2.0943 7.65389 1.88234 8.03955 1.88234 8.03955C1.48869 8.84054 1.21616 9.70086 1.06475 10.5908C0.973911 11.5402 0.973911 12.4895 1.09503 13.4091ZM20.172 14.2991C19.9298 13.7948 19.3241 12.7862 19.3241 12.7862L12.3898 24L19.1727 19.4017C19.5664 19.1347 19.8995 18.7787 20.1417 18.3634C20.7473 17.0878 20.7776 15.6045 20.172 14.2991ZM22.8973 10.6205C22.7459 8.45487 21.6255 6.43757 19.8692 5.13226L12.42 0C12.42 0 17.1136 6.61557 21.0501 13.2015C21.4437 13.8838 21.7163 14.6551 21.8374 15.4561C21.898 15.8121 21.898 16.1681 21.8374 16.5241C21.9282 16.3461 22.1402 15.9604 22.1402 15.9604C22.5339 15.1594 22.8064 14.2991 22.9578 13.4388C23.0184 12.4598 23.0184 11.5402 22.8973 10.6205Z" fill="#85858E"/>
</svg>
