<svg width="24" height="24" viewBox="0 0 24 24" fill="none" xmlns="http://www.w3.org/2000/svg">
<path fill-rule="evenodd" clip-rule="evenodd" d="M3 6C3 4.34315 4.34315 3 6 3H12C13.6569 3 15 4.34315 15 6V9H16C17.6569 9 19 10.3431 19 12V15.5C19 15.7761 19.2239 16 19.5 16C19.7761 16 20 15.7761 20 15.5V8.82843C20 8.56321 19.8946 8.30886 19.7071 8.12132L18.2929 6.70711C17.9024 6.31658 17.9024 5.68342 18.2929 5.29289C18.6834 4.90237 19.3166 4.90237 19.7071 5.29289L21.1213 6.70711C21.6839 7.26972 22 8.03278 22 8.82843V15.5C22 16.8807 20.8807 18 19.5 18C18.1193 18 17 16.8807 17 15.5V12C17 11.4477 16.5523 11 16 11H15V19C15.5523 19 16 19.4477 16 20C16 20.5523 15.5523 21 15 21H3C2.44772 21 2 20.5523 2 20C2 19.4477 2.44772 19 3 19V6ZM6 10C6 9.44772 6.44772 9 7 9H11C11.5523 9 12 9.44772 12 10C12 10.5523 11.5523 11 11 11H7C6.44772 11 6 10.5523 6 10Z" fill="white"/>
</svg>
