<svg width="24" height="24" viewBox="0 0 24 24" fill="none" xmlns="http://www.w3.org/2000/svg">
<path fill-rule="evenodd" clip-rule="evenodd" d="M16.5219 8.4491C17.5057 7.63915 18.6032 7.33098 19.6558 7.4089C20.7786 7.49199 21.8176 8.01137 22.5936 8.76576C23.3695 9.52019 23.9026 10.5293 23.988 11.6183C24.0741 12.7173 23.7012 13.8683 22.7181 14.8785C22.6283 14.9715 22.5364 15.0633 22.4425 15.154C17.9836 19.4885 12.0606 19.5 12 19.5H11.9997C11.9694 19.5 6.02769 19.4998 1.55722 15.1535L1.55626 15.1524C1.46396 15.0622 1.37307 14.9713 1.28355 14.88L1.28284 14.8791C0.299307 13.8699 -0.0739189 12.7191 0.0119163 11.6201C0.096969 10.5313 0.629706 9.52207 1.40546 8.76737C2.18115 8.01271 3.22007 7.49292 4.34306 7.40947C5.39557 7.33125 6.49332 7.63904 7.47756 8.4486C7.5834 7.19996 8.13478 6.22815 8.93517 5.56006C9.78881 4.84749 10.9012 4.5 11.9998 4.5C13.0983 4.5 14.2107 4.84749 15.0643 5.56006C15.8647 6.22824 16.4162 7.20022 16.5219 8.4491ZM12.2039 19.0606L12.2037 19.0551H12.204L12.2039 19.0606ZM11.7957 19.0606L11.7955 19.0551H11.7959L11.7957 19.0606ZM15.3497 13.0417C15.2277 13.0417 15.1854 13.213 15.2632 13.3037C15.4009 13.4644 15.4839 13.6712 15.4839 13.8968C15.4839 14.4086 15.0571 14.8235 14.5307 14.8235C14.0042 14.8235 13.5774 14.4086 13.5774 13.8968C13.5774 13.8694 13.5407 13.8558 13.524 13.878C13.3737 14.0787 13.2722 14.3041 13.2305 14.5407C13.207 14.674 13.0956 14.7845 12.9556 14.7845H12.8783C12.6956 14.7845 12.5449 14.6404 12.5718 14.4659C12.7567 13.2701 13.9689 12.4028 15.3497 12.4028C16.7305 12.4028 17.9427 13.2701 18.1275 14.4659C18.1544 14.6404 18.0037 14.7845 17.8211 14.7845C17.6382 14.7845 17.4936 14.6396 17.4538 14.4674C17.2732 13.6836 16.4354 13.0417 15.3497 13.0417ZM6.88465 13.8968C6.88465 13.8606 6.8365 13.8413 6.81384 13.87C6.65312 14.0739 6.54361 14.3048 6.49725 14.5481C6.46989 14.6918 6.34961 14.8114 6.19824 14.8114H6.14151C5.95879 14.8114 5.80807 14.6674 5.835 14.4929C6.01977 13.2964 7.23213 12.4298 8.61287 12.4298C9.99358 12.4298 11.2059 13.2964 11.3907 14.4929C11.4177 14.6674 11.2669 14.8114 11.0842 14.8114C10.9015 14.8114 10.7568 14.6667 10.7171 14.4944C10.5365 13.7101 9.69875 13.0687 8.61287 13.0687C8.51416 13.0687 8.47803 13.2034 8.54411 13.2742C8.69763 13.4387 8.79118 13.6571 8.79118 13.8968C8.79118 14.4086 8.36439 14.8235 7.83791 14.8235C7.31144 14.8235 6.88465 14.4086 6.88465 13.8968ZM13.0602 16.1318C13.1894 16.007 13.3889 15.9463 13.5493 16.0308C13.7096 16.1155 13.7704 16.3118 13.6549 16.4486C13.2785 16.8935 12.6692 17.1757 11.9972 17.1757C11.3255 17.1757 10.7149 16.8966 10.3381 16.4482C10.2229 16.3112 10.2845 16.1149 10.4452 16.0308C10.6058 15.9468 10.8051 16.0083 10.934 16.1332C11.1824 16.374 11.5593 16.5368 11.9972 16.5368C12.4339 16.5368 12.8113 16.3723 13.0602 16.1318Z" fill="black"/>
</svg>
