<svg width="28" height="28" viewBox="0 0 28 28" fill="none" xmlns="http://www.w3.org/2000/svg">
<path d="M7.13526 21.9454C8.68656 19.9433 11.084 18.6667 14 18.6667C16.916 18.6667 19.3134 19.9433 20.8647 21.9454M7.13526 21.9454C8.97596 23.5371 11.3755 24.5 14 24.5C16.6245 24.5 19.024 23.5371 20.8647 21.9454M7.13526 21.9454C4.90878 20.02 3.5 17.1745 3.5 14C3.5 8.20101 8.20101 3.5 14 3.5C19.799 3.5 24.5 8.20101 24.5 14C24.5 17.1745 23.0912 20.02 20.8647 21.9454M17.5 11.6667C17.5 13.5997 15.933 15.1667 14 15.1667C12.067 15.1667 10.5 13.5997 10.5 11.6667C10.5 9.73367 12.067 8.16667 14 8.16667C15.933 8.16667 17.5 9.73367 17.5 11.6667Z" stroke="white" stroke-width="2" stroke-linejoin="round"/>
</svg>
