<svg width="28" height="28" viewBox="0 0 28 28" fill="none" xmlns="http://www.w3.org/2000/svg">
<g id="filter-2, sort">
<path id="vector" fill-rule="evenodd" clip-rule="evenodd" d="M2.33301 5.83317C2.33301 5.18884 2.85534 4.6665 3.49967 4.6665H24.4997C25.144 4.6665 25.6663 5.18884 25.6663 5.83317C25.6663 6.4775 25.144 6.99984 24.4997 6.99984H3.49967C2.85534 6.99984 2.33301 6.4775 2.33301 5.83317ZM5.83301 13.9998C5.83301 13.3555 6.35534 12.8332 6.99967 12.8332H20.9997C21.644 12.8332 22.1663 13.3555 22.1663 13.9998C22.1663 14.6442 21.644 15.1665 20.9997 15.1665H6.99967C6.35534 15.1665 5.83301 14.6442 5.83301 13.9998ZM9.33301 22.1665C9.33301 21.5222 9.85534 20.9998 10.4997 20.9998H17.4997C18.144 20.9998 18.6663 21.5222 18.6663 22.1665C18.6663 22.8108 18.144 23.3332 17.4997 23.3332H10.4997C9.85534 23.3332 9.33301 22.8108 9.33301 22.1665Z" fill="white"/>
</g>
</svg>
