<svg width="57" height="56" viewBox="0 0 57 56" fill="none" xmlns="http://www.w3.org/2000/svg">
<path fill-rule="evenodd" clip-rule="evenodd" d="M5.16667 28C5.16667 15.1133 15.6134 4.66663 28.5 4.66663C41.3866 4.66663 51.8333 15.1133 51.8333 28C51.8333 40.8866 41.3866 51.3333 28.5 51.3333C15.6134 51.3333 5.16667 40.8866 5.16667 28ZM37.8334 30.333C39.1221 30.333 40.1667 29.2883 40.1667 27.9997C40.1667 26.711 39.122 25.6663 37.8333 25.6664L30.8333 25.6666V18.6669C30.8333 17.3782 29.7887 16.3336 28.5 16.3336C27.2113 16.3336 26.1667 17.3782 26.1667 18.6669V25.6667L19.1666 25.6669C17.8779 25.6669 16.8333 26.7116 16.8333 28.0003C16.8334 29.289 17.8781 30.3336 19.1667 30.3336L26.1667 30.3334V37.3333C26.1667 38.622 27.2113 39.6666 28.5 39.6666C29.7887 39.6666 30.8333 38.622 30.8333 37.3333V30.3332L37.8334 30.333Z" fill="#57575C"/>
</svg>
