<svg width="40" height="40" viewBox="0 0 40 40" fill="none" xmlns="http://www.w3.org/2000/svg">
<path fill-rule="evenodd" clip-rule="evenodd" d="M23 15C23 14.4477 23.4477 14 24 14H29C29.5523 14 30 14.4477 30 15V20C30 20.5523 29.5523 21 29 21C28.4477 21 28 20.5523 28 20V17.4142L23.1213 22.2929C21.9497 23.4645 20.0503 23.4645 18.8787 22.2929L17.7071 21.1213C17.3166 20.7308 16.6834 20.7308 16.2929 21.1213L11.7071 25.7071C11.3166 26.0976 10.6834 26.0976 10.2929 25.7071C9.90237 25.3166 9.90237 24.6834 10.2929 24.2929L14.8787 19.7071C16.0503 18.5355 17.9497 18.5355 19.1213 19.7071L20.2929 20.8787C20.6834 21.2692 21.3166 21.2692 21.7071 20.8787L26.5858 16H24C23.4477 16 23 15.5523 23 15Z" fill="#FE6700"/>
</svg>
