<svg width="24" height="24" viewBox="0 0 24 24" fill="none" xmlns="http://www.w3.org/2000/svg">
<path fill-rule="evenodd" clip-rule="evenodd" d="M15 7C15 6.44772 15.4477 6 16 6H21C21.5523 6 22 6.44772 22 7V12C22 12.5523 21.5523 13 21 13C20.4477 13 20 12.5523 20 12V9.41421L15.1213 14.2929C13.9497 15.4645 12.0503 15.4645 10.8787 14.2929L9.70711 13.1213C9.31658 12.7308 8.68342 12.7308 8.29289 13.1213L3.70711 17.7071C3.31658 18.0976 2.68342 18.0976 2.29289 17.7071C1.90237 17.3166 1.90237 16.6834 2.29289 16.2929L6.87868 11.7071C8.05025 10.5355 9.94975 10.5355 11.1213 11.7071L12.2929 12.8787C12.6834 13.2692 13.3166 13.2692 13.7071 12.8787L18.5858 8H16C15.4477 8 15 7.55228 15 7Z" fill="#FE6700"/>
</svg>
